<svg height="52" viewBox="0 0 48 52" width="48" xmlns="http://www.w3.org/2000/svg" xmlns:xlink="http://www.w3.org/1999/xlink"><defs><path id="a" d="m10.2202858 49.9349257c.0787516-8.3259693.1181274-13.7657189.1181274-16.3192491 0-2.5535301-.1615852-6.6616729-.48475555-12.3244284l-1.62950095 3.824804c-1.21290389.2097607-2.80567507-.165146-4.77831355-1.1247201-1.91932393-.9336397-3.05856368-1.9127507-3.41771927-2.9373331l-.02812388-.0854872 4.72526396-11.80843482c.80828466-2.15399283 1.9352765-3.54601538 3.38097549-4.17606763l8.27726135-3.62110356 1.3174386-1.36290579c2.3533278.52153794 4.4532066.78286536 6.2996364.78398228 1.837436.00111148 3.9369309-.26021595 6.2984848-.78398228l1.3148686 1.36290579 8.1619141 3.57168801c1.502465.60477993 2.6687625 2.01327432 3.4988927 4.22548318l4.725264 11.80843482c-.3245903 1.0556395-1.4732047 2.0632462-3.4458431 3.0228203-1.9726385.9595741-3.5654097 1.3344808-4.7783136 1.1247201l-1.6295009-3.824804c-.3231704 5.4663301-.4847556 9.5744729-.4847556 12.3244284s.0397398 8.1897052.1192195 16.3192491c-.5352074.4644293-7.1577338 1.0650743-13.7802603 1.0650743-6.6225264 0-13.2450528-.600645-13.7802602-1.0650743z"/><linearGradient id="b" x1="50%" x2="50%" y1="18.498728%" y2="71.840981%"><stop offset="0" stop-color="#025aad"/><stop offset=".316969633" stop-color="#025aad" stop-opacity=".873317"/><stop offset="1" stop-color="#025aad" stop-opacity=".6"/></linearGradient><path id="c" d="m4.46039231 0v3.70620488c-.00005546.00915661 0 .01788399 0 .02662432 0 1.11674531-.90530094 2.02204625-2.02204625 2.02204625h-.41629981c-1.11674531 0-2.02204625-.90530094-2.02204625-2.02204625l.001-.0268292-.001.00020488v-3.70620488z"/><mask id="d" fill="#fff"><use fill="#fff" fill-rule="evenodd" xlink:href="#a"/></mask><mask id="e" fill="#fff"><use fill="#fff" fill-rule="evenodd" xlink:href="#c"/></mask></defs><g fill="none" fill-rule="evenodd" transform="translate(0 .5)"><use fill="#144387" xlink:href="#a"/><g mask="url(#d)"><g transform="translate(5.605261 3.91745)"><path d="m36.7894794 11.0140364s-1.0033862-1.50433381-3.0101587-4.51300134l-7.5781202 5.82667844-6.5420561-6.03527167-6.0258134 5.84406127-5.20780081-9.21721307-3.31576311 10.06666807-5.10976708-4.605539 7.34511443 9.2535123 1.08041576-8.98318469 4.18937501 10.89145489 6.8794863-8.9194054 6.1338167 10.7389722 8.1511125-11.005721c2.0067725.4386593 3.0101587.657989 3.0101587.657989z" fill="url(#b)" transform="matrix(-1 0 0 1 36.78948 0)"/><path d="m27.341722 0h1v48.00853h-1z" fill="#fcd81c"/><path d="m28.685252 0h1v48.00853h-1z" fill="#ed2333"/><g fill="url(#b)"><path d="m1.26740833 24.1339366c.11196548-.1653067 1.37664711-2.4196559 3.79404488-6.7630473l6.21101659 6.3969866 5.7046156-5.7850109 5.6200025 5.5743727 5.8370314-9.2283329 3.9897289 11.3533763 2.642053-2.5141107-4.8708818 8.0510338-2.8684125-10.63442-4.916895 9.4284904-5.4326265-5.3558099-4.8650023 8.3784944-7.05062989-12.05495c-2.64132873 2.2672584-3.90601036 3.3182342-3.79404488 3.1529275z"/><path d="m3.59286489 28.7562192 8.19827601 7.8651916 5.2736253-5.0880386 5.2130411 5.0880386 4.6976933-9.2368965c4.6403471 8.7339891 6.8479587 13.1009837 6.6228348 13.1009837s-2.4327355-2.6363866-6.6228348-7.9091597l-4.6976933 9.9472893-5.2130411-5.1844107-4.8998957 8.5198572z"/><path d="m3.59286489 40.1429552 8.19827601 7.8651915 5.2736253-5.0880386 5.2130411 5.0880386 4.6976933-9.2368965c4.6403471 8.7339892 6.8479587 13.1009837 6.6228348 13.1009837s-2.4327355-2.6363866-6.6228348-7.9091597l-4.6976933 9.9472893-5.2130411-5.1844107-4.8998957 8.5198573z"/></g></g></g><g fill="#144387" mask="url(#d)"><path d="m4.99752786 3.27877745 5.47526394 12.78319085c-.3245903 1.0556394-2.22320465 2.5884902-4.19584313 3.5480643-1.97263848.959574-3.56540966 1.3344807-4.77831355 1.1247201l-1.49863512-4.2689067.10079737-1.521817.10522808-1.4634054.07261357-.9431528.11261262-1.3660528.07753659-.8782511.0795058-.85229028.08147501-.82632963.12590479-1.19081815.1303355-1.13240658.08935185-.72248685.09132105-.69652616.09329027-.67056546.09525947-.64460477.09722868-.61864407.0991979-.59268337.1011671-.56672268.10313631-.54076198c.01735349-.08796361.03478902-.17484552.05230661-.26064573l.10609012-.50182094.10805934-.47586025c1.2999075.68642892 2.3248165 1.27932537 3.07510983 3.27877745z" transform="translate(38.277208 5.1313)"/><path d="m4.99752786 3.27877745 5.47526394 12.78319085c-.3245903 1.0556394-2.22320465 2.5884902-4.19584313 3.5480643-1.97263848.959574-3.56540966 1.3344807-4.77831355 1.1247201l-1.49863512-4.2689067.10079737-1.521817.10522808-1.4634054.07261357-.9431528.11261262-1.3660528.07753659-.8782511.0795058-.85229028.08147501-.82632963.12590479-1.19081815.1303355-1.13240658.08935185-.72248685.09132105-.69652616.09329027-.67056546.09525947-.64460477.09722868-.61864407.0991979-.59268337.1011671-.56672268.10313631-.54076198c.01735349-.08796361.03478902-.17484552.05230661-.26064573l.10609012-.50182094.10805934-.47586025c1.2999075.68642892 2.3248165 1.27932537 3.07510983 3.27877745z" transform="matrix(-1 0 0 1 9.722792 5.1313)"/></g><g fill="#ea2330" mask="url(#d)"><path d="m40.0072613 4.41863323c1.7858355-.24372109 3.4014246-.73380107 4.8467673-1.47023994 1.4453426-.73643887 2.7204389-1.71923663 3.8252887-2.94839329l1.1539141 2.49449074-8.672056 4.41863323zm-30.18129116 0c-1.78583555-.24372109-3.40142465-.73380107-4.84676732-1.47023994-1.44534266-.73643887-2.72043889-1.71923663-3.82528869-2.94839329l-1.15391413 2.49449074 8.672056 4.41863323z" transform="translate(-.916616 19.643642)"/></g><g fill="#000" fill-opacity=".2" fill-rule="nonzero" mask="url(#d)"><g transform="translate(7.564771 4.804976)"><path d="m30.4841488.07197842.2912372-.07197842.1092971.4591087.1073215.48486192c.0177224.08295654.0353624.16698623.0529202.25208909l.1043594.52349576.1023856.54925432c.0168998.09368905.0337174.18845146.0504528.28428728l.099426.58789613.0974539.61366001.0954824.63942601.0935116.66519414.0915414.69096441.1336198 1.0847705.0866191.75539938.0846514.78117709.0826844.80695693.1203399 1.25877723.0777697.8714159.1129711 1.3554756.0728594.9358881.1056087 1.4521939.1339453 2.0265452.0640315 1.0519716-.2994755.0177321-.0625778-1.0286827-.0973787-1.4966371-.1363907-1.9089167-.1072045-1.3667292-.1114119-1.3110431-.1156173-1.25535035-.0794133-.80595643-.1226213-1.16251397-.0840806-.74405927-.1296193-1.06965883-.088744-.68214959-.0906082-.65738223-.0924717-.63261284-.0943347-.60784148-.096197-.58306809-.0980586-.55829272-.0999196-.53351534-.10178-.50873596-.1036397-.48395458-.1054987-.45917119z" transform="matrix(-1 0 0 1 63.338786 0)"/><path d="m.2912372 0 .05489555.22633533.10830924.47198504.106334.49773934.10435944.52349576.10238557.54925432.10041238.57501499.09843988.6007778.14396285.94947664.13952854 1.00745493.09055667.70385033.08858757.72962379.12919079 1.14276558.12476417 1.20076782.08071801.83273893.07875233.858523.11444433 1.3361343.11002538 1.3941606.07089642.9616807.10266559 1.4908868.09825278 1.5489323.0317707.5292109-.2994755.0177321-.09456916-1.5337469-.0987831-1.4780811-.10299488-1.4224085-.1072045-1.3667292-.11141195-1.3110431-.11561723-1.25535035-.07941336-.80595643-.08128077-.78119907-.08314754-.7564397-.12822011-1.08823136-.08781166-.69453253-.08967618-.66976616-.09154007-.64499779-.09340331-.62022741-.09526591-.59545503-.09712787-.57068066-.09898919-.54590428-.10084987-.5211259-.1027099-.49634552-.10456929-.47156314c-.01758313-.07652854-.0352437-.1520244-.05298171-.22648754l-.05344633-.22029121z"/></g></g><g mask="url(#d)"><g transform="translate(29.255479 9)"><path d="m5.189042 0v5.03237" fill="#d8d8d8"/><path d="m5.1528099 4.92725716c0 1.42290916-1.15349579 2.57640495-2.57640495 2.57640495s-2.57640495-1.15349579-2.57640495-2.57640495v-4.92725716h5.1528099z" fill="#d2ae83"/><path d="m4.93998604 1.09467564v3.92786785c-.00006516.00872492 0 .01846319 0 .02821669 0 1.18353629-.95944573 2.14298203-2.14298203 2.14298203h-.44119812c-1.1835363 0-2.14298203-.95944574-2.14298203-2.14298203l.001-.02908454-.001.00086785v-3.92786785z" fill="#fff"/><g fill="none" transform="translate(.346209 1.266771)"><use fill="#e2001f" xlink:href="#c"/><path d="m2.230196 2.877438h2.230196v3.037554h-2.230196z" fill="#f6cd03" mask="url(#e)"/><path d="m0 2.877438h2.230196v3.037554h-2.230196z" fill="#f6cd03" mask="url(#e)"/><path d="m2.230196-.160116h2.230196v3.037554h-2.230196z" fill="#f6cd03" mask="url(#e)"/><g fill="#e2001f"><path d="m3.095294 0h1v2.877438h-1z" mask="url(#e)"/><path d="m3.960392 0h1v2.877438h-1z" mask="url(#e)"/><path d="m2.230196 0h1v2.877438h-1z" mask="url(#e)"/><path d="m1.730196 2.877438h1v2.877438h-1z" mask="url(#e)"/><path d="m.865098 2.877438h1v2.877438h-1z" mask="url(#e)"/><path d="m0 2.877438h1v2.877438h-1z" mask="url(#e)"/></g><circle cx="1.274944" cy="1.358661" fill="#f6cd03" mask="url(#e)" r="1"/><circle cx="3.345294" cy="4.137347" fill="#e2001f" mask="url(#e)" r="1"/></g></g></g><g mask="url(#d)"><g transform="translate(16.197322 -4.525724)"><path d="m0 0h13.5c-1.8609291 2.01346761-3.0499862 3.38818791-3.56717105 4.1241609-1.58151909 2.2505594-1.88389811 3.3758391-3.18282895 3.3758391s-1.25274335-1.1252797-2.83426243-3.3758391c-.5171849-.73597299-1.82243076-2.11069329-3.91573757-4.1241609z" fill="#003163" fill-rule="evenodd" transform="translate(1.052678 6.025724)"/><path d="m.09988847 4.40674159h15.40557863v1.5c-2.5675965.72019064-5.1351929 1.08028596-7.70278933 1.08028596s-5.13519287-.36009532-7.7027893-1.08028596z" fill="#9e141d" fill-rule="evenodd"/><g fill-rule="nonzero"><path d="m7.80267777 0c-4.2756138 0-7.80267777 2.35191208-7.80267777 5.375 0 1.26132683.88545025 2.46799199 2.72640329 3.85989257l.35105604.25876532.20347868.14474012.50501249.34429346.53386864.34475393.32849866.2029071 1.53318516 3.114164 3.23971891.001 1.57666953-3.1637911.2631468-.1388656.5507857-.3551423.4951464-.33719271.3773843-.27069525.3540912-.26716623.3314198-.26414573.2339903-.19635858c1.2640802-1.08975636 1.9122521-2.0601609 1.9934274-3.07597942l.0066886-.13424551.0004411-.11977171-.0053162-.15247118c-.2086003-2.95954059-3.6505331-5.16969118-7.79641903-5.16969118zm0 .25c4.02931783 0 7.34930423 2.13184578 7.54680713 4.93291267l.005007.14336187-.0003673.10917541-.0062919.12460577c-.074637.93327578-.6881723 1.8518244-1.9059614 2.90168721l-.2302897.19329033-.3263507.26011-.3490374.26334284-.3724542.26715924-.4900252.3337076-.545712.35186326-.3072944.1881915-1.5537077 3.0755923-2.931-.001-1.51015436-3.0258171-.3725401-.2521023-.52914255-.34168589-.50036887-.34114531-.19972206-.1420766-.34811669-.25660958c-1.78321943-1.34826125-2.62595537-2.49671662-2.62595537-3.65956322 0-2.85859845 3.39882742-5.125 7.55267777-5.125z" fill="#9e141d"/><path d="m7.67767777 0c-4.11696848 0-7.67767777 2.24396622-7.67767777 5.25 0 1.26825374.95667193 2.45964362 2.67679047 3.76018413l.34983376.25785286.2017616.14349684.50297296.34287321.53126455.34302606.32637666.2015669 1.54483362 3.0955165 3.086.001 1.54116638-3.0945165.3097459-.1897325.5483341-.35360127.4925243-.33545473.3748852-.26894812.3516603-.26537734.3287969-.26211124.231544-.19435734c1.1836305-1.02041445 1.8678941-1.97286954 1.9491898-2.99019503l.0064436-.13045507.0002893-.11392241-.0052381-.14772419c-.2074803-2.94257136-3.6797194-5.04912076-7.67149753-5.04912076zm0 1.5c3.41633563 0 6.04013203 1.73425357 6.17243963 3.60227581l.0052381.14772419-.0029085.07173663c-.0407504.50994627-.5099043 1.17747396-1.4202094 1.9623557l-.2018223.16997053-.2970263.23740856-.3222607.24370218-.3475658.24977275-.4701502.32041289-.5099379.32911402-.43669029.2692633-.23278411.13826344-1.93632223 3.8863898-1.93967777-3.8873898-.22849981-.13670179-.43652413-.26913625-.50976711-.32896376-.55926668-.38324607-.42250573-.30926936c-1.39623778-1.055662-2.08143654-1.93740413-2.08143654-2.56368277 0-1.92326891 2.6714386-3.75 6.17767777-3.75z" fill="#ea2330" transform="translate(.125 .125)"/></g></g></g></g></svg>