<svg height="52" viewBox="0 0 48 52" width="48" xmlns="http://www.w3.org/2000/svg" xmlns:xlink="http://www.w3.org/1999/xlink"><defs><path id="a" d="m10.2202858 49.9349257c.0787516-8.3259693.1181274-13.7657189.1181274-16.3192491 0-2.5535301-.1615852-6.6616729-.48475555-12.3244284l-1.62950095 3.824804c-1.21290389.2097607-2.80567507-.165146-4.77831355-1.1247201-1.91932393-.9336397-3.05856368-1.9127507-3.41771927-2.9373331l-.02812388-.0854872 4.72526396-11.80843482c.80828466-2.15399283 1.9352765-3.54601538 3.38097549-4.17606763l8.27726135-3.62110356 1.3174386-1.36290579c2.3533278.52153794 4.4532066.78286536 6.2996364.78398228 1.837436.00111148 3.9369309-.26021595 6.2984848-.78398228l1.3148686 1.36290579 8.1619141 3.57168801c1.502465.60477993 2.6687625 2.01327432 3.4988927 4.22548318l4.725264 11.80843482c-.3245903 1.0556395-1.4732047 2.0632462-3.4458431 3.0228203-1.9726385.9595741-3.5654097 1.3344808-4.7783136 1.1247201l-1.6295009-3.824804c-.3231704 5.4663301-.4847556 9.5744729-.4847556 12.3244284s.0397398 8.1897052.1192195 16.3192491c-.5352074.4644293-7.1577338 1.0650743-13.7802603 1.0650743-6.6225264 0-13.2450528-.600645-13.7802602-1.0650743z"/><path id="b" d="m4.99752786 3.27877745 5.47526394 12.78319085c-.3245903 1.0556394-2.22320465 2.5884902-4.19584313 3.5480643-1.97263848.959574-3.56540966 1.3344807-4.77831355 1.1247201l-1.49863512-4.2689067.10079737-1.521817.10522808-1.4634054.07261357-.9431528.11261262-1.3660528.07753659-.8782511.0795058-.85229028.08147501-.82632963.12590479-1.19081815.1303355-1.13240658.08935185-.72248685.09132105-.69652616.09329027-.67056546.09525947-.64460477.09722868-.61864407.0991979-.59268337.1011671-.56672268.10313631-.54076198c.01735349-.08796361.03478902-.17484552.05230661-.26064573l.10609012-.50182094.10805934-.47586025c1.2999075.68642892 2.3248165 1.27932537 3.07510983 3.27877745z"/><path id="c" d="m4.99752786 3.27877745 5.47526394 12.78319085c-.3245903 1.0556394-2.22320465 2.5884902-4.19584313 3.5480643-1.97263848.959574-3.56540966 1.3344807-4.77831355 1.1247201l-1.49863512-4.2689067.10079737-1.521817.10522808-1.4634054.07261357-.9431528.11261262-1.3660528.07753659-.8782511.0795058-.85229028.08147501-.82632963.12590479-1.19081815.1303355-1.13240658.08935185-.72248685.09132105-.69652616.09329027-.67056546.09525947-.64460477.09722868-.61864407.0991979-.59268337.1011671-.56672268.10313631-.54076198c.01735349-.08796361.03478902-.17484552.05230661-.26064573l.10609012-.50182094.10805934-.47586025c1.2999075.68642892 2.3248165 1.27932537 3.07510983 3.27877745z"/><path id="d" d="m.63122763.23091463c.94177812-.15394309 1.88355624-.23091463 2.82533435-.23091463.94177812 0 1.88355624.07697154 2.82533436.23091463.3635234.05797406.63093389.3714622.63122763.73957908v5.25459456c0 .26345906-.13823654.5075984-.36415686.64313689l-2.70656199 1.62377307c-.23749756.14248414-.53418872.14248414-.77168628 0l-2.70656198-1.62377307c-.22592032-.13553849-.36415686-.37967783-.36415686-.64313689v-5.25459456c.00029373-.36811688.26770423-.68160502.63122763-.73957908z"/><mask id="e" fill="#fff"><use fill="#fff" fill-rule="evenodd" xlink:href="#a"/></mask><mask id="f" fill="#fff"><use fill="#fff" fill-rule="evenodd" xlink:href="#b"/></mask><mask id="g" fill="#fff"><use fill="#fff" fill-rule="evenodd" xlink:href="#c"/></mask><mask id="h" fill="#fff"><use fill="#fff" fill-rule="evenodd" xlink:href="#d"/></mask></defs><g fill="none" fill-rule="evenodd" transform="translate(0 .5)"><use fill="#fff" xlink:href="#a"/><g fill="#fc1829" mask="url(#e)"><g transform="translate(12.376413)"><path d="m0 0h7.5v51.560909h-7.5z"/><path d="m15.75 0h7.5v51.560909h-7.5z"/><path d="m0 14.874384h23.25v9.125616h-23.25z"/></g></g><g mask="url(#e)"><g transform="translate(-1.873587 4.599276)"><path d="m9.44626757 0c1.34174953 4.96381276 2.01262433 10.9022097 2.01262433 17.8151907 0 10.3694715-4.35660842 8.4576559-4.35660842 8.4576559s-7.10228348-6.1135511-7.10228348-6.7848101c0-.6712589.32155119-7.930953.86401218-8.3056254.36164065-.2497816 2.44106442-3.64871073 6.2382713-10.19678736z" fill="#fff" fill-rule="evenodd"/><path d="m49.6570525 0c1.3417495 4.96381276 2.0126243 10.9022097 2.0126243 17.8151907 0 10.3694715-4.3566084 8.4576559-4.3566084 8.4576559s-7.1022835-6.1135511-7.1022835-6.7848101c0-.6712589.3215512-7.930953.8640122-8.3056254.3616406-.2497816 2.4410644-3.64871073 6.2382713-10.19678736z" fill="#fff" fill-rule="evenodd" transform="matrix(-1 0 0 1 91.880462 0)"/><g fill="#000" fill-opacity=".2" fill-rule="nonzero"><path d="m9.73750477.20570006.05489555.22633532.10830924.47198505.10633404.49773934.1043594.52349576.1023856.54925431.1004124.575015.0984398.6007778.1439629.94947663.1395285 1.00745493.0905567.70385034.0885876.72962379.1291908 1.14276557.1247641 1.20076782.080718.83273888.0787524.858523.1144443 1.3361344.1100254 1.3941605.0708964.9616807.1026656 1.4908869.0982528 1.5489322.0317707.529211-.2994755.017732-.0945692-1.5337468-.0987831-1.4780811-.1029949-1.4224085-.1072045-1.3667292-.1114119-1.3110432-.1156173-1.25535029-.0794133-.80595644-.0812808-.78119907-.0831475-.7564397-.1282201-1.08823136-.0878117-.69453253-.0896762-.66976616-.09154-.64499778-.0934034-.62022741-.0952659-.59545504-.09712784-.57068065-.09898919-.54590428-.10084986-.5211259-.1027099-.49634552-.10456929-.47156314c-.01758313-.07652855-.03524371-.15202441-.05298172-.22648755l-.05344633-.2202912z"/><path d="m39.9304163.27767848.2912372-.07197842.1092972.45910869.1073215.48486193c.0177223.08295654.0353624.16698622.0529201.25208909l.1043595.52349576.1023856.54925431c.0168998.09368905.0337174.18845146.0504527.28428728l.0994261.58789613.0974539.61366001.0954824.63942601.0935115.66519415.0915415.6909644.1336197 1.08477051.0866192.75539937.0846514.78117709.0826844.80695693.1203398 1.25877728.0777698.8714158.1129711 1.3554757.0728593.935888.1056088 1.452194.1339453 2.0265452.0640314 1.0519716-.2994755.017732-.0625777-1.0286826-.0973787-1.4966371-.1363907-1.9089167-.1072045-1.3667292-.1114119-1.3110432-.1156173-1.25535029-.0794133-.80595644-.1226213-1.16251396-.0840807-.74405927-.1296192-1.06965883-.088744-.6821496-.0906082-.65738222-.0924718-.63261285-.0943347-.60784147-.0961969-.5830681-.0980586-.55829272-.0999196-.53351534-.10178-.50873596-.1036397-.48395457-.1054987-.4591712z" transform="matrix(-1 0 0 1 82.231322 0)"/></g></g></g><g mask="url(#e)"><g transform="translate(38.277208 5.1313)"><use fill="#fff" xlink:href="#b"/><g fill="#fc1829" mask="url(#f)"><path d="m12.713748-.093779h3.75v20.791194h-3.75z" transform="matrix(.92050485 -.39073113 .39073113 .92050485 -10.8174 5.053981)"/><path d="m3.91283 3.44455h3.75v20.791194h-3.75z" transform="matrix(.92050485 -.39073113 .39073113 .92050485 -12.899565 1.896468)"/></g></g><g transform="matrix(-1 0 0 1 9.722792 5.1313)"><use fill="#fff" xlink:href="#c"/><g fill="#fc1829" mask="url(#g)"><path d="m12.713748-.093779h3.75v20.791194h-3.75z" transform="matrix(.92050485 -.39073113 .39073113 .92050485 -10.8174 5.053981)"/><path d="m3.91283 3.44455h3.75v20.791194h-3.75z" transform="matrix(.92050485 -.39073113 .39073113 .92050485 -12.899565 1.896468)"/></g></g></g><g fill="#fc1829" mask="url(#e)"><path d="m40.1989322 2.0833252c1.7018381.59359529 3.3638302.89039293 4.9859762.89039293s3.2044459-.29679764 4.7468997-.89039293l-.10433 2.74647357h-9.732876z" transform="matrix(.89100652 -.4539905 .4539905 .89100652 2.327325 40.455952)"/><path d="m.19167089 2.0833252c1.70183818.59359529 3.36383026.89039293 4.98597626.89039293s3.2044459-.29679764 4.74689972-.89039293l-.10433007 2.74647357h-9.73287598z" transform="matrix(-.89100652 -.4539905 -.4539905 .89100652 10.025945 22.293036)"/></g><g fill="#9e1023" fill-rule="nonzero" mask="url(#e)"><path d="m7.75267777 0c-4.2769656 0-7.75267777 2.37669376-7.75267777 5.325s3.47571217 5.325 7.75267777 5.325c4.27696563 0 7.75267773-2.37669376 7.75267773-5.325s-3.4757121-5.325-7.75267773-5.325zm0 .15c4.20356313 0 7.60267773 2.32431636 7.60267773 5.175s-3.3991146 5.175-7.60267773 5.175c-4.20356309 0-7.60267777-2.32431636-7.60267777-5.175s3.39911468-5.175 7.60267777-5.175z" transform="translate(16.247322 -4.475724)"/></g><g mask="url(#e)"><g transform="translate(16.297211 -4.400724)"><g fill-rule="evenodd"><path d="m.95278931 5.90072384h13.49999999c-.9750976 2.7232666-3.2250976 4.0848999-6.74999999 4.0848999-3.52490235 0-5.77490235-1.3616333-6.75-4.0848999z" fill="#a63737"/><path d="m0 4.28174159h15.4055786v1.5c-2.5675964.72019064-5.1351929 1.08028596-7.70278929 1.08028596-2.56759644 0-5.13519287-.36009532-7.70278931-1.08028596z" fill="#fc1829"/><path d="m0 3.32043788h15.4055786v1.5c-2.5675964.72019064-5.1351929 1.08028596-7.70278929 1.08028596-2.56759644 0-5.13519287-.36009532-7.70278931-1.08028596z" fill="#fc1829"/></g><path d="m7.70278931 0c4.24026439 0 7.67767779 2.35050506 7.67767779 5.25s-3.4374134 5.25-7.67767779 5.25c-4.24026435 0-7.67767778-2.35050506-7.67767778-5.25s3.43741343-5.25 7.67767778-5.25zm0 1.5c-3.50623918 0-6.17767778 1.82673109-6.17767778 3.75s2.6714386 3.75 6.17767778 3.75c3.50623919 0 6.17767779-1.82673109 6.17767779-3.75s-2.6714386-3.75-6.17767779-3.75z" fill="#fc1829" fill-rule="nonzero"/></g></g><g mask="url(#e)"><g transform="translate(28.437849 8.526519)"><g fill="none" fill-rule="evenodd"><use fill="#fff" xlink:href="#d"/><path d="m2.05666925 3.8794168h.93327612v4.89455271h-.93327612zm-1.86655222 1.11881537h.93327611v2.97043823h-.93327611zm3.73310445-2.46632592h.93327611v6.24206326h-.93327611zm1.86655222-1.71596989h.93327612v7.95803315h-.93327612z" fill="#ce3524" mask="url(#h)"/><path d="m6.77187808-.05269307-.00049445.041.49903315.61507269-7.42675596 6.0140684-.53127719-.65607269.687-.5560684.00061637-5.458zm-1.07549445.844h-4.853v3.93z" fill="#262f61" mask="url(#h)"/></g><path d="m3.45656198 0c.94248136 0 1.88496272.07708654 2.82744408.23125962.36272318.05943045.62903191.37282879.62911791.74038841v5.25320982c0 .26360201-.13831154.50787382-.36435445.64348586l-3.09220754 1.85513701-3.09220753-1.85513701c-.22604291-.13561204-.36435445-.37988385-.36435445-.64348586v-5.25320982c.000086-.36755962.26639473-.68095796.62911791-.74038841.94248136-.15417308 1.88496272-.23125962 2.82744407-.23125962zm0 .18760174c-.9323023 0-1.86465608.07625819-2.79711088.2287911-.26469969.04336977-.4609357.26706386-.4714091.5329991l-.00044026.02225609v5.25320982c0 .18979344.09560093.36622586.25324023.47002242l.0200256.01259197 2.99569441 1.79717105 2.99569442-1.79717105c.16275089-.09764067.26486186-.27038697.27277034-.45896409l.0004955-.0236503v-5.25316592c0-.27566864-.19979692-.5107246-.47180193-.55529133-.93250225-.15254067-1.86485602-.22879886-2.79715833-.22879886z" fill="#262f61" fill-rule="nonzero"/></g></g></g></svg>