<svg xmlns="http://www.w3.org/2000/svg" xmlns:xlink="http://www.w3.org/1999/xlink" width="48" height="52" viewBox="0 0 48 52"><defs><linearGradient id="c" x1="50%" x2="50%" y1="0%" y2="76.024%"><stop offset="0%" stop-color="#73C2EC"/><stop offset="100%" stop-color="#0166BE"/></linearGradient><linearGradient id="d" x1="50%" x2="50%" y1="0%" y2="76.024%"><stop offset="0%" stop-color="#5D73A5"/><stop offset="100%" stop-color="#323E5A"/></linearGradient><linearGradient id="e" x1="50%" x2="50%" y1="0%" y2="76.024%"><stop offset="0%" stop-color="#5D73A5"/><stop offset="100%" stop-color="#323E5A"/></linearGradient><linearGradient id="f" x1="50%" x2="50%" y1="0%" y2="76.024%"><stop offset="0%" stop-color="#5D73A5"/><stop offset="100%" stop-color="#323E5A"/></linearGradient><linearGradient id="g" x1="50%" x2="50%" y1="0%" y2="76.024%"><stop offset="0%" stop-color="#5D73A5"/><stop offset="100%" stop-color="#323E5A"/></linearGradient><linearGradient id="h" x1="50%" x2="50%" y1="0%" y2="76.024%"><stop offset="0%" stop-color="#5D73A5"/><stop offset="100%" stop-color="#323E5A"/></linearGradient><linearGradient id="i" x1="50%" x2="50%" y1="0%" y2="76.024%"><stop offset="0%" stop-color="#73C2EC"/><stop offset="100%" stop-color="#0166BE"/></linearGradient><linearGradient id="j" x1="50%" x2="50%" y1="0%" y2="76.024%"><stop offset="0%" stop-color="#73C2EC"/><stop offset="100%" stop-color="#0166BE"/></linearGradient><linearGradient id="k" x1="50%" x2="50%" y1="0%" y2="76.024%"><stop offset="0%" stop-color="#73C2EC"/><stop offset="100%" stop-color="#0166BE"/></linearGradient><linearGradient id="l" x1="50%" x2="50%" y1="0%" y2="76.024%"><stop offset="0%" stop-color="#73C2EC"/><stop offset="100%" stop-color="#0166BE"/></linearGradient><linearGradient id="m" x1="50%" x2="50%" y1="0%" y2="100%"><stop offset="0%" stop-color="red"/><stop offset="100%" stop-color="#FF6262"/></linearGradient><linearGradient id="n" x1="50%" x2="50%" y1="0%" y2="100%"><stop offset="0%" stop-color="red"/><stop offset="100%" stop-color="#FF6262"/></linearGradient><linearGradient id="o" x1="50%" x2="50%" y1="0%" y2="100%"><stop offset="0%" stop-color="red"/><stop offset="100%" stop-color="#FF6262"/></linearGradient><linearGradient id="p" x1="50%" x2="50%" y1="0%" y2="100%"><stop offset="0%" stop-color="red"/><stop offset="100%" stop-color="#FF6262"/></linearGradient><path id="a" d="M10.2202858,49.9349257 C10.2990374,41.6089564 10.3384132,36.1692068 10.3384132,33.6156766 C10.3384132,31.0621465 10.176828,26.9540037 9.85365765,21.2912482 L8.2241567,25.1160522 C7.01125281,25.3258129 5.41848163,24.9509062 3.44584315,23.9913321 C1.52651922,23.0576924 0.387279465,22.0785814 0.0281238815,21.053999 L0,20.9685118 L4.72526396,9.16007698 C5.53354862,7.00608415 6.66054046,5.6140616 8.10623945,4.98400935 L16.3835008,1.36290579 L17.7009394,0 C20.0542672,0.521537936 22.154146,0.782865363 24.0005758,0.783982281 C25.8380118,0.785093757 27.9375067,0.523766331 30.2990606,0 L31.6139292,1.36290579 L39.7758433,4.9345938 C41.2783083,5.53937373 42.4446058,6.94786812 43.274736,9.16007698 L48,20.9685118 C47.6754097,22.0241513 46.5267953,23.031758 44.5541569,23.9913321 C42.5815184,24.9509062 40.9887472,25.3258129 39.7758433,25.1160522 L38.1463424,21.2912482 C37.823172,26.7575783 37.6615868,30.8657211 37.6615868,33.6156766 C37.6615868,36.3656321 37.7013266,41.8053818 37.7808063,49.9349257 C37.2455989,50.399355 30.6230725,51 24.000546,51 C17.3780196,51 10.7554932,50.399355 10.2202858,49.9349257 Z"/><path id="q" d="M3.224328,7.82448825 C2.55577192,7.82448825 0.205224695,6.92164694 0.205224695,4.8341999 C0.205224695,4.50353737 0.689184965,2.54739121 0.689184965,2.44656979 C0.689184965,2.13308457 0.466470834,1.78161177 0.0210425705,1.39215137 L0,1.37386759 L1.42699517,0 C2.1440013,0.481768042 2.87183335,0.486585722 3.61049133,0.0144530412 L3.63287822,0 C4.37921831,0.486634385 5.11451266,0.486634385 5.83876127,0 L7.26575644,1.37386759 C6.8062998,1.77061897 6.57657148,2.12818636 6.57657148,2.44656979 C6.57657148,2.54739121 7.06053175,4.49251529 7.06053175,4.8341999 C7.06053175,6.92164694 4.70998452,7.82448825 4.04142844,7.82448825 C3.90423651,7.96120574 3.76805311,8.10304299 3.63287822,8.25 C3.43890679,8.04444978 3.30272339,7.90261253 3.224328,7.82448825 Z"/></defs><g fill="none" fill-rule="evenodd"><g transform="translate(0 .5)"><mask id="b" fill="#fff"><use xlink:href="#a"/></mask><use xlink:href="#a" fill="#2F3750"/><g fill="#000" fill-opacity=".1" mask="url(#b)"><path d="M40.0072613,4.41863323 C41.7930968,4.17491214 43.4086859,3.68483216 44.8540286,2.94839329 C46.2993712,2.21195442 47.5744675,1.22915666 48.6793173,-4.61852778e-14 L49.8332314,2.49449074 L41.1611754,6.91312397 L40.0072613,4.41863323 Z M9.82597014,4.41863323 C8.04013459,4.17491214 6.42454549,3.68483216 4.97920282,2.94839329 C3.53386016,2.21195442 2.25876393,1.22915666 1.15391413,6.35935749e-13 L0,2.49449074 L8.672056,6.91312397 L9.82597014,4.41863323 Z" transform="translate(-.917 19.644)"/></g><g mask="url(#b)"><g transform="translate(16.297 -.12)"><path fill="#6B6F7E" d="M13.8043904,1.61992224 C13.2864134,3.28484955 10.8349179,4.71927774 7.72790084,4.71927774 C4.62088381,4.71927774 2.16938826,3.28484955 1.65141128,1.61992224 Z"/><path fill="#2F3750" d="M13.6807273,0.000427850491 C13.8275735,0.314803608 13.9055786,0.640631236 13.9055786,0.969277738 C13.9055786,1.29468456 13.8291038,1.61732781 13.6850499,1.92882728 C11.6908291,2.36412373 9.69680923,2.58130529 7.70278931,2.58130529 C5.7277664,2.58130529 3.75274349,2.3682422 1.77772059,1.94211601 C1.62866923,1.62559143 1.55022307,1.29885199 1.55022307,0.969277738 C1.55022307,0.640631236 1.62822821,0.314803608 1.77507436,0.000427850491 Z M0.180532453,0.00100905717 C0.0949635705,0.314836365 0.0502230694,0.638484295 0.0502230694,0.969277738 C0.0502230694,1.15745368 0.0647012929,1.34331731 0.092937572,1.52637617 C0.0620869653,1.51838159 0.0310434826,1.50972678 0,1.50101933 L0,0.00101932697 Z"/></g></g><g fill="#000" fill-opacity=".2" fill-rule="nonzero" mask="url(#b)"><g transform="translate(7.573 4.805)"><path d="M30.4841488,0.0719784231 L30.775386,0 L30.8846831,0.459108697 L30.9920046,0.943970623 C31.009727,1.02692716 31.027367,1.11095685 31.0449248,1.19605971 L31.1492842,1.71955547 L31.2516698,2.26880979 C31.2685696,2.36249884 31.2853872,2.45726125 31.3021226,2.55309707 L31.4015486,3.1409932 L31.4990025,3.75465321 L31.5944849,4.39407922 L31.6879965,5.05927336 L31.7795379,5.75023777 L31.9131577,6.83500827 L31.9997768,7.59040765 L32.0844282,8.37158474 L32.1671126,9.17854167 L32.2874525,10.4373189 L32.3652222,11.3087348 L32.4781933,12.6642104 L32.5510527,13.6000985 L32.6566614,15.0522924 L32.7906067,17.0788376 L32.8546382,18.1308092 L32.5551627,18.1485413 L32.4925849,17.1198586 L32.3952062,15.6232215 L32.2588155,13.7143048 L32.151611,12.3475756 L32.0401991,11.0365325 L31.9245818,9.78118215 L31.8451685,8.97522572 L31.7225472,7.81271175 L31.6384666,7.06865248 L31.5088473,5.99899365 L31.4201033,5.31684406 L31.3294951,4.65946183 L31.2370234,4.02684899 L31.1426887,3.41900751 L31.0464917,2.83593942 L30.9484331,2.2776467 L30.8485135,1.74413136 L30.7467335,1.2353954 L30.6430938,0.751440821 L30.5375951,0.292269626 L30.4841488,0.0719784231 Z" transform="matrix(-1 0 0 1 63.339 0)"/><path d="M0.2912372,0 L0.346132747,0.226335328 L0.454441985,0.698320373 L0.560775986,1.19605971 L0.665135431,1.71955547 L0.767521003,2.26880979 L0.867933384,2.84382478 L0.966373258,3.44460258 L1.11033611,4.39407922 L1.24986465,5.40153415 L1.34042132,6.10538448 L1.42900889,6.83500827 L1.55819968,7.97777385 L1.68296385,9.17854167 L1.76368186,10.0112806 L1.84243419,10.8698036 L1.95687852,12.2059379 L2.0669039,13.6000985 L2.13780032,14.5617792 L2.24046591,16.052666 L2.33871869,17.6015983 L2.37048939,18.1308092 L2.07101389,18.1485413 L1.97644473,16.6147944 L1.87766163,15.1367133 L1.77466675,13.7143048 L1.66746225,12.3475756 L1.5560503,11.0365325 L1.44043307,9.78118215 L1.36101971,8.97522572 L1.27973894,8.19402665 L1.1965914,7.43758695 L1.06837129,6.34935559 L0.980559634,5.65482306 L0.890883448,4.9850569 L0.799343379,4.34005911 L0.705940068,3.7198317 L0.610674156,3.12437667 L0.513546285,2.55369601 L0.414557097,2.00779173 L0.313707232,1.48666583 L0.210997334,0.990320312 L0.106428043,0.518757175 C0.0888449136,0.442228629 0.0711843367,0.366732765 0.0534463251,0.292269626 L0,0.0719784231 L0.2912372,0 Z"/></g></g><line x1="18.111" x2="20.168" y1="7.642" y2="3.886" stroke="#2A324A" stroke-linecap="square" stroke-width=".2" mask="url(#b)"/><line x1="27.994" x2="29.909" y1="7.642" y2="3.807" stroke="#2A324A" stroke-linecap="square" stroke-width=".2" mask="url(#b)" transform="matrix(-1 0 0 1 57.902 0)"/><g mask="url(#b)"><g transform="translate(9 7)"><polygon fill="#0166BE" points="12 .156 15 0 15 44 12 44"/><path fill="#323E5A" d="M9,0.687957764 C9.55132257,0.560965984 10.0083335,0.465293376 10.3710327,0.400939941 C10.733732,0.336586506 11.276721,0.254829915 12,0.155670166 L12,44 L9,44 L9,0.687957764 Z"/><path fill="#0166BE" d="M21,0.696105957 C21.7158494,0.872803329 22.2520941,1.0165106 22.6087341,1.12722778 C22.9653742,1.23794496 23.4291295,1.40468284 24,1.62744141 L24,44 L21,44 L21,0.696105957 Z"/><polygon fill="#323E5A" points="18 .147 21 .696 21 44 18 44"/><polygon fill="#FD0000" points="15 0 18 .147 18 44 15 44"/><path fill="#FD0000" d="M24,1.62744141 C24.6902734,1.93181868 25.2066816,2.16973372 25.5492249,2.34118652 C25.8917681,2.51263932 26.3753598,2.77525326 27,3.12902832 L27,44 L24,44 L24,1.62744141 Z"/><path fill="#0166BE" d="M3,3.06259155 C3.61898863,2.70467303 4.10058653,2.44126564 4.4447937,2.27236938 C4.78900088,2.10347313 5.30740298,1.87619855 6,1.59054565 L6,44 L3,44 L3,3.06259155 Z"/><path fill="#FD0000" d="M6,1.59054565 C6.56725816,1.38915738 7.02983344,1.23187995 7.38772583,1.11871338 C7.74561822,1.0055468 8.28304294,0.846621429 9,0.641937256 L9,44 L6,44 L6,1.59054565 Z"/><g opacity=".622" transform="translate(0 .5)"><rect width="1" height="4" x="13" fill="url(#c)" opacity=".48"/><rect width="1" height="4" x="12" fill="url(#c)" opacity=".48" transform="matrix(1 0 0 -1 0 4)"/><rect width="1" height="4" x="9" y="1" fill="url(#d)" opacity=".48" transform="matrix(1 0 0 -1 0 6)"/><g opacity=".48" transform="translate(9 1)"><rect width="1" height="4" y="4" fill="url(#d)" transform="matrix(1 0 0 -1 0 12)"/><rect width="1" height="4" y="11" fill="url(#d)" transform="matrix(1 0 0 -1 0 26)"/><rect width="1" height="2" y="8" fill="url(#e)" transform="matrix(1 0 0 -1 0 18)"/><rect width="1" height="2" x="2" y="7" fill="url(#e)" transform="matrix(1 0 0 -1 0 16)"/><rect width="1" height="6" x="2" y="9" fill="url(#f)"/><rect width="1" height="4" x="2" y="4" fill="url(#d)"/><rect width="1" height="7" x="1" fill="url(#g)"/><rect width="1" height="8" x="1" y="7" fill="url(#h)"/><rect width="1" height="4" y="19" fill="url(#d)" transform="matrix(1 0 0 -1 0 42)"/><rect width="1" height="4" y="26" fill="url(#d)" transform="matrix(1 0 0 -1 0 56)"/><rect width="1" height="2" y="23" fill="url(#e)" transform="matrix(1 0 0 -1 0 48)"/><rect width="1" height="2" x="2" y="22" fill="url(#e)" transform="matrix(1 0 0 -1 0 46)"/><rect width="1" height="6" x="2" y="24" fill="url(#f)"/><rect width="1" height="4" x="2" y="19" fill="url(#d)"/><rect width="1" height="7" x="1" y="15" fill="url(#g)"/><rect width="1" height="8" x="1" y="22" fill="url(#h)"/><rect width="1" height="4" y="30" fill="url(#d)" transform="matrix(1 0 0 -1 0 64)"/><rect width="1" height="4" y="34" fill="url(#d)" transform="matrix(1 0 0 -1 0 72)"/><rect width="1" height="2" y="38" fill="url(#e)" transform="matrix(1 0 0 -1 0 78)"/><rect width="1" height="6" x="2" y="39" fill="url(#f)"/><rect width="1" height="4" x="2" y="34" fill="url(#d)"/><rect width="1" height="4" x="2" y="30" fill="url(#d)" transform="matrix(1 0 0 -1 0 64)"/><rect width="1" height="7" x="1" y="30" fill="url(#g)"/><rect width="1" height="8" x="1" y="37" fill="url(#h)"/><rect width="1" height="4" y="41" fill="url(#d)" transform="matrix(1 0 0 -1 0 86)"/></g><g opacity=".48" transform="matrix(-1 0 0 1 21 1)"><rect width="1" height="4" y="4" fill="url(#d)" transform="matrix(1 0 0 -1 0 12)"/><rect width="1" height="4" y="11" fill="url(#d)" transform="matrix(1 0 0 -1 0 26)"/><rect width="1" height="2" y="8" fill="url(#e)" transform="matrix(1 0 0 -1 0 18)"/><rect width="1" height="2" x="2" y="7" fill="url(#e)" transform="matrix(1 0 0 -1 0 16)"/><rect width="1" height="6" x="2" y="9" fill="url(#f)"/><rect width="1" height="4" x="2" y="4" fill="url(#d)"/><rect width="1" height="7" x="1" fill="url(#g)"/><rect width="1" height="8" x="1" y="7" fill="url(#h)"/><rect width="1" height="4" y="19" fill="url(#d)" transform="matrix(1 0 0 -1 0 42)"/><rect width="1" height="4" y="26" fill="url(#d)" transform="matrix(1 0 0 -1 0 56)"/><rect width="1" height="2" y="23" fill="url(#e)" transform="matrix(1 0 0 -1 0 48)"/><rect width="1" height="2" x="2" y="22" fill="url(#e)" transform="matrix(1 0 0 -1 0 46)"/><rect width="1" height="6" x="2" y="24" fill="url(#f)"/><rect width="1" height="4" x="2" y="19" fill="url(#d)"/><rect width="1" height="7" x="1" y="15" fill="url(#g)"/><rect width="1" height="8" x="1" y="22" fill="url(#h)"/><rect width="1" height="4" y="30" fill="url(#d)" transform="matrix(1 0 0 -1 0 64)"/><rect width="1" height="4" y="34" fill="url(#d)" transform="matrix(1 0 0 -1 0 72)"/><rect width="1" height="2" y="38" fill="url(#e)" transform="matrix(1 0 0 -1 0 78)"/><rect width="1" height="6" x="2" y="39" fill="url(#f)"/><rect width="1" height="4" x="2" y="34" fill="url(#d)"/><rect width="1" height="4" x="2" y="30" fill="url(#d)" transform="matrix(1 0 0 -1 0 64)"/><rect width="1" height="7" x="1" y="30" fill="url(#g)"/><rect width="1" height="8" x="1" y="37" fill="url(#h)"/><rect width="1" height="4" y="41" fill="url(#d)" transform="matrix(1 0 0 -1 0 86)"/></g><g opacity=".48" transform="matrix(-1 0 0 1 30 5)"><rect width="1" height="4" y="11" fill="url(#d)" transform="matrix(1 0 0 -1 0 26)"/><rect width="1" height="2" x="2" y="7" fill="url(#e)" transform="matrix(1 0 0 -1 0 16)"/><rect width="1" height="6" x="2" y="9" fill="url(#f)"/><rect width="1" height="4" x="2" y="4" fill="url(#d)"/><rect width="1" height="7" x="1" fill="url(#g)"/><rect width="1" height="8" x="1" y="7" fill="url(#h)"/><rect width="1" height="4" y="19" fill="url(#d)" transform="matrix(1 0 0 -1 0 42)"/><rect width="1" height="4" y="26" fill="url(#d)" transform="matrix(1 0 0 -1 0 56)"/><rect width="1" height="2" y="23" fill="url(#e)" transform="matrix(1 0 0 -1 0 48)"/><rect width="1" height="2" x="2" y="22" fill="url(#e)" transform="matrix(1 0 0 -1 0 46)"/><rect width="1" height="6" x="2" y="24" fill="url(#f)"/><rect width="1" height="4" x="2" y="19" fill="url(#d)"/><rect width="1" height="7" x="1" y="15" fill="url(#g)"/><rect width="1" height="8" x="1" y="22" fill="url(#h)"/><rect width="1" height="4" y="30" fill="url(#d)" transform="matrix(1 0 0 -1 0 64)"/><rect width="1" height="4" y="34" fill="url(#d)" transform="matrix(1 0 0 -1 0 72)"/><rect width="1" height="2" y="38" fill="url(#e)" transform="matrix(1 0 0 -1 0 78)"/><rect width="1" height="4" x="2" y="34" fill="url(#d)"/><rect width="1" height="4" x="2" y="30" fill="url(#d)" transform="matrix(1 0 0 -1 0 64)"/><rect width="1" height="7" x="1" y="30" fill="url(#g)"/><rect width="1" height="8" x="1" y="37" fill="url(#h)"/></g><g opacity=".48" transform="matrix(-1 0 0 1 3 4)"><rect width="1" height="4" y="4" fill="url(#d)" transform="matrix(1 0 0 -1 0 12)"/><rect width="1" height="4" y="11" fill="url(#d)" transform="matrix(1 0 0 -1 0 26)"/><rect width="1" height="2" y="8" fill="url(#e)" transform="matrix(1 0 0 -1 0 18)"/><rect width="1" height="7" x="1" fill="url(#g)"/><rect width="1" height="8" x="1" y="7" fill="url(#h)"/><rect width="1" height="4" y="19" fill="url(#d)" transform="matrix(1 0 0 -1 0 42)"/><rect width="1" height="4" y="26" fill="url(#d)" transform="matrix(1 0 0 -1 0 56)"/><rect width="1" height="2" y="23" fill="url(#e)" transform="matrix(1 0 0 -1 0 48)"/><rect width="1" height="2" x="2" y="22" fill="url(#e)" transform="matrix(1 0 0 -1 0 46)"/><rect width="1" height="6" x="2" y="24" fill="url(#f)"/><rect width="1" height="4" x="2" y="19" fill="url(#d)"/><rect width="1" height="7" x="1" y="15" fill="url(#g)"/><rect width="1" height="8" x="1" y="22" fill="url(#h)"/><rect width="1" height="4" y="30" fill="url(#d)" transform="matrix(1 0 0 -1 0 64)"/><rect width="1" height="4" y="34" fill="url(#d)" transform="matrix(1 0 0 -1 0 72)"/><rect width="1" height="2" y="38" fill="url(#e)" transform="matrix(1 0 0 -1 0 78)"/><rect width="1" height="6" x="2" y="39" fill="url(#f)"/><rect width="1" height="4" x="2" y="34" fill="url(#d)"/><rect width="1" height="4" x="2" y="30" fill="url(#d)" transform="matrix(1 0 0 -1 0 64)"/><rect width="1" height="7" x="1" y="30" fill="url(#g)"/><rect width="1" height="8" x="1" y="37" fill="url(#h)"/></g><rect width="1" height="4" x="11" y="1" fill="url(#d)" opacity=".48" transform="matrix(1 0 0 -1 0 6)"/><rect width="1" height="4" x="9" y="16" fill="url(#d)" opacity=".48" transform="matrix(1 0 0 -1 0 36)"/><rect width="1" height="4" x="11" y="16" fill="url(#d)" opacity=".48" transform="matrix(1 0 0 -1 0 36)"/><rect width="1" height="2" x="11" y="38" fill="url(#e)" opacity=".48" transform="matrix(1 0 0 -1 0 78)"/><rect width="1" height="2" x="12" y="13" fill="url(#i)" opacity=".48" transform="matrix(1 0 0 -1 0 28)"/><rect width="1" height="9" x="12" y="4" fill="url(#j)" opacity=".48" transform="matrix(1 0 0 -1 0 17)"/><rect width="1" height="6" x="13" y="9" fill="url(#k)" opacity=".48" transform="matrix(1 0 0 -1 0 24)"/><rect width="1" height="4" x="14" y="2" fill="url(#c)" opacity=".48" transform="matrix(1 0 0 -1 0 8)"/><rect width="1" height="4" x="13" y="5" fill="url(#c)" opacity=".48" transform="matrix(1 0 0 -1 0 14)"/><rect width="1" height="4" x="14" y="6" fill="url(#c)" opacity=".48" transform="matrix(1 0 0 -1 0 16)"/><rect width="1" height="5" x="14" y="10" fill="url(#l)" opacity=".48"/><rect width="1" height="4" x="13" y="15" fill="url(#c)" opacity=".48"/><rect width="1" height="4" x="12" y="15" fill="url(#c)" opacity=".48" transform="matrix(1 0 0 -1 0 34)"/><rect width="1" height="2" x="12" y="28" fill="url(#i)" opacity=".48" transform="matrix(1 0 0 -1 0 58)"/><rect width="1" height="9" x="12" y="19" fill="url(#j)" opacity=".48" transform="matrix(1 0 0 -1 0 47)"/><rect width="1" height="6" x="13" y="24" fill="url(#k)" opacity=".48" transform="matrix(1 0 0 -1 0 54)"/><rect width="1" height="4" x="14" y="17" fill="url(#c)" opacity=".48" transform="matrix(1 0 0 -1 0 38)"/><rect width="1" height="4" x="13" y="20" fill="url(#c)" opacity=".48" transform="matrix(1 0 0 -1 0 44)"/><rect width="1" height="4" x="14" y="21" fill="url(#c)" opacity=".48" transform="matrix(1 0 0 -1 0 46)"/><rect width="1" height="5" x="14" y="25" fill="url(#l)" opacity=".48"/><rect width="1" height="4" x="13" y="30" fill="url(#c)" opacity=".48"/><rect width="1" height="4" x="12" y="30" fill="url(#c)" opacity=".48" transform="matrix(1 0 0 -1 0 64)"/><rect width="1" height="9" x="12" y="34" fill="url(#j)" opacity=".48" transform="matrix(1 0 0 -1 0 77)"/><rect width="1" height="6" x="13" y="39" fill="url(#k)" opacity=".48" transform="matrix(1 0 0 -1 0 84)"/><rect width="1" height="4" x="14" y="32" fill="url(#c)" opacity=".48" transform="matrix(1 0 0 -1 0 68)"/><rect width="1" height="4" x="13" y="35" fill="url(#c)" opacity=".48" transform="matrix(1 0 0 -1 0 74)"/><rect width="1" height="4" x="14" y="36" fill="url(#c)" opacity=".48" transform="matrix(1 0 0 -1 0 76)"/><rect width="1" height="5" x="14" y="40" fill="url(#l)" opacity=".48"/><rect width="1" height="2" x="12" y="43" fill="url(#i)" opacity=".48" transform="matrix(1 0 0 -1 0 88)"/></g><g opacity=".622" transform="matrix(-1 0 0 1 6 3.5)"><rect width="1" height="4" x="1" fill="url(#c)" opacity=".48"/><rect width="1" height="4" fill="url(#c)" opacity=".48" transform="matrix(1 0 0 -1 0 4)"/><rect width="1" height="2" y="13" fill="url(#i)" opacity=".48" transform="matrix(1 0 0 -1 0 28)"/><rect width="1" height="9" y="4" fill="url(#j)" opacity=".48" transform="matrix(1 0 0 -1 0 17)"/><rect width="1" height="6" x="1" y="9" fill="url(#k)" opacity=".48" transform="matrix(1 0 0 -1 0 24)"/><rect width="1" height="4" x="2" y="2" fill="url(#c)" opacity=".48" transform="matrix(1 0 0 -1 0 8)"/><rect width="1" height="4" x="1" y="5" fill="url(#c)" opacity=".48" transform="matrix(1 0 0 -1 0 14)"/><rect width="1" height="4" x="2" y="6" fill="url(#c)" opacity=".48" transform="matrix(1 0 0 -1 0 16)"/><rect width="1" height="5" x="2" y="10" fill="url(#l)" opacity=".48"/><rect width="1" height="4" x="1" y="15" fill="url(#c)" opacity=".48"/><rect width="1" height="4" y="15" fill="url(#c)" opacity=".48" transform="matrix(1 0 0 -1 0 34)"/><rect width="1" height="2" y="28" fill="url(#i)" opacity=".48" transform="matrix(1 0 0 -1 0 58)"/><rect width="1" height="9" y="19" fill="url(#j)" opacity=".48" transform="matrix(1 0 0 -1 0 47)"/><rect width="1" height="6" x="1" y="24" fill="url(#k)" opacity=".48" transform="matrix(1 0 0 -1 0 54)"/><rect width="1" height="4" x="2" y="17" fill="url(#c)" opacity=".48" transform="matrix(1 0 0 -1 0 38)"/><rect width="1" height="4" x="1" y="20" fill="url(#c)" opacity=".48" transform="matrix(1 0 0 -1 0 44)"/><rect width="1" height="4" x="2" y="21" fill="url(#c)" opacity=".48" transform="matrix(1 0 0 -1 0 46)"/><rect width="1" height="5" x="2" y="25" fill="url(#l)" opacity=".48"/><rect width="1" height="4" x="1" y="30" fill="url(#c)" opacity=".48"/><rect width="1" height="4" y="30" fill="url(#c)" opacity=".48" transform="matrix(1 0 0 -1 0 64)"/><rect width="1" height="9" y="34" fill="url(#j)" opacity=".48" transform="matrix(1 0 0 -1 0 77)"/><rect width="1" height="6" x="1" y="39" fill="url(#k)" opacity=".48" transform="matrix(1 0 0 -1 0 84)"/><rect width="1" height="4" x="2" y="32" fill="url(#c)" opacity=".48" transform="matrix(1 0 0 -1 0 68)"/><rect width="1" height="4" x="1" y="35" fill="url(#c)" opacity=".48" transform="matrix(1 0 0 -1 0 74)"/><rect width="1" height="4" x="2" y="36" fill="url(#c)" opacity=".48" transform="matrix(1 0 0 -1 0 76)"/><rect width="1" height="5" x="2" y="40" fill="url(#l)" opacity=".48"/></g><g opacity=".622" transform="matrix(-1 0 0 1 24 1.5)"><rect width="1" height="4" x="1" fill="url(#c)" opacity=".48"/><rect width="1" height="4" fill="url(#c)" opacity=".48" transform="matrix(1 0 0 -1 0 4)"/><rect width="1" height="2" y="13" fill="url(#i)" opacity=".48" transform="matrix(1 0 0 -1 0 28)"/><rect width="1" height="9" y="4" fill="url(#j)" opacity=".48" transform="matrix(1 0 0 -1 0 17)"/><rect width="1" height="6" x="1" y="9" fill="url(#k)" opacity=".48" transform="matrix(1 0 0 -1 0 24)"/><rect width="1" height="4" x="2" y="2" fill="url(#c)" opacity=".48" transform="matrix(1 0 0 -1 0 8)"/><rect width="1" height="4" x="1" y="5" fill="url(#c)" opacity=".48" transform="matrix(1 0 0 -1 0 14)"/><rect width="1" height="4" x="2" y="6" fill="url(#c)" opacity=".48" transform="matrix(1 0 0 -1 0 16)"/><rect width="1" height="5" x="2" y="10" fill="url(#l)" opacity=".48"/><rect width="1" height="4" x="1" y="15" fill="url(#c)" opacity=".48"/><rect width="1" height="4" y="15" fill="url(#c)" opacity=".48" transform="matrix(1 0 0 -1 0 34)"/><rect width="1" height="2" y="28" fill="url(#i)" opacity=".48" transform="matrix(1 0 0 -1 0 58)"/><rect width="1" height="9" y="19" fill="url(#j)" opacity=".48" transform="matrix(1 0 0 -1 0 47)"/><rect width="1" height="6" x="1" y="24" fill="url(#k)" opacity=".48" transform="matrix(1 0 0 -1 0 54)"/><rect width="1" height="4" x="2" y="17" fill="url(#c)" opacity=".48" transform="matrix(1 0 0 -1 0 38)"/><rect width="1" height="4" x="1" y="20" fill="url(#c)" opacity=".48" transform="matrix(1 0 0 -1 0 44)"/><rect width="1" height="4" x="2" y="21" fill="url(#c)" opacity=".48" transform="matrix(1 0 0 -1 0 46)"/><rect width="1" height="5" x="2" y="25" fill="url(#l)" opacity=".48"/><rect width="1" height="4" x="1" y="30" fill="url(#c)" opacity=".48"/><rect width="1" height="4" y="30" fill="url(#c)" opacity=".48" transform="matrix(1 0 0 -1 0 64)"/><rect width="1" height="9" y="34" fill="url(#j)" opacity=".48" transform="matrix(1 0 0 -1 0 77)"/><rect width="1" height="6" x="1" y="39" fill="url(#k)" opacity=".48" transform="matrix(1 0 0 -1 0 84)"/><rect width="1" height="4" x="2" y="32" fill="url(#c)" opacity=".48" transform="matrix(1 0 0 -1 0 68)"/><rect width="1" height="4" x="1" y="35" fill="url(#c)" opacity=".48" transform="matrix(1 0 0 -1 0 74)"/><rect width="1" height="4" x="2" y="36" fill="url(#c)" opacity=".48" transform="matrix(1 0 0 -1 0 76)"/><rect width="1" height="5" x="2" y="40" fill="url(#l)" opacity=".48"/></g></g></g><g mask="url(#b)"><g transform="translate(15 9.5)"><rect width="1" height="8" x="2" y="10" fill="url(#m)"/><rect width="1" height="5" y="13" fill="url(#n)" transform="matrix(1 0 0 -1 0 31)"/><rect width="1" height="4" y="18" fill="url(#o)"/><rect width="1" height="7" x="1" y="18" fill="url(#p)" transform="matrix(1 0 0 -1 0 43)"/><rect width="1" height="7" x="1" y="26" fill="url(#p)" transform="matrix(1 0 0 -1 0 59)"/><rect width="1" height="4" x="1" y="32" fill="url(#o)" transform="matrix(1 0 0 -1 0 68)"/><rect width="1" height="5" x="2" y="18" fill="url(#n)"/><rect width="1" height="5" x="2" y="23" fill="url(#n)"/><rect width="1" height="5" y="22" fill="url(#n)"/><rect width="1" height="5" y="27" fill="url(#n)" transform="matrix(1 0 0 -1 0 59)"/><rect width="1" height="8" x="2" y="28" fill="url(#m)"/><rect width="1" height="5" y="31" fill="url(#n)" transform="matrix(1 0 0 -1 0 67)"/><rect width="1" height="4" y="36" fill="url(#o)"/><rect width="1" height="7" x="1" y="36" fill="url(#p)" transform="matrix(1 0 0 -1 0 79)"/><rect width="1" height="5" x="2" y="36" fill="url(#n)"/><rect width="1" height="5" y="40" fill="url(#n)"/><rect width="1" height="5" x="2" y="41" fill="url(#n)"/><rect width="1" height="4" fill="url(#o)"/><rect width="1" height="7" x="1" fill="url(#p)" transform="matrix(1 0 0 -1 0 7)"/><rect width="1" height="7" x="1" y="8" fill="url(#p)" transform="matrix(1 0 0 -1 0 23)"/><rect width="1" height="4" x="1" y="14" fill="url(#o)" transform="matrix(1 0 0 -1 0 32)"/><rect width="1" height="5" x="2" fill="url(#n)"/><rect width="1" height="5" x="2" y="5" fill="url(#n)"/><rect width="1" height="5" y="4" fill="url(#n)"/><rect width="1" height="5" y="9" fill="url(#n)" transform="matrix(1 0 0 -1 0 23)"/></g></g><g mask="url(#b)"><g transform="matrix(-1 0 0 1 27 7.5)"><rect width="1" height="8" x="2" y="10" fill="url(#m)"/><rect width="1" height="5" y="13" fill="url(#n)" transform="matrix(1 0 0 -1 0 31)"/><rect width="1" height="4" y="18" fill="url(#o)"/><rect width="1" height="7" x="1" y="18" fill="url(#p)" transform="matrix(1 0 0 -1 0 43)"/><rect width="1" height="7" x="1" y="26" fill="url(#p)" transform="matrix(1 0 0 -1 0 59)"/><rect width="1" height="4" x="1" y="32" fill="url(#o)" transform="matrix(1 0 0 -1 0 68)"/><rect width="1" height="5" x="2" y="18" fill="url(#n)"/><rect width="1" height="5" x="2" y="23" fill="url(#n)"/><rect width="1" height="5" y="22" fill="url(#n)"/><rect width="1" height="5" y="27" fill="url(#n)" transform="matrix(1 0 0 -1 0 59)"/><rect width="1" height="8" x="2" y="28" fill="url(#m)"/><rect width="1" height="5" y="31" fill="url(#n)" transform="matrix(1 0 0 -1 0 67)"/><rect width="1" height="4" y="36" fill="url(#o)"/><rect width="1" height="7" x="1" y="36" fill="url(#p)" transform="matrix(1 0 0 -1 0 79)"/><rect width="1" height="5" x="2" y="36" fill="url(#n)"/><rect width="1" height="5" y="40" fill="url(#n)"/><rect width="1" height="5" x="2" y="41" fill="url(#n)"/><rect width="1" height="4" fill="url(#o)"/><rect width="1" height="7" x="1" fill="url(#p)" transform="matrix(1 0 0 -1 0 7)"/><rect width="1" height="7" x="1" y="8" fill="url(#p)" transform="matrix(1 0 0 -1 0 23)"/><rect width="1" height="4" x="1" y="14" fill="url(#o)" transform="matrix(1 0 0 -1 0 32)"/><rect width="1" height="5" x="2" fill="url(#n)"/><rect width="1" height="5" x="2" y="5" fill="url(#n)"/><rect width="1" height="5" y="4" fill="url(#n)"/><rect width="1" height="5" y="9" fill="url(#n)" transform="matrix(1 0 0 -1 0 23)"/></g></g><g mask="url(#b)"><g transform="translate(33 10.5)"><rect width="1" height="8" x="2" y="10" fill="url(#m)"/><rect width="1" height="5" y="13" fill="url(#n)" transform="matrix(1 0 0 -1 0 31)"/><rect width="1" height="4" y="18" fill="url(#o)"/><rect width="1" height="7" x="1" y="18" fill="url(#p)" transform="matrix(1 0 0 -1 0 43)"/><rect width="1" height="7" x="1" y="26" fill="url(#p)" transform="matrix(1 0 0 -1 0 59)"/><rect width="1" height="4" x="1" y="32" fill="url(#o)" transform="matrix(1 0 0 -1 0 68)"/><rect width="1" height="5" x="2" y="18" fill="url(#n)"/><rect width="1" height="5" x="2" y="23" fill="url(#n)"/><rect width="1" height="5" y="22" fill="url(#n)"/><rect width="1" height="5" y="27" fill="url(#n)" transform="matrix(1 0 0 -1 0 59)"/><rect width="1" height="8" x="2" y="28" fill="url(#m)"/><rect width="1" height="5" y="31" fill="url(#n)" transform="matrix(1 0 0 -1 0 67)"/><rect width="1" height="4" y="36" fill="url(#o)"/><rect width="1" height="7" x="1" y="36" fill="url(#p)" transform="matrix(1 0 0 -1 0 79)"/><rect width="1" height="5" x="2" y="36" fill="url(#n)"/><rect width="1" height="5" y="40" fill="url(#n)"/><rect width="1" height="4" fill="url(#o)"/><rect width="1" height="7" x="1" fill="url(#p)" transform="matrix(1 0 0 -1 0 7)"/><rect width="1" height="7" x="1" y="8" fill="url(#p)" transform="matrix(1 0 0 -1 0 23)"/><rect width="1" height="4" x="1" y="14" fill="url(#o)" transform="matrix(1 0 0 -1 0 32)"/><rect width="1" height="5" x="2" fill="url(#n)"/><rect width="1" height="5" x="2" y="5" fill="url(#n)"/><rect width="1" height="5" y="4" fill="url(#n)"/><rect width="1" height="5" y="9" fill="url(#n)" transform="matrix(1 0 0 -1 0 23)"/></g></g></g><path stroke="#2F3750" stroke-linecap="square" stroke-width=".1" d="M9.11462402,12.5822449 C13.038208,9.19408162 18,7.5 24,7.5 C30,7.5 34.9579366,9.26441447 38.8738098,12.7932434"/><g transform="translate(27.737 10.898)"><g transform="translate(.333 .288)"><mask id="r" fill="#fff"><use xlink:href="#q"/></mask><use xlink:href="#q" fill="#235CAE"/><rect width="1" height="3.768" x="1.347" y="4.814" fill="#85233B" mask="url(#r)"/><rect width="1" height="3.768" x="3.182" y="4.814" fill="#85233B" mask="url(#r)"/><rect width="1" height="3.768" x="5.016" y="4.814" fill="#85233B" mask="url(#r)"/><rect width="3.641" height="3.75" fill="#D8D8D8" mask="url(#r)"/><rect width="3.641" height="3.75" x="3.641" fill="#D3AB29" mask="url(#r)"/></g><path fill="#D3AB29" fill-rule="nonzero" d="M7.93280206,1.67093729 L6.19724949,0 L6.04652518,0.101274107 C5.39773781,0.537204856 4.7602295,0.537204856 4.08901849,0.0995567096 L3.96673392,0.0198237842 L3.8217032,0.113456041 C3.15900563,0.537033869 2.52804714,0.532857416 1.88572998,0.101274107 L1.73500567,0 L0,1.67041075 L0.206716574,1.85002569 C0.607550802,2.20049671 0.797434325,2.50015841 0.797434325,2.73460149 C0.797434325,2.78884555 0.78848354,2.8578914 0.770078745,2.94495088 L0.72634885,3.12301726 L0.507403107,3.87353781 L0.445330875,4.11523714 C0.387967528,4.35577856 0.34564757,4.74486036 0.318371,5.28248253 C0.561703482,6.9504209 1.60866294,7.96760395 3.45924936,8.3340317 L3.9666282,8.86984233 L4.47249936,8.3340317 C6.4658773,8.00382133 7.51463788,6.9332213 7.61878111,5.1222316 C7.63768249,4.79354759 7.57038063,4.45766618 7.47969406,4.08523606 L7.44926989,3.96486092 L7.32728658,3.53602992 L7.2053943,3.12112806 L7.1834307,3.03686291 C7.15073334,2.90556661 7.13482084,2.80692691 7.13482084,2.73460149 C7.13482084,2.49612256 7.33124033,2.19039967 7.74605921,1.83219403 L7.93280206,1.67093729 Z M3.92120806,0.578398917 L3.96549936,0.551281705 L3.98024799,0.560817059 C4.66576505,0.957568661 5.35761005,0.982295237 6.02975189,0.634002924 L6.14124936,0.571531705 L7.27074936,1.6575317 L7.22009505,1.70716436 C6.86748552,2.06306331 6.68482084,2.4026949 6.68482084,2.73460149 C6.68482084,2.85066795 6.70597883,2.98182382 6.74709115,3.14689053 L6.80482017,3.35888136 L6.98323494,3.96475444 L7.04294511,4.19361713 C7.12531258,4.53191916 7.16878111,4.83296504 7.16878111,5.1222316 C7.16878111,6.66626287 5.48434614,7.88751995 4.3746778,7.88751995 L3.96549936,8.2087817 L3.55757736,7.88751995 C2.44790902,7.88751995 0.763474054,6.66626287 0.763474054,5.1222316 C0.763474054,4.84132598 0.804564763,4.54876042 0.882808197,4.22065283 L0.964950409,3.90783068 L1.12702373,3.36030636 L1.18484353,3.14816149 C1.22627633,2.98182382 1.24743432,2.85066795 1.24743432,2.73460149 L1.24212297,2.63623749 C1.21029234,2.34042475 1.03572997,2.03790748 0.727545419,1.72280015 L0.660999359,1.6575317 L1.78974936,0.570781705 L1.91547997,0.64067747 C2.57335962,0.976746918 3.25011961,0.955819724 3.92120806,0.578398917 Z"/><rect width="6.61" height="1.5" x=".661" y="3.602" fill="#D3AB29"/></g></g></svg>