<svg xmlns="http://www.w3.org/2000/svg" xmlns:xlink="http://www.w3.org/1999/xlink" width="48" height="52" viewBox="0 0 48 52"><defs><path id="a" d="M10.2202858,49.9349257 C10.2990374,41.6089564 10.3384132,36.1692068 10.3384132,33.6156766 C10.3384132,31.0621465 10.176828,26.9540037 9.85365765,21.2912482 L8.2241567,25.1160522 C7.01125281,25.3258129 5.41848163,24.9509062 3.44584315,23.9913321 C1.52651922,23.0576924 0.387279465,22.0785814 0.0281238815,21.053999 L0,20.9685118 L4.72526396,9.16007698 C5.53354862,7.00608415 6.66054046,5.6140616 8.10623945,4.98400935 L16.3835008,1.36290579 L17.7009394,0 C20.0542672,0.521537936 22.154146,0.782865363 24.0005758,0.783982281 C25.8380118,0.785093757 27.9375067,0.523766331 30.2990606,0 L31.6139292,1.36290579 L39.7758433,4.9345938 C41.2783083,5.53937373 42.4446058,6.94786812 43.274736,9.16007698 L48,20.9685118 C47.6754097,22.0241513 46.5267953,23.031758 44.5541569,23.9913321 C42.5815184,24.9509062 40.9887472,25.3258129 39.7758433,25.1160522 L38.1463424,21.2912482 C37.823172,26.7575783 37.6615868,30.8657211 37.6615868,33.6156766 C37.6615868,36.3656321 37.7013266,41.8053818 37.7808063,49.9349257 C37.2455989,50.399355 30.6230725,51 24.000546,51 C17.3780196,51 10.7554932,50.399355 10.2202858,49.9349257 Z"/><path id="c" d="M0.680431458,49.3181389 L0.741157649,19.6093871 L0,10.8124626 C0.670558616,9.23251198 1.15316795,8.14353123 1.44782801,7.54552033 C2.24089918,5.93598692 0.148914175,2.96650462 0.680431458,2.5930609 C0.792936106,2.5140152 4.40497669,0.614319964 6.4981535,0.0209362667 C6.97506898,-0.114262 7.70128294,0.405333095 8.67679536,1.57972155 C10.2719037,3.19211758 12.1516547,4.41090553 14.887227,4.40925076 L14.895182,4.40925076 C17.6307543,4.41090553 19.5397368,3.28903994 21.1348451,1.67664391 C22.5886428,0.854175183 23.5987796,0.439219897 24.1652556,0.431778052 C24.5882994,0.426220488 27.2508965,1.44757333 27.5769295,1.67664391 C28.0058995,1.97803794 29.1830741,2.4139804 29.782409,3.52050988 C30.153836,4.20626164 30.153836,6.63691255 29.782409,10.8124626 L29.0412513,19.6093871 L29.0894472,49.3181389 L0.680431458,49.3181389 Z"/></defs><g fill="none" fill-rule="evenodd" transform="translate(0 .5)"><mask id="b" fill="#fff"><use xlink:href="#a"/></mask><use xlink:href="#a" fill="#F8D80D"/><g mask="url(#b)"><g transform="translate(9.109 1.682)"><mask id="d" fill="#fff"><use xlink:href="#c"/></mask><use xlink:href="#c" fill="#F8D80D"/><polygon fill="#000" points="6.735 23.818 7.264 23.818 7.264 15.132 8.243 15.132 8.243 23.818 11.449 23.818 11.449 26.128 11.068 26.128 11.068 27.948 11.449 27.948 11.449 31.176 6.735 31.176 6.735 27.948 7.056 27.948 7.056 26.128 6.735 26.128" mask="url(#d)"/><path stroke="#000" stroke-width=".3" d="M1.8822529,18.1174813 L10.2469723,21.427932 L13.5633788,29.8077003 L3.87476979,28.4623451 L1.8822529,18.1174813 Z" mask="url(#d)" transform="rotate(45 7.74 23.935)"/><line x1="1.946" x2="7.946" y1="24.408" y2="24.408" stroke="#000" stroke-linecap="square" stroke-width=".3" mask="url(#d)"/><path fill="#F8D80D" d="M23.3908913,30.3070646 C23.388783,30.3712597 23.3866748,30.4354548 23.3845666,30.4996499 C21.7088008,30.6660092 20.034581,30.8766004 18.356707,30.981896 C17.3782048,31.0433511 16.3878965,30.8231697 15.4140324,30.9292482 C13.3469782,31.1543225 11.3212453,30.4515036 9.26543503,30.5241145 C8.5409049,30.5495577 8.58194521,22.6827214 10.5358575,22.741045 C14.4674349,22.8582794 18.3988717,22.9872567 22.3303085,23.1115369 C22.3324167,23.1996094 22.3345249,23.287682 22.3366332,23.3757545 C19.4805368,23.5834101 16.624581,23.7912613 13.7684846,23.9989168 C17.9529097,24.1556859 22.1491408,23.322911 26.3404527,24.5788256 C25.4919584,24.8085971 24.6433235,25.0385644 23.7946886,25.2685316 C23.7927209,25.3172651 23.7906127,25.3659986 23.788645,25.4149278 C24.1332711,25.5157219 24.4780378,25.6167118 24.8094524,25.7137873 C24.5365062,25.8635106 24.284783,26.0016867 24.0329191,26.139667 C24.0589207,26.2349811 24.0847817,26.3300995 24.1106427,26.4254135 C22.3349466,26.673191 23.728735,26.7859943 23.7255023,26.8668253 C25.9970554,26.9198646 23.317103,27.5171218 25.5886561,27.570161 C25.5902021,27.6850468 25.5916076,27.7999325 25.5930131,27.9148183 C25.2346131,28.0028908 24.8762132,28.0907677 24.4451494,28.1966505 C25.0142323,28.4397307 25.4933639,28.6442547 25.9904857,28.8564117 C25.2181689,29.2094848 24.5439553,29.5210659 23.8670713,29.8207084 C23.810149,29.8459558 23.7349552,29.7866536 23.6676323,29.7727577 C22.5789397,29.5480749 21.4917931,29.3055818 20.3995868,29.1198465 C20.2257277,29.0902933 20.0293807,29.3179119 19.8434344,29.4265347 C19.8550999,29.4801611 19.8667655,29.5339833 19.8784311,29.5876097 C21.0492043,29.8273627 22.2201181,30.0673115 23.3908913,30.3070646 Z" mask="url(#d)" transform="matrix(-1 0 0 1 35.174 0)"/><g mask="url(#d)"><path fill="#000" fill-rule="nonzero" d="M12.9248369 37.6739763C13.6084498 36.7985005 14.2525614 35.8883603 14.9853492 35.0572225 15.7648935 34.172879 16.4339957 33.2329114 16.9354193 32.1663786 17.1288946 31.7544374 17.3594527 31.3594252 17.5956539 30.96925 17.6480534 30.8829922 17.7915476 30.8523586 17.8415288 30.8249496 17.990666 30.624219 18.0769237 30.41059 18.2349286 30.3130462 18.8387329 29.9398 19.1805393 29.4214473 19.2635724 28.7192931 19.2869507 28.5209809 19.3466056 28.3258933 19.3998113 28.1332241 19.5013859 27.7688456 19.5046105 27.7696517 19.863346 27.6874247 19.8593152 27.6261575 19.8552845 27.5624719 19.8488353 27.4979801 19.8439984 27.4447744 19.8351308 27.3915687 19.8270693 27.3286892 20.0858426 27.1948687 20.4139445 27.1198971 20.5872662 26.9143295 20.9089189 26.5346342 21.1717229 26.0952839 21.402281 25.6510968 21.6957186 25.0867938 22.0407496 24.6071362 22.5953789 24.2508191 22.8726935 24.0726606 23.0282799 23.696996 23.2233675 23.40114 23.4426396 23.0682012 23.5885522 22.6659337 23.866673 22.3966805 24.4777326 21.8049685 24.9356242 21.1294171 25.2774306 20.3587404 25.4402724 19.9911373 25.6176248 19.6396571 26.0755164 19.5227657 26.1932139 19.4929383 26.3181667 19.2704417 26.3399327 19.1221106 26.4028121 18.6908218 26.5946752 18.4102826 27.0283824 18.2861359 27.470151 18.1595708 27.5967162 17.7524665 27.7676194 17.3880879 27.8982152 17.109161 27.9909221 16.7351087 28.444783 17.1139979 28.5084687 16.9535746 28.5326531 16.8334586 28.597951 16.742364 28.7043624 16.5932268 28.8123861 16.3957207 28.964748 16.3392904 29.2589917 16.2304605 29.4105474 16.0716495 29.4178027 15.7580583 29.4258642 15.4323748 29.4460179 15.1341003 29.8555406 14.9970553 30.0046779 14.9470742 30.076425 14.6641165 30.1973471 14.4633858 30.2295929 14.5399698 30.2529712 14.595594 30.2505528 14.5891448 30.3867917 14.4553244 30.5149691 14.2553999 30.6971583 14.1651114 31.3066056 13.8652246 31.6500243 13.3694441 31.8846132 12.7575783 31.9942492 12.4722022 32.0780885 12.1191098 32.5343678 12.1884384 32.5770936 12.1948876 32.7036587 11.9885139 32.7012403 11.8829086 32.6947911 11.5733481 32.8495714 11.4024449 33.1164061 11.3186056 33.5194797 11.1912343 33.7323026 10.899409 33.8298464 10.5156829 33.94835 10.0481176 34.2466245 9.77563981 34.665821 9.55314318 35.0995282 9.32258508 35.4840605 9.00012619 35.891971 8.72039311 35.9669426 8.66879969 36.0499758 8.62849233 36.133009 8.58092964 36.1434889 8.61720627 36.1588057 8.64864601 36.1531627 8.65267674 35.44859 9.20246914 35.0551902 9.9360631 34.7923862 10.7809054 34.6956485 11.0920782 34.4239769 11.3718113 34.178102 11.6096247 33.7355272 12.0393012 33.3864654 12.5157342 33.1784794 13.0977725 32.9979025 13.6040329 32.7101079 14.0264541 32.2272257 14.3013503 31.8168968 14.5351329 31.670178 14.9317574 31.6072985 15.3759445 31.5758588 15.6008596 31.5944002 15.9394414 31.462192 16.0232807 31.0808844 16.2635126 30.9478701 16.589196 30.8600001 16.9922696 30.8366218 17.0978749 30.6447588 17.1873573 30.5125506 17.246206 29.9692074 17.487244 29.6499731 17.9072467 29.479876 18.4626822 29.3267081 18.9641057 29.0518119 19.3486379 28.6011756 19.6630354 28.3206364 19.8589291 28.1787544 20.2611966 27.9885037 20.5780124 27.8619386 20.7884169 27.8006714 21.0721807 27.3484228 20.8948283 27.6934538 21.3051572 27.5249691 21.5042756 27.2444298 21.7412829 27.0557914 21.9009 26.9784012 22.191113 26.7897628 22.5353379 26.7325263 22.3733023 26.6938313 22.2652785 26.6551362 22.1564487 26.6228903 22.1814392 26.5906444 22.2056237 26.5592047 22.2306142 26.5487248 22.2628601 26.5414695 22.2967183 26.527765 22.328158 26.4431195 22.5240518 26.4108736 22.8086218 26.2617364 22.8997164 25.5071826 23.3616388 25.0742815 24.0428331 24.7856808 24.8465619 24.7542411 24.9336258 24.7002292 25.0142405 24.6526665 25.0948553 24.6325129 25.1287134 24.6010731 25.1553163 24.5551227 25.2069097 24.4591912 25.1649901 24.3584228 25.1214581 24.1754274 25.0416495 24.3181154 25.5954727 23.9174603 25.6873735 23.6183797 25.9114824 23.3999138 26.0751303 23.2483581 26.3887215 23.1693557 26.66523 23.0661688 27.0255778 22.9766865 27.3488429 22.6131141 27.5439305 22.4881613 27.6108407 22.4019035 27.7809378 22.3382179 27.9228197 22.2229388 28.1775622 22.0858938 28.3323425 21.7569858 28.1243565 21.747312 28.2549523 21.7150661 28.3484654 21.7392505 28.4226309 21.8247021 28.6870472 21.6836264 28.7878156 21.4853142 28.9296975 21.2990941 29.0627118 21.1048127 29.2932699 21.0709545 29.5060928 21.0056566 29.9156156 20.8089566 30.2009917 20.4542519 30.3315875 19.4183527 30.7128952 18.949175 31.5182362 18.6992694 32.5210834 18.6613805 32.6718329 18.5323969 32.8000103 18.445333 32.9386676L18.3195741 32.8838496 18.3534322 33.1635827C18.2695929 33.1917978 18.1849475 33.2337175 18.094659 33.2490343 17.388474 33.3715687 16.8717337 33.7585193 16.6210219 34.4211723 16.265511 35.36114 15.6157563 36.0092823 14.7757509 36.521992 14.3775142 36.7646423 14.0357078 37.0967749 13.659237 37.3781203 13.4601187 37.5272575 13.2432651 37.6522104 13.0352791 37.7876431L12.9240308 37.6747825 12.9248369 37.6739763ZM28.5447453 7.90618443C28.285972 8.50837639 28.0683123 9.12991589 27.7797116 9.71759721 27.4983662 10.2899617 27.1533352 10.8316927 26.829264 11.3822912 26.4777838 11.9796463 26.1222729 12.5745829 25.7595067 13.1654888 25.4749367 13.6282173 25.1694069 14.0788536 24.8880615 14.5431944 24.759078 14.7560173 24.6583096 14.9881877 24.5599596 15.2179396 24.4970801 15.3638523 24.4954678 15.6298809 24.4075978 15.6572899 23.8191103 15.8410914 23.6731977 16.4916522 23.1782233 16.7738037 23.0137693 16.8673168 22.9283177 17.1067425 22.8202939 17.2881257 22.7896603 17.3389129 22.815457 17.4203338 22.8049771 17.4864379 22.7074333 18.1200696 21.320054 19.6880259 20.6952899 19.8428062 20.433292 19.9081041 20.30189 20.0120971 20.3051146 20.3015039 20.3067269 20.465958 20.2454597 20.6497595 20.159202 20.7924476 19.814171 21.3664244 19.4643031 21.9395951 19.0838016 22.4909998 18.8838771 22.7812128 18.6065625 23.0037094 18.2994204 22.9561467 18.1373848 23.2616765 18.0293611 23.571237 17.8366919 23.8130812 17.0579961 24.7913757 16.5886143 26.0147225 15.8213492 26.9925951 15.1739394 27.8177131 14.2323605 28.3984368 13.5442272 29.2139651 13.3244728 29.474403 13.1706193 30.0420995 12.9458062 30.3118326 12.3872347 30.9820124 11.738484 31.355994 11.097666 31.8982843 11.0170513 31.9660007 10.5217121 31.4996948 10.3782179 31.5142055 10.4751368 31.3935434-3.52535229 21.9884672.845697333 16.1869783 3.49182943 12.6748915 17.6563694 1.3234335 23.8932269.0793672338 28.6915058-.877745684 28.8197112 7.14052601 28.9808709 6.99604423 28.8180292 7.33220761 28.6705042 7.61435914 28.5447453 7.90618443Z" transform="rotate(-144 20.28 28.187)"/></g></g></g><g fill="#0C0C0C" mask="url(#b)"><g transform="translate(-1.01 19.644)"><path d="M40.1989322,2.0833252 C41.9007703,2.67692049 43.5627624,2.97371813 45.1849084,2.97371813 C46.8070544,2.97371813 48.3893543,2.67692049 49.9318081,2.0833252 L49.8274781,4.82979877 L40.0946021,4.82979877 L40.1989322,2.0833252 Z" transform="rotate(-27 45.013 3.457)"/><path d="M0.191670888,2.0833252 C1.89350907,2.67692049 3.55550115,2.97371813 5.17764715,2.97371813 C6.79979315,2.97371813 8.38209305,2.67692049 9.92454687,2.0833252 L9.8202168,4.82979877 L0.0873408151,4.82979877 L0.191670888,2.0833252 Z" transform="scale(-1 1) rotate(-27 0 24.308)"/></g></g><g fill="#000" fill-opacity=".2" fill-rule="nonzero" mask="url(#b)"><g transform="translate(7.573 4.805)"><path d="M30.4841488,0.0719784231 L30.775386,0 L30.8846831,0.459108697 L30.9920046,0.943970623 C31.009727,1.02692716 31.027367,1.11095685 31.0449248,1.19605971 L31.1492842,1.71955547 L31.2516698,2.26880979 C31.2685696,2.36249884 31.2853872,2.45726125 31.3021226,2.55309707 L31.4015486,3.1409932 L31.4990025,3.75465321 L31.5944849,4.39407922 L31.6879965,5.05927336 L31.7795379,5.75023777 L31.9131577,6.83500827 L31.9997768,7.59040765 L32.0844282,8.37158474 L32.1671126,9.17854167 L32.2874525,10.4373189 L32.3652222,11.3087348 L32.4781933,12.6642104 L32.5510527,13.6000985 L32.6566614,15.0522924 L32.7906067,17.0788376 L32.8546382,18.1308092 L32.5551627,18.1485413 L32.4925849,17.1198586 L32.3952062,15.6232215 L32.2588155,13.7143048 L32.151611,12.3475756 L32.0401991,11.0365325 L31.9245818,9.78118215 L31.8451685,8.97522572 L31.7225472,7.81271175 L31.6384666,7.06865248 L31.5088473,5.99899365 L31.4201033,5.31684406 L31.3294951,4.65946183 L31.2370234,4.02684899 L31.1426887,3.41900751 L31.0464917,2.83593942 L30.9484331,2.2776467 L30.8485135,1.74413136 L30.7467335,1.2353954 L30.6430938,0.751440821 L30.5375951,0.292269626 L30.4841488,0.0719784231 Z" transform="matrix(-1 0 0 1 63.339 0)"/><path d="M0.2912372,0 L0.346132747,0.226335328 L0.454441985,0.698320373 L0.560775986,1.19605971 L0.665135431,1.71955547 L0.767521003,2.26880979 L0.867933384,2.84382478 L0.966373258,3.44460258 L1.11033611,4.39407922 L1.24986465,5.40153415 L1.34042132,6.10538448 L1.42900889,6.83500827 L1.55819968,7.97777385 L1.68296385,9.17854167 L1.76368186,10.0112806 L1.84243419,10.8698036 L1.95687852,12.2059379 L2.0669039,13.6000985 L2.13780032,14.5617792 L2.24046591,16.052666 L2.33871869,17.6015983 L2.37048939,18.1308092 L2.07101389,18.1485413 L1.97644473,16.6147944 L1.87766163,15.1367133 L1.77466675,13.7143048 L1.66746225,12.3475756 L1.5560503,11.0365325 L1.44043307,9.78118215 L1.36101971,8.97522572 L1.27973894,8.19402665 L1.1965914,7.43758695 L1.06837129,6.34935559 L0.980559634,5.65482306 L0.890883448,4.9850569 L0.799343379,4.34005911 L0.705940068,3.7198317 L0.610674156,3.12437667 L0.513546285,2.55369601 L0.414557097,2.00779173 L0.313707232,1.48666583 L0.210997334,0.990320312 L0.106428043,0.518757175 C0.0888449136,0.442228629 0.0711843367,0.366732765 0.0534463251,0.292269626 L0,0.0719784231 L0.2912372,0 Z"/></g></g><g fill="#0C0C0C" mask="url(#b)"><g transform="translate(28.505 9.27)"><path d="M2.9951816,1.2388868 C4.64937472,1.2388868 5.9903632,2.57987528 5.9903632,4.2340684 C5.9903632,5.88826152 4.64937472,7.22925 2.9951816,7.22925 C1.34098848,7.22925 0,5.88826152 0,4.2340684 C0,2.57987528 1.34098848,1.2388868 2.9951816,1.2388868 Z M2.9951816,1.68752908 C1.58876677,1.68752908 0.448642283,2.82765357 0.448642283,4.2340684 C0.448642283,5.64048323 1.58876677,6.78060772 2.9951816,6.78060772 C4.40159643,6.78060772 5.54172092,5.64048323 5.54172092,4.2340684 C5.54172092,2.82765357 4.40159643,1.68752908 2.9951816,1.68752908 Z"/><path fill-rule="nonzero" d="M1.95605985 0 1.84242419.23092471 1.75207166.296569667 1.49780985.333 1.68175631.512978076 1.7162679.619193847 1.67255985.87225 1.90035589.752941599 2.01203776.752941599 2.23955985.87225 2.19612575.619193847 2.23063734.512978076 2.41430985.333 2.16032199.296569667 2.06996946.23092471 1.95605985 0ZM4.05269185 0 3.9390562.23092471 3.84870366.296569667 3.59444185.333 3.77838831.512978076 3.81289991.619193847 3.76919185.87225 3.99698789.752941599 4.10866976.752941599 4.33619185.87225 4.29275775.619193847 4.32726935.512978076 4.51094185.333 4.25695399.296569667 4.16660146.23092471 4.05269185 0Z"/></g></g><g mask="url(#b)"><g transform="translate(16.247 -4.476)"><path fill="#AC9710" d="M1.00267777,5.97572384 L14.5026778,5.97572384 C13.5275801,8.69899044 11.2775801,10.0606237 7.75267777,10.0606237 C4.22777543,10.0606237 1.97777543,8.69899044 1.00267777,5.97572384 Z"/><path fill="#000" d="M0.0498884653,4.35674159 L15.4554671,4.35674159 L15.4554671,5.85674159 C12.8878706,6.57693223 10.3202742,6.93702755 7.75267777,6.93702755 C5.18508134,6.93702755 2.6174849,6.57693223 0.0498884653,5.85674159 L0.0498884653,4.35674159 Z"/><path fill="#000" d="M4.12031308,5.00371773 L11.5448903,4.92981844 L12.1619227,6.60240002 C10.9201542,6.82548504 9.45040595,6.93702755 7.75267777,6.93702755 C6.05494959,6.93702755 4.64626277,6.82548504 3.5266173,6.60240002 L4.12031308,5.00371773 Z"/><path fill="#0C0C0C" fill-rule="nonzero" d="M7.75267777,0.075 C11.9929421,0.075 15.4303555,2.42550506 15.4303555,5.325 C15.4303555,8.22449494 11.9929421,10.575 7.75267777,10.575 C3.51241342,10.575 0.075,8.22449494 0.075,5.325 C0.075,2.42550506 3.51241342,0.075 7.75267777,0.075 Z M7.75267777,1.575 C4.2464386,1.575 1.575,3.40173109 1.575,5.325 C1.575,7.24826891 4.2464386,9.075 7.75267777,9.075 C11.2589169,9.075 13.9303555,7.24826891 13.9303555,5.325 C13.9303555,3.40173109 11.2589169,1.575 7.75267777,1.575 Z"/><path fill="#111010" fill-rule="nonzero" d="M7.75267777,0 C3.47571217,0 0,2.37669376 0,5.325 C0,8.27330624 3.47571217,10.65 7.75267777,10.65 C12.0296434,10.65 15.5053555,8.27330624 15.5053555,5.325 C15.5053555,2.37669376 12.0296434,0 7.75267777,0 Z M7.75267777,0.15 C11.9562409,0.15 15.3553555,2.47431636 15.3553555,5.325 C15.3553555,8.17568364 11.9562409,10.5 7.75267777,10.5 C3.54911468,10.5 0.15,8.17568364 0.15,5.325 C0.15,2.47431636 3.54911468,0.15 7.75267777,0.15 Z"/></g></g></g></svg>