<svg xmlns="http://www.w3.org/2000/svg" xmlns:xlink="http://www.w3.org/1999/xlink" width="48" height="52" viewBox="0 0 48 52"><defs><linearGradient id="c" x1="100%" x2="0%" y1="50%" y2="50%"><stop offset="0%" stop-color="#18DFEF" stop-opacity=".052"/><stop offset="100%" stop-color="#0ABCDA"/></linearGradient><linearGradient id="d" x1="100%" x2="0%" y1="50%" y2="50%"><stop offset="0%" stop-color="#18DFEF" stop-opacity=".052"/><stop offset="100%" stop-color="#0ABCDA"/></linearGradient><path id="a" d="M10.2202858,49.9349257 C10.2990374,41.6089564 10.3384132,36.1692068 10.3384132,33.6156766 C10.3384132,31.0621465 10.176828,26.9540037 9.85365765,21.2912482 L8.2241567,25.1160522 C7.01125281,25.3258129 5.41848163,24.9509062 3.44584315,23.9913321 C1.52651922,23.0576924 0.387279465,22.0785814 0.0281238815,21.053999 L0,20.9685118 L4.72526396,9.16007698 C5.53354862,7.00608415 6.66054046,5.6140616 8.10623945,4.98400935 L16.3835008,1.36290579 L17.7009394,0 C20.0542672,0.521537936 22.154146,0.782865363 24.0005758,0.783982281 C25.8380118,0.785093757 27.9375067,0.523766331 30.2990606,0 L31.6139292,1.36290579 L39.7758433,4.9345938 C41.2783083,5.53937373 42.4446058,6.94786812 43.274736,9.16007698 L48,20.9685118 C47.6754097,22.0241513 46.5267953,23.031758 44.5541569,23.9913321 C42.5815184,24.9509062 40.9887472,25.3258129 39.7758433,25.1160522 L38.1463424,21.2912482 C37.823172,26.7575783 37.6615868,30.8657211 37.6615868,33.6156766 C37.6615868,36.3656321 37.7013266,41.8053818 37.7808063,49.9349257 C37.2455989,50.399355 30.6230725,51 24.000546,51 C17.3780196,51 10.7554932,50.399355 10.2202858,49.9349257 Z"/></defs><g fill="none" fill-rule="evenodd"><g transform="translate(0 .5)"><mask id="b" fill="#fff"><use xlink:href="#a"/></mask><use xlink:href="#a" fill="#07489F"/><g fill="#000" fill-opacity=".2" fill-rule="nonzero" mask="url(#b)"><g transform="translate(7.565 4.805)"><path d="M30.4841488,0.0719784231 L30.775386,0 L30.8846831,0.459108697 L30.9920046,0.943970623 C31.009727,1.02692716 31.027367,1.11095685 31.0449248,1.19605971 L31.1492842,1.71955547 L31.2516698,2.26880979 C31.2685696,2.36249884 31.2853872,2.45726125 31.3021226,2.55309707 L31.4015486,3.1409932 L31.4990025,3.75465321 L31.5944849,4.39407922 L31.6879965,5.05927336 L31.7795379,5.75023777 L31.9131577,6.83500827 L31.9997768,7.59040765 L32.0844282,8.37158474 L32.1671126,9.17854167 L32.2874525,10.4373189 L32.3652222,11.3087348 L32.4781933,12.6642104 L32.5510527,13.6000985 L32.6566614,15.0522924 L32.7906067,17.0788376 L32.8546382,18.1308092 L32.5551627,18.1485413 L32.4925849,17.1198586 L32.3952062,15.6232215 L32.2588155,13.7143048 L32.151611,12.3475756 L32.0401991,11.0365325 L31.9245818,9.78118215 L31.8451685,8.97522572 L31.7225472,7.81271175 L31.6384666,7.06865248 L31.5088473,5.99899365 L31.4201033,5.31684406 L31.3294951,4.65946183 L31.2370234,4.02684899 L31.1426887,3.41900751 L31.0464917,2.83593942 L30.9484331,2.2776467 L30.8485135,1.74413136 L30.7467335,1.2353954 L30.6430938,0.751440821 L30.5375951,0.292269626 L30.4841488,0.0719784231 Z" transform="matrix(-1 0 0 1 63.339 0)"/><path d="M0.2912372,0 L0.346132747,0.226335328 L0.454441985,0.698320373 L0.560775986,1.19605971 L0.665135431,1.71955547 L0.767521003,2.26880979 L0.867933384,2.84382478 L0.966373258,3.44460258 L1.11033611,4.39407922 L1.24986465,5.40153415 L1.34042132,6.10538448 L1.42900889,6.83500827 L1.55819968,7.97777385 L1.68296385,9.17854167 L1.76368186,10.0112806 L1.84243419,10.8698036 L1.95687852,12.2059379 L2.0669039,13.6000985 L2.13780032,14.5617792 L2.24046591,16.052666 L2.33871869,17.6015983 L2.37048939,18.1308092 L2.07101389,18.1485413 L1.97644473,16.6147944 L1.87766163,15.1367133 L1.77466675,13.7143048 L1.66746225,12.3475756 L1.5560503,11.0365325 L1.44043307,9.78118215 L1.36101971,8.97522572 L1.27973894,8.19402665 L1.1965914,7.43758695 L1.06837129,6.34935559 L0.980559634,5.65482306 L0.890883448,4.9850569 L0.799343379,4.34005911 L0.705940068,3.7198317 L0.610674156,3.12437667 L0.513546285,2.55369601 L0.414557097,2.00779173 L0.313707232,1.48666583 L0.210997334,0.990320312 L0.106428043,0.518757175 C0.0888449136,0.442228629 0.0711843367,0.366732765 0.0534463251,0.292269626 L0,0.0719784231 L0.2912372,0 Z"/></g></g><g mask="url(#b)"><g transform="translate(14.862 -4.476)"><path fill="#00124E" d="M2.38791518,5.97572384 L15.8879152,5.97572384 C14.9128175,8.69899044 12.6628175,10.0606237 9.13791518,10.0606237 C5.61301283,10.0606237 3.36301283,8.69899044 2.38791518,5.97572384 Z"/><path fill="#0ABCDA" d="M1.43512587,4.35674159 L16.8407045,4.35674159 L16.8407045,5.85674159 C14.273108,6.57693223 11.7055116,6.93702755 9.13791518,6.93702755 C6.57031874,6.93702755 4.00272231,6.57693223 1.43512587,5.85674159 L1.43512587,4.35674159 Z"/><path fill="#FFF" fill-rule="nonzero" d="M9.13791518,0.075 C13.3781795,0.075 16.815593,2.42550506 16.815593,5.325 C16.815593,8.22449494 13.3781795,10.575 9.13791518,10.575 C4.89765083,10.575 1.46023741,8.22449494 1.46023741,5.325 C1.46023741,2.42550506 4.89765083,0.075 9.13791518,0.075 Z M9.13791518,1.575 C5.63167601,1.575 2.96023741,3.40173109 2.96023741,5.325 C2.96023741,7.24826891 5.93845229,10.35 9.13791518,10.5 C12.3373781,10.65 15.315593,7.24826891 15.315593,5.325 C15.315593,3.40173109 12.6441544,1.575 9.13791518,1.575 Z"/><path fill="#FFF" fill-rule="nonzero" d="M9.13791518,0 L9.40745464,0.00317482349 C13.5228963,0.100270016 16.815593,2.41219645 16.815593,5.25 C16.815593,7.23989286 15.0249943,9.16961637 12.63938,10.0606237 C11.811256,10.291551 11.185727,10.4380097 10.7627931,10.5 C10.4058659,10.5523155 9.86160324,10.5773155 9.13000508,10.575 C9.2197953,10.4558661 9.22290742,10.1196099 9.51306777,9.9235693 C10.6341671,9.16612248 13.0969608,8.16156038 13.6564699,7.80177364 C14.705298,7.12733517 14.8940715,6.13814399 14.8940715,5.59043219 C14.8940715,3.54777226 12.5341977,1.60494478 9.39418888,1.50410528 L9.13791518,1.5 C5.87091718,1.5 3.38175881,3.49256523 3.38175881,5.59043219 C3.38175881,6.13814399 4.09249286,7.52816465 5.0695558,8.17994747 C5.89877944,8.73310909 7.71355129,9.27452701 8.72366957,9.9235693 C8.99184846,10.0958852 9.05828173,10.4773867 9.13000508,10.575 C8.32277848,10.525 7.63693862,10.4409232 7.07248549,10.3227697 C6.50803237,10.2046162 5.97215394,10.0511005 5.46485022,9.86222257 C3.07923591,8.9712152 1.46023741,7.23989286 1.46023741,5.25 C1.46023741,2.35050506 4.89765083,0 9.13791518,0 Z"/><path fill="#E4E4E4" fill-rule="nonzero" d="M9.13791518,0 C4.86094957,0 1.38523741,2.37669376 1.38523741,5.325 C1.38523741,8.27330624 4.86094957,10.65 9.13791518,10.65 C13.4148808,10.65 16.890593,8.27330624 16.890593,5.325 C16.890593,2.37669376 13.4148808,0 9.13791518,0 Z M9.13791518,0.15 C13.3414783,0.15 16.740593,2.47431636 16.740593,5.325 C16.740593,8.17568364 13.3414783,10.5 9.13791518,10.5 C4.93435209,10.5 1.53523741,8.17568364 1.53523741,5.325 C1.53523741,2.47431636 4.93435209,0.15 9.13791518,0.15 Z"/><rect width="1.5" height="4.977" x="8.388" y="10.537" fill="#07489F" stroke="#1466C2" stroke-width=".1"/><path fill="#065DB7" fill-rule="nonzero" d="M8.75704824,11.1158929 C8.5583191,11.314622 8.5583191,11.6368256 8.75704824,11.8355548 C8.95577738,12.0342839 9.27798098,12.0342839 9.47671012,11.8355548 C9.65737297,11.6548919 9.67379687,11.3721841 9.52598181,11.1729676 L9.47671012,11.1158929 L9.3706441,11.2219589 C9.5107946,11.3621094 9.5107946,11.5893383 9.3706441,11.7294888 C9.2304936,11.8696393 9.00326475,11.8696393 8.86311426,11.7294888 C8.73853604,11.6049105 8.72469401,11.4115297 8.82158818,11.271662 L8.86311426,11.2219589 L8.75704824,11.1158929 Z"/><path stroke="#0ABCDA" stroke-linecap="square" stroke-width=".1" d="M15.2288285,4.61169095 C15.52996,4.49355251 15.8521137,4.49355251 16.1952897,4.61169095 C16.5384656,4.72982939 16.5697868,5.07480009 16.2892533,5.64660306" transform="rotate(180 15.854 5.085)"/><path stroke="#0ABCDA" stroke-linecap="square" stroke-width=".1" d="M2.2288285,4.61169095 C2.52996,4.49355251 2.85211372,4.49355251 3.19528968,4.61169095 C3.53846564,4.72982939 3.56978684,5.07480009 3.2892533,5.64660306" transform="rotate(180 2.854 5.085)"/></g></g><g fill="#000" fill-opacity=".1" mask="url(#b)"><path d="M40.0072613,4.41863323 C41.7930968,4.17491214 43.4086859,3.68483216 44.8540286,2.94839329 C46.2993712,2.21195442 47.5744675,1.22915666 48.6793173,-4.61852778e-14 L49.8332314,2.49449074 L41.1611754,6.91312397 L40.0072613,4.41863323 Z M9.82597014,4.41863323 C8.04013459,4.17491214 6.42454549,3.68483216 4.97920282,2.94839329 C3.53386016,2.21195442 2.25876393,1.22915666 1.15391413,6.35935749e-13 L0,2.49449074 L8.672056,6.91312397 L9.82597014,4.41863323 Z" transform="translate(-.917 19.644)"/></g></g><path stroke="#0ABCDA" stroke-linecap="square" stroke-width=".1" d="M24.8937073,5.69326782 C25.4077294,5.51822427 25.8363284,5.48977172 26.1795044,5.60791016 C26.5226804,5.72604859 26.7262835,5.8997343 26.7903137,6.12896729"/><path stroke="#0ABCDA" stroke-linecap="square" stroke-width=".1" d="M20.9602661,5.60791016 C20.9602661,5.92590332 21.2090556,6.00084513 21.7066345,5.83273558 C22.2042135,5.66462603 22.5865377,5.73160113 22.8536072,6.03366089" transform="matrix(-1 0 0 1 43.814 0)"/><path stroke="url(#c)" stroke-linecap="square" stroke-width=".1" d="M26.4423828,4.87177329 C26.5855146,5.14592271 26.8286685,5.34206664 27.1718445,5.46020508 C27.5150204,5.57834352 27.7211769,5.46793092 27.7903137,5.12896729"/><path stroke="url(#d)" stroke-linecap="square" stroke-width=".1" d="M20.4423828,5.04324341 C20.4978885,5.20307942 20.6972293,5.34206664 21.0404053,5.46020508 C21.3835812,5.57834352 21.5897376,5.46793092 21.6588745,5.12896729" transform="matrix(-1 0 0 1 42.101 0)"/><g transform="translate(27 13)"><circle cx="3.5" cy="3.5" r="3.25" fill="#0B5DB1" stroke="#DBA111" stroke-width=".5"/><circle cx="3.5" cy="3.5" r="1.315" fill="#011963"/><circle cx="3.521" cy="3.521" r="2.333" fill="#FFF"/><circle cx="3.5" cy="3.5" r="1.315" fill="#011963"/></g><path stroke="#05397F" stroke-linecap="square" stroke-opacity=".568" stroke-width=".2" d="M26.5,6.5 C30.5393828,8.008298 33.2300566,9.47273485 34.5720215,10.8933105 C35.9139864,12.3138862 37.1958467,15.0546903 38.4176025,19.1157227"/><path stroke="#05397F" stroke-linecap="square" stroke-opacity=".568" stroke-width=".2" d="M9.5,6.5 C13.5393828,8.008298 16.2300566,9.47273485 17.5720215,10.8933105 C18.9139864,12.3138862 20.1958467,15.0546903 21.4176025,19.1157227" transform="matrix(-1 0 0 1 30.918 0)"/><path stroke="#0ABCDA" stroke-linecap="square" stroke-width=".1" d="M27.3010254,4.49194336 C27.794434,4.84685395 28.1059371,4.95304495 28.2355347,4.81051636 C28.5314617,4.48506236 28.1330725,4.00925048 28.3808899,3.94729614 C28.5175277,3.91313668 28.7720939,4.05500977 29.1851501,4.25967407 C29.2233482,4.27860072 29.0644462,4.01310377 29.2244263,3.62606452 C29.2785586,3.49510238 29.4614403,3.27351544 29.7730713,2.96130371 L29.8834516,3.90413711 C30.0286845,3.54108112 30.1408169,3.31000441 30.2198486,3.21090698 C30.4102112,2.97221255 30.635376,2.96130371 30.635376,2.96130371 C30.635376,2.96130371 30.4096516,3.26061202 30.635376,3.67700195 C30.6389962,3.6836801 31.0636902,3.44161188 31.0636902,2.69241333 C31.0636902,2.6695694 31.2145438,2.76864872 31.2784119,2.69241333 C31.394574,2.5537577 31.4372702,2.20034065 31.2784119,2.06417599"/><path stroke="#0ABCDA" stroke-linecap="square" stroke-width=".1" d="M16.5987098,4.49194336 C17.0921184,4.84685395 17.4036215,4.95304495 17.5332191,4.81051636 C17.8291461,4.48506236 17.4307569,4.00925048 17.6785743,3.94729614 C17.8152121,3.91313668 18.0697783,4.05500977 18.4828345,4.25967407 C18.5210326,4.27860072 18.3621306,4.01310377 18.5221107,3.62606452 C18.576243,3.49510238 18.6802019,3.2547573 18.8339874,2.9050293 L19.181136,3.90413711 C19.2030082,3.33716266 19.2534602,3.00412673 19.332492,2.9050293 C19.5228546,2.66633486 19.7908355,2.4078064 19.7908355,2.4078064 C19.7908355,2.4078064 19.6167163,2.96984054 19.8424407,3.38623047 C19.8460609,3.39290862 20.1480132,3.30794489 20.1480132,2.55874634 C20.1480132,2.5359024 20.2845236,2.36081181 20.3483917,2.28457642 C20.4645538,2.14592078 20.2563344,1.80732539 20.0974761,1.67116073" transform="matrix(-1 0 0 1 36.98 0)"/><path stroke="#FFF" stroke-linecap="square" stroke-width=".1" d="M19.3836524,2.52072144 C19.877061,2.87563203 20.1885641,2.98182303 20.3181617,2.83929443 C20.6140887,2.51384043 20.2156996,2.03802856 20.4635169,1.97607422 C20.6001548,1.94191476 20.8547209,2.08378785 21.2677772,2.28845215 C21.3059752,2.3073788 21.1470732,2.04188184 21.3070533,1.6548426 C21.3611856,1.52388045 21.4651445,1.28353538 21.61893,0.933807373 L21.9660786,1.93291518 C21.9879509,1.36594074 22.0384029,1.0329048 22.1174346,0.933807373 C22.3077972,0.695112939 22.5757781,0.436584473 22.5757781,0.436584473 C22.5757781,0.436584473 22.4016589,0.998618613 22.6273834,1.41500854 C22.6310036,1.42168669 22.9329559,1.33672296 22.9329559,0.587524414 C22.9329559,0.564680481 23.0694662,0.389589883 23.1333343,0.313354492 C23.2494964,0.174698859 23.0412771,-0.163896531 22.8824188,-0.300061193" transform="scale(-1 1) rotate(32 0 -72.896)"/><path stroke="#FFF" stroke-linecap="square" stroke-width=".1" d="M23.3165265,3.42693902 C23.8099351,3.78184962 24.1214382,3.88804062 24.2510358,3.74551202 C24.5469628,3.42005802 24.1485736,2.94424614 24.396391,2.88229181 C24.5330288,2.84813234 24.787595,2.99000544 25.2006512,3.19466974 C25.2388493,3.21359638 25.0799473,2.94809943 25.2399274,2.56106019 C25.2940597,2.43009804 25.3980186,2.18975296 25.5518041,1.84002496 L25.8989527,2.83913277 C25.9208249,2.27215832 25.9712769,1.93912239 26.0503087,1.84002496 C26.2406712,1.60133053 26.5086522,1.34280206 26.5086522,1.34280206 C26.5086522,1.34280206 26.334533,1.9048362 26.5602574,2.32122613 C26.5638776,2.32790428 26.8658299,2.24294055 26.8658299,1.493742 C26.8658299,1.47089807 26.7960224,1.14462004 26.8598905,1.06838465 C26.9237585,0.992149259 27.5191185,1.386521 27.5294955,1.37517718 C27.6550924,1.23787844 27.4410752,0.85861006 27.3676918,0.671646744 C27.3153787,0.538365326 28.3098788,0.760691988 28.3526318,1.05375571 C28.3953849,1.34681943 27.5816869,1.59905463 27.6954693,1.683926 C27.8092516,1.76879737 29.1699073,1.69499251 28.8194229,1.40193968 C28.5857666,1.20657112 28.4644928,0.865233536 28.4556014,0.377926914 C29.0815959,0.673462787 29.3829459,0.675395289 29.3596514,0.383724419" transform="scale(1 -1) rotate(38 32.415 0)"/></g></svg>