<svg xmlns="http://www.w3.org/2000/svg" xmlns:xlink="http://www.w3.org/1999/xlink" width="48" height="52" viewBox="0 0 48 52"><defs><polygon id="e" points="0 0 32.385 0 32.385 2.652 0 2.652"/><polygon id="g" points="0 0 33.385 0 33.385 2.652 0 2.652"/><polygon id="i" points="0 0 32.385 0 32.385 2.652 0 2.652"/><polygon id="k" points="0 0 65.385 0 65.385 2.652 0 2.652"/><polygon id="m" points="0 0 31 0 31 2.652 0 2.652"/><path id="a" d="M10.2202858,49.9349257 C10.2990374,41.6089564 10.3384132,36.1692068 10.3384132,33.6156766 C10.3384132,31.0621465 10.176828,26.9540037 9.85365765,21.2912482 L8.2241567,25.1160522 C7.01125281,25.3258129 5.41848163,24.9509062 3.44584315,23.9913321 C1.52651922,23.0576924 0.387279465,22.0785814 0.0281238815,21.053999 L0,20.9685118 L4.72526396,9.16007698 C5.53354862,7.00608415 6.66054046,5.6140616 8.10623945,4.98400935 L16.3835008,1.36290579 L17.7009394,0 C20.0542672,0.521537936 22.154146,0.782865363 24.0005758,0.783982281 C25.8380118,0.785093757 27.9375067,0.523766331 30.2990606,0 L31.6139292,1.36290579 L39.7758433,4.9345938 C41.2783083,5.53937373 42.4446058,6.94786812 43.274736,9.16007698 L48,20.9685118 C47.6754097,22.0241513 46.5267953,23.031758 44.5541569,23.9913321 C42.5815184,24.9509062 40.9887472,25.3258129 39.7758433,25.1160522 L38.1463424,21.2912482 C37.823172,26.7575783 37.6615868,30.8657211 37.6615868,33.6156766 C37.6615868,36.3656321 37.7013266,41.8053818 37.7808063,49.9349257 C37.2455989,50.399355 30.6230725,51 24.000546,51 C17.3780196,51 10.7554932,50.399355 10.2202858,49.9349257 Z"/><path id="c" d="M0.680431458,47.325 L0.741157649,17.6162482 L0,8.81932373 C1.46206754,5.23995442 2.60697111,3.1594851 3.43471069,2.57791576 C3.58089093,2.47520962 5.23305605,1.61590436 8.39120605,0 C9.98631435,1.61239603 12.1516547,2.41776666 14.887227,2.41611189 L14.895182,2.41611189 C17.6307543,2.41776666 19.7960946,1.61239603 21.391203,0 C24.2082657,1.37625668 25.8604308,2.23556194 26.3476983,2.57791576 C27.1754379,3.1594851 28.3203415,5.23995442 29.782409,8.81932373 L29.0412513,17.6162482 L29.0894472,47.325 L0.680431458,47.325 Z"/></defs><g fill="none" fill-rule="evenodd" transform="translate(0 .5)"><mask id="b" fill="#fff"><use xlink:href="#a"/></mask><use xlink:href="#a" fill="#E7E7E7"/><g mask="url(#b)"><g transform="translate(9.105 3.675)"><mask id="d" fill="#fff"><use xlink:href="#c"/></mask><use xlink:href="#c" fill="#E6E6E6"/><g mask="url(#d)"><g transform="translate(-3.105 41.825)"><mask id="f" fill="#fff"><use xlink:href="#e"/></mask><use xlink:href="#e" fill="#7BDDE5"/><path fill="#E6E6E6" d="M0,2.12414551 C0,2.12414551 0.236299528,-1.06225586 0.67039161,-1.27661133 C0.333159379,0.207397461 0.556573881,0.78125 0.556573881,0.78125 C0.556573881,0.78125 0.725264048,-0.857421875 1.12618089,-1.06225586 C0.706158665,0.850708008 1.2119041,1.10659127 1.26302875,1.21130371 C1.3141534,1.31601615 1.89372705,0.64885175 2.17179334,1.0793457 C2.44985964,1.50983966 1.89728305,2.1932373 1.89728305,2.1932373 C1.89728305,2.1932373 3.87557885,2.17687988 3.87557885,2.17687988 C3.87557885,2.17687988 3.87557885,0.380981445 4.50361279,0.291381836 C4.1483119,1.13720703 4.46029244,1.37390137 4.46029244,1.37390137 C4.46029244,1.37390137 4.57338,0.707643873 4.94947912,0.322631836 C5.32557823,-0.0623802009 6.23464938,-0.442504883 6.23464938,-0.442504883 C6.23464938,-0.442504883 7.15141157,-0.462768555 7.15141157,-0.462768555 C7.15141157,-0.462768555 7.03300263,0.380981445 6.67199974,0.623657227 C6.31099686,0.866333008 6.1797466,0.23468258 6.12135001,0.322631836 C5.70466012,0.950195313 6.5579406,1.11248047 6.57254808,1.45239258 C6.58715555,1.79230469 6.19910448,2.13195801 6.19910448,2.13195801 C6.19910448,2.13195801 8.20827991,2.13537598 8.20827991,2.13537598 C8.20827991,2.13537598 8.20827991,0.979858398 8.78062684,0.49194394 C8.35375481,1.76898193 8.56432132,2.12561035 8.56432132,2.12561035 C8.56432132,2.12561035 9.20590675,2.11535645 9.20590675,2.11535645 C9.20590675,2.11535645 9.58868088,1.29541016 9.49233939,0.205688477 C9.83756923,0.954589844 9.58868088,2.10144043 9.58868088,2.10144043 C9.58868088,2.10144043 10.545357,2.12182617 10.545357,2.12182617 C10.545357,2.12182617 10.2232939,1.19400967 10.7014584,0.950195312 C10.9022385,0.847818268 11.4889834,1.55846915 11.9032462,1.42944336 C12.3175091,1.30041757 11.9924787,0.715209961 11.9924787,0.548095703 C11.9924787,0.380981445 11.9806415,0.171120369 12.406873,0.244628906 C12.8331045,0.318137444 12.8081336,0.944315305 13.3274119,0.778320312 C13.8466901,0.61232532 13.9851406,-0.259887695 13.9851406,-0.259887695 C13.9851406,-0.259887695 14.730698,0.874613288 14.7985264,1.13720703 C14.8663547,1.39980077 14.7437488,1.71480288 14.4816584,1.66235352 C14.219568,1.60990415 14.0572749,0.87349079 13.8859851,0.954589844 C13.6138153,1.08345173 13.5947391,2.08227539 13.5947391,2.08227539 C13.5947391,2.08227539 17.0925794,2.09265137 17.0925794,2.09265137 C17.0925794,2.09265137 16.6512665,0.319114579 16.9141144,0.199462891 C17.1769622,0.0798112024 17.8579633,1.43781962 18.3741211,1.50927734 C18.8902789,1.58073506 19.1317465,1.09752106 19.3353885,0.534667969 C19.5390304,-0.0281851247 19.0730619,-0.535809405 19.1347819,-0.593139648 C19.196502,-0.650469892 20.1652793,-1.36397222 20.5128873,-0.559082031 C20.8604953,0.245808162 19.8577201,1.0208985 19.8839647,1.14160156 C19.9102094,1.26230462 20.550019,0.384814783 20.8030966,0.775634766 C21.0561742,1.16645475 20.529623,2.13867187 20.529623,2.13867187 C20.529623,2.13867187 22.1389924,2.13684082 22.1389924,2.13684082 C22.1389924,2.13684082 22.6218948,-0.407054752 22.6569852,-0.460327148 C22.6920757,-0.513599545 23.6617351,-1.09881138 23.8309296,-0.431762695 C24.0001241,0.235285987 23.0008851,0.882592543 23.0222831,0.979858398 C23.0436812,1.07712425 24.1001848,0.215041397 24.0810028,0.704956055 C24.0618207,1.19487071 22.9762229,2.15625 22.9762229,2.15625 C22.9762229,2.15625 25.0971426,2.16271973 25.0971426,2.16271973 C25.0971426,2.16271973 25.3916461,1.25520277 25.4456307,1.21130371 C25.4996153,1.16740465 25.6782885,1.58509363 26.1637117,1.29541016 C26.6491349,1.00572668 26.5650971,1.0104424 26.5557423,0.548828125 C26.5463875,0.087213849 26.0427776,-0.297594857 26.12987,-0.374511719 C26.2169624,-0.45142858 26.8951887,-0.769421682 27.6948082,-0.45715332 C28.4944278,-0.144884959 27.9751229,-0.0818063043 28.0494427,0.37512207 C28.1237624,0.832050445 28.1631001,0.880231192 27.9788712,1.28930664 C27.7946423,1.69838209 27.2698986,2.1060791 27.2698986,2.1060791 C27.2698986,2.1060791 29.3188399,2.11572266 29.3188399,2.11572266 C29.3188399,2.11572266 28.8801986,0.715768991 28.9652422,0.738525391 C29.0502857,0.76128179 29.6486669,2.20397949 29.6486669,2.20397949 C29.6486669,2.20397949 29.5982082,0.285235773 29.6865074,0.258911133 C29.7748067,0.232586493 30.0122616,2.09558105 30.0122616,2.09558105 C30.0122616,2.09558105 30.9010834,-0.467940021 31.1180782,-0.707763672 C31.3350731,-0.947587323 31.3526571,-0.367742022 31.5636484,0.380981445 C31.7746396,1.12970491 31.8469708,1.87878418 31.8469708,1.87878418 C31.8469708,1.87878418 31.8078468,1.99536133 31.7295986,2.22851562 C10.5765329,2.15893555 0,2.12414551 0,2.12414551 Z" mask="url(#f)"/><path fill="#00B2C5" d="M.108745176 2.12414551C.203191532.86905681.276947198.187802741.330012174.0803833008.409609638-.0807458602.406103695 1.38503833.541837558 1.24743652.677571421 1.10983471.727300475-.641845703.943420867-.641845703.809461028.741059133 1.02648235 1.01286671 1.08159205 1.24743652 1.09758573 1.31551227 1.21427162 1.41500597 1.31601287 1.40777588 1.56484325 1.39009313 1.77110205.964628956 2.02131994 1.24743652 2.17176866 1.41748047 2.09402653 1.7097168 1.78809356 2.12414551L.108745176 2.12414551ZM3.9635895 2.12414551C4.0652874 1.08272298 4.19048444.533325195 4.3391806.475952148 4.24340684 1.04260254 4.2837898 1.46177165 4.46032947 1.73345947 4.52037793 1.32707817 4.65678148.968110073 4.86954012.656555176 5.08229875.345000278 5.37869138.0701996597 5.75871799-.16784668L6.95876562-.268493652C6.80835353.19001316 6.67349272.43816176 6.55418321.475952148 6.4348737.513742537 6.28717724.355091821 6.11109383 5.55111512e-17 5.94708918.223462114 5.87899848.470512082 5.90682174.741149902 5.94855662 1.14710663 6.38659556 1.18607184 6.40485761 1.51544189 6.41703231 1.73502193 6.27658059 1.93792314 5.98350245 2.12414551L3.9635895 2.12414551ZM8.27333448 2.09667969C8.26870624 1.56455485 8.40536897 1.07578532 8.68332268.630371094 8.53175083 1.04762777 8.44743043 1.54060872 8.43036148 2.10931396 8.32567681 2.10089111 8.27333448 2.09667969 8.27333448 2.09667969ZM9.31989109 2.0958252C9.50486033 1.37811279 9.57886901.832885633 9.54191712.460143717 9.63617282.821533094 9.63617282 1.37125651 9.54191712 2.10931396 9.39389977 2.10032145 9.31989109 2.0958252 9.31989109 2.0958252ZM10.6080419 2.05282593C10.4541366 1.46882635 10.4921067 1.1392772 10.7219522 1.06417847 10.9141724 1.00137329 11.3758858 1.57455444 11.8360627 1.57455444 12.14273 1.57455444 12.2216693 1.27302551 12.1658527.983123779 12.1100361.693222046 12.042592.474970144 12.0975769.399749756 12.1525618.324529367 12.3883601.361022296 12.5581795.460143717 12.727999.559265137 12.9029465.963790894 13.2418264.927825928 13.5807063.891860962 13.8835229.460143717 14.0208891.0833129883 14.3629903.357452393 14.6617383 1.08635497 14.7171434 1.21087646 14.7725484 1.33539796 14.705904 1.48417583 14.6566245 1.52438354 14.6073449 1.56459126 14.4766969 1.57455444 14.3958508 1.47302246 14.3150047 1.37149048 14.0768168.821044922 13.8982592.821044922 13.7197017.821044922 13.6753248 1.17076863 13.5790401 1.47302246 13.5148504 1.67452502 13.4879387 1.87570706 13.4983051 2.0765686 11.571463 2.06074015 10.6080419 2.05282593 10.6080419 2.05282593ZM17.1728146 2.02276611C16.9361818.963277181 16.8663015.417236328 16.9631737.384643555 17.108482.335754395 17.9339726 1.62414551 18.4727026 1.62414551 19.0114327 1.62414551 19.0114327 1.5322406 19.3253544.883850098 19.5346356.451589761 19.5346356.0088916006 19.3253544-.444244385L20.4078447-.444244385C20.513257-.307366399 20.4934913-.0711298265 20.3485477.264465332 20.1311322.76785807 19.6909286 1.13455253 19.7457099 1.26156616 19.8004912 1.38857979 20.4821113.646945698 20.7116055.883850098 20.8646016 1.04178636 20.7884331 1.42142504 20.4830999 2.02276611L17.1728146 2.02276611ZM22.2384996 2.02276611C22.5381011.466573079 22.6879019-.311523437 22.6879019-.311523437 23.3670888-.499521037 23.7245187-.48801591 23.7601915-.277008057 23.8269308.125335693 22.8815361.835546422 22.9217207 1.0715332 22.9619053 1.30751998 23.90907.478849739 23.9366016.758972168 23.954956.945720454 23.6166624 1.38711653 22.9217207 2.0831604 22.46624 2.04289754 22.2384996 2.02276611 22.2384996 2.02276611ZM25.2402293 2.0831604C25.3171328 1.66004572 25.3889693 1.41915013 25.4557388 1.36047363 25.555893 1.27245889 25.6699708 1.5430603 25.8548228 1.5430603 26.0396748 1.5430603 26.5064053 1.30752563 26.5919352 1.04367065 26.6774651.779815674 26.6201491.584908994 26.5792908.307250977 26.5384326.0295929587 26.4968526-.213562012 26.4968526-.213562012 27.5388735-.226542155 28.059884-.233032227 28.059884-.233032227 28.0067279-.0411112999 27.9741142.154526721 27.9620429.353881836 27.943936.652914508 28.114127.750366211 27.9620429 1.10018921 27.8606536 1.33340454 27.6210773 1.65075684 27.243314 2.05224609 25.9079242 2.07285563 25.2402293 2.0831604 25.2402293 2.0831604ZM29.3450172 2.0831604C29.1104597 1.34068807 29.0094529.969451904 29.041997.969451904 29.074541.969451904 29.2364862 1.34068807 29.5278328 2.0831604L29.3450172 2.0831604ZM29.6902656 2.0831604C29.6606278 1.013421 29.6667803.480222804 29.708723.483565823 29.7506657.486929802 29.8253038 1.02658755 29.9326373 2.10253906 29.7710562 2.12980143 29.6902656 2.12334188 29.6902656 2.0831604ZM30.1055643 2.02944946C30.6782833.499949137 30.9646428-.264801025 30.9646428-.264801025 31.1770033-.409618131 31.307205-.406790168 31.3552479-.256317139 31.5197294.486146481 31.6836371 1.27794192 31.8469708 2.11906919 30.6860332 2.0593227 30.1055643 2.02944946 30.1055643 2.02944946Z" mask="url(#f)"/><polygon fill="#011963" points="0 1.958 32.385 1.958 32.385 2.291 0 2.291" mask="url(#f)"/></g></g><g mask="url(#d)"><g transform="matrix(-1 0 0 1 30.28 32.825)"><mask id="h" fill="#fff"><use xlink:href="#g"/></mask><use xlink:href="#g" fill="#7BDDE5"/><path fill="#E6E6E6" d="M0,2.12414551 C0,2.12414551 0.243596044,-1.06225586 0.69109213,-1.27661133 C0.343446757,0.207397461 0.573759909,0.78125 0.573759909,0.78125 C0.573759909,0.78125 0.747658934,-0.857421875 1.16095539,-1.06225586 C0.727963609,0.850708008 1.24932558,1.10659127 1.30202887,1.21130371 C1.35473216,1.31601615 1.95220202,0.64885175 2.23885452,1.0793457 C2.52550702,1.50983966 1.95586783,2.1932373 1.95586783,2.1932373 C1.95586783,2.1932373 3.99524994,2.17687988 3.99524994,2.17687988 C3.99524994,2.17687988 3.99524994,0.380981445 4.64267647,0.291381836 C4.27640451,1.13720703 4.59801847,1.37390137 4.59801847,1.37390137 C4.59801847,1.37390137 4.71459798,0.707643873 5.10231037,0.322631836 C5.49002277,-0.0623802009 6.42716445,-0.442504883 6.42716445,-0.442504883 C6.42716445,-0.442504883 7.37223465,-0.462768555 7.37223465,-0.462768555 C7.37223465,-0.462768555 7.25016945,0.380981445 6.87801943,0.623657227 C6.50586941,0.866333008 6.37056637,0.23468258 6.31036659,0.322631836 C5.88081005,0.950195313 6.76043834,1.11248047 6.77549687,1.45239258 C6.79055539,1.79230469 6.39052198,2.13195801 6.39052198,2.13195801 C6.39052198,2.13195801 8.46173724,2.13537598 8.46173724,2.13537598 C8.46173724,2.13537598 8.46173724,0.979858398 9.05175724,0.49194394 C8.61170415,1.76898193 8.82877258,2.12561035 8.82877258,2.12561035 C8.82877258,2.12561035 9.49016905,2.11535645 9.49016905,2.11535645 C9.49016905,2.11535645 9.88476258,1.29541016 9.78544623,0.205688477 C10.1413362,0.954589844 9.88476258,2.10144043 9.88476258,2.10144043 C9.88476258,2.10144043 10.8709792,2.12182617 10.8709792,2.12182617 C10.8709792,2.12182617 10.5389713,1.19400967 11.0319007,0.950195312 C11.2388805,0.847818268 11.8437431,1.55846915 12.2707977,1.42944336 C12.6978522,1.30041757 12.3627855,0.715209961 12.3627855,0.548095703 C12.3627855,0.380981445 12.3505828,0.171120369 12.7899756,0.244628906 C13.2293684,0.318137444 13.2036263,0.944315305 13.738939,0.778320312 C14.2742517,0.61232532 14.4169773,-0.259887695 14.4169773,-0.259887695 C14.4169773,-0.259887695 15.1855562,0.874613288 15.255479,1.13720703 C15.3254018,1.39980077 15.19901,1.71480288 14.9288267,1.66235352 C14.6586434,1.60990415 14.491339,0.87349079 14.3147601,0.954589844 C14.0341861,1.08345173 14.0145209,2.08227539 14.0145209,2.08227539 C14.0145209,2.08227539 17.6203683,2.09265137 17.6203683,2.09265137 C17.6203683,2.09265137 17.1654285,0.319114579 17.4363926,0.199462891 C17.7073568,0.0798112024 18.4093859,1.43781962 18.9414818,1.50927734 C19.4735777,1.58073506 19.7225014,1.09752106 19.9324314,0.534667969 C20.1423615,-0.0281851247 19.6620047,-0.535809405 19.7256305,-0.593139648 C19.7892564,-0.650469892 20.7879479,-1.36397222 21.1462894,-0.559082031 C21.5046309,0.245808162 20.4708918,1.0208985 20.4979468,1.14160156 C20.5250018,1.26230462 21.1845676,0.384814783 21.4454598,0.775634766 C21.706352,1.16645475 21.1635419,2.13867187 21.1635419,2.13867187 C21.1635419,2.13867187 22.8226058,2.13684082 22.8226058,2.13684082 C22.8226058,2.13684082 23.3204193,-0.407054752 23.3565933,-0.460327148 C23.3927673,-0.513599545 24.3923681,-1.09881138 24.566787,-0.431762695 C24.741206,0.235285987 23.7111122,0.882592543 23.733171,0.979858398 C23.7552298,1.07712425 24.8443564,0.215041397 24.824582,0.704956055 C24.8048077,1.19487071 23.6856884,2.15625 23.6856884,2.15625 C23.6856884,2.15625 25.8720984,2.16271973 25.8720984,2.16271973 C25.8720984,2.16271973 26.1756957,1.25520277 26.2313473,1.21130371 C26.2869988,1.16740465 26.4711892,1.58509363 26.9716014,1.29541016 C27.4720135,1.00572668 27.3853809,1.0104424 27.3757372,0.548828125 C27.3660935,0.087213849 26.846933,-0.297594857 26.9367147,-0.374511719 C27.0264964,-0.45142858 27.7256651,-0.769421682 28.5499755,-0.45715332 C29.3742859,-0.144884959 28.8389458,-0.0818063043 28.9155604,0.37512207 C28.992175,0.832050445 29.0327274,0.880231192 28.8428098,1.28930664 C28.6528923,1.69838209 28.1119454,2.1060791 28.1119454,2.1060791 C28.1119454,2.1060791 30.2241544,2.11572266 30.2241544,2.11572266 C30.2241544,2.11572266 29.7719686,0.715768991 29.8596382,0.738525391 C29.9473078,0.76128179 30.5641659,2.20397949 30.5641659,2.20397949 C30.5641659,2.20397949 30.5121491,0.285235773 30.6031749,0.258911133 C30.6942006,0.232586493 30.9389878,2.09558105 30.9389878,2.09558105 C30.9389878,2.09558105 31.8552548,-0.467940021 32.0789501,-0.707763672 C32.3026453,-0.947587323 32.3207723,-0.367742022 32.5382786,0.380981445 C32.7557849,1.12970491 32.8303496,1.87878418 32.8303496,1.87878418 C32.8303496,1.87878418 32.7900174,1.99536133 32.7093531,2.22851562 C10.9031177,2.15893555 0,2.12414551 0,2.12414551 Z" mask="url(#h)"/><path fill="#00B2C5" d="M.112103037 2.12414551C.209465731.86905681.285498843.187802741.340202373.0803833008.422257667-.0807458602.418643467 1.38503833.558568554 1.24743652.698493641 1.10983471.749758241-.641845703.972552054-.641845703.834455769.741059133 1.05817833 1.01286671 1.11498973 1.24743652 1.13147726 1.31551227 1.2517662 1.41500597 1.35664904 1.40777588 1.61316287 1.39009313 1.82579058.964628956 2.08373476 1.24743652 2.23882908 1.41748047 2.15868641 1.7097168 1.84330676 2.12414551L.112103037 2.12414551ZM4.08597821 2.12414551C4.19081637 1.08272298 4.31987927.533325195 4.47316691.475952148 4.37443583 1.04260254 4.41606574 1.46177165 4.59805664 1.73345947 4.6599593 1.32707817 4.80057475.968110073 5.019903.656555176 5.23923125.345000278 5.54477596.0701996597 5.93653713-.16784668L7.17364013-.268493652C7.01858358.19001316 6.87955851.43816176 6.75656493.475952148 6.63357135.513742537 6.48131428.355091821 6.29979372 5.55111512e-17 6.13072489.223462114 6.06053167.470512082 6.08921406.741149902 6.13223764 1.14710663 6.58380246 1.18607184 6.60262841 1.51544189 6.61517904 1.73502193 6.47039042 1.93792314 6.16826254 2.12414551L4.08597821 2.12414551ZM8.52880058 2.09667969C8.52402942 1.56455485 8.66491206 1.07578532 8.95144849.630371094 8.79519638 1.04762777 8.70827231 1.54060872 8.6906763 2.10931396 8.58275915 2.10089111 8.52880058 2.09667969 8.52880058 2.09667969ZM9.60767303 2.0958252C9.7983538 1.37811279 9.87464773.832885633 9.83655484.460143717 9.93372098.821533094 9.93372098 1.37125651 9.83655484 2.10931396 9.68396697 2.10032145 9.60767303 2.0958252 9.60767303 2.0958252ZM10.9355997 2.05282593C10.7769421 1.46882635 10.8160846 1.1392772 11.0530274 1.06417847 11.2511829 1.00137329 11.7271533 1.57455444 12.2015396 1.57455444 12.5176763 1.57455444 12.5990531 1.27302551 12.5415129.983123779 12.4839728.693222046 12.4144461.474970144 12.4711289.399749756 12.5278116.324529367 12.770891.361022296 12.9459541.460143717 13.1210173.559265137 13.301367.963790894 13.6507109.927825928 14.0000548.891860962 14.3122218.460143717 14.4538297.0833129883 14.8064943.357452393 15.1144672 1.08635497 15.171583 1.21087646 15.2286989 1.33539796 15.1599966 1.48417583 15.1091954 1.52438354 15.0583942 1.56459126 14.923712 1.57455444 14.8403695 1.47302246 14.757027 1.37149048 14.5114843.821044922 14.3274132.821044922 14.1433421.821044922 14.0975949 1.17076863 13.9983371 1.47302246 13.9321653 1.67452502 13.9044226 1.87570706 13.9151091 2.0765686 11.9287695 2.06074015 10.9355997 2.05282593 10.9355997 2.05282593ZM17.7030811 2.02276611C17.4591415.963277181 17.3871034.417236328 17.4869669.384643555 17.636762.335754395 18.4877423 1.62414551 19.0431074 1.62414551 19.5984725 1.62414551 19.5984725 1.5322406 19.9220876.883850098 20.137831.451589761 20.137831.0088916006 19.9220876-.444244385L21.0380033-.444244385C21.1466705-.307366399 21.1262945-.0711298265 20.9768752.264465332 20.7527463.76785807 20.29895 1.13455253 20.3554229 1.26156616 20.4118957 1.38857979 21.1145631.646945698 21.3511437.883850098 21.508864 1.04178636 21.4303435 1.42142504 21.1155822 2.02276611L17.7030811 2.02276611ZM22.9251856 2.02276611C23.2340383.466573079 23.3884646-.311523437 23.3884646-.311523437 24.0886236-.499521037 24.4570903-.48801591 24.4938647-.277008057 24.5626647.125335693 23.5880779.835546422 23.6295033 1.0715332 23.6709288 1.30751998 24.6473403.478849739 24.675722.758972168 24.6946432.945720454 24.3459036 1.38711653 23.6295033 2.0831604 23.1599582 2.04289754 22.9251856 2.02276611 22.9251856 2.02276611ZM26.0196034 2.0831604C26.0988816 1.66004572 26.1729363 1.41915013 26.2417675 1.36047363 26.3450142 1.27245889 26.4626146 1.5430603 26.6531745 1.5430603 26.8437344 1.5430603 27.3248767 1.30752563 27.4130476 1.04367065 27.5012186.779815674 27.4421327.584908994 27.4000128.307250977 27.3578929.0295929587 27.315029-.213562012 27.315029-.213562012 28.3892258-.226542155 28.9263241-.233032227 28.9263241-.233032227 28.8715267-.0411112999 28.8379059.154526721 28.8254619.353881836 28.8067959.652914508 28.982242.750366211 28.8254619 1.10018921 28.7209418 1.33340454 28.4739678 1.65075684 28.0845399 2.05224609 26.7079156 2.07285563 26.0196034 2.0831604 26.0196034 2.0831604ZM30.25114 2.0831604C30.0093398 1.34068807 29.9052141.969451904 29.938763.969451904 29.9723119.969451904 30.1392578 1.34068807 30.4396006 2.0831604L30.25114 2.0831604ZM30.607049 2.0831604C30.5764961 1.013421 30.5828386.480222804 30.6260764.483565823 30.6693142.486929802 30.746257 1.02658755 30.8569048 2.10253906 30.6903343 2.12980143 30.607049 2.12334188 30.607049 2.0831604ZM31.0351715 2.02944946C31.625575.499949137 31.9207768-.264801025 31.9207768-.264801025 32.1396947-.409618131 32.2739168-.406790168 32.3234431-.256317139 32.4930036.486146481 32.6619724 1.27794192 32.8303496 2.11906919 31.6335642 2.0593227 31.0351715 2.02944946 31.0351715 2.02944946Z" mask="url(#h)"/><polygon fill="#011963" points="0 1.958 33.385 1.958 33.385 2.291 0 2.291" mask="url(#h)"/></g></g><g mask="url(#d)"><g transform="translate(-3.105 23.825)"><mask id="j" fill="#fff"><use xlink:href="#i"/></mask><use xlink:href="#i" fill="#7BDDE5"/><path fill="#E6E6E6" d="M0,2.12414551 C0,2.12414551 0.236299528,-1.06225586 0.67039161,-1.27661133 C0.333159379,0.207397461 0.556573881,0.78125 0.556573881,0.78125 C0.556573881,0.78125 0.725264048,-0.857421875 1.12618089,-1.06225586 C0.706158665,0.850708008 1.2119041,1.10659127 1.26302875,1.21130371 C1.3141534,1.31601615 1.89372705,0.64885175 2.17179334,1.0793457 C2.44985964,1.50983966 1.89728305,2.1932373 1.89728305,2.1932373 C1.89728305,2.1932373 3.87557885,2.17687988 3.87557885,2.17687988 C3.87557885,2.17687988 3.87557885,0.380981445 4.50361279,0.291381836 C4.1483119,1.13720703 4.46029244,1.37390137 4.46029244,1.37390137 C4.46029244,1.37390137 4.57338,0.707643873 4.94947912,0.322631836 C5.32557823,-0.0623802009 6.23464938,-0.442504883 6.23464938,-0.442504883 C6.23464938,-0.442504883 7.15141157,-0.462768555 7.15141157,-0.462768555 C7.15141157,-0.462768555 7.03300263,0.380981445 6.67199974,0.623657227 C6.31099686,0.866333008 6.1797466,0.23468258 6.12135001,0.322631836 C5.70466012,0.950195313 6.5579406,1.11248047 6.57254808,1.45239258 C6.58715555,1.79230469 6.19910448,2.13195801 6.19910448,2.13195801 C6.19910448,2.13195801 8.20827991,2.13537598 8.20827991,2.13537598 C8.20827991,2.13537598 8.20827991,0.979858398 8.78062684,0.49194394 C8.35375481,1.76898193 8.56432132,2.12561035 8.56432132,2.12561035 C8.56432132,2.12561035 9.20590675,2.11535645 9.20590675,2.11535645 C9.20590675,2.11535645 9.58868088,1.29541016 9.49233939,0.205688477 C9.83756923,0.954589844 9.58868088,2.10144043 9.58868088,2.10144043 C9.58868088,2.10144043 10.545357,2.12182617 10.545357,2.12182617 C10.545357,2.12182617 10.2232939,1.19400967 10.7014584,0.950195312 C10.9022385,0.847818268 11.4889834,1.55846915 11.9032462,1.42944336 C12.3175091,1.30041757 11.9924787,0.715209961 11.9924787,0.548095703 C11.9924787,0.380981445 11.9806415,0.171120369 12.406873,0.244628906 C12.8331045,0.318137444 12.8081336,0.944315305 13.3274119,0.778320312 C13.8466901,0.61232532 13.9851406,-0.259887695 13.9851406,-0.259887695 C13.9851406,-0.259887695 14.730698,0.874613288 14.7985264,1.13720703 C14.8663547,1.39980077 14.7437488,1.71480288 14.4816584,1.66235352 C14.219568,1.60990415 14.0572749,0.87349079 13.8859851,0.954589844 C13.6138153,1.08345173 13.5947391,2.08227539 13.5947391,2.08227539 C13.5947391,2.08227539 17.0925794,2.09265137 17.0925794,2.09265137 C17.0925794,2.09265137 16.6512665,0.319114579 16.9141144,0.199462891 C17.1769622,0.0798112024 17.8579633,1.43781962 18.3741211,1.50927734 C18.8902789,1.58073506 19.1317465,1.09752106 19.3353885,0.534667969 C19.5390304,-0.0281851247 19.0730619,-0.535809405 19.1347819,-0.593139648 C19.196502,-0.650469892 20.1652793,-1.36397222 20.5128873,-0.559082031 C20.8604953,0.245808162 19.8577201,1.0208985 19.8839647,1.14160156 C19.9102094,1.26230462 20.550019,0.384814783 20.8030966,0.775634766 C21.0561742,1.16645475 20.529623,2.13867187 20.529623,2.13867187 C20.529623,2.13867187 22.1389924,2.13684082 22.1389924,2.13684082 C22.1389924,2.13684082 22.6218948,-0.407054752 22.6569852,-0.460327148 C22.6920757,-0.513599545 23.6617351,-1.09881138 23.8309296,-0.431762695 C24.0001241,0.235285987 23.0008851,0.882592543 23.0222831,0.979858398 C23.0436812,1.07712425 24.1001848,0.215041397 24.0810028,0.704956055 C24.0618207,1.19487071 22.9762229,2.15625 22.9762229,2.15625 C22.9762229,2.15625 25.0971426,2.16271973 25.0971426,2.16271973 C25.0971426,2.16271973 25.3916461,1.25520277 25.4456307,1.21130371 C25.4996153,1.16740465 25.6782885,1.58509363 26.1637117,1.29541016 C26.6491349,1.00572668 26.5650971,1.0104424 26.5557423,0.548828125 C26.5463875,0.087213849 26.0427776,-0.297594857 26.12987,-0.374511719 C26.2169624,-0.45142858 26.8951887,-0.769421682 27.6948082,-0.45715332 C28.4944278,-0.144884959 27.9751229,-0.0818063043 28.0494427,0.37512207 C28.1237624,0.832050445 28.1631001,0.880231192 27.9788712,1.28930664 C27.7946423,1.69838209 27.2698986,2.1060791 27.2698986,2.1060791 C27.2698986,2.1060791 29.3188399,2.11572266 29.3188399,2.11572266 C29.3188399,2.11572266 28.8801986,0.715768991 28.9652422,0.738525391 C29.0502857,0.76128179 29.6486669,2.20397949 29.6486669,2.20397949 C29.6486669,2.20397949 29.5982082,0.285235773 29.6865074,0.258911133 C29.7748067,0.232586493 30.0122616,2.09558105 30.0122616,2.09558105 C30.0122616,2.09558105 30.9010834,-0.467940021 31.1180782,-0.707763672 C31.3350731,-0.947587323 31.3526571,-0.367742022 31.5636484,0.380981445 C31.7746396,1.12970491 31.8469708,1.87878418 31.8469708,1.87878418 C31.8469708,1.87878418 31.8078468,1.99536133 31.7295986,2.22851562 C10.5765329,2.15893555 0,2.12414551 0,2.12414551 Z" mask="url(#j)"/><path fill="#00B2C5" d="M.108745176 2.12414551C.203191532.86905681.276947198.187802741.330012174.0803833008.409609638-.0807458602.406103695 1.38503833.541837558 1.24743652.677571421 1.10983471.727300475-.641845703.943420867-.641845703.809461028.741059133 1.02648235 1.01286671 1.08159205 1.24743652 1.09758573 1.31551227 1.21427162 1.41500597 1.31601287 1.40777588 1.56484325 1.39009313 1.77110205.964628956 2.02131994 1.24743652 2.17176866 1.41748047 2.09402653 1.7097168 1.78809356 2.12414551L.108745176 2.12414551ZM3.9635895 2.12414551C4.0652874 1.08272298 4.19048444.533325195 4.3391806.475952148 4.24340684 1.04260254 4.2837898 1.46177165 4.46032947 1.73345947 4.52037793 1.32707817 4.65678148.968110073 4.86954012.656555176 5.08229875.345000278 5.37869138.0701996597 5.75871799-.16784668L6.95876562-.268493652C6.80835353.19001316 6.67349272.43816176 6.55418321.475952148 6.4348737.513742537 6.28717724.355091821 6.11109383 5.55111512e-17 5.94708918.223462114 5.87899848.470512082 5.90682174.741149902 5.94855662 1.14710663 6.38659556 1.18607184 6.40485761 1.51544189 6.41703231 1.73502193 6.27658059 1.93792314 5.98350245 2.12414551L3.9635895 2.12414551ZM8.27333448 2.09667969C8.26870624 1.56455485 8.40536897 1.07578532 8.68332268.630371094 8.53175083 1.04762777 8.44743043 1.54060872 8.43036148 2.10931396 8.32567681 2.10089111 8.27333448 2.09667969 8.27333448 2.09667969ZM9.31989109 2.0958252C9.50486033 1.37811279 9.57886901.832885633 9.54191712.460143717 9.63617282.821533094 9.63617282 1.37125651 9.54191712 2.10931396 9.39389977 2.10032145 9.31989109 2.0958252 9.31989109 2.0958252ZM10.6080419 2.05282593C10.4541366 1.46882635 10.4921067 1.1392772 10.7219522 1.06417847 10.9141724 1.00137329 11.3758858 1.57455444 11.8360627 1.57455444 12.14273 1.57455444 12.2216693 1.27302551 12.1658527.983123779 12.1100361.693222046 12.042592.474970144 12.0975769.399749756 12.1525618.324529367 12.3883601.361022296 12.5581795.460143717 12.727999.559265137 12.9029465.963790894 13.2418264.927825928 13.5807063.891860962 13.8835229.460143717 14.0208891.0833129883 14.3629903.357452393 14.6617383 1.08635497 14.7171434 1.21087646 14.7725484 1.33539796 14.705904 1.48417583 14.6566245 1.52438354 14.6073449 1.56459126 14.4766969 1.57455444 14.3958508 1.47302246 14.3150047 1.37149048 14.0768168.821044922 13.8982592.821044922 13.7197017.821044922 13.6753248 1.17076863 13.5790401 1.47302246 13.5148504 1.67452502 13.4879387 1.87570706 13.4983051 2.0765686 11.571463 2.06074015 10.6080419 2.05282593 10.6080419 2.05282593ZM17.1728146 2.02276611C16.9361818.963277181 16.8663015.417236328 16.9631737.384643555 17.108482.335754395 17.9339726 1.62414551 18.4727026 1.62414551 19.0114327 1.62414551 19.0114327 1.5322406 19.3253544.883850098 19.5346356.451589761 19.5346356.0088916006 19.3253544-.444244385L20.4078447-.444244385C20.513257-.307366399 20.4934913-.0711298265 20.3485477.264465332 20.1311322.76785807 19.6909286 1.13455253 19.7457099 1.26156616 19.8004912 1.38857979 20.4821113.646945698 20.7116055.883850098 20.8646016 1.04178636 20.7884331 1.42142504 20.4830999 2.02276611L17.1728146 2.02276611ZM22.2384996 2.02276611C22.5381011.466573079 22.6879019-.311523437 22.6879019-.311523437 23.3670888-.499521037 23.7245187-.48801591 23.7601915-.277008057 23.8269308.125335693 22.8815361.835546422 22.9217207 1.0715332 22.9619053 1.30751998 23.90907.478849739 23.9366016.758972168 23.954956.945720454 23.6166624 1.38711653 22.9217207 2.0831604 22.46624 2.04289754 22.2384996 2.02276611 22.2384996 2.02276611ZM25.2402293 2.0831604C25.3171328 1.66004572 25.3889693 1.41915013 25.4557388 1.36047363 25.555893 1.27245889 25.6699708 1.5430603 25.8548228 1.5430603 26.0396748 1.5430603 26.5064053 1.30752563 26.5919352 1.04367065 26.6774651.779815674 26.6201491.584908994 26.5792908.307250977 26.5384326.0295929587 26.4968526-.213562012 26.4968526-.213562012 27.5388735-.226542155 28.059884-.233032227 28.059884-.233032227 28.0067279-.0411112999 27.9741142.154526721 27.9620429.353881836 27.943936.652914508 28.114127.750366211 27.9620429 1.10018921 27.8606536 1.33340454 27.6210773 1.65075684 27.243314 2.05224609 25.9079242 2.07285563 25.2402293 2.0831604 25.2402293 2.0831604ZM29.3450172 2.0831604C29.1104597 1.34068807 29.0094529.969451904 29.041997.969451904 29.074541.969451904 29.2364862 1.34068807 29.5278328 2.0831604L29.3450172 2.0831604ZM29.6902656 2.0831604C29.6606278 1.013421 29.6667803.480222804 29.708723.483565823 29.7506657.486929802 29.8253038 1.02658755 29.9326373 2.10253906 29.7710562 2.12980143 29.6902656 2.12334188 29.6902656 2.0831604ZM30.1055643 2.02944946C30.6782833.499949137 30.9646428-.264801025 30.9646428-.264801025 31.1770033-.409618131 31.307205-.406790168 31.3552479-.256317139 31.5197294.486146481 31.6836371 1.27794192 31.8469708 2.11906919 30.6860332 2.0593227 30.1055643 2.02944946 30.1055643 2.02944946Z" mask="url(#j)"/><polygon fill="#011963" points="0 1.958 32.385 1.958 32.385 2.291 0 2.291" mask="url(#j)"/></g></g><g mask="url(#d)"><g transform="translate(-23.105 13.825)"><mask id="l" fill="#fff"><use xlink:href="#k"/></mask><use xlink:href="#k" fill="#7BDDE5"/><path fill="#E6E6E6" d="M0,2.12414551 C0,2.12414551 0.477084561,-1.06225586 1.35350878,-1.27661133 C0.672642883,0.207397461 1.1237128,0.78125 1.1237128,0.78125 C1.1237128,0.78125 1.46429526,-0.857421875 2.27373927,-1.06225586 C1.42572183,0.850708008 2.44681291,1.10659127 2.55003268,1.21130371 C2.65325244,1.31601615 3.82340136,0.64885175 4.38481229,1.0793457 C4.94622322,1.50983966 3.83058086,2.1932373 3.83058086,2.1932373 C3.83058086,2.1932373 7.82472503,2.17687988 7.82472503,2.17687988 C7.82472503,2.17687988 7.82472503,0.380981445 9.09271443,0.291381836 C8.37536823,1.13720703 9.00525142,1.37390137 9.00525142,1.37390137 C9.00525142,1.37390137 9.2335732,0.707643873 9.99291065,0.322631836 C10.7522481,-0.0623802009 12.5876466,-0.442504883 12.5876466,-0.442504883 C12.5876466,-0.442504883 14.4385733,-0.462768555 14.4385733,-0.462768555 C14.4385733,-0.462768555 14.1995077,0.380981445 13.4706493,0.623657227 C12.7417909,0.866333008 12.4767989,0.23468258 12.3588972,0.322631836 C11.5176077,0.950195313 13.2403659,1.11248047 13.2698581,1.45239258 C13.2993504,1.79230469 12.5158821,2.13195801 12.5158821,2.13195801 C12.5158821,2.13195801 16.5723717,2.13537598 16.5723717,2.13537598 C16.5723717,2.13537598 16.5723717,0.979858398 17.72793,0.49194394 C16.866083,1.76898193 17.291213,2.12561035 17.291213,2.12561035 C17.291213,2.12561035 18.5865626,2.11535645 18.5865626,2.11535645 C18.5865626,2.11535645 19.3593768,1.29541016 19.1648651,0.205688477 C19.861878,0.954589844 19.3593768,2.10144043 19.3593768,2.10144043 C19.3593768,2.10144043 21.290889,2.12182617 21.290889,2.12182617 C21.290889,2.12182617 20.6406492,1.19400967 21.6060549,0.950195312 C22.0114263,0.847818268 23.196054,1.55846915 24.0324433,1.42944336 C24.8688326,1.30041757 24.2126021,0.715209961 24.2126021,0.548095703 C24.2126021,0.380981445 24.188703,0.171120369 25.0492568,0.244628906 C25.9098107,0.318137444 25.8593948,0.944315305 26.9078085,0.778320312 C27.9562221,0.61232532 28.2357511,-0.259887695 28.2357511,-0.259887695 C28.2357511,-0.259887695 29.7410183,0.874613288 29.8779626,1.13720703 C30.0149069,1.39980077 29.7673676,1.71480288 29.2382118,1.66235352 C28.709056,1.60990415 28.381389,0.87349079 28.035558,0.954589844 C27.4860518,1.08345173 27.4475375,2.08227539 27.4475375,2.08227539 C27.4475375,2.08227539 34.5096149,2.09265137 34.5096149,2.09265137 C34.5096149,2.09265137 33.618612,0.319114579 34.1492972,0.199462891 C34.6799825,0.0798112024 36.0549114,1.43781962 37.097025,1.50927734 C38.1391385,1.58073506 38.6266573,1.09752106 39.0378068,0.534667969 C39.4489563,-0.0281851247 38.5081741,-0.535809405 38.6327857,-0.593139648 C38.7573974,-0.650469892 40.7133417,-1.36397222 41.4151561,-0.559082031 C42.1169704,0.245808162 40.0923851,1.0208985 40.1453725,1.14160156 C40.19836,1.26230462 41.4901243,0.384814783 42.0010835,0.775634766 C42.5120427,1.16645475 41.4489452,2.13867187 41.4489452,2.13867187 C41.4489452,2.13867187 44.6982334,2.13684082 44.6982334,2.13684082 C44.6982334,2.13684082 45.6732047,-0.407054752 45.7440518,-0.460327148 C45.8148989,-0.513599545 47.772624,-1.09881138 48.1142247,-0.431762695 C48.4558254,0.235285987 46.4383795,0.882592543 46.4815818,0.979858398 C46.5247841,1.07712425 48.6578462,0.215041397 48.619118,0.704956055 C48.5803898,1.19487071 46.3885869,2.15625 46.3885869,2.15625 C46.3885869,2.15625 50.6706862,2.16271973 50.6706862,2.16271973 C50.6706862,2.16271973 51.2652836,1.25520277 51.3742776,1.21130371 C51.4832716,1.16740465 51.8440097,1.58509363 52.8240704,1.29541016 C53.8041312,1.00572668 53.6344605,1.0104424 53.6155733,0.548828125 C53.5966861,0.087213849 52.5799065,-0.297594857 52.7557446,-0.374511719 C52.9315827,-0.45142858 54.3009096,-0.769421682 55.9153272,-0.45715332 C57.5297449,-0.144884959 56.4812776,-0.0818063043 56.6313278,0.37512207 C56.781378,0.832050445 56.8608003,0.880231192 56.4888453,1.28930664 C56.1168904,1.69838209 55.0574422,2.1060791 55.0574422,2.1060791 C55.0574422,2.1060791 59.1942183,2.11572266 59.1942183,2.11572266 C59.1942183,2.11572266 58.3086094,0.715768991 58.4803108,0.738525391 C58.6520123,0.76128179 59.8601333,2.20397949 59.8601333,2.20397949 C59.8601333,2.20397949 59.758258,0.285235773 59.9365326,0.258911133 C60.1148072,0.232586493 60.5942245,2.09558105 60.5942245,2.09558105 C60.5942245,2.09558105 62.38874,-0.467940021 62.8268487,-0.707763672 C63.2649574,-0.947587323 63.3004593,-0.367742022 63.7264469,0.380981445 C64.1524345,1.12970491 64.2984699,1.87878418 64.2984699,1.87878418 C64.2984699,1.87878418 64.2194791,1.99536133 64.0614975,2.22851562 C21.3538325,2.15893555 0,2.12414551 0,2.12414551 Z" mask="url(#l)"/><path fill="#00B2C5" d="M8.00241698 2.12414551C8.20774325 1.08272298 8.46051384.533325195 8.76072876.475952148 8.56736324 1.04260254 8.64889571 1.46177165 9.00532617 1.73345947 9.12656296 1.32707817 9.40195931.968110073 9.83151523.656555176 10.2610711.345000278 10.8594826.0701996597 11.6267496-.16784668L14.0496245-.268493652C13.7459452.19001316 13.4736636.43816176 13.2327798.475952148 12.991896.513742537 12.6936995.355091821 12.3381902 5.55111512e-17 12.0070677.223462114 11.8695938.470512082 11.9257684.741149902 12.0100304 1.14710663 12.8944233 1.18607184 12.931294 1.51544189 12.9558745 1.73502193 12.672305 1.93792314 12.0805854 2.12414551L8.00241698 2.12414551ZM16.7037157 2.09667969C16.6943714 1.56455485 16.970291 1.07578532 17.5314747.630371094 17.2254538 1.04762777 17.0552124 1.54060872 17.0207505 2.10931396 16.809394 2.10089111 16.7037157 2.09667969 16.7037157 2.09667969ZM18.816695 2.0958252C19.1901446 1.37811279 19.3395668.832885633 19.2649616.460143717 19.4552622.821533094 19.4552622 1.37125651 19.2649616 2.10931396 18.9661172 2.10032145 18.816695 2.0958252 18.816695 2.0958252ZM21.4174488 2.05282593C21.1067166 1.46882635 21.1833776 1.1392772 21.6474316 1.06417847 22.0355207 1.00137329 22.9677119 1.57455444 23.8968009 1.57455444 24.5159567 1.57455444 24.6753338 1.27302551 24.5626411.983123779 24.4499483.693222046 24.3137798.474970144 24.4247934.399749756 24.5358069.324529367 25.0118795.361022296 25.354742.460143717 25.6976044.559265137 26.0508205.963790894 26.7350129.927825928 27.4192054.891860962 28.0305868.460143717 28.3079268.0833129883 28.9986229.357452393 29.6017899 1.08635497 29.7136517 1.21087646 29.8255135 1.33539796 29.6909597 1.48417583 29.5914652 1.52438354 29.4919706 1.56459126 29.2281947 1.57455444 29.0649678 1.47302246 28.9017408 1.37149048 28.4208438.821044922 28.0603392.821044922 27.6998346.821044922 27.6102385 1.17076863 27.4158415 1.47302246 27.2862434 1.67452502 27.2319092 1.87570706 27.2528388 2.0765686 23.3625788 2.06074015 21.4174488 2.05282593 21.4174488 2.05282593ZM34.6716084 2.02276611C34.193851.963277181 34.052764.417236328 34.2483472.384643555 34.5417221.335754395 36.2083729 1.62414551 37.2960594 1.62414551 38.3837458 1.62414551 38.3837458 1.5322406 39.0175482.883850098 39.4400832.451589761 39.4400832.0088916006 39.0175482-.444244385L41.2030769-.444244385C41.4159025-.307366399 41.375996-.0711298265 41.0833573.264465332 40.6443992.76785807 39.755636 1.13455253 39.8662385 1.26156616 39.9768409 1.38857979 41.3530199.646945698 41.8163646.883850098 42.125261 1.04178636 41.9714781 1.42142504 41.3550159 2.02276611L34.6716084 2.02276611ZM44.8991367 2.02276611C45.5040269.466573079 45.806472-.311523437 45.806472-.311523437 47.1777383-.499521037 47.8993829-.48801591 47.9714058-.277008057 48.1061512.125335693 46.197416.835546422 46.278548 1.0715332 46.35968 1.30751998 48.2719888.478849739 48.3275746.758972168 48.3646318.945720454 47.6816229 1.38711653 46.278548 2.0831604 45.3589405 2.04289754 44.8991367 2.02276611 44.8991367 2.02276611ZM50.9595758 2.0831604C51.1148427 1.66004572 51.2598793 1.41915013 51.3946856 1.36047363 51.5968952 1.27245889 51.8272164 1.5430603 52.2004293 1.5430603 52.5736422 1.5430603 53.5159627 1.30752563 53.688646 1.04367065 53.8613294.779815674 53.7456094.584908994 53.6631173.307250977 53.5806252.0295929587 53.4966759-.213562012 53.4966759-.213562012 55.6004977-.226542155 56.6524087-.233032227 56.6524087-.233032227 56.5450874-.0411112999 56.479241.154526721 56.4548693.353881836 56.4183118.652914508 56.7619243.750366211 56.4548693 1.10018921 56.250166 1.33340454 55.7664657 1.65075684 55.0037683 2.05224609 52.30764 2.07285563 50.9595758 2.0831604 50.9595758 2.0831604ZM59.2470699 2.0831604C58.7735024 1.34068807 58.5695716.969451904 58.6352773.969451904 58.7009831.969451904 59.0279478 1.34068807 59.6161713 2.0831604L59.2470699 2.0831604ZM59.9441202 2.0831604C59.8842821 1.013421 59.8967038.480222804 59.9813854.483565823 60.066067.486929802 60.21676 1.02658755 60.4334645 2.10253906 60.107235 2.12980143 59.9441202 2.12334188 59.9441202 2.0831604ZM60.7826011 2.02944946C61.9389105.499949137 62.5170652-.264801025 62.5170652-.264801025 62.9458174-.409618131 63.2086923-.406790168 63.30569-.256317139 63.6377753.486146481 63.968702 1.27794192 64.2984699 2.11906919 61.9545573 2.0593227 60.7826011 2.02944946 60.7826011 2.02944946Z" mask="url(#l)"/><polygon fill="#011963" points="0 1.958 65.385 1.958 65.385 2.291 0 2.291" mask="url(#l)"/></g></g><g mask="url(#d)"><g transform="translate(-.105 3.825)"><mask id="n" fill="#fff"><use xlink:href="#m"/></mask><use xlink:href="#m" fill="#7BDDE5"/><path fill="#E6E6E6" d="M0,2.12414551 C0,2.12414551 0.226192001,-1.06225586 0.641716133,-1.27661133 C0.318908747,0.207397461 0.532766868,0.78125 0.532766868,0.78125 C0.532766868,0.78125 0.694241446,-0.857421875 1.07800938,-1.06225586 C0.67595328,0.850708008 1.16006585,1.10659127 1.20900369,1.21130371 C1.25794152,1.31601615 1.81272435,0.64885175 2.07889658,1.0793457 C2.34506881,1.50983966 1.81612825,2.1932373 1.81612825,2.1932373 C1.81612825,2.1932373 3.70980399,2.17687988 3.70980399,2.17687988 C3.70980399,2.17687988 3.70980399,0.380981445 4.31097427,0.291381836 C3.9708711,1.13720703 4.26950692,1.37390137 4.26950692,1.37390137 C4.26950692,1.37390137 4.37775725,0.707643873 4.73776902,0.322631836 C5.09778079,-0.0623802009 5.96796713,-0.442504883 5.96796713,-0.442504883 C5.96796713,-0.442504883 6.84551554,-0.462768555 6.84551554,-0.462768555 C6.84551554,-0.462768555 6.73217144,0.380981445 6.38661017,0.623657227 C6.04104891,0.866333008 5.91541277,0.23468258 5.85951405,0.322631836 C5.46064775,0.950195313 6.27742982,1.11248047 6.29141247,1.45239258 C6.30539512,1.79230469 5.93394263,2.13195801 5.93394263,2.13195801 C5.93394263,2.13195801 7.85717716,2.13537598 7.85717716,2.13537598 C7.85717716,2.13537598 7.85717716,0.979858398 8.40504239,0.49194394 C7.99642949,1.76898193 8.19798917,2.12561035 8.19798917,2.12561035 C8.19798917,2.12561035 8.81213129,2.11535645 8.81213129,2.11535645 C8.81213129,2.11535645 9.17853256,1.29541016 9.086312,0.205688477 C9.4167749,0.954589844 9.17853256,2.10144043 9.17853256,2.10144043 C9.17853256,2.10144043 10.0942876,2.12182617 10.0942876,2.12182617 C10.0942876,2.12182617 9.78600047,1.19400967 10.2437119,0.950195312 C10.4359037,0.847818268 10.9975511,1.55846915 11.3940942,1.42944336 C11.7906372,1.30041757 11.4795098,0.715209961 11.4795098,0.548095703 C11.4795098,0.380981445 11.468179,0.171120369 11.8761787,0.244628906 C12.2841785,0.318137444 12.2602757,0.944315305 12.7573422,0.778320312 C13.2544088,0.61232532 13.3869372,-0.259887695 13.3869372,-0.259887695 C13.3869372,-0.259887695 14.1006039,0.874613288 14.165531,1.13720703 C14.230458,1.39980077 14.1130965,1.71480288 13.8622168,1.66235352 C13.6113371,1.60990415 13.455986,0.87349079 13.292023,0.954589844 C13.031495,1.08345173 13.0132348,2.08227539 13.0132348,2.08227539 C13.0132348,2.08227539 16.3614577,2.09265137 16.3614577,2.09265137 C16.3614577,2.09265137 15.9390216,0.319114579 16.1906263,0.199462891 C16.4422311,0.0798112024 17.0941028,1.43781962 17.5881824,1.50927734 C18.082262,1.58073506 18.313401,1.09752106 18.5083323,0.534667969 C18.7032637,-0.0281851247 18.2572266,-0.535809405 18.3163066,-0.593139648 C18.3753866,-0.650469892 19.3027253,-1.36397222 19.6354646,-0.559082031 C19.9682039,0.245808162 19.0083217,1.0208985 19.0334437,1.14160156 C19.0585657,1.26230462 19.671008,0.384814783 19.9132604,0.775634766 C20.1555128,1.16645475 19.6514845,2.13867187 19.6514845,2.13867187 C19.6514845,2.13867187 21.1920143,2.13684082 21.1920143,2.13684082 C21.1920143,2.13684082 21.6542609,-0.407054752 21.6878504,-0.460327148 C21.7214399,-0.513599545 22.6496229,-1.09881138 22.8115802,-0.431762695 C22.9735376,0.235285987 22.0170402,0.882592543 22.037523,0.979858398 C22.0580058,1.07712425 23.0693183,0.215041397 23.0509567,0.704956055 C23.0325952,1.19487071 21.9934329,2.15625 21.9934329,2.15625 C21.9934329,2.15625 24.0236319,2.16271973 24.0236319,2.16271973 C24.0236319,2.16271973 24.3055383,1.25520277 24.3572137,1.21130371 C24.4088892,1.16740465 24.5799198,1.58509363 25.0445794,1.29541016 C25.509239,1.00572668 25.4287959,1.0104424 25.4198412,0.548828125 C25.4108865,0.087213849 24.9288181,-0.297594857 25.0121853,-0.374511719 C25.0955524,-0.45142858 25.7447681,-0.769421682 26.5101845,-0.45715332 C27.2756009,-0.144884959 26.7785089,-0.0818063043 26.8496497,0.37512207 C26.9207905,0.832050445 26.9584456,0.880231192 26.7820969,1.28930664 C26.6057482,1.69838209 26.10345,2.1060791 26.10345,2.1060791 C26.10345,2.1060791 28.0647494,2.11572266 28.0647494,2.11572266 C28.0647494,2.11572266 27.6448707,0.715768991 27.7262766,0.738525391 C27.8076825,0.76128179 28.3804684,2.20397949 28.3804684,2.20397949 C28.3804684,2.20397949 28.332168,0.285235773 28.4166903,0.258911133 C28.5012126,0.232586493 28.7285106,2.09558105 28.7285106,2.09558105 C28.7285106,2.09558105 29.5793138,-0.467940021 29.7870268,-0.707763672 C29.9947398,-0.947587323 30.0115717,-0.367742022 30.213538,0.380981445 C30.4155043,1.12970491 30.4847416,1.87878418 30.4847416,1.87878418 C30.4847416,1.87878418 30.447291,1.99536133 30.3723899,2.22851562 C10.12413,2.15893555 0,2.12414551 0,2.12414551 Z" mask="url(#n)"/><path fill="#00B2C5" d="M.104093686 2.12414551C.194500173.86905681.265100998.187802741.315896161.0803833008.392088906-.0807458602.388732927 1.38503833.51866088 1.24743652.648588833 1.10983471.696190766-.641845703.903066778-.641845703.774836966.741059133.982575374 1.01286671 1.0353278 1.24743652 1.05063736 1.31551227 1.1623321 1.41500597 1.25972145 1.40777588 1.4979083 1.39009313 1.69534454.964628956 1.93485956 1.24743652 2.07887295 1.41748047 2.00445619 1.7097168 1.71160926 2.12414551L.104093686 2.12414551ZM3.79405006 2.12414551C3.89139792 1.08272298 4.01123974.533325195 4.15357554.475952148 4.06189844 1.04260254 4.10055404 1.46177165 4.26954236 1.73345947 4.3270223 1.32707817 4.4575913.968110073 4.66124935.656555176 4.8649074.345000278 5.14862206.0701996597 5.51239333-.16784668L6.66110987-.268493652C6.51713153.19001316 6.38803929.43816176 6.27383315.475952148 6.15962701.513742537 6.01824815.355091821 5.84969657 5.55111512e-17 5.69270709.223462114 5.62752892.470512082 5.65416206.741149902 5.69411176 1.14710663 6.11341393 1.18607184 6.13089484 1.51544189 6.14254877 1.73502193 6.00810476 1.93792314 5.72756281 2.12414551L3.79405006 2.12414551ZM7.91944907 2.09667969C7.9150188 1.56455485 8.04583589 1.07578532 8.31190034.630371094 8.16681187 1.04762777 8.0860982 1.54060872 8.06975936 2.10931396 7.9695525 2.10089111 7.91944907 2.09667969 7.91944907 2.09667969ZM8.92124004 2.0958252C9.09829737 1.37811279 9.16914038.832885633 9.13376908.460143717 9.22399306.821533094 9.22399306 1.37125651 9.13376908 2.10931396 8.99208306 2.10032145 8.92124004 2.0958252 8.92124004 2.0958252ZM10.1542912 2.05282593C10.0069691 1.46882635 10.043315 1.1392772 10.2633291 1.06417847 10.4473272 1.00137329 10.8892912 1.57455444 11.3297844 1.57455444 11.6233342 1.57455444 11.6988969 1.27302551 11.6454679.983123779 11.5920388.693222046 11.5274795.474970144 11.5801125.399749756 11.6327454.324529367 11.8584576.361022296 12.0210132.460143717 12.1835688.559265137 12.3510331.963790894 12.6754176.927825928 12.9998022.891860962 13.2896661.460143717 13.4211566.0833129883 13.7486246.357452393 14.0345939 1.08635497 14.0876291 1.21087646 14.1406642 1.33539796 14.0768705 1.48417583 14.0296988 1.52438354 13.9825272 1.56459126 13.8574676 1.57455444 13.7800796 1.47302246 13.7026915 1.37149048 13.474692.821044922 13.3037721.821044922 13.1328522.821044922 13.0903735 1.17076863 12.9982073 1.47302246 12.9367632 1.67452502 12.9110026 1.87570706 12.9209256 2.0765686 11.0765027 2.06074015 10.1542912 2.05282593 10.1542912 2.05282593ZM16.4382609 2.02276611C16.2117499.963277181 16.1448587.417236328 16.2375872.384643555 16.3766801.335754395 17.1668609 1.62414551 17.6825472 1.62414551 18.1982335 1.62414551 18.1982335 1.5322406 18.4987275.883850098 18.6990568.451589761 18.6990568.0088916006 18.4987275-.444244385L19.5349151-.444244385C19.6358185-.307366399 19.6168983-.0711298265 19.4781545.264465332 19.2700387.76785807 18.8486645 1.13455253 18.9011026 1.26156616 18.9535407 1.38857979 19.606005.646945698 19.8256828.883850098 19.9721346 1.04178636 19.8992241 1.42142504 19.6069514 2.02276611L16.4382609 2.02276611ZM21.2872652 2.02276611C21.5740515.466573079 21.7174446-.311523437 21.7174446-.311523437 22.3675798-.499521037 22.7097209-.48801591 22.7438679-.277008057 22.8077525.125335693 21.9027963.835546422 21.941262 1.0715332 21.9797277 1.30751998 22.8863782.478849739 22.9127322.758972168 22.9303015.945720454 22.6064781 1.38711653 21.941262 2.0831604 21.5052641 2.04289754 21.2872652 2.02276611 21.2872652 2.02276611ZM24.1605982 2.0831604C24.2342123 1.66004572 24.302976 1.41915013 24.3668895 1.36047363 24.4627596 1.27245889 24.5719579 1.5430603 24.748903 1.5430603 24.9258481 1.5430603 25.3726145 1.30752563 25.454486 1.04367065 25.5363574.779815674 25.481493.584908994 25.4423824.307250977 25.4032719.0295929587 25.3634704-.213562012 25.3634704-.213562012 26.3609197-.226542155 26.8596444-.233032227 26.8596444-.233032227 26.808762-.0411112999 26.7775434.154526721 26.7659884.353881836 26.748656.652914508 26.9115672.750366211 26.7659884 1.10018921 26.6689359 1.33340454 26.4396073 1.65075684 26.0780025 2.05224609 24.799733 2.07285563 24.1605982 2.0831604 24.1605982 2.0831604ZM28.0898071 2.0831604C27.8652826 1.34068807 27.7685963.969451904 27.7997482.969451904 27.8309002.969451904 27.9859184 1.34068807 28.2648028 2.0831604L28.0898071 2.0831604ZM28.4202877 2.0831604C28.3919177 1.013421 28.397807.480222804 28.4379556.483565823 28.4781042.486929802 28.5495498 1.02658755 28.6522922 2.10253906 28.4976225 2.12980143 28.4202877 2.12334188 28.4202877 2.0831604ZM28.8178224 2.02944946C29.3660437.499949137 29.6401544-.264801025 29.6401544-.264801025 29.8434314-.409618131 29.9680638-.406790168 30.0140517-.256317139 30.1714977.486146481 30.3283943 1.27794192 30.4847416 2.11906919 29.3734621 2.0593227 28.8178224 2.02944946 28.8178224 2.02944946Z" mask="url(#n)"/><polygon fill="#011963" points="0 1.958 31 1.958 31 2.291 0 2.291" mask="url(#n)"/></g></g></g></g><g fill="#011963" mask="url(#b)"><path d="M40.0072613,4.41863323 C41.7930968,4.17491214 43.4086859,3.68483216 44.8540286,2.94839329 C46.2993712,2.21195442 47.5744675,1.22915666 48.6793173,-4.61852778e-14 L49.8332314,2.49449074 L41.1611754,6.91312397 L40.0072613,4.41863323 Z M9.82597014,4.41863323 C8.04013459,4.17491214 6.42454549,3.68483216 4.97920282,2.94839329 C3.53386016,2.21195442 2.25876393,1.22915666 1.15391413,6.35935749e-13 L0,2.49449074 L8.672056,6.91312397 L9.82597014,4.41863323 Z" transform="translate(-.917 19.644)"/></g><g mask="url(#b)"><g transform="translate(16.297 -.12)"><path fill="#C6C6C6" d="M13.8043904,1.61992224 C13.2864134,3.28484955 10.8349179,4.71927774 7.72790084,4.71927774 C4.62088381,4.71927774 2.16938826,3.28484955 1.65141128,1.61992224 Z"/><path fill="#D5D5D5" d="M13.6807273,0.000427850491 C13.8275735,0.314803608 13.9055786,0.640631236 13.9055786,0.969277738 C13.9055786,1.29468456 13.8291038,1.61732781 13.6850499,1.92882728 C11.6908291,2.36412373 9.69680923,2.58130529 7.70278931,2.58130529 C5.7277664,2.58130529 3.75274349,2.3682422 1.77772059,1.94211601 C1.62866923,1.62559143 1.55022307,1.29885199 1.55022307,0.969277738 C1.55022307,0.640631236 1.62822821,0.314803608 1.77507436,0.000427850491 Z M0.180532453,0.00100905717 C0.0949635705,0.314836365 0.0502230694,0.638484295 0.0502230694,0.969277738 C0.0502230694,1.15745368 0.0647012929,1.34331731 0.092937572,1.52637617 C0.0620869653,1.51838159 0.0310434826,1.50972678 0,1.50101933 L0,0.00101932697 Z"/></g></g><g fill="#000" fill-opacity=".2" fill-rule="nonzero" mask="url(#b)"><g transform="translate(7.573 4.805)"><path d="M30.4841488,0.0719784231 L30.775386,0 L30.8846831,0.459108697 L30.9920046,0.943970623 C31.009727,1.02692716 31.027367,1.11095685 31.0449248,1.19605971 L31.1492842,1.71955547 L31.2516698,2.26880979 C31.2685696,2.36249884 31.2853872,2.45726125 31.3021226,2.55309707 L31.4015486,3.1409932 L31.4990025,3.75465321 L31.5944849,4.39407922 L31.6879965,5.05927336 L31.7795379,5.75023777 L31.9131577,6.83500827 L31.9997768,7.59040765 L32.0844282,8.37158474 L32.1671126,9.17854167 L32.2874525,10.4373189 L32.3652222,11.3087348 L32.4781933,12.6642104 L32.5510527,13.6000985 L32.6566614,15.0522924 L32.7906067,17.0788376 L32.8546382,18.1308092 L32.5551627,18.1485413 L32.4925849,17.1198586 L32.3952062,15.6232215 L32.2588155,13.7143048 L32.151611,12.3475756 L32.0401991,11.0365325 L31.9245818,9.78118215 L31.8451685,8.97522572 L31.7225472,7.81271175 L31.6384666,7.06865248 L31.5088473,5.99899365 L31.4201033,5.31684406 L31.3294951,4.65946183 L31.2370234,4.02684899 L31.1426887,3.41900751 L31.0464917,2.83593942 L30.9484331,2.2776467 L30.8485135,1.74413136 L30.7467335,1.2353954 L30.6430938,0.751440821 L30.5375951,0.292269626 L30.4841488,0.0719784231 Z" transform="matrix(-1 0 0 1 63.339 0)"/><path d="M0.2912372,0 L0.346132747,0.226335328 L0.454441985,0.698320373 L0.560775986,1.19605971 L0.665135431,1.71955547 L0.767521003,2.26880979 L0.867933384,2.84382478 L0.966373258,3.44460258 L1.11033611,4.39407922 L1.24986465,5.40153415 L1.34042132,6.10538448 L1.42900889,6.83500827 L1.55819968,7.97777385 L1.68296385,9.17854167 L1.76368186,10.0112806 L1.84243419,10.8698036 L1.95687852,12.2059379 L2.0669039,13.6000985 L2.13780032,14.5617792 L2.24046591,16.052666 L2.33871869,17.6015983 L2.37048939,18.1308092 L2.07101389,18.1485413 L1.97644473,16.6147944 L1.87766163,15.1367133 L1.77466675,13.7143048 L1.66746225,12.3475756 L1.5560503,11.0365325 L1.44043307,9.78118215 L1.36101971,8.97522572 L1.27973894,8.19402665 L1.1965914,7.43758695 L1.06837129,6.34935559 L0.980559634,5.65482306 L0.890883448,4.9850569 L0.799343379,4.34005911 L0.705940068,3.7198317 L0.610674156,3.12437667 L0.513546285,2.55369601 L0.414557097,2.00779173 L0.313707232,1.48666583 L0.210997334,0.990320312 L0.106428043,0.518757175 C0.0888449136,0.442228629 0.0711843367,0.366732765 0.0534463251,0.292269626 L0,0.0719784231 L0.2912372,0 Z"/></g></g><g mask="url(#b)"><g transform="translate(27.75 9)"><circle cx="4.125" cy="4.125" r="3.6" fill="#FFF" stroke="#011963" stroke-width="1.05"/><circle cx="4.125" cy="4.125" r="1.55" fill="#011963"/></g></g></g></svg>