<svg height="52" viewBox="0 0 48 52" width="48" xmlns="http://www.w3.org/2000/svg" xmlns:xlink="http://www.w3.org/1999/xlink"><defs><path id="a" d="m10.2202858 49.9349257c.0787516-8.3259693.1181274-13.7657189.1181274-16.3192491 0-2.5535301-.1615852-6.6616729-.48475555-12.3244284l-1.62950095 3.824804c-1.21290389.2097607-2.80567507-.165146-4.77831355-1.1247201-1.91932393-.9336397-3.05856368-1.9127507-3.41771927-2.9373331l-.02812388-.0854872 4.72526396-11.80843482c.80828466-2.15399283 1.9352765-3.54601538 3.38097549-4.17606763l8.27726135-3.62110356 1.3174386-1.36290579c2.3533278.52153794 4.4532066.78286536 6.2996364.78398228 1.837436.00111148 3.9369309-.26021595 6.2984848-.78398228l1.3148686 1.36290579 8.1619141 3.57168801c1.502465.60477993 2.6687625 2.01327432 3.4988927 4.22548318l4.725264 11.80843482c-.3245903 1.0556395-1.4732047 2.0632462-3.4458431 3.0228203-1.9726385.9595741-3.5654097 1.3344808-4.7783136 1.1247201l-1.6295009-3.824804c-.3231704 5.4663301-.4847556 9.5744729-.4847556 12.3244284s.0397398 8.1897052.1192195 16.3192491c-.5352074.4644293-7.1577338 1.0650743-13.7802603 1.0650743-6.6225264 0-13.2450528-.600645-13.7802602-1.0650743z"/><path id="b" d="m.68043146 47.325.06072619-29.7087518-.74115765-8.79692447c1.46206754-3.57936931 2.60697111-5.65983863 3.43471069-6.24140797.14618024-.10270614 2.04834536-.9620114 5.70649536-2.57791576 1.59510835 1.61239603 3.01044865 2.41776666 5.74602095 2.41611189h.007955c2.7355723.00165477 4.1509126-.80371586 5.746021-2.41611189 3.3170627 1.37625668 5.2192278 2.23556194 5.7064953 2.57791576.8277396.58156934 1.9726432 2.66203866 3.4347107 6.24140797l-.7411577 8.79692447.0481959 29.7087518z"/><path id="c" d="m7.67767777 0c4.24026433 0 7.67767773 2.35050506 7.67767773 5.25 0 1.3144377-1.183386 2.77545777-3.5501582 4.3830602l-.4299499.28521616c-.0737057.04778963-.1484351.09570604-.2241882.14374934l-.4668028.289781c-.0798479.0485504-.1607194.0972276-.2426146.1460317l-.50365569.2943458c-.17197998.0986225-.34805473.1977522-.52822423.2973891l-.5527928.3004324c-.09417952.0503256-.18938272.1007781-.28560962.1513573l-.58964565.3049972c-.10032165.0510865-.201667.1022997-.30403604.1536398l-.60192994-.3065188c-.19654855-.1016657-.38900234-.2028242-.57736136-.3034755l-.5527928-.3004324c-.18016951-.0996369-.35624425-.1987666-.52822423-.2973891l-.50365567-.2943458-.47908709-.2913026c-.15560094-.0965937-.30710711-.1926802-.45451852-.28825944l-.42994996-.28521616c-2.36677213-1.60760243-3.5501582-3.0686225-3.5501582-4.3830602 0-2.89949494 3.43741342-5.25 7.67767777-5.25zm0 1.5c-3.50623917 0-6.17767777 1.82673109-6.17767777 3.75 0 .62627864.68519876 1.50802077 2.08143654 2.56368277l.33484247.24666453c.05791467.04161294.1168841.08347388.17690979.12557818l.37284077.25550898c.06425654.04305917.12957226.08635243.19594863.12987513l.41099786.26385237.43652413.26913625c.07488513.045284.15083679.09077887.22785646.13647999l.47494585.27664454.50064854.28137168.52642179.28587618.4384041.2300794.43834514-.2301539.52668051-.28602157c.08562813-.04730068.17018127-.09441349.25366089-.14133375l.48800724-.27917403c.15838284-.0922631.31248338-.18371888.4623134-.27433019l.43669029-.2692633.4111377-.26397337c.0663975-.04354234.1317333-.08685498.1960088-.12993326l.3729416-.25562028.3475658-.24977275.3222607-.24370218.2970263-.23740856c1.0429197-.85868719 1.5783706-1.58595523 1.6220317-2.13232623l.0029085-.07173663c0-1.92326891-2.6714386-3.75-6.17767773-3.75z"/><path id="d" d="m7.75267777 0c-4.2769656 0-7.75267777 2.37669376-7.75267777 5.325 0 1.53903422 1.56696561 3.25525418 4.69729043 5.1600405l.49392214.2945333c.33750357.1973494.6914508.3966885 1.06183778.5980297l.5679098.3035148.59256652.306527c.10081565.0513393.20265854.1028046.30552861.1543959l.61264471-.3080365.58736972-.3050198c.47894988-.2529286.93159551-.5027243 1.35799649-.7494111l.4990877-.2945333c3.162236-1.90478632 4.7292016-3.62100628 4.7292016-5.1600405 0-2.94830624-3.4757121-5.325-7.75267773-5.325zm0 .15c4.20356313 0 7.60267773 2.32431636 7.60267773 5.175 0 1.17358092-.9774908 2.47892434-2.9342837 3.91031469l-.3909631.2786157c-.0671988.04669776-.1354167.09352631-.2046539.14048544l-.4276542.28332028-.4521186.28644519-.4765859.2895608-.50105606.2926672c-.08554869.0490363-.1721171.0982016-.25970528.1474957l-.53776686.2973097c-.18333504.0996176-.37074967.1997492-.56224437.3003931l-.58672478.3034673c-.09982767.0508336-.20067547.1017949-.30254347.1528837-.20514918-.1042629-.40616134-.2079946-.6030324-.3111936l-.57818586-.3079972c-.09429241-.051066-.18754854-.1019983-.27976787-.1527969l-.54087042-.3031843-.51596304-.2999634-.49103133-.2967328c-.47855736-.2951142-.91968065-.58536781-1.32326036-.87071677l-.39106113-.28371245c-1.89269245-1.41037149-2.84588287-2.69775988-2.84588287-3.85666138 0-2.85068364 3.39911468-5.175 7.60267777-5.175z"/><mask id="e" fill="#fff"><use fill="#fff" fill-rule="evenodd" xlink:href="#a"/></mask><mask id="f" fill="#fff"><use fill="#fff" fill-rule="evenodd" xlink:href="#b"/></mask><mask id="g" fill="#fff"><use fill="#fff" fill-rule="evenodd" xlink:href="#c"/></mask><mask id="h" fill="#fff"><use fill="#fff" fill-rule="evenodd" xlink:href="#d"/></mask></defs><g fill="none" fill-rule="evenodd" transform="translate(0 .5)"><use fill="#fff" xlink:href="#a"/><path d="m29.9576698 3.84644143.3770877-.41972816 4.3284717 2.34821081z" fill="#405aab" mask="url(#e)" transform="matrix(.9998477 .01745241 -.01745241 .9998477 .085216 -.563194)"/><path d="m13.4378334 3.84644143.3770877-.41972816 4.3284717 2.34821081z" fill="#405aab" mask="url(#e)" transform="matrix(-.9998477 .01745241 .01745241 .9998477 31.498526 -.274883)"/><g mask="url(#e)"><g fill-rule="evenodd" transform="translate(9.108796 3.675)"><use fill="#ba0019" xlink:href="#b"/><g fill="#ab0017"><path d="m15.0171655 19.6582598v4.6446678l-.2844281-.2634801-.1381507.1284109v.6201768l-.4220709.4584743v-2.9686685l-.4225789.5678613v3.8328259l-.4220709.3823789v-3.8475693l-.4220709.3110396v-.9568986l-.4225788.4936683v-2.5677413l-.4220709.451816v3.5869429l-.4220709.3481361v-3.1955277l-.4225789.5046071v.3842813l-.421563.362404v4.193803l-.4225788.5136434v-4.3274455l-.42257881.362404v2.1639605l-.42207092.5859339v-1.935199l-.42257882.4703642v2.9120726l-.42156301.4418284v-1.992746l-.42257882.5845071v-.225908l-.42257882.4014028v-1.7872887l-.42156301.44706v1.4063365l-.42257882.5535934v.5421792l-.42257882.484632v-1.3953978l-.42207091.5203017v-2.7232611l-.42257882.4489623v1.1309667l-.42156301.4632302v1.7078642l-.42257882.3747695v-2.3513453l-.42207092.5288625v-.4004516l-.42207091.4247069v4.5766577l-.42257882.5164969v-3.3120486l-.42257882.3291123v3.3401087l-.42156301.4679862v-3.7629134l-.42257882.5792756v-.8874616l-.42207092.5716661v.6282619l-.42257882.5469351v-.7485877l-.42207091.4660838v.2710896l-.42207091.5916411v-.8408533l-.42207092.5778488v-.7538192l-.29407829.2387491v8.0508843l.29407829-.2382734v6.2702539l.42207092-.5783244v1.1561732l.42207091-.5911654v-3.2083688l.42207091-.4660838v2.6328979l.42257882-.5464595v-.0466083l.42207092-.5716661v1.0786511l.42257882-.5792756v1.1281131l.42156301-.4675106v-6.5893787l.42257882-.3286367v7.7155894l.42257882-.516497v-6.7330086l.42207091-.4247069v2.8516719l.42207092-.529338v-1.2688894l.42257882-.375245v.3647819l.42156301-.4632303v-1.4643592l.42257882-.4489623v4.3883217l.42207091-.5198262v.5754709l.42257882-.4851077v1.075322l.42257882-.5535935v-3.9070188l.42156301-.44706v.7143448l.42257882-.4014028v4.5252933l.42257882-.5854584v-1.3701912l.42156301-.4413528v-2.2381535l.42257882-.4703642v4.6498994l.42207092-.5859339v-7.410257l.42257881-.3619283v7.8858526l.4225788-.5141189v-7.7446007l.421563-.3628796v2.9486935l.4225789-.5046071v-.4794005l.4220709-.3476604v-1.1457101l.4220709-.451816v3.5393834l.4225788-.494144v-3.3334504l.4220709-.310564v5.5259467l.4220709-.382379v.521253l.4225789-.5678613v.4037807l.4220709-.4584742v-2.1896427l.1381507-.1274597.2844281.26348v-3.9436397l.4220709.4213778v5.2905268l.4220709.5321916v-2.6048377l.4225788.328161v1.1580756l.422071.5593006v1.172819l.4220709.5459839v-2.1368516l.4225788.3300635v-4.9480979l.4220709.308186v3.3196581l.4225788.3172224v.1569466l.4220709.5402767v3.425716l.422071.4974731v-3.5236887l.4225788.3319658v-.7804525l.4220709.5378987v-.089412l.4220709.4832053v.2872598l.4225788.3628795v-2.3618083l.4220709.3343438v1.5856361l.422071.3229295v1.5794534l.4225788.591641v2.8283678l.4220709.5126922v-.8622551l.4220709.5916411v-3.6306977l.4225788.3719158v3.1417854l.4220709.5264844v2.0112943l.422071.581178v-3.73628l.4220709.4342189v-2.17157l.4225788.5131677v-1.8562501l.4225788.3738183v.4755957l.4220709.3937933v4.1200857l.4220709.5183993v-2.6262396l.4225789.5997263v-3.0947014l.421563.4613279v6.0657478l.4225788.462279v.2197252l.4220709.5502643v-3.4561541l.4225788.3638307v-.8104151l.4225788.3871349v-2.5934235l.422071.4056832v1.7026327l.4220709.3947444v-.9697396l.0421563.0394744v-9.2569951l-.0421563-.0394744v.9626057l-.4220709-.3947444v-1.9675395l-.422071-.4056832v3.0385811l-.4225788-.3866594v1.3525943l-.4225788-.3643064v-.9155217l-.4220709-.5507399v1.8353239l-.4225788-.462279v-6.0357853l-.421563-.4618034v-.1469591l-.4225789-.5997262v4.5257689l-.4220709-.518875v-1.1832821l-.4220709-.3933177v-.0118899l-.4225788-.3738182v-1.4096657l-.4225788-.5131678v4.0130767l-.4220709-.4346945v.2953449l-.422071-.5811779v-.7324175l-.4220709-.5264844v.4851076l-.4225788-.3719158v-1.5242843l-.4220709-.5916411v2.7170784l-.4220709-.5126922v-4.6855691l-.4225788-.591641v4.7245678l-.422071-.3229294v-1.8514942l-.4220709-.3343438v1.7054863l-.4225788-.362404v-3.127993l-.4220709-.4836809v-1.1756726l-.4220709-.5369475v5.6001396l-.4225788-.3314903v-.3647819l-.422071-.4974731v-4.4306497l-.4220709-.5402768v5.0917278l-.4225788-.3167467v-3.1156276l-.4220709-.308186v4.4287473l-.4225788-.330539v-2.9344256l-.4220709-.5459839v-1.4762491l-.422071-.558825v4.270374l-.4225788-.3276855v-2.1815575l-.4220709-.5321916v-2.6994813z" mask="url(#f)"/><path d="m15.0171655 39.7571342v4.6446678l-.2844281-.2634801-.1381507.1284109v.6201768l-.4220709.4584743v-2.9686685l-.4225789.5678613v3.8328259l-.4220709.3823789v-3.8475693l-.4220709.3110396v-.9568986l-.4225788.4936683v-2.5677413l-.4220709.451816v3.5869429l-.4220709.3481361v-3.1955277l-.4225789.5046071v.3842813l-.421563.362404v4.193803l-.4225788.5136434v-4.3274455l-.42257881.362404v2.1639605l-.42207092.5859339v-1.935199l-.42257882.4703642v2.9120726l-.42156301.4418284v-1.992746l-.42257882.5845071v-.225908l-.42257882.4014028v-1.7872887l-.42156301.44706v1.4063365l-.42257882.5535934v.5421792l-.42257882.484632v-1.3953978l-.42207091.5203017v-2.7232611l-.42257882.4489624v1.1309666l-.42156301.4632302v1.7078642l-.42257882.3747695v-2.3513453l-.42207092.5288625v-.4004516l-.42207091.4247069v4.5766577l-.42257882.5164969v-3.3120486l-.42257882.3291123v3.3401087l-.42156301.4679862v-3.7629134l-.42257882.5792756v-.8874616l-.42207092.5716661v.6282619l-.42257882.5469351v-.7485877l-.42207091.4660838v.2710896l-.42207091.5916411v-.8408533l-.42207092.5778488v-.7538192l-.29407829.2387491v8.0508843l.29407829-.2382734v6.2702539l.42207092-.5783244v1.1561732l.42207091-.5911654v-3.2083688l.42207091-.4660838v2.6328979l.42257882-.5464595v-.0466083l.42207092-.5716661v1.0786511l.42257882-.5792756v1.1281131l.42156301-.4675106v-6.5893787l.42257882-.3286367v7.7155894l.42257882-.516497v-6.7330086l.42207091-.4247069v2.8516719l.42207092-.529338v-1.2688894l.42257882-.375245v.3647819l.42156301-.4632303v-1.4643592l.42257882-.4489623v4.3883217l.42207091-.5198262v.5754709l.42257882-.4851077v1.075322l.42257882-.5535935v-3.9070188l.42156301-.44706v.7143448l.42257882-.4014028v4.5252933l.42257882-.5854584v-1.3701912l.42156301-.4413528v-2.2381535l.42257882-.4703642v4.6498994l.42207092-.5859339v-7.410257l.42257881-.3619283v7.8858526l.4225788-.5141189v-7.7446007l.421563-.3628796v2.9486935l.4225789-.5046071v-.4794005l.4220709-.3476604v-1.1457101l.4220709-.451816v3.5393834l.4225788-.494144v-3.3334504l.4220709-.310564v5.5259467l.4220709-.382379v.521253l.4225789-.5678613v.4037807l.4220709-.4584742v-2.1896427l.1381507-.1274597.2844281.26348v-3.9436397l.4220709.4213778v5.2905268l.4220709.5321916v-2.6048377l.4225788.328161v1.1580756l.422071.5593006v1.172819l.4220709.5459839v-2.1368516l.4225788.3300635v-4.9480979l.4220709.308186v3.3196581l.4225788.3172224v.1569466l.4220709.5402767v3.425716l.422071.4974731v-3.5236887l.4225788.3319658v-.7804525l.4220709.5378987v-.089412l.4220709.4832053v.2872598l.4225788.3628795v-2.3618083l.4220709.3343438v1.5856361l.422071.3229295v1.5794534l.4225788.591641v2.8283678l.4220709.5126922v-.8622551l.4220709.5916411v-3.6306977l.4225788.3719158v3.1417854l.4220709.5264844v2.0112943l.422071.581178v-3.73628l.4220709.4342189v-2.17157l.4225788.5131677v-1.8562501l.4225788.3738183v.4755957l.4220709.3937933v4.1200857l.4220709.5183993v-2.6262395l.4225789.5997262v-3.0947014l.421563.4613279v6.0657478l.4225788.462279v.2197252l.4220709.5502643v-3.4561541l.4225788.3638307v-.8104151l.4225788.3871349v-2.5934234l.422071.4056831v1.7026327l.4220709.3947444v-.9697396l.0421563.0394744v-9.2569951l-.0421563-.0394744v.9626057l-.4220709-.3947444v-1.9675395l-.422071-.4056832v3.0385811l-.4225788-.3866594v1.3525943l-.4225788-.3643063v-.9155218l-.4220709-.5507399v1.8353239l-.4225788-.462279v-6.0357853l-.421563-.4618034v-.1469591l-.4225789-.5997262v4.5257689l-.4220709-.518875v-1.1832821l-.4220709-.3933177v-.0118899l-.4225788-.3738182v-1.4096657l-.4225788-.5131678v4.0130767l-.4220709-.4346945v.2953449l-.422071-.5811779v-.7324174l-.4220709-.5264845v.4851076l-.4225788-.3719158v-1.5242843l-.4220709-.5916411v2.7170784l-.4220709-.5126922v-4.6855691l-.4225788-.591641v4.7245678l-.422071-.3229294v-1.8514942l-.4220709-.3343438v1.7054863l-.4225788-.362404v-3.127993l-.4220709-.4836809v-1.1756726l-.4220709-.5369475v5.6001396l-.4225788-.3314903v-.3647819l-.422071-.4974731v-4.4306497l-.4220709-.5402768v5.0917278l-.4225788-.3167467v-3.1156276l-.4220709-.308186v4.4287473l-.4225788-.330539v-2.9344256l-.4220709-.5459839v-1.4762491l-.422071-.558825v4.270374l-.4225788-.3276855v-2.1815575l-.4220709-.5321916v-2.6994813z" mask="url(#f)"/><path d="m15.0171655-.36639786v4.6446678l-.2844281-.26348003-.1381507.12841085v.62017682l-.4220709.45847427v-2.96866848l-.4225789.56786129v3.8328259l-.4220709.38237896v-3.84756937l-.4220709.3110396v-.95689859l-.4225788.49366836v-2.56774129l-.4220709.45181593v3.58694292l-.4220709.34813607v-3.19552764l-.4225789.50460705v.38428135l-.421563.36240393v4.19380306l-.4225788.51364338v-4.32744546l-.42257881.36240394v2.16396053l-.42207092.58593392v-1.93519898l-.42257882.47036417v2.91207259l-.42156301.44182842v-1.99274606l-.42257882.58450714v-.22590797l-.42257882.40140279v-1.78728872l-.42156301.44705998v1.40633654l-.42257882.55359342v.54217912l-.42257882.48463204v-1.39539784l-.42207091.52030171v-2.72326109l-.42257882.44896236v1.13096662l-.42156301.46323024v1.70786422l-.42257882.37476943v-2.35134524l-.42207092.52886244v-.40045159l-.42207091.42470698v4.57665757l-.42257882.516497v-3.3120486l-.42257882.32911223v3.34010877l-.42156301.4679862v-3.76291337l-.42257882.57927557v-.8874616l-.42207092.57166606v.62826194l-.42257882.5469351v-.7485877l-.42207091.4660838v.2710896l-.42207091.5916411v-.8408533l-.42207092.5778488v-.7538192l-.29407829.2387491v8.0508843l.29407829-.2382735v6.270254l.42207092-.5783244v1.1561732l.42207091-.5911655v-3.2083687l.42207091-.4660838v2.6328979l.42257882-.5464595v-.0466084l.42207092-.571666v1.0786511l.42257882-.5792756v1.128113l.42156301-.4675105v-6.5893787l.42257882-.3286367v7.7155894l.42257882-.516497v-6.7330086l.42207091-.424707v2.851672l.42207092-.5293381v-1.2688893l.42257882-.3752451v.364782l.42156301-.4632303v-1.4643592l.42257882-.4489624v4.3883217l.42207091-.5198261v.5754708l.42257882-.4851076v1.0753219l.42257882-.5535934v-3.9070188l.42156301-.44706v.7143448l.42257882-.4014028v4.5252933l.42257882-.5854584v-1.3701912l.42156301-.4413529v-2.2381534l.42257882-.4703642v4.6498994l.42207092-.585934v-7.4102569l.42257881-.3619283v7.8858526l.4225788-.514119v-7.7446007l.421563-.3628795v2.9486935l.4225789-.5046071v-.4794005l.4220709-.3476604v-1.1457101l.4220709-.451816v3.5393834l.4225788-.494144v-3.3334504l.4220709-.310564v5.5259467l.4220709-.382379v.5212529l.4225789-.5678613v.4037808l.4220709-.4584743v-2.1896427l.1381507-.1274596.2844281.26348v-3.94363969l.4220709.42137781v5.29052678l.4220709.5321916v-2.6048377l.4225788.328161v1.1580756l.422071.5593006v1.172819l.4220709.5459839v-2.1368516l.4225788.3300634v-4.9480978l.4220709.308186v3.3196581l.4225788.3172224v.1569466l.4220709.5402767v3.425716l.422071.4974731v-3.5236887l.4225788.3319658v-.7804526l.4220709.5378988v-.089412l.4220709.4832053v.2872598l.4225788.3628795v-2.3618083l.4220709.3343437v1.5856362l.422071.3229295v1.5794534l.4225788.591641v2.8283678l.4220709.5126922v-.8622551l.4220709.5916411v-3.6306977l.4225788.3719158v3.1417854l.4220709.5264844v2.0112943l.422071.581178v-3.73628l.4220709.4342189v-2.1715701l.4225788.5131678v-1.8562501l.4225788.3738183v.4755957l.4220709.3937932v4.1200858l.4220709.5183993v-2.6262396l.4225789.5997262v-3.0947013l.421563.4613278v6.0657478l.4225788.4622791v.2197252l.4220709.5502643v-3.4561541l.4225788.3638307v-.8104151l.4225788.3871349v-2.5934235l.422071.4056832v1.7026327l.4220709.3947444v-.9697397l.0421563.0394745v-9.2569951l-.0421563-.0394745v.9626058l-.4220709-.3947445v-1.9675395l-.422071-.4056831v3.038581l-.4225788-.3866593v1.3525943l-.4225788-.3643064v-.9155217l-.4220709-.5507399v1.8353239l-.4225788-.462279v-6.03578531l-.421563-.46180344v-.14695908l-.4225789-.5997262v4.52576883l-.4220709-.5188749v-1.18328214l-.4220709-.39331766v-.0118899l-.4225788-.37381823v-1.40966572l-.4225788-.51316778v4.01307673l-.4220709-.4346945v.2953449l-.422071-.581178v-.73241737l-.4220709-.52648446v.48510763l-.4225788-.37191585v-1.52428428l-.4220709-.59164108v2.71707835l-.4220709-.51269219v-4.68556903l-.4225788-.59164107v4.72456788l-.422071-.3229295v-1.85149413l-.4220709-.33434379v1.70548625l-.4225788-.36240394v-3.12799305l-.4220709-.48368085v-1.17567262l-.4220709-.53694756v5.6001396l-.4225788-.33149022v-.36478192l-.422071-.49747312v-4.43064973l-.4220709-.54027673v5.09172777l-.4225788-.31674675v-3.11562756l-.4220709-.30818602v4.42874734l-.4225788-.33053903v-2.93442559l-.4220709-.54598388v-1.47624912l-.422071-.55882497v4.27037397l-.4225788-.32768545v-2.18155757l-.4220709-.53219161v-2.6994813z" mask="url(#f)"/></g></g></g><path d="m39.0906456 24.0622754c1.7858355-.2437211 3.4014246-.7338011 4.8467673-1.4702399 1.4453426-.7364389 2.7204389-1.7192367 3.8252887-2.9483933l1.1539141 2.4944907-8.672056 4.4186332zm-30.18129117 0c-1.78583554-.2437211-3.40142464-.7338011-4.84676731-1.4702399-1.44534267-.7364389-2.7204389-1.7192367-3.82528869-2.9483933l-1.15391413 2.4944907 8.672056 4.4186332z" fill="#ba0019" mask="url(#e)"/><g fill="#ba0019" mask="url(#e)"><path d="m1.67380563.52647533h1.5l-1.5 1.5h-1.5z" transform="matrix(.92050485 .39073113 -.39073113 .92050485 32.859624 1.041168)"/><path d="m4.13309518 1.56857433h1.5l-1.5 1.5h-1.5z" transform="matrix(.92050485 .39073113 -.39073113 .92050485 33.462306 .16309)"/><path d="m6.63005868 2.63273754h1.5l-1.5 1.5h-1.5z" transform="matrix(.92050485 .39073113 -.39073113 .92050485 34.076605 -.727956)"/><path d="m9.46953228 4.40610419h1.50000002l-1.50000002 1.5h-1.5z" transform="matrix(.74314483 .66913061 -.66913061 .74314483 38.110211 -3.418279)"/><path d="m1.67380563.52647533h1.5l-1.5 1.5h-1.5z" transform="matrix(-.92050485 .39073113 .39073113 .92050485 15.118183 1.041168)"/><path d="m4.13309518 1.56857433h1.5l-1.5 1.5h-1.5z" transform="matrix(-.92050485 .39073113 .39073113 .92050485 14.515501 .16309)"/><path d="m6.63005868 2.63273754h1.5l-1.5 1.5h-1.5z" transform="matrix(-.92050485 .39073113 .39073113 .92050485 13.901202 -.727956)"/><path d="m9.46953228 4.40610419h1.50000002l-1.50000002 1.5h-1.5z" transform="matrix(-.74314483 .66913061 .66913061 .74314483 9.867596 -3.418279)"/></g><g fill="#000" fill-opacity=".2" fill-rule="nonzero" mask="url(#e)"><g transform="translate(7.564771 4.804976)"><path d="m30.4841488.07197842.2912372-.07197842.1092971.4591087.1073215.48486192c.0177224.08295654.0353624.16698623.0529202.25208909l.1043594.52349576.1023856.54925432c.0168998.09368905.0337174.18845146.0504528.28428728l.099426.58789613.0974539.61366001.0954824.63942601.0935116.66519414.0915414.69096441.1336198 1.0847705.0866191.75539938.0846514.78117709.0826844.80695693.1203399 1.25877723.0777697.8714159.1129711 1.3554756.0728594.9358881.1056087 1.4521939.1339453 2.0265452.0640315 1.0519716-.2994755.0177321-.0625778-1.0286827-.0973787-1.4966371-.1363907-1.9089167-.1072045-1.3667292-.1114119-1.3110431-.1156173-1.25535035-.0794133-.80595643-.1226213-1.16251397-.0840806-.74405927-.1296193-1.06965883-.088744-.68214959-.0906082-.65738223-.0924717-.63261284-.0943347-.60784148-.096197-.58306809-.0980586-.55829272-.0999196-.53351534-.10178-.50873596-.1036397-.48395458-.1054987-.45917119z" transform="matrix(-1 0 0 1 63.338786 0)"/><path d="m.2912372 0 .05489555.22633533.10830924.47198504.106334.49773934.10435944.52349576.10238557.54925432.10041238.57501499.09843988.6007778.14396285.94947664.13952854 1.00745493.09055667.70385033.08858757.72962379.12919079 1.14276558.12476417 1.20076782.08071801.83273893.07875233.858523.11444433 1.3361343.11002538 1.3941606.07089642.9616807.10266559 1.4908868.09825278 1.5489323.0317707.5292109-.2994755.0177321-.09456916-1.5337469-.0987831-1.4780811-.10299488-1.4224085-.1072045-1.3667292-.11141195-1.3110431-.11561723-1.25535035-.07941336-.80595643-.08128077-.78119907-.08314754-.7564397-.12822011-1.08823136-.08781166-.69453253-.08967618-.66976616-.09154007-.64499779-.09340331-.62022741-.09526591-.59545503-.09712787-.57068066-.09898919-.54590428-.10084987-.5211259-.1027099-.49634552-.10456929-.47156314c-.01758313-.07652854-.0352437-.1520244-.05298171-.22648754l-.05344633-.22029121z"/></g></g><g mask="url(#e)"><g transform="translate(16.247322 -4.475724)"><path d="m1.00267777 5.97572384h13.50000003c-2.5639089 3.2232666-4.81390892 4.83489986-6.75000003 4.83489986-1.9360911 0-4.1860911-1.61163326-6.75-4.83489986z" fill="#8b0013"/><path d="m.04988847 4.35674159h15.40557863v1.5c-2.5675965.72019064-5.1351929 1.08028596-7.70278933 1.08028596s-5.13519287-.36009532-7.7027893-1.08028596z" fill="#111b4c"/><path d="m.04988847 3.73292599h15.40557863v1.5c-2.5675965.72019064-5.1351929 1.08028596-7.70278933 1.08028596s-5.13519287-.36009532-7.7027893-1.08028596z" fill="#d4d4d4"/><g fill="none"><g transform="translate(.075 .075)"><use fill="#fff" fill-rule="nonzero" xlink:href="#c"/><path d="m7.67767777 5.57188457 16.17362953 6.93809223h-32.34725908z" fill="#ba0019" mask="url(#g)"/></g><g><use fill="#ebebeb" fill-rule="nonzero" xlink:href="#d"/><path d="m7.75267777 5.64688457 16.17362953 6.93809223h-32.34725908z" fill="#ad0017" mask="url(#h)"/></g></g></g></g><g mask="url(#e)"><g transform="translate(27.75 9)"><circle cx="4.125" cy="4.125" fill="#fff" r="4.125"/><circle cx="4.125" cy="4.125" fill="#ab0017" r="3.634155"/><circle cx="4.125" cy="4.125" fill="#fff" r="2.726624"/><circle cx="4.125" cy="4.125" fill="#ab0017" r="2.559998"/></g></g></g></svg>