<?xml version="1.0" encoding="UTF-8"?>
<svg width="48px" height="52px" viewBox="0 0 48 52" version="1.1" xmlns="http://www.w3.org/2000/svg" xmlns:xlink="http://www.w3.org/1999/xlink">
    <title>France_Home</title>
    <defs>
        <path d="M10.2202858,49.9349257 C10.2990374,41.6089564 10.3384132,36.1692068 10.3384132,33.6156766 C10.3384132,31.0621465 10.176828,26.9540037 9.85365765,21.2912482 L8.2241567,25.1160522 C7.01125281,25.3258129 5.41848163,24.9509062 3.44584315,23.9913321 C1.52651922,23.0576924 0.387279465,22.0785814 0.0281238815,21.053999 L0,20.9685118 L4.72526396,9.16007698 C5.53354862,7.00608415 6.66054046,5.6140616 8.10623945,4.98400935 L16.3835008,1.36290579 L17.7009394,0 C20.0542672,0.521537936 22.154146,0.782865363 24.0005758,0.783982281 C25.8380118,0.785093757 27.9375067,0.523766331 30.2990606,0 L31.6139292,1.36290579 L39.7758433,4.9345938 C41.2783083,5.53937373 42.4446058,6.94786812 43.274736,9.16007698 L48,20.9685118 C47.6754097,22.0241513 46.5267953,23.031758 44.5541569,23.9913321 C42.5815184,24.9509062 40.9887472,25.3258129 39.7758433,25.1160522 L38.1463424,21.2912482 C37.823172,26.7575783 37.6615868,30.8657211 37.6615868,33.6156766 C37.6615868,36.3656321 37.7013266,41.8053818 37.7808063,49.9349257 C37.2455989,50.399355 30.6230725,51 24.000546,51 C17.3780196,51 10.7554932,50.399355 10.2202858,49.9349257 Z" id="path-1"></path>
    </defs>
    <g id="France_Home" stroke="none" stroke-width="1" fill="none" fill-rule="evenodd">
        <g id="TeamKit-/-XXX" transform="translate(0.000000, 0.500000)">
            <mask id="mask-2" fill="white">
                <use xlink:href="#path-1"></use>
            </mask>
            <use id="Shirt-Mask" fill="#12203B" xlink:href="#path-1"></use>
            <g id="Arm-Seams" mask="url(#mask-2)" fill="#000000" fill-opacity="0.2" fill-rule="nonzero">
                <g transform="translate(7.564771, 4.804976)">
                    <path d="M30.4841488,0.0719784231 L30.775386,0 L30.8846831,0.459108697 L30.9920046,0.943970623 C31.009727,1.02692716 31.027367,1.11095685 31.0449248,1.19605971 L31.1492842,1.71955547 L31.2516698,2.26880979 C31.2685696,2.36249884 31.2853872,2.45726125 31.3021226,2.55309707 L31.4015486,3.1409932 L31.4990025,3.75465321 L31.5944849,4.39407922 L31.6879965,5.05927336 L31.7795379,5.75023777 L31.9131577,6.83500827 L31.9997768,7.59040765 L32.0844282,8.37158474 L32.1671126,9.17854167 L32.2874525,10.4373189 L32.3652222,11.3087348 L32.4781933,12.6642104 L32.5510527,13.6000985 L32.6566614,15.0522924 L32.7906067,17.0788376 L32.8546382,18.1308092 L32.5551627,18.1485413 L32.4925849,17.1198586 L32.3952062,15.6232215 L32.2588155,13.7143048 L32.151611,12.3475756 L32.0401991,11.0365325 L31.9245818,9.78118215 L31.8451685,8.97522572 L31.7225472,7.81271175 L31.6384666,7.06865248 L31.5088473,5.99899365 L31.4201033,5.31684406 L31.3294951,4.65946183 L31.2370234,4.02684899 L31.1426887,3.41900751 L31.0464917,2.83593942 L30.9484331,2.2776467 L30.8485135,1.74413136 L30.7467335,1.2353954 L30.6430938,0.751440821 L30.5375951,0.292269626 L30.4841488,0.0719784231 Z" id="Right" transform="translate(31.669393, 9.074271) scale(-1, 1) translate(-31.669393, -9.074271) "></path>
                    <path d="M0.2912372,0 L0.346132747,0.226335328 L0.454441985,0.698320373 L0.560775986,1.19605971 L0.665135431,1.71955547 L0.767521003,2.26880979 L0.867933384,2.84382478 L0.966373258,3.44460258 L1.11033611,4.39407922 L1.24986465,5.40153415 L1.34042132,6.10538448 L1.42900889,6.83500827 L1.55819968,7.97777385 L1.68296385,9.17854167 L1.76368186,10.0112806 L1.84243419,10.8698036 L1.95687852,12.2059379 L2.0669039,13.6000985 L2.13780032,14.5617792 L2.24046591,16.052666 L2.33871869,17.6015983 L2.37048939,18.1308092 L2.07101389,18.1485413 L1.97644473,16.6147944 L1.87766163,15.1367133 L1.77466675,13.7143048 L1.66746225,12.3475756 L1.5560503,11.0365325 L1.44043307,9.78118215 L1.36101971,8.97522572 L1.27973894,8.19402665 L1.1965914,7.43758695 L1.06837129,6.34935559 L0.980559634,5.65482306 L0.890883448,4.9850569 L0.799343379,4.34005911 L0.705940068,3.7198317 L0.610674156,3.12437667 L0.513546285,2.55369601 L0.414557097,2.00779173 L0.313707232,1.48666583 L0.210997334,0.990320312 L0.106428043,0.518757175 C0.0888449136,0.442228629 0.0711843367,0.366732765 0.0534463251,0.292269626 L0,0.0719784231 L0.2912372,0 Z" id="Left"></path>
                </g>
            </g>
            <g id="Neck" mask="url(#mask-2)">
                <g transform="translate(16.247322, -4.475724)">
                    <path d="M1.00267777,5.97572384 L14.5026778,5.97572384 C13.5275801,9.09190795 11.2775801,10.65 7.75267777,10.65 C4.22777543,10.65 1.97777543,9.09190795 1.00267777,5.97572384 Z" id="Neck-Inside" fill="#0E192F"></path>
                    <path d="M0.0498884653,4.35674159 L15.4554671,4.35674159 L15.4554671,5.85674159 C12.8878706,6.57693223 10.3202742,6.93702755 7.75267777,6.93702755 C5.18508134,6.93702755 2.6174849,6.57693223 0.0498884653,5.85674159 L0.0498884653,4.35674159 Z" id="Neck-Back" fill="#071227"></path>
                    <g id="Neck-Front" stroke-width="1" fill="none">
                        <path d="M7.75267777,0.075 C11.9929421,0.075 15.4303555,2.42550506 15.4303555,5.325 C15.4303555,8.22449494 11.9929421,10.575 7.75267777,10.575 C3.51241342,10.575 0.075,8.22449494 0.075,5.325 C0.075,2.42550506 3.51241342,0.075 7.75267777,0.075 Z M7.75267777,1.575 C4.2464386,1.575 1.575,3.40173109 1.575,5.325 C1.575,6.60717928 3.63158923,8.33217928 7.74476768,10.5 C11.8684929,8.33217928 13.9303555,6.60717928 13.9303555,5.325 C13.9303555,3.40173109 11.2589169,1.575 7.75267777,1.575 Z" fill="#0D1E3F" fill-rule="nonzero"></path>
                        <path d="M7.75267777,0 C3.47571217,0 0,2.37669376 0,5.325 C0,8.27330624 3.47571217,10.65 7.75267777,10.65 C12.0296434,10.65 15.5053555,8.27330624 15.5053555,5.325 C15.5053555,2.37669376 12.0296434,0 7.75267777,0 Z M7.75267777,0.15 C11.9562409,0.15 15.3553555,2.47431636 15.3553555,5.325 C15.3553555,8.17568364 11.9562409,10.5 7.75267777,10.5 C3.54911468,10.5 0.15,8.17568364 0.15,5.325 C0.15,2.47431636 3.54911468,0.15 7.75267777,0.15 Z" id="Neck-Bottom-Seam" fill="#0E192F" fill-rule="nonzero"></path>
                    </g>
                </g>
            </g>
            <g id="Cuffs" mask="url(#mask-2)" fill="#0D1E3F">
                <g transform="translate(-0.916616, 19.643642)" id="Combined-Shape">
                    <path d="M40.0072613,4.41863323 C41.7930968,4.17491214 43.4086859,3.68483216 44.8540286,2.94839329 C46.2993712,2.21195442 47.5744675,1.22915666 48.6793173,-4.61852778e-14 L49.8332314,2.49449074 L41.1611754,6.91312397 L40.0072613,4.41863323 Z M9.82597014,4.41863323 C8.04013459,4.17491214 6.42454549,3.68483216 4.97920282,2.94839329 C3.53386016,2.21195442 2.25876393,1.22915666 1.15391413,6.35935749e-13 L0,2.49449074 L8.672056,6.91312397 L9.82597014,4.41863323 Z"></path>
                </g>
            </g>
        </g>
        <path d="M34.9851446,13.7995146 C34.9851446,13.7995146 35.0235483,11.8924509 34.0773294,11.6347323 C33.0882381,11.365353 32.8842101,12.6770347 32.2325122,13.1146033 C31.7857267,13.4145473 31.1042043,13.2101516 30.7263266,12.716523 C30.3877276,12.6657836 30.2378277,12.5141102 30.2378277,12.5141102 C30.479887,12.6397948 30.8034085,12.6211749 30.8034085,12.6211749 C30.8034085,12.6211749 30.6455114,12.5422124 30.4915244,12.0532667 C30.3732832,11.6778189 30.2979236,11.5964451 30.2393825,11.5395518 C30.3034351,11.5741663 30.3914423,11.6133706 30.3914423,11.6133706 C30.0772308,11.0431349 29.5886714,10.9489413 29.5886714,10.9489413 C29.6268097,10.9460598 29.6648177,10.9433879 29.6992087,10.9265415 C29.9125513,10.8220231 29.9063649,10.5961818 29.8444908,10.5374033 C29.8015253,10.4965838 29.7161017,10.4677973 29.6426832,10.5421002 C29.6109036,10.5742568 29.4882029,10.755508 29.385081,10.7493215 C29.3725544,10.7485674 29.3507644,10.7362876 29.3556242,10.7086835 C29.3629093,10.6673379 29.3878647,10.6191914 29.3773491,10.5838089 C29.3603304,10.5265758 29.2757726,10.5172938 29.256771,10.5877517 C29.2425919,10.6403157 29.2293764,10.6938015 29.2009391,10.7402303 C29.1685218,10.7931482 29.1293361,10.7751008 29.1346614,10.7459094 C29.1438364,10.6956263 29.1539098,10.6552489 29.1314029,10.6093322 C29.105619,10.5567401 29.0210565,10.5678237 29.0258325,10.6477591 C29.0294448,10.7082878 29.0247013,10.770134 28.9999927,10.8255097 C28.9803021,10.8696529 28.9512224,10.9088618 28.9273563,10.9508964 C28.9034902,10.9929309 28.8844373,11.0400114 28.8878867,11.0882277 C28.8913407,11.1364394 28.9450871,11.1736188 28.9921816,11.1844975 C28.9055617,11.2339939 28.8539984,11.3463979 28.8498648,11.4199373 C28.8931887,11.3628998 29.0370417,11.2953513 29.1020113,11.3355704 C29.166711,11.3756219 29.1321477,11.4708163 29.1250023,11.5499883 C29.1081978,11.7362017 29.310834,11.8089032 29.4350336,11.6930965 C29.4651421,11.6650223 29.4814113,11.6250639 29.4927229,11.5854826 C29.5081262,11.5315546 29.5129534,11.4701507 29.489874,11.4204773 C29.6233697,11.6087156 29.4546125,11.7890683 29.4546125,11.7890683 C29.9171551,12.8403595 28.5705703,13.4839066 30.007406,14.2069654 C30.007406,14.2069654 29.9620199,14.108466 29.9390661,13.9618339 C29.9390661,13.9618339 29.988786,14.0021461 30.0508556,14.0363137 C30.0508556,14.0363137 29.911206,13.7787068 29.9360311,13.4684055 C29.9360311,13.4684055 29.9375812,13.7554319 30.1470555,14.1131209 C30.1470555,14.1131209 30.0772308,14.1076746 30.0261283,14.0779293 C30.0261283,14.0779293 30.0733532,14.2380142 30.1253354,14.303184 C30.1253354,14.303184 30.0012009,14.2930827 29.9044098,14.2430881 C29.9459415,14.3724967 30.0320402,14.5889535 30.1953696,14.8203528 C30.4560488,15.1896328 30.434324,15.3230913 30.434324,15.3230913 C30.466313,15.3013059 30.477769,15.2579215 30.477769,15.2579215 C30.4678631,15.3164346 30.4727742,15.332215 30.4672254,15.4206132 C30.4574313,15.5766018 30.438681,15.7963171 30.3970841,15.8537596 C30.3319143,15.9437404 30.1301998,15.9189294 30.0464101,15.9158105 C29.9626204,15.9126917 29.9408955,15.9858215 29.9408955,15.9858215 C29.9408955,15.9858215 29.9998602,15.9534228 30.0898551,15.9858215 C30.1798499,16.0182202 30.2998228,16.0366539 30.4901838,15.9858215 C30.617209,15.9518867 30.6684139,15.9697153 30.7043131,16.0138445 C30.7043131,16.0138445 30.7428936,15.9254929 30.6205234,15.8568319 C30.5540735,15.8195454 30.5788613,15.5864703 30.6096819,15.4379763 C30.6223621,15.3768563 30.6402512,15.3283048 30.6546584,15.3044713 C30.7556949,15.1372177 30.732243,15.0624121 30.7043131,15.0127434 C30.7043131,15.0127434 30.7475486,15.0592467 30.8253427,15.0561744 C30.8253427,15.0561744 30.631174,14.8260785 30.6420387,14.4738823 C30.6420387,14.4738823 30.6653788,14.6035702 30.7265128,14.739263 C30.8100744,14.7839509 30.9331382,14.8721163 31.0208521,14.928302 C31.1930633,15.0386251 31.2083922,15.1938223 31.2083922,15.1938223 C31.2188007,15.1575134 31.2248336,15.1189236 31.2283434,15.0862922 C31.2434535,15.1379625 31.2755543,15.2105337 31.2856277,15.3115003 C31.2911299,15.3666619 31.291358,15.4221959 31.2873873,15.4774971 C31.276732,15.6258515 31.2578095,15.8036254 31.2210165,15.8544578 C31.1558467,15.9444387 30.9541322,15.9196276 30.8703425,15.9165088 C30.7865528,15.9133899 30.7648279,15.9865198 30.7648279,15.9865198 C30.7648279,15.9865198 30.8237926,15.9541211 30.9137875,15.9865198 C31.0037823,16.0189185 31.1237552,16.0373522 31.3141162,15.9865198 C31.4411414,15.9525849 31.4923463,15.9704601 31.5282455,16.0145428 C31.5282455,16.0145428 31.561943,15.9342908 31.4444558,15.8575301 C31.3613829,15.8032995 31.4035152,15.5312622 31.4504514,15.3397096 C31.479033,15.2230091 31.5001061,15.2170972 31.5132937,15.1279077 C31.5279941,15.0284307 31.4822729,14.9569301 31.4349363,14.8897121 C31.5495933,14.9142439 31.6801004,14.9021409 31.6801004,14.9021409 C30.6423413,14.5391452 30.4263546,13.314791 30.4263546,13.314791 C30.4263546,13.314791 31.2316671,15.6003887 33.0564446,14.3621627 C33.0564446,14.3621627 32.3163019,14.6321518 31.6925106,14.3249228 C31.6925106,14.3249228 32.3131831,14.5080033 32.8620059,14.2783729 C32.8620059,14.2783729 32.2731968,14.2928499 31.9966441,14.0890547 C31.9966441,14.0890547 32.4062828,14.2162754 32.7383229,14.1169846 C32.7383229,14.1169846 32.4955189,14.1154484 32.2473151,13.9844106 C32.2473151,13.9844106 32.4606065,14.0176937 32.5793086,13.9711439 C32.5793086,13.9711439 32.623531,13.4544405 32.9493799,13.1425332 C32.9493799,13.1425332 32.8260228,13.3403934 32.7854779,13.5841284 C33.1448893,12.8539242 33.9595117,13.4590955 33.9595117,13.4590955 C33.861757,13.0121937 33.4148785,12.9516788 33.4148785,12.9516788 C34.093715,12.9895285 34.2620858,13.5521952 34.2620858,13.5521952 C34.3458755,12.6723797 33.3357437,12.7678069 33.3357437,12.7678069 C34.2760507,12.5001453 34.5972447,13.1983931 34.5972447,13.1983931 C34.4808701,11.7320727 33.1663022,12.5627316 33.1663022,12.5627316 C34.7210673,11.147616 34.9851446,13.7995146 34.9851446,13.7995146" id="Fill-3" fill="#C4A03B"></path>
        <rect id="Rectangle" fill="#C4A03B" x="28.8498648" y="16.4961206" width="6" height="1"></rect>
    </g>
</svg>