<?xml version="1.0" encoding="UTF-8"?>
<svg width="48px" height="52px" viewBox="0 0 48 52" version="1.1" xmlns="http://www.w3.org/2000/svg" xmlns:xlink="http://www.w3.org/1999/xlink">
    <title>Germany_Home</title>
    <defs>
        <path d="M10.2202858,49.9349257 C10.2990374,41.6089564 10.3384132,36.1692068 10.3384132,33.6156766 C10.3384132,31.0621465 10.176828,26.9540037 9.85365765,21.2912482 L8.2241567,25.1160522 C7.01125281,25.3258129 5.41848163,24.9509062 3.44584315,23.9913321 C1.52651922,23.0576924 0.387279465,22.0785814 0.0281238815,21.053999 L0,20.9685118 L4.72526396,9.16007698 C5.53354862,7.00608415 6.66054046,5.6140616 8.10623945,4.98400935 L16.3835008,1.36290579 L17.7009394,0 C20.0542672,0.521537936 22.154146,0.782865363 24.0005758,0.783982281 C25.8380118,0.785093757 27.9375067,0.523766331 30.2990606,0 L31.6139292,1.36290579 L39.7758433,4.9345938 C41.2783083,5.53937373 42.4446058,6.94786812 43.274736,9.16007698 L48,20.9685118 C47.6754097,22.0241513 46.5267953,23.031758 44.5541569,23.9913321 C42.5815184,24.9509062 40.9887472,25.3258129 39.7758433,25.1160522 L38.1463424,21.2912482 C37.823172,26.7575783 37.6615868,30.8657211 37.6615868,33.6156766 C37.6615868,36.3656321 37.7013266,41.8053818 37.7808063,49.9349257 C37.2455989,50.399355 30.6230725,51 24.000546,51 C17.3780196,51 10.7554932,50.399355 10.2202858,49.9349257 Z" id="path-1"></path>
        <path d="M0.680431458,48.825 L0.741157649,18.1746079 L0,9.09885856 C1.46206754,5.40603855 2.60697111,3.25962726 3.43471069,2.65962466 C3.58089093,2.55366317 5.48305605,1.66712162 9.14120605,0 C10.7363144,1.66350208 12.1516547,2.49439952 14.887227,2.4926923 L14.895182,2.4926923 C17.6307543,2.49439952 19.0460946,1.66350208 20.641203,0 C23.9582657,1.41987813 25.8604308,2.30641969 26.3476983,2.65962466 C27.1754379,3.25962726 28.3203415,5.40603855 29.782409,9.09885856 L29.0412513,18.1746079 L29.0894472,48.825 L0.680431458,48.825 Z" id="path-3"></path>
        <path d="M4.99752786,3.27877745 L10.4727918,16.0619683 C10.1482015,17.1176077 8.24958715,18.6504585 6.27694867,19.6100326 C4.30431019,20.5696066 2.71153901,20.9445133 1.49863512,20.7347527 L0,16.465846 L0.100797365,14.944029 L0.206025452,13.4806236 L0.27863902,12.5374708 L0.391251641,11.171418 L0.468788233,10.2931669 L0.548294034,9.44087662 L0.629769044,8.61454699 L0.755673826,7.42372884 L0.886009329,6.29132226 L0.975361176,5.56883541 L1.06668223,4.87230925 L1.1599725,4.20174379 L1.25523197,3.55713902 L1.35246065,2.93849495 L1.45165855,2.34581158 L1.55282565,1.7790889 L1.65596196,1.23832692 C1.67331545,1.15036331 1.69075098,1.0634814 1.70826857,0.977681186 L1.81435869,0.475860245 L1.92241803,0 C3.22232553,0.686428917 4.24723453,1.27932537 4.99752786,3.27877745 Z" id="path-5"></path>
        <path d="M4.99752786,3.27877745 L10.4727918,16.0619683 C10.1482015,17.1176077 8.24958715,18.6504585 6.27694867,19.6100326 C4.30431019,20.5696066 2.71153901,20.9445133 1.49863512,20.7347527 L0,16.465846 L0.100797365,14.944029 L0.206025452,13.4806236 L0.27863902,12.5374708 L0.391251641,11.171418 L0.468788233,10.2931669 L0.548294034,9.44087662 L0.629769044,8.61454699 L0.755673826,7.42372884 L0.886009329,6.29132226 L0.975361176,5.56883541 L1.06668223,4.87230925 L1.1599725,4.20174379 L1.25523197,3.55713902 L1.35246065,2.93849495 L1.45165855,2.34581158 L1.55282565,1.7790889 L1.65596196,1.23832692 C1.67331545,1.15036331 1.69075098,1.0634814 1.70826857,0.977681186 L1.81435869,0.475860245 L1.92241803,0 C3.22232553,0.686428917 4.24723453,1.27932537 4.99752786,3.27877745 Z" id="path-7"></path>
        <path d="M1.28763524,0 C3.06862349,2.35156486 6.15249284,3.99309535 10.5392433,4.92459144 C10.5353051,5.1030473 10.0610766,6.28583706 9.11655751,8.47296073 C6.23665181,8.32488113 4.36032811,8.1127183 3.48758641,7.83647224 C2.17847386,7.42210315 0.425418287,6.75848754 0.0664514593,5.84153949 C-0.172859759,5.23024079 0.2342015,3.28306096 1.28763524,0 Z" id="path-9"></path>
        <path d="M1.28763524,0 C3.06862349,2.35156486 6.15249284,3.99309535 10.5392433,4.92459144 C10.5353051,5.1030473 10.0610766,6.28583706 9.11655751,8.47296073 C6.23665181,8.32488113 4.36032811,8.1127183 3.48758641,7.83647224 C2.17847386,7.42210315 0.425418287,6.75848754 0.0664514593,5.84153949 C-0.172859759,5.23024079 0.2342015,3.28306096 1.28763524,0 Z" id="path-11"></path>
        <path d="M0,0 L15.4055786,0 L15.4055786,1.5 C12.8379822,2.22019064 10.2703857,2.58028596 7.70278931,2.58028596 C5.13519287,2.58028596 2.56759644,2.22019064 0,1.5 L0,0 Z" id="path-13"></path>
        <path d="M0,-1.38037109 L15.4055786,-1.38037109 L15.4055786,0.119628906 C12.8379822,0.839819547 10.2703857,1.19991487 7.70278931,1.19991487 C5.13519287,1.19991487 2.56759644,0.839819547 0,0.119628906 L0,-1.38037109 Z" id="path-15"></path>
        <path d="M0,-1.4866333 L15.4055786,-1.4866333 L15.4055786,0.0133666992 C12.8379822,0.73355734 10.2703857,1.09365266 7.70278931,1.09365266 C5.13519287,1.09365266 2.56759644,0.73355734 0,0.0133666992 L0,-1.4866333 Z" id="path-17"></path>
        <path d="M0,-1.61685181 L15.4055786,-1.61685181 L15.4055786,-0.116851807 C12.8379822,0.603338834 10.2703857,0.963434154 7.70278931,0.963434154 C5.13519287,0.963434154 2.56759644,0.603338834 0,-0.116851807 L0,-1.61685181 Z" id="path-19"></path>
        <path d="M7.75267777,0 C3.47571217,0 0,2.37669376 0,5.325 C0,8.27330624 3.47571217,10.65 7.75267777,10.65 C12.0296434,10.65 15.5053555,8.27330624 15.5053555,5.325 C15.5053555,2.37669376 12.0296434,0 7.75267777,0 Z M7.75267777,0.15 C11.9562409,0.15 15.3553555,2.47431636 15.3553555,5.325 C15.3553555,8.17568364 11.9562409,10.5 7.75267777,10.5 C3.54911468,10.5 0.15,8.17568364 0.15,5.325 C0.15,2.47431636 3.54911468,0.15 7.75267777,0.15 Z" id="path-21"></path>
        <path d="M7.67767777,0 C11.9179421,0 15.3553555,2.35050506 15.3553555,5.25 C15.3553555,8.14949494 11.9179421,10.5 7.67767777,10.5 C3.43741342,10.5 0,8.14949494 0,5.25 C0,2.35050506 3.43741342,0 7.67767777,0 Z M7.67767777,1.5 C4.1714386,1.5 1.5,3.32673109 1.5,5.25 C1.5,7.17326891 4.1714386,9 7.67767777,9 C11.1839169,9 13.8553555,7.17326891 13.8553555,5.25 C13.8553555,3.32673109 11.1839169,1.5 7.67767777,1.5 Z" id="path-23"></path>
        <path d="M6.57196045,0 C10.201554,0 13.1439209,1.76865832 13.1439209,3.95040894 C13.1439209,6.13215955 10.201554,7.90081787 6.57196045,7.90081787 C2.94236692,7.90081787 0,6.13215955 0,3.95040894 C0,1.76865832 2.94236692,0 6.57196045,0 Z M6.57196045,1.12868827 C3.57067987,1.12868827 1.28397426,2.50322823 1.28397426,3.95040894 C1.28397426,5.39758964 3.57067987,6.7721296 6.57196045,6.7721296 C9.57324103,6.7721296 11.8599466,5.39758964 11.8599466,3.95040894 C11.8599466,2.50322823 9.57324103,1.12868827 6.57196045,1.12868827 Z" id="path-25"></path>
        <path d="M6.57138062,-0.183349609 C10.1401129,-0.183349609 13.0331421,1.58530872 13.0331421,3.76705933 C13.0331421,5.94880994 10.1401129,7.71746826 6.57138062,7.71746826 C3.0026483,7.71746826 0.109619141,5.94880994 0.109619141,3.76705933 C0.109619141,1.58530872 3.0026483,-0.183349609 6.57138062,-0.183349609 Z M6.57138062,0.945338658 C3.62042567,0.945338658 1.37206366,2.31987862 1.37206366,3.76705933 C1.37206366,5.21424003 3.62042567,6.58877999 6.57138062,6.58877999 C9.52233556,6.58877999 11.7706976,5.21424003 11.7706976,3.76705933 C11.7706976,2.31987862 9.52233556,0.945338658 6.57138062,0.945338658 Z" id="path-27"></path>
        <path d="M6.58357239,-0.366027832 C10.0925643,-0.366027832 12.9371643,1.41278224 12.9371643,3.60705566 C12.9371643,5.80132909 10.0925643,7.58013916 6.58357239,7.58013916 C3.07458046,7.58013916 0.229980469,5.80132909 0.229980469,3.60705566 C0.229980469,1.41278224 3.07458046,-0.366027832 6.58357239,-0.366027832 Z M6.58357239,0.769138881 C3.68201627,0.769138881 1.47129173,2.15156843 1.47129173,3.60705566 C1.47129173,5.0625429 3.68201627,6.44497245 6.58357239,6.44497245 C9.4851285,6.44497245 11.695853,5.0625429 11.695853,3.60705566 C11.695853,2.15156843 9.4851285,0.769138881 6.58357239,0.769138881 Z" id="path-29"></path>
    </defs>
    <g id="Germany_Home" stroke="none" stroke-width="1" fill="none" fill-rule="evenodd">
        <g id="TeamKit-/-Sheff_Wed" transform="translate(0.000000, 0.500000)">
            <mask id="mask-2" fill="white">
                <use xlink:href="#path-1"></use>
            </mask>
            <use id="Shirt-Mask" fill="#FFFFFF" xlink:href="#path-1"></use>
            <g id="Pattern" mask="url(#mask-2)">
                <g transform="translate(9.108796, 2.675000)">
                    <mask id="mask-4" fill="white">
                        <use xlink:href="#path-3"></use>
                    </mask>
                    <use id="Path" stroke="none" fill="#FFFFFF" fill-rule="evenodd" xlink:href="#path-3"></use>
                    <rect id="Rectangle" stroke="none" fill="#2C2A2B" fill-rule="evenodd" mask="url(#mask-4)" x="8.30860398" y="-5.57572384" width="13.165201" height="54.4007238"></rect>
                </g>
            </g>
            <g id="Sides" mask="url(#mask-2)" fill="#E2A168" fill-rule="nonzero">
                <g transform="translate(9.435305, 21.445142)" id="Path-6">
                    <path d="M28.7192203,0 L29.1159039,0.0514015584 C28.073909,8.09283681 27.9523333,17.2031631 28.7516643,27.3820617 L28.8408308,28.4767469 L28.4422465,28.5103707 C27.5749477,18.2292074 27.6309397,9.01544832 28.61071,0.86877467 L28.7192203,0 Z"></path>
                    <path d="M0.887950069,0 L1.28463367,0.0514015584 C0.242638736,8.09283681 0.121063048,17.2031631 0.920394069,27.3820617 L1.00956058,28.4767469 L0.610976283,28.5103707 C-0.256322527,18.2292074 -0.200330512,9.01544832 0.779439792,0.86877467 L0.887950069,0 Z" transform="translate(0.642317, 14.255185) scale(-1, 1) translate(-0.642317, -14.255185) "></path>
                </g>
            </g>
            <g id="Sleeves" mask="url(#mask-2)">
                <g transform="translate(-0.750000, 5.131300)">
                    <g id="Right" transform="translate(39.027208, 0.000000)">
                        <mask id="mask-6" fill="white">
                            <use xlink:href="#path-5"></use>
                        </mask>
                        <use id="Mask" fill="#FFFFFF" xlink:href="#path-5"></use>
                    </g>
                    <g id="Let-Arm" transform="translate(5.236396, 10.395597) scale(-1, 1) translate(-5.236396, -10.395597) ">
                        <mask id="mask-8" fill="white">
                            <use xlink:href="#path-7"></use>
                        </mask>
                        <use id="Mask" fill="#FFFFFF" xlink:href="#path-7"></use>
                    </g>
                </g>
            </g>
            <g id="Cuffs" mask="url(#mask-2)">
                <g transform="translate(-0.854162, 18.821663)">
                    <g id="Left" transform="translate(0.000000, 0.000000)">
                        <mask id="mask-10" fill="white">
                            <use xlink:href="#path-9"></use>
                        </mask>
                        <use id="Mask" fill="#2D3345" xlink:href="#path-9"></use>
                    </g>
                    <g id="Right" transform="translate(44.248137, 4.236480) scale(-1, 1) translate(-44.248137, -4.236480) translate(38.978516, 0.000000)">
                        <mask id="mask-12" fill="white">
                            <use xlink:href="#path-11"></use>
                        </mask>
                        <use id="Mask" fill="#2D3345" xlink:href="#path-11"></use>
                    </g>
                </g>
            </g>
            <g id="Shoulders" mask="url(#mask-2)">
                <g transform="translate(6.764999, 0.665746)">
                    <polygon id="Rectangle" fill="#FFFFFF" transform="translate(5.409900, 3.609923) rotate(-24.000000) translate(-5.409900, -3.609923) " points="0.20551882 2.12325192 10.6361388 2.04750292 10.6142816 5.09659499 0.18366162 5.172344"></polygon>
                    <path d="M0.557253432,2.19234862 L11.6359554,2.19234862 L11.6359554,2.74160759 L0.557253432,2.74160759 L0.557253432,2.19234862 Z M0.557253432,3.04748994 L11.6359554,3.04748994 L11.6359554,3.5967489 L0.557253432,3.5967489 L0.557253432,3.04748994 Z" id="Left-Shoulder" fill="#2C2A2B" transform="translate(6.096604, 2.894549) rotate(-24.000000) translate(-6.096604, -2.894549) "></path>
                    <polygon id="Rectangle" fill="#FFFFFF" transform="translate(29.060103, 3.609923) scale(-1, 1) rotate(-24.000000) translate(-29.060103, -3.609923) " points="23.8557213 2.12325192 34.2863413 2.04750292 34.2644841 5.09659499 23.8338641 5.172344"></polygon>
                    <path d="M22.8055013,2.1985353 L33.9140392,2.1985353 L33.9140392,2.74779426 L22.8055013,2.74779426 L22.8055013,2.1985353 Z M22.8055013,3.05367661 L33.9140392,3.05367661 L33.9140392,3.60293557 L22.8055013,3.60293557 L22.8055013,3.05367661 Z" id="Right-Shoulder" fill="#2C2A2B" transform="translate(28.359770, 2.900735) scale(-1, 1) rotate(-24.000000) translate(-28.359770, -2.900735) "></path>
                </g>
            </g>
            <g id="Arm-Seams" mask="url(#mask-2)" fill="#000000" fill-opacity="0.2" fill-rule="nonzero">
                <g transform="translate(7.564771, 4.804976)">
                    <path d="M30.4841488,0.0719784231 L30.775386,0 L30.8846831,0.459108697 L30.9920046,0.943970623 C31.009727,1.02692716 31.027367,1.11095685 31.0449248,1.19605971 L31.1492842,1.71955547 L31.2516698,2.26880979 C31.2685696,2.36249884 31.2853872,2.45726125 31.3021226,2.55309707 L31.4015486,3.1409932 L31.4990025,3.75465321 L31.5944849,4.39407922 L31.6879965,5.05927336 L31.7795379,5.75023777 L31.9131577,6.83500827 L31.9997768,7.59040765 L32.0844282,8.37158474 L32.1671126,9.17854167 L32.2874525,10.4373189 L32.3652222,11.3087348 L32.4781933,12.6642104 L32.5510527,13.6000985 L32.6566614,15.0522924 L32.7906067,17.0788376 L32.8546382,18.1308092 L32.5551627,18.1485413 L32.4925849,17.1198586 L32.3952062,15.6232215 L32.2588155,13.7143048 L32.151611,12.3475756 L32.0401991,11.0365325 L31.9245818,9.78118215 L31.8451685,8.97522572 L31.7225472,7.81271175 L31.6384666,7.06865248 L31.5088473,5.99899365 L31.4201033,5.31684406 L31.3294951,4.65946183 L31.2370234,4.02684899 L31.1426887,3.41900751 L31.0464917,2.83593942 L30.9484331,2.2776467 L30.8485135,1.74413136 L30.7467335,1.2353954 L30.6430938,0.751440821 L30.5375951,0.292269626 L30.4841488,0.0719784231 Z" id="Right" transform="translate(31.669393, 9.074271) scale(-1, 1) translate(-31.669393, -9.074271) "></path>
                    <path d="M0.2912372,0 L0.346132747,0.226335328 L0.454441985,0.698320373 L0.560775986,1.19605971 L0.665135431,1.71955547 L0.767521003,2.26880979 L0.867933384,2.84382478 L0.966373258,3.44460258 L1.11033611,4.39407922 L1.24986465,5.40153415 L1.34042132,6.10538448 L1.42900889,6.83500827 L1.55819968,7.97777385 L1.68296385,9.17854167 L1.76368186,10.0112806 L1.84243419,10.8698036 L1.95687852,12.2059379 L2.0669039,13.6000985 L2.13780032,14.5617792 L2.24046591,16.052666 L2.33871869,17.6015983 L2.37048939,18.1308092 L2.07101389,18.1485413 L1.97644473,16.6147944 L1.87766163,15.1367133 L1.77466675,13.7143048 L1.66746225,12.3475756 L1.5560503,11.0365325 L1.44043307,9.78118215 L1.36101971,8.97522572 L1.27973894,8.19402665 L1.1965914,7.43758695 L1.06837129,6.34935559 L0.980559634,5.65482306 L0.890883448,4.9850569 L0.799343379,4.34005911 L0.705940068,3.7198317 L0.610674156,3.12437667 L0.513546285,2.55369601 L0.414557097,2.00779173 L0.313707232,1.48666583 L0.210997334,0.990320312 L0.106428043,0.518757175 C0.0888449136,0.442228629 0.0711843367,0.366732765 0.0534463251,0.292269626 L0,0.0719784231 L0.2912372,0 Z" id="Left"></path>
                </g>
            </g>
            <g id="Neck" mask="url(#mask-2)">
                <g transform="translate(16.247322, -4.475724)">
                    <path d="M1.00267777,5.97572384 L14.5026778,5.97572384 C13.5275801,8.69899044 11.2775801,10.0606237 7.75267777,10.0606237 C4.22777543,10.0606237 1.97777543,8.69899044 1.00267777,5.97572384 Z" id="Neck-Inside" fill="#D2D2D2"></path>
                    <g id="Rectangle" stroke-width="1" fill="none" transform="translate(0.049888, 4.356742)">
                        <mask id="mask-14" fill="white">
                            <use xlink:href="#path-13"></use>
                        </mask>
                        <use id="Mask" fill="#1A1919" xlink:href="#path-13"></use>
                        <mask id="mask-16" fill="white">
                            <use xlink:href="#path-15"></use>
                        </mask>
                        <use id="Mask" fill="#DD7E48" xlink:href="#path-15"></use>
                        <mask id="mask-18" fill="white">
                            <use xlink:href="#path-17"></use>
                        </mask>
                        <use id="Mask-Copy" fill="#B92439" xlink:href="#path-17"></use>
                        <mask id="mask-20" fill="white">
                            <use xlink:href="#path-19"></use>
                        </mask>
                        <use id="Mask-Copy-2" fill="#000000" xlink:href="#path-19"></use>
                        <rect fill="#F0F0F0" mask="url(#mask-20)" x="4.70278931" y="-0.356741589" width="6" height="4"></rect>
                    </g>
                    <g id="Neck-Front" stroke-width="1" fill="none">
                        <g id="Triangle">
                            <mask id="mask-22" fill="white">
                                <use xlink:href="#path-21"></use>
                            </mask>
                            <use id="Mask" fill="#272526" fill-rule="nonzero" xlink:href="#path-21"></use>
                        </g>
                        <g id="Triangle" transform="translate(0.075000, 0.075000)">
                            <mask id="mask-24" fill="white">
                                <use xlink:href="#path-23"></use>
                            </mask>
                            <use id="Mask" fill="#2C2A2B" fill-rule="nonzero" xlink:href="#path-23"></use>
                            <g id="Group" mask="url(#mask-24)">
                                <g transform="translate(1.099064, 1.568815)">
                                    <mask id="mask-26" fill="white">
                                        <use xlink:href="#path-25"></use>
                                    </mask>
                                    <use id="Mask" stroke="none" fill="#DD7E48" fill-rule="nonzero" xlink:href="#path-25"></use>
                                    <mask id="mask-28" fill="white">
                                        <use xlink:href="#path-27"></use>
                                    </mask>
                                    <use id="Mask-Copy-3" stroke="none" fill="#B92439" fill-rule="nonzero" xlink:href="#path-27"></use>
                                    <mask id="mask-30" fill="white">
                                        <use xlink:href="#path-29"></use>
                                    </mask>
                                    <use id="Mask-Copy-4" stroke="none" fill="#000000" fill-rule="nonzero" xlink:href="#path-29"></use>
                                </g>
                            </g>
                        </g>
                    </g>
                </g>
            </g>
            <g id="Team-Badge" mask="url(#mask-2)">
                <g transform="translate(19.875000, 13.253850)">
                    <circle id="Oval" fill="#222222" cx="4.125" cy="5.67929342" r="4.125"></circle>
                    <circle id="Oval" fill="#E2A168" cx="4.125" cy="5.67929342" r="3.72274303"></circle>
                    <circle id="Oval" fill="#222222" cx="4.125" cy="5.67929342" r="3.23701477"></circle>
                    <circle id="Oval" fill="#E2A168" cx="4.125" cy="5.67929342" r="3.03338051"></circle>
                    <circle id="Oval" fill="#222222" cx="4.125" cy="5.67929342" r="2.33081627"></circle>
                    <circle id="Oval" fill="#E2A168" cx="4.125" cy="5.67929342" r="2.11870193"></circle>
                    <circle id="Oval" fill="#222222" cx="4.125" cy="5.67929342" r="1.63243484"></circle>
                    <polygon id="Star" fill="#E2A168" points="3.125 1.2100622 2.65082886 1.45934872 2.74138749 0.931351395 2.35777497 0.557421611 2.88791443 0.480387839 3.125 0 3.36208557 0.480387839 3.89222503 0.557421611 3.50861251 0.931351395 3.59917114 1.45934872"></polygon>
                    <polygon id="Star" fill="#E2A168" points="5.125 1.2100622 4.65082886 1.45934872 4.74138749 0.931351395 4.35777497 0.557421611 4.88791443 0.480387839 5.125 0 5.36208557 0.480387839 5.89222503 0.557421611 5.50861251 0.931351395 5.59917114 1.45934872"></polygon>
                    <polygon id="Star" fill="#E2A168" points="7.125 1.95764749 6.65082886 2.20693401 6.74138749 1.67893668 6.35777497 1.3050069 6.88791443 1.22797312 7.125 0.747585285 7.36208557 1.22797312 7.89222503 1.3050069 7.50861251 1.67893668 7.59917114 2.20693401"></polygon>
                    <polygon id="Star" fill="#E2A168" points="1.125 1.95764749 0.650828856 2.20693401 0.741387486 1.67893668 0.357774973 1.3050069 0.887914428 1.22797312 1.125 0.747585285 1.36208557 1.22797312 1.89222503 1.3050069 1.50861251 1.67893668 1.59917114 2.20693401"></polygon>
                </g>
            </g>
        </g>
    </g>
</svg>