<?xml version="1.0" encoding="UTF-8"?>
<svg width="48px" height="52px" viewBox="0 0 48 52" version="1.1" xmlns="http://www.w3.org/2000/svg" xmlns:xlink="http://www.w3.org/1999/xlink">
    <title>Kits / Italy / Serie-A / Juventus-Home-23-24</title>
    <defs>
        <path d="M10.2202858,50.4349257 C10.2990374,42.1089564 10.3384132,36.6692068 10.3384132,34.1156766 C10.3384132,31.5621465 10.176828,27.4540037 9.85365765,21.7912482 L8.2241567,25.6160522 C7.01125281,25.8258129 5.41848163,25.4509062 3.44584315,24.4913321 C1.52651922,23.5576924 0.387279465,22.5785814 0.0281238815,21.553999 L0,21.4685118 L4.72526396,9.66007698 C5.53354862,7.50608415 6.66054046,6.1140616 8.10623945,5.48400935 L16.3835008,1.86290579 L17.7009394,0.5 C20.0542672,1.02153794 22.154146,1.28286536 24.0005758,1.28398228 C25.8380118,1.28509376 27.9375067,1.02376633 30.2990606,0.5 L31.6139292,1.86290579 L39.7758433,5.4345938 C41.2783083,6.03937373 42.4446058,7.44786812 43.274736,9.66007698 L48,21.4685118 C47.6754097,22.5241513 46.5267953,23.531758 44.5541569,24.4913321 C42.5815184,25.4509062 40.9887472,25.8258129 39.7758433,25.6160522 L38.1463424,21.7912482 C37.823172,27.2575783 37.6615868,31.3657211 37.6615868,34.1156766 C37.6615868,36.8656321 37.7013266,42.3053818 37.7808063,50.4349257 C37.2455989,50.899355 30.6230725,51.5 24.000546,51.5 C17.3780196,51.5 10.7554932,50.899355 10.2202858,50.4349257 Z" id="path-1"></path>
        <path d="M18.6190262,22.376658 C18.2944359,23.4529962 16.3958215,25.0159029 14.423183,25.9942921 C12.4505446,26.9726814 10.8577734,27.3549392 9.64486949,27.1410656 L8.03296215,22.5745132 L8.03296215,20.7488163 C8.54285278,16.0139449 8.43229881,12.9643632 7.70130024,11.6000711 C4.91310176,6.39634408 -0.510698601,5.31408402 0.0387938669,4.0329516 C0.804381897,2.24799601 1.94305809,0.903678809 3.45482245,0 C8.73550611,2.82848426 12.2127442,5.47767036 13.8865368,7.94755832 C15.5825673,10.450261 17.1600637,15.2599609 18.6190262,22.376658 Z" id="path-3"></path>
        <path d="M18.6190262,22.376658 C18.2944359,23.4529962 16.3958215,25.0159029 14.423183,25.9942921 C12.4505446,26.9726814 10.8577734,27.3549392 9.64486949,27.1410656 L8.03296215,22.5745132 L8.03296215,20.7488163 C8.54285278,16.0139449 8.43229881,12.9643632 7.70130024,11.6000711 C4.91310176,6.39634408 -0.510698601,5.31408402 0.0387938669,4.0329516 C0.804381897,2.24799601 1.94305809,0.903678809 3.45482245,0 C8.73550611,2.82848426 12.2127442,5.47767036 13.8865368,7.94755832 C15.5825673,10.450261 17.1600637,15.2599609 18.6190262,22.376658 Z" id="path-5"></path>
    </defs>
    <g id="Kits-/-Italy-/-Serie-A-/-Juventus-Home-23-24" stroke="none" stroke-width="1" fill="none" fill-rule="evenodd">
        <mask id="mask-2" fill="white">
            <use xlink:href="#path-1"></use>
        </mask>
        <use id="Shirt-Mask" fill="#000000" xlink:href="#path-1"></use>
        <g id="Group-6" mask="url(#mask-2)" fill="#FFFFFF">
            <g transform="translate(8.000000, -1.000000)">
                <rect id="Rectangle" x="15" y="7" width="2" height="46"></rect>
                <rect id="Rectangle-Copy-6" x="10" y="3" width="2" height="50"></rect>
                <rect id="Rectangle-Copy-7" x="5" y="7" width="2" height="46"></rect>
                <rect id="Rectangle-Copy-8" x="0" y="7" width="2" height="46"></rect>
                <rect id="Rectangle-Copy-3" x="20" y="0" width="2" height="53"></rect>
                <rect id="Rectangle-Copy-4" x="25" y="0" width="2" height="53"></rect>
                <rect id="Rectangle-Copy-5" x="30" y="0" width="2" height="53"></rect>
            </g>
        </g>
        <g id="Sleeves" mask="url(#mask-2)">
            <g transform="translate(-0.757910, -0.356494)">
                <g id="Right" transform="translate(30.893668, 0.356494)">
                    <mask id="mask-4" fill="white">
                        <use xlink:href="#path-3"></use>
                    </mask>
                    <use id="Mask" fill="#000000" xlink:href="#path-3"></use>
                    <rect id="Rectangle-Copy-5" fill="#FFFFFF" mask="url(#mask-4)" transform="translate(14.864243, 20.500000) rotate(-24.000000) translate(-14.864243, -20.500000) " x="13.8642426" y="-6" width="2" height="53"></rect>
                    <rect id="Rectangle-Copy-9" fill="#FFFFFF" mask="url(#mask-4)" transform="translate(9.864243, 20.500000) rotate(-24.000000) translate(-9.864243, -20.500000) " x="8.86424259" y="-6" width="2" height="53"></rect>
                    <path d="M7.86689036,7.79324747 L8.25580703,7.59106479 C9.35024351,10.0835288 10.1848811,12.1643753 10.7597199,13.8336042 C11.3345587,15.5028332 11.9334892,18.1958703 12.5565116,21.9127155 L12.2507068,22.4896393 C12.1703741,21.7873954 12.102706,21.2713254 12.0477027,20.9414292 C11.8299336,19.635306 11.2398203,17.2936655 11.1683254,17.0344169 C10.9958749,16.4090918 10.8088183,15.4799798 10.5916825,14.7501808 C10.3587907,13.9674253 10.0983039,13.3943513 9.99931325,13.0692598 C9.48690171,11.3864677 8.77609408,9.62779695 7.86689036,7.79324747 Z" id="Rectangle" fill-opacity="0.1" fill="#000000" mask="url(#mask-4)" transform="translate(10.211701, 15.040352) scale(-1, 1) translate(-10.211701, -15.040352) "></path>
                    <path d="M18.2185651,19.9040114 L18.9161328,21.0821184 C16.1485283,24.5653416 12.6375404,26.0773144 8.9785999,25.9597227 L8.9785999,24.7741854 C12.4692993,24.8863702 15.5441671,23.2699277 18.2185651,19.9040114 Z" id="Path-3" fill="#FFDF07" fill-rule="nonzero" mask="url(#mask-4)"></path>
                    <path d="M18.410276,20.0883409 L19.1078437,21.2664479 C16.3402392,24.7496712 12.8292513,26.261644 9.1703108,26.1440522 L9.1703108,24.958515 C12.6610102,25.0706997 15.735878,23.4542572 18.410276,20.0883409 Z" id="Path-3" fill="#141414" fill-rule="nonzero" mask="url(#mask-4)"></path>
                </g>
                <g id="Left" transform="translate(9.309513, 13.599307) scale(-1, 1) translate(-9.309513, -13.599307) ">
                    <mask id="mask-6" fill="white">
                        <use xlink:href="#path-5"></use>
                    </mask>
                    <use id="Mask" fill="#000000" xlink:href="#path-5"></use>
                    <rect id="Rectangle-Copy-10" fill="#FFFFFF" mask="url(#mask-6)" transform="translate(9.861116, 20.856494) rotate(-24.000000) translate(-9.861116, -20.856494) " x="8.86111609" y="-5.64350647" width="2" height="53"></rect>
                    <rect id="Rectangle-Copy-11" fill="#FFFFFF" mask="url(#mask-6)" transform="translate(14.861116, 20.856494) rotate(-24.000000) translate(-14.861116, -20.856494) " x="13.8611161" y="-5.64350647" width="2" height="53"></rect>
                    <path d="M18.1864085,20.2318272 L19.1015687,21.1693297 C16.3339642,24.6525529 12.6053838,26.261078 8.94644328,26.1434863 L8.94644328,25.1020013 C12.4371427,25.214186 15.5120105,23.5977435 18.1864085,20.2318272 Z" id="Path-3" fill="#FFDF07" fill-rule="nonzero" mask="url(#mask-6)"></path>
                    <path d="M18.2775959,20.4448345 L19.1927561,21.3823369 C16.4251516,24.8655602 12.6965712,26.4740853 9.03763066,26.3564935 L9.03763066,25.3150085 C12.5283301,25.4271933 15.6031979,23.8107507 18.2775959,20.4448345 Z" id="Path-3" fill="#141414" fill-rule="nonzero" mask="url(#mask-6)"></path>
                    <path d="M7.47879836,9.02627255 L7.63983035,8.43520776 C9.20975098,11.251905 10.2821307,13.4948681 10.8569695,15.1640971 C11.4318082,16.8333261 12.1531432,19.2567385 13.0209745,22.4343342 L12.4668107,22.5745132 C12.4132471,21.8692855 12.3422565,21.32499 12.2538391,20.9416264 C11.867907,19.2682883 11.2082807,17.4287423 10.5473422,15.526327 C10.1195592,14.2950161 9.09671126,12.1283313 7.47879836,9.02627255 Z" id="Rectangle" fill-opacity="0.1" fill="#000000" mask="url(#mask-6)" transform="translate(10.249886, 15.504860) scale(-1, 1) translate(-10.249886, -15.504860) "></path>
                </g>
            </g>
        </g>
        <path d="M9.38883908,23.6029512 L9.82815395,21.9892316 C10.7010792,23.8746434 11.2634463,26.9645257 11.5152553,31.2588787 C11.7670642,35.5532318 11.7670642,42.0539657 11.5152553,50.7610805 L11.0152553,50.7610805 C8.3110396,52.6677337 6.80323314,50.965774 6.49183591,45.6552013 C6.18043867,40.3446286 7.1461064,32.9938786 9.38883908,23.6029512 Z" id="Rectangle" fill="#FFDF07" mask="url(#mask-2)"></path>
        <path d="M38.5869947,23.8220315 L38.9725349,21.9892316 C39.8454602,23.8746434 40.4078273,26.9645257 40.6596362,31.2588787 C40.9114452,35.5532318 40.9114452,42.0539657 40.6596362,50.7610805 L40.1596362,50.7610805 C37.9632839,53.8892725 36.7094091,52.7980821 36.3980119,47.4875095 C36.0866147,42.1769368 36.8162756,34.2884441 38.5869947,23.8220315 Z" id="Rectangle" fill="#FFDF07" mask="url(#mask-2)" transform="translate(38.588323, 37.244855) scale(-1, 1) translate(-38.588323, -37.244855) "></path>
        <path d="M18.8573583,4.73522456 L18.8573583,5.27392085 C15.6213569,5.22254877 13.0763534,5.19474135 11.2223479,5.19049857 L10.2796009,5.19052133 C8.67686731,5.19484752 7.7651317,5.22273837 7.54439403,5.27419387 C7.06278458,5.38646042 6.08582435,5.90110335 4.61351333,6.81812266 L4.5729062,6.37252143 C6.04676185,5.41023209 7.00204695,4.88338568 7.4387615,4.7919822 C7.68831267,4.73975164 9.03810364,4.71118941 11.4881344,4.70629552 L13.2147178,4.70640987 C14.7798404,4.7092222 16.6607206,4.7188271 18.8573583,4.73522456 Z M18.8573583,3.89652827 L18.8573583,4.43522456 L8.420145,4.43522456 C7.97249633,4.41521301 7.55455974,4.46258222 7.16633522,4.57733218 C6.7781107,4.69208215 5.89738356,5.09842663 4.5241538,5.79636562 L4.48530271,5.41476873 C5.9145626,4.55993676 6.76814757,4.10515717 7.04605761,4.05042995 C7.32396765,3.99570272 7.76979779,3.94440217 8.38354804,3.89652827 L18.8573583,3.89652827 Z" id="Left-Shoulder" fill="#FFDF07" mask="url(#mask-2)" transform="translate(11.671331, 5.357325) rotate(-24.000000) translate(-11.671331, -5.357325) "></path>
        <path d="M42.8625711,4.60240443 L42.8625711,5.14110072 C35.9986086,4.96126044 32.1799894,4.99472895 31.4067135,5.24150626 C30.6334376,5.48828357 29.9199834,5.77707625 29.266351,6.10788431 L29.2798709,5.85111012 C30.0567596,5.23578041 30.849023,4.84544862 31.6566611,4.68011473 C32.1053489,4.58826257 33.4576371,4.5394445 35.7135257,4.53366052 L36.5646812,4.53343736 C38.246153,4.53652742 40.3454497,4.55951644 42.8625711,4.60240443 Z M42.8625711,3.76370814 L42.8625711,4.30240443 C40.1691854,4.2563647 37.9525006,4.23209654 36.2125166,4.22959997 L35.6501775,4.22957413 C33.4714435,4.2326962 32.1401777,4.2745233 31.65638,4.35505543 C30.7694176,4.50269767 29.9802125,4.81091468 29.2887645,5.27970647 L29.2849552,4.82391907 C30.1795707,4.15371215 31.0125358,3.81862148 31.7838507,3.81864706 L32.1491628,3.81797638 C32.1807307,3.81788638 32.2137414,3.81778734 32.2481949,3.81767923 L32.4722289,3.81692193 C33.9605359,3.81158176 37.4239833,3.79384383 42.8625711,3.76370814 Z" id="Right-Shoulder" fill="#FFDF07" mask="url(#mask-2)" transform="translate(36.064461, 4.935796) scale(-1, 1) rotate(-24.000000) translate(-36.064461, -4.935796) "></path>
        <g id="Neck" mask="url(#mask-2)">
            <g transform="translate(15.853996, -4.100000)">
                <path d="M1.39600367,6.1 L14.8960037,6.1 C12.3320948,9.3232666 10.0820948,10.9348999 8.14600367,10.9348999 C6.20991257,10.9348999 3.95991257,9.3232666 1.39600367,6.1 Z" id="Neck-Inside" stroke="none" fill="#202020" fill-rule="evenodd"></path>
                <path d="M4.64600367,9.32434499 L11.0906495,9.32434499 C11.0636434,10.3980483 10.0820948,10.9348999 8.14600367,10.9348999 C6.20991257,10.9348999 5.0432459,10.3980483 4.64600367,9.32434499 Z" id="Neck-Inside" stroke="#FFDF07" stroke-width="0.5" fill="#141414" fill-rule="evenodd"></path>
                <path d="M0.443214363,4.48101775 L15.848793,4.48101775 L15.848793,5.98101775 C13.2811965,6.70120839 10.7136001,7.06130371 8.14600367,7.06130371 C5.57840723,7.06130371 3.0108108,6.70120839 0.443214363,5.98101775 L0.443214363,4.48101775 Z" id="Nack-Back-white" stroke="none" fill="#000000" fill-rule="evenodd"></path>
                <g id="Neck-Front-2" stroke="none" stroke-width="1" fill="none" fill-rule="evenodd" transform="translate(0.000000, 0.199276)">
                    <path d="M8.14600367,0 C12.386268,0 15.8236814,2.35050506 15.8236814,5.25 C15.8236814,6.5644377 14.6402954,8.02545777 12.2735232,9.6330602 L11.8435733,9.91827636 C11.7698676,9.96606599 11.6951382,10.0139824 11.6193851,10.0620257 L11.1525823,10.3518067 C11.0727344,10.4003571 10.9918629,10.4490343 10.9099677,10.4978384 L10.406312,10.7921842 C10.234332,10.8908067 10.0582573,10.9899364 9.87808778,11.0895733 L9.32529498,11.3900057 C9.23111546,11.4403313 9.13591226,11.4907838 9.03968536,11.541363 L8.45003971,11.8463602 C8.34971805,11.8974467 8.24837271,11.9486599 8.14600367,12 L7.54407373,11.6934812 C7.34752518,11.5918155 7.15507139,11.490657 6.96671236,11.3900057 L6.41391956,11.0895733 C6.23375006,10.9899364 6.05767532,10.8908067 5.88569533,10.7921842 L5.38203967,10.4978384 L4.90295258,10.2065358 C4.74735164,10.1099421 4.59584547,10.0138556 4.44843405,9.91827636 L4.0184841,9.6330602 C1.65171196,8.02545777 0.468325898,6.5644377 0.468325898,5.25 C0.468325898,2.35050506 3.90573932,0 8.14600367,0 Z M8.14600367,1.5 C4.6397645,1.5 1.9683259,3.32673109 1.9683259,5.25 C1.9683259,5.87627864 2.65352466,6.75802077 4.04976243,7.81368277 L4.38460491,8.0603473 C4.44251957,8.10196024 4.50148901,8.14382118 4.56151469,8.18592548 L4.93435547,8.44143446 C4.99861201,8.48449363 5.06392773,8.52778689 5.1303041,8.57130959 L5.54130196,8.83516196 L5.97782609,9.10429821 C6.05271122,9.14958221 6.12866288,9.19507708 6.20568255,9.2407782 L6.6806284,9.51742274 L7.18127693,9.79879442 L7.70769873,10.0846706 L8.14610283,10.31475 L8.58444797,10.0845961 L9.11112848,9.79857453 C9.19675661,9.75127385 9.28130975,9.70416104 9.36478937,9.65724078 L9.85279661,9.37806675 C10.0111795,9.28580365 10.16528,9.19434787 10.31511,9.10373656 L10.7518003,8.83447326 L11.162938,8.57049989 C11.2293355,8.52695755 11.2946713,8.48364491 11.3589468,8.44056663 L11.7318884,8.18494635 L12.0794542,7.9351736 L12.4017149,7.69147142 L12.6987412,7.45406286 C13.7416609,6.59537567 14.2771118,5.86810763 14.3207729,5.32173663 L14.3236814,5.25 C14.3236814,3.32673109 11.6522428,1.5 8.14600367,1.5 Z" id="Neck-Front" fill="#141414" fill-rule="nonzero"></path>
                    <g id="Group-3" transform="translate(0.000000, 4.052951)" fill="#141414">
                        <path d="M0.491363234,2.56203861 C0.788831612,3.23048824 1.04820181,3.67973061 1.26947384,3.90976572 C1.74343936,4.40250178 2.5135037,4.66082643 3.3017235,4.83256898 C4.05594124,4.99690293 4.82159704,5.08515088 5.58564962,5.08515088 C7.70737152,5.08515088 9.63255442,5.01785223 11.3611983,4.88325492 L11.3611983,5.18311481 C9.6646675,5.31771212 7.73934113,5.38501077 5.5852192,5.38501077 C4.77344804,5.38501077 3.9746265,5.2845358 3.19783926,5.09759252 C2.3703075,4.89843696 1.57606979,4.59605254 1.09747455,4.04055616 C0.921285255,3.83605661 0.674337328,3.3691467 0.356630769,2.63982643 L0.491363234,2.56203861 Z" id="Rectangle" transform="translate(5.858915, 3.973525) rotate(30.000000) translate(-5.858915, -3.973525) "></path>
                        <path d="M0.103309258,2.92326943 C0.400777636,3.59171906 0.660147838,4.04096143 0.881419865,4.27099654 C1.35538538,4.7637326 2.12544972,5.02205725 2.91366953,5.1937998 C3.66788727,5.35813375 4.43354306,5.4463817 5.19759564,5.4463817 C7.31931754,5.4463817 9.24450044,5.37908305 10.9731443,5.24448574 L10.9731443,5.54434564 C9.27661352,5.67894294 7.35128715,5.74624159 5.19716522,5.74624159 C4.38539406,5.74624159 3.58657252,5.64576662 2.80978528,5.45882335 C1.98225352,5.25966778 1.18801581,4.95728336 0.709420571,4.40178699 C0.533231278,4.19728743 0.286283352,3.73037752 -0.0314232072,3.00105726 L0.103309258,2.92326943 Z" id="Rectangle" transform="translate(5.470861, 4.334756) rotate(30.000000) translate(-5.470861, -4.334756) "></path>
                    </g>
                </g>
                <path d="M8.14600367,0 C3.86903806,0 0.393325898,2.37669376 0.393325898,5.325 C0.393325898,6.86403422 1.96029151,8.58025418 5.09061632,10.4850405 L5.58453846,10.7795738 C5.92204204,10.9769232 6.27598926,11.1762623 6.64637624,11.3776035 L7.21428605,11.6811183 L7.80685256,11.9876453 C7.90766821,12.0389846 8.00951111,12.0904499 8.11238118,12.1420412 L8.72502589,11.8340047 L9.31239561,11.5289849 C9.79134549,11.2760563 10.2439911,11.0262606 10.6703921,10.7795738 L11.1694798,10.4850405 C14.3317158,8.58025418 15.8986814,6.86403422 15.8986814,5.325 C15.8986814,2.37669376 12.4229693,0 8.14600367,0 Z M8.14600367,0.05 C12.3495668,0.05 15.7486814,2.37431636 15.7486814,5.225 C15.7486814,6.39858092 14.7711906,7.70392434 12.8143977,9.13531469 L12.4234346,9.41393039 C12.3562358,9.46062815 12.2880179,9.5074567 12.2187807,9.55441583 L11.7911265,9.83773611 L11.3390079,10.1241813 L10.862422,10.4137421 L10.3613659,10.7064093 C10.2758172,10.7554456 10.1892488,10.8046109 10.1016607,10.853905 L9.5638938,11.1512147 C9.38055875,11.2508323 9.19314413,11.3509639 9.00164943,11.4516078 L8.41492464,11.7550751 C8.31509698,11.8059087 8.21424918,11.85687 8.11238118,11.9079588 C7.90723199,11.8036959 7.70621984,11.6999642 7.50934878,11.5967652 L6.93116292,11.288768 C6.83687051,11.237702 6.74361438,11.1867697 6.65139505,11.1359711 L6.11052463,10.8327868 L5.59456159,10.5328234 L5.10353026,10.2360906 C4.6249729,9.94097639 4.18384961,9.65072279 3.7802699,9.36537383 L3.38920877,9.08166138 C1.49651632,7.67128989 0.543325898,6.3839015 0.543325898,5.225 C0.543325898,2.37431636 3.94244058,0.05 8.14600367,0.05 Z" id="Neck-Front" stroke="none" fill="#FFDF07" fill-rule="nonzero"></path>
                <g id="Group-2" stroke="none" stroke-width="1" fill="none" fill-rule="evenodd" transform="translate(5.182732, 10.542651)">
                    <path d="M0,0 L5.90791752,0 C5.55505502,0.243957679 5.18058346,0.477506098 4.78450282,0.700645257 C4.38842219,0.923784417 3.78270263,1.24244432 2.96734416,1.65662496 C2.15552725,1.23003923 1.56275005,0.912420262 1.18901255,0.703768068 C0.815275049,0.495115873 0.418937532,0.260526517 0,0 Z" id="Rectangle-Copy" fill="#1A1A1A"></path>
                </g>
            </g>
        </g>
        <g id="Badge" mask="url(#mask-2)">
            <g transform="translate(29.377347, 10.601723)">
                <g id="Group" stroke-width="1" fill="none" transform="translate(0.827845, 2.409353)">
                    <rect id="Rectangle" fill="#FFDF07" x="0" y="0" width="1.29060919" height="5.84064746"></rect>
                    <rect id="Rectangle-Copy-2" fill="#FFDF07" x="2.08398645" y="0" width="1.29060919" height="5.84064746"></rect>
                </g>
                <polygon id="Star" fill="#FFDF07" points="2.51514299 1.13722097 2.06951518 1.37150138 2.15462252 0.875287518 1.79410205 0.523866911 2.29232909 0.451470284 2.51514299 0 2.7379569 0.451470284 3.23618394 0.523866911 2.87566347 0.875287518 2.9607708 1.37150138"></polygon>
                <polygon id="Star-Copy" fill="#FFDF07" points="4.27213867 1.60003453 3.82651086 1.83431493 3.9116182 1.33810107 3.55109773 0.986680467 4.04932477 0.91428384 4.27213867 0.462813556 4.49495258 0.91428384 4.99317962 0.986680467 4.63265914 1.33810107 4.71776648 1.83431493"></polygon>
                <polygon id="Star-Copy-2" fill="#FFDF07" points="0.758147315 1.60003453 0.312519504 1.83431493 0.397626843 1.33810107 0.0371063708 0.986680467 0.53533341 0.91428384 0.758147315 0.462813556 0.980961221 0.91428384 1.47918826 0.986680467 1.11866779 1.33810107 1.20377513 1.83431493"></polygon>
            </g>
        </g>
    </g>
</svg>