<svg height="52" viewBox="0 0 48 52" width="48" xmlns="http://www.w3.org/2000/svg" xmlns:xlink="http://www.w3.org/1999/xlink"><defs><path id="a" d="m10.2202858 49.9349257c.0787516-8.3259693.1181274-13.7657189.1181274-16.3192491 0-2.5535301-.1615852-6.6616729-.48475555-12.3244284l-1.62950095 3.824804c-1.21290389.2097607-2.80567507-.165146-4.77831355-1.1247201-1.91932393-.9336397-3.05856368-1.9127507-3.41771927-2.9373331l-.02812388-.0854872 4.72526396-11.80843482c.80828466-2.15399283 1.9352765-3.54601538 3.38097549-4.17606763l8.27726135-3.62110356 1.3174386-1.36290579c2.3533278.52153794 4.4532066.78286536 6.2996364.78398228 1.837436.00111148 3.9369309-.26021595 6.2984848-.78398228l1.3148686 1.36290579 8.1619141 3.57168801c1.502465.60477993 2.6687625 2.01327432 3.4988927 4.22548318l4.725264 11.80843482c-.3245903 1.0556395-1.4732047 2.0632462-3.4458431 3.0228203-1.9726385.9595741-3.5654097 1.3344808-4.7783136 1.1247201l-1.6295009-3.824804c-.3231704 5.4663301-.4847556 9.5744729-.4847556 12.3244284s.0397398 8.1897052.1192195 16.3192491c-.5352074.4644293-7.1577338 1.0650743-13.7802603 1.0650743-6.6225264 0-13.2450528-.600645-13.7802602-1.0650743z"/><path id="b" d="m1.28763524 0c1.78098825 2.35156486 4.8648576 3.99309535 9.25160806 4.92459144-.0039382.17845586-.4781667 1.36124562-1.42268579 3.54836929-2.8799057-.1480796-4.7562294-.36024243-5.6289711-.63648849-1.30911255-.41436909-3.06216812-1.0779847-3.42113495-1.99493275-.23931122-.6112987.16775004-2.55847853 1.22118378-5.84153949z"/><path id="c" d="m1.28763524 0c1.78098825 2.35156486 4.8648576 3.99309535 9.25160806 4.92459144-.0039382.17845586-.4781667 1.36124562-1.42268579 3.54836929-2.8799057-.1480796-4.7562294-.36024243-5.6289711-.63648849-1.30911255-.41436909-3.06216812-1.0779847-3.42113495-1.99493275-.23931122-.6112987.16775004-2.55847853 1.22118378-5.84153949z"/><path id="d" d="m7.67767777 0c4.24026433 0 7.67767773 2.35050506 7.67767773 5.25s-3.4374134 5.25-7.67767773 5.25c-4.24026435 0-7.67767777-2.35050506-7.67767777-5.25s3.43741342-5.25 7.67767777-5.25zm0 1.5c-3.50623917 0-6.17767777 1.82673109-6.17767777 3.75s2.6714386 3.75 6.17767777 3.75c3.50623913 0 6.17767773-1.82673109 6.17767773-3.75s-2.6714386-3.75-6.17767773-3.75z"/><path id="e" d="m7.75267777 0c-4.2769656 0-7.75267777 2.37669376-7.75267777 5.325s3.47571217 5.325 7.75267777 5.325c4.27696563 0 7.75267773-2.37669376 7.75267773-5.325s-3.4757121-5.325-7.75267773-5.325zm0 .15c4.20356313 0 7.60267773 2.32431636 7.60267773 5.175s-3.3991146 5.175-7.60267773 5.175c-4.20356309 0-7.60267777-2.32431636-7.60267777-5.175s3.39911468-5.175 7.60267777-5.175z"/><path id="f" d="m.14351026.63414865c1.12260113.25089277 2.06005181.03950989 2.81235202-.63414865.00006673.01327746.98419978 1.03103784 2.84681337.63414865.00370301.01154272 1.06600045 3.74801236-2.821876 5.76124835-.03454517.01367778-3.38173181-1.34048931-2.94077348-5.30497758-.00140712.01295916.03308758-.1391311.10348409-.45627077z"/><mask id="g" fill="#fff"><use fill="#fff" fill-rule="evenodd" xlink:href="#a"/></mask><mask id="h" fill="#fff"><use fill="#fff" fill-rule="evenodd" xlink:href="#b"/></mask><mask id="i" fill="#fff"><use fill="#fff" fill-rule="evenodd" xlink:href="#c"/></mask><mask id="j" fill="#fff"><use fill="#fff" fill-rule="evenodd" xlink:href="#d"/></mask><mask id="k" fill="#fff"><use fill="#fff" fill-rule="evenodd" xlink:href="#e"/></mask><mask id="l" fill="#fff"><use fill="#fff" fill-rule="evenodd" xlink:href="#f"/></mask></defs><g fill="none" fill-rule="evenodd" transform="translate(0 .5)"><use fill="#c10009" xlink:href="#a"/><g mask="url(#g)"><path d="m.68043146 47.325.06072619-29.7087518-.74115765-8.79692447c1.46206754-3.57936931 2.60697111-5.65983863 3.43471069-6.24140797.14618024-.10270614 2.04834536-.9620114 5.70649536-2.57791576 1.59510835 1.61239603 3.01044865 2.41776666 5.74602095 2.41611189h.007955c2.7355723.00165477 4.1509126-.80371586 5.746021-2.41611189 3.3170627 1.37625668 5.2192278 2.23556194 5.7064953 2.57791576.8277396.58156934 1.9726432 2.66203866 3.4347107 6.24140797l-.7411577 8.79692447.0481959 29.7087518z" fill="#f2202d" fill-rule="evenodd" transform="translate(9.108796 3.675)"/></g><g mask="url(#g)"><g transform="translate(-1.222258 19.157417)"><use fill="#fff" xlink:href="#b"/><path d="m9.98787496 4.03960103c0 .26460927.08992714.39497581-.34436426.66939421-.43429144.2744184-.69296777.51917208-1.04332784.51917208-.23357338 0-.60879908-.1156001-1.12567709-.3468003.07087889-.11310125.16606967-.25931534.28557233-.43864227.17925399-.2689904.07261923-.87301282.19428412-.98486858.12166488-.11185575.44077812-.12696498.123247-.25717331-.31753112-.13020832-.94753058-.62905019-1.18785433-.44884693-.24032376.18020326-.4536724.56090596-.4536724.70602024 0 .14511429.46545918-.22252096-.15314904.14511429-.61860821.36763525-.69890071.5056259-.85386918.43663057-.15496848-.06899532-.14610862-.04385871-.28565144-.24024464-.13954283-.19638593-.81281322.02040932-.26358089-.34150022.54923233-.36190953.57217304-.36974102.7000873-.70602024.12791425-.33627922.49164322-.31254745.10703029-.57644476s-.94159764-.9476888-1.25612273-.60579306c-.3145251.34189575-.75554055 1.08050762-.92213759 1.18223782-.16659705.1017302.01044198.17601065-.37219331.17601065-.38263528 0-.50691066.21390238-.50691066-.17601065s0-.45992176 0-.72168321.17751366-.67754211.34221216-.91169561c.109799-.15610232.34208032-.42791023.69684396-.81542371.21617008-.58105928.03878826-.67406146-.53214546-.27900654-.85640057.59258236-.75569875.95963378-1.18627221 1.09443025-.43057347.13479647-.59582572.67619732-.59582572.13273972s-.27497214-.34395249 0-.64605796c.27497215-.30210547.59582572-.58910171.59582572-.82997921 0-.24087749.10616013-.90884779-.16042679-.90884779-.26658691 0-.69708127-.1392264-.90164916 0-.20456788.1392264.1860571-.12917995-.34371517.2302773-.52977228.35945725-.5902883-.25867632-.95615313.55374137s-.45897249 1.45871297-.45897249 1.91926757c0 .46055461.21738304.93922447.21738304.93922447v.24301335c-.05358107.23468087.02694875.29335108.24158945.17601065.32196105-.17601065.25812258.06700271.42661817-.17601065.16849559-.24301335.18581978.09041806.52953496-.24301335.34371517-.33343141.44647375-.46481754.69265134-.47866986s.55271299-.21089635.55271299-.21089635.16042679-.53849151.16042679.19704403c0 .73553553-.16042679.38153659-.16042679.91154618s-.31974609.38516667-.15987304.87150981c.15987304.48634313-.00055374.20472609.15987304.64336836.16042679.43864227-.0990406.87728453.26816903.43864227.36720964-.43864227.06470864-.60152134.57161931-.84176599.50691066-.24024464.30360848-.15118241.76068242-.43663057.30471596-.19029878.5104177-.32439464.6171052-.4022876.13901545-.02979656.17376932.16976128.10426159.59867353-.10426159.64336836-.33509263 1.0910287-.33509263 1.42881093 0 .33778224-.01677046.67564358.10703029.67564358s.4470275.31737291.99625983-.23272959c.54923233-.55010249.77563344-1.02299762 1.08936748-1.12567709.31373403-.10267947.37852177-.90693076.64953862-.37166987s0 .26606348 0 1.05443297v1.00361668c0 .29909944-.00300602.39821915.48665956.53491416s.20314397.5769985.84896462.13669501c.64582064-.44030349.53317383-.76685269.95061571-.99958227.41744188-.23272959.61663056-.4911686.73853277-.4911686s.47954-.6345876.47954 0c0 .63458761-.27035151.44338863-.13517574 1.17424812.09011714.48723967.13517574.79005709.13517574.90845227h.9892194c.1788321-.07900044.2682482-.16040042.2682482-.24419994 0-.12569929-.2682482-1.01935875-.2682482-1.01935875s-.4337377-.30226368-.4337377-.56070269-.70198582-.44291399 0-.44291399c.7019859 0 .6207832.04121418.9656459.18447498.3448626.14326081.7707288.51687802.7707288.25843901s.1560379-.4537515 0-.78971429c-.1040252-.2239752-.3609349-.45985276-.7707288-.70763267h-.5319082c-.7495968-.26582839-1.12439514-.3105395-1.12439514-.13413332z" fill="#f2202d" mask="url(#h)"/><g transform="matrix(-1 0 0 1 50.539244 0)"><use fill="#fff" xlink:href="#c"/><path d="m9.98787496 4.03960103c0 .26460927.08992714.39497581-.34436426.66939421-.43429144.2744184-.69296777.51917208-1.04332784.51917208-.23357338 0-.60879908-.1156001-1.12567709-.3468003.07087889-.11310125.16606967-.25931534.28557233-.43864227.17925399-.2689904.07261923-.87301282.19428412-.98486858.12166488-.11185575.44077812-.12696498.123247-.25717331-.31753112-.13020832-.94753058-.62905019-1.18785433-.44884693-.24032376.18020326-.4536724.56090596-.4536724.70602024 0 .14511429.46545918-.22252096-.15314904.14511429-.61860821.36763525-.69890071.5056259-.85386918.43663057-.15496848-.06899532-.14610862-.04385871-.28565144-.24024464-.13954283-.19638593-.81281322.02040932-.26358089-.34150022.54923233-.36190953.57217304-.36974102.7000873-.70602024.12791425-.33627922.49164322-.31254745.10703029-.57644476s-.94159764-.9476888-1.25612273-.60579306c-.3145251.34189575-.75554055 1.08050762-.92213759 1.18223782-.16659705.1017302.01044198.17601065-.37219331.17601065-.38263528 0-.50691066.21390238-.50691066-.17601065s0-.45992176 0-.72168321.17751366-.67754211.34221216-.91169561c.109799-.15610232.34208032-.42791023.69684396-.81542371.21617008-.58105928.03878826-.67406146-.53214546-.27900654-.85640057.59258236-.75569875.95963378-1.18627221 1.09443025-.43057347.13479647-.59582572.67619732-.59582572.13273972s-.27497214-.34395249 0-.64605796c.27497215-.30210547.59582572-.58910171.59582572-.82997921 0-.24087749.10616013-.90884779-.16042679-.90884779-.26658691 0-.69708127-.1392264-.90164916 0-.20456788.1392264.1860571-.12917995-.34371517.2302773-.52977228.35945725-.5902883-.25867632-.95615313.55374137s-.45897249 1.45871297-.45897249 1.91926757c0 .46055461.21738304.93922447.21738304.93922447v.24301335c-.05358107.23468087.02694875.29335108.24158945.17601065.32196105-.17601065.25812258.06700271.42661817-.17601065.16849559-.24301335.18581978.09041806.52953496-.24301335.34371517-.33343141.44647375-.46481754.69265134-.47866986s.55271299-.21089635.55271299-.21089635.16042679-.53849151.16042679.19704403c0 .73553553-.16042679.38153659-.16042679.91154618s-.31974609.38516667-.15987304.87150981c.15987304.48634313-.00055374.20472609.15987304.64336836.16042679.43864227-.0990406.87728453.26816903.43864227.36720964-.43864227.06470864-.60152134.57161931-.84176599.50691066-.24024464.30360848-.15118241.76068242-.43663057.30471596-.19029878.5104177-.32439464.6171052-.4022876.13901545-.02979656.17376932.16976128.10426159.59867353-.10426159.64336836-.33509263 1.0910287-.33509263 1.42881093 0 .33778224-.01677046.67564358.10703029.67564358s.4470275.31737291.99625983-.23272959c.54923233-.55010249.77563344-1.02299762 1.08936748-1.12567709.31373403-.10267947.37852177-.90693076.64953862-.37166987s0 .26606348 0 1.05443297v1.00361668c0 .29909944-.00300602.39821915.48665956.53491416s.20314397.5769985.84896462.13669501c.64582064-.44030349.53317383-.76685269.95061571-.99958227.41744188-.23272959.61663056-.4911686.73853277-.4911686s.47954-.6345876.47954 0c0 .63458761-.27035151.44338863-.13517574 1.17424812.09011714.48723967.13517574.79005709.13517574.90845227h.9892194c.1788321-.07900044.2682482-.16040042.2682482-.24419994 0-.12569929-.2682482-1.01935875-.2682482-1.01935875s-.4337377-.30226368-.4337377-.56070269-.70198582-.44291399 0-.44291399c.7019859 0 .6207832.04121418.9656459.18447498.3448626.14326081.7707288.51687802.7707288.25843901s.1560379-.4537515 0-.78971429c-.1040252-.2239752-.3609349-.45985276-.7707288-.70763267h-.5319082c-.7495968-.26582839-1.12439514-.3105395-1.12439514-.13413332z" fill="#f2202d" mask="url(#i)"/></g></g></g><g mask="url(#g)"><g transform="translate(1.742952 21.718528)"><path d="m8.11070584 0c1.61544826 8.92850225 1.73765766 18.6637026.36662819 29.2056011-.03328775.0367325-.68607733-3.540242-1.95836872-10.7309234z" fill="#fff"/><path d="m14.5801676 16.2034658c0 .3251083.1510976.4852812-.5786084.8224413-.7297061.3371601-1.1643397.6378731-1.7530224.6378731-.3924551 0-1.0229176-.1420303-1.8913874-.4260911.1190923-.1389601.2790339-.3186039.4798249-.5389313.3011865-.3304911.1220164-1.0726143.3264405-1.2100442.204424-.1374299.7406051-.1559937.2070823-.3159722s-1.59206172-.7728732-1.99585897-.5514691c-.40379725.221404-.76227032.6891488-.76227032.8674413s.78207473-.2733971-.25732438.1782925-1.17430833.6212298-1.43468977.5364597-.24549491-.0538864-.47995783-.295173c-.23446292-.2412867-1.36570663.0250756-.4428744-.4195792s.96137772-.4542769 1.17630206-.8674413c.21492434-.4131645.82606975-.3840068.17983465-.7082404-.6462351-.3242335-1.58209304-1.1643638-2.11056502-.7442987-.52847198.4200652-1.26947582 1.3275497-1.54939584 1.4525391-.27992001.1249893.01754485.2162528-.62536737.2162528-.64291221 0-.85172244.262808-.85172244-.2162528 0-.4790609 0-.5650761 0-.8866855 0-.3216093.29826235-.8324521.5749924-1.1201413.1844867-.1917928.57477087-.5257456 1.17085253-1.0018583.36321372-.7139099.06517289-.8281756-.89412249-.3427972-1.43894306.7280675-1.26974165 1.1790398-1.99320065 1.3446555-.72345899.1656157-1.00111945.8307998-1.00111945.1630887s-.46201423-.4225921 0-.7937696c.46201424-.3711774 1.00111945-.7237911 1.00111945-1.0197416 0-.2959506.17837259-1.11664245-.2695526-1.11664245-.4479252 0-1.17125128-.17105846-1.51497073 0-.34371945.17105845.31261723-.15871504-.57751779.28292685-.89013502.4416418-.99181537-.31781889-1.6065495.6803461-.61473413.998165-.77117566 1.7922261-.77117566 2.3580797s.36525176 1.1539643.36525176 1.1539643v.2985748c-.09002809.2883371.04527988.3604214.4059239.2162528.54096603-.2162528.43370324.0823219.71681322-.2162528.28310999-.2985748.31221848.1110908.88973628-.2985748.57751779-.4096656.75017501-.5710912 1.163808-.5881107.413633-.0170194.92868052-.2591146.92868052-.2591146s.2695526-.6616097.2695526.2420952-.2695526.4687693-.2695526 1.1199577c0 .6511885-.5372444.4732294-.2686222 1.0707677s-.00093041.2515337.2686222.790465c.2695526.5389313-.1664102 1.0778627.4505835.5389313.61699369-.5389313.10872487-.7390503.96044731-1.0342233s.51012964-.185748 1.27811533-.5364597c.51199046-.2338078.85761503-.3985627 1.03687372-.4942647.23357681-.0366091.29197102.2085747.17518261.7355514-.17518261.790465-.56303001 1.3404763-.56303001 1.7554874 0 .4150112-.02817808.8301195.17983466.8301195s.75110542.3899355 1.67393765-.2859398 1.30323635-1.2568909 1.83037917-1.3830465c.52714283-.1261556.63600061-1.1142871 1.09136907-.4566467s0 .326895 0 1.2955135v1.2330788c0 .3674841-.00505079.4892661.81769608.6572144.82274685.1679483.34132695.7089207 1.42644905.1679483 1.085122-.5409724.8958503-.9421822 1.5972454-1.228122.701395-.2859398 1.0360762-.603467 1.240899-.603467.2048227 0 .8057336-.7796767.8057336 0s-.4542505.5447629-.2271252 1.4427226c.1514168.5986398.2271252.9706919.2271252 1.1161564h1.6621082c.3004776-.0970627.4507164-.1970736.4507164-.3000326 0-.1544386-.4507164-1.2524201-.4507164-1.2524201s-.7287756-.3713718-.7287756-.6888991c0-.3175272-1.179492-.5441797 0-.5441797s1.0430536.0506372 1.6224994.2266525c.5794458.1760152 1.2949956.6350545 1.2949956.3175272 0-.3175272.2621783-.557495 0-.9702708-.1747856-.2751838-.6064508-.5649912-1.2949956-.8694224h-.8937238c-1.259489-.3266061-1.8892334-.3815397-1.8892334-.1648009z" fill="#f2202d" transform="matrix(-.20791169 .9781476 .9781476 .20791169 -5.654358 4.578809)"/><path d="m36.6955015 0c1.6154482 8.92850225 1.7376576 18.6637026.3666282 29.2056011-.0332878.0367325-.6860774-3.540242-1.9583688-10.7309234z" fill="#fff" transform="matrix(-1 0 0 1 73.110008 0)"/><path d="m43.5801676 16.2034658c0 .3251083.1510976.4852812-.5786084.8224413-.7297061.3371601-1.1643397.6378731-1.7530224.6378731-.3924551 0-1.0229176-.1420303-1.8913874-.4260911.1190923-.1389601.2790339-.3186039.4798249-.5389313.3011865-.3304911.1220164-1.0726143.3264405-1.2100442.204424-.1374299.7406051-.1559937.2070823-.3159722s-1.5920617-.7728732-1.995859-.5514691c-.4037972.221404-.7622703.6891488-.7622703.8674413s.7820747-.2733971-.2573244.1782925-1.1743083.6212298-1.4346897.5364597c-.2603815-.0847701-.2454949-.0538864-.4799579-.295173-.2344629-.2412867-1.3657066.0250756-.4428744-.4195792.9228323-.4446548.9613777-.4542769 1.1763021-.8674413.2149243-.4131645.8260697-.3840068.1798346-.7082404-.6462351-.3242335-1.582093-1.1643638-2.110565-.7442987-.528472.4200652-1.2694758 1.3275497-1.5493958 1.4525391-.27992.1249893.0175448.2162528-.6253674.2162528s-.8517224.262808-.8517224-.2162528c0-.4790609 0-.5650761 0-.8866855 0-.3216093.2982623-.8324521.5749924-1.1201413.1844867-.1917928.5747708-.5257456 1.1708525-1.0018583.3632137-.7139099.0651729-.8281756-.8941225-.3427972-1.4389431.7280675-1.2697416 1.1790398-1.9932006 1.3446555s-1.0011195.8307998-1.0011195.1630887-.4620142-.4225921 0-.7937696c.4620142-.3711774 1.0011195-.7237911 1.0011195-1.0197416 0-.2959506.1783725-1.11664245-.2695526-1.11664245-.4479252 0-1.1712513-.17105846-1.5149708 0-.3437194.17105845.3126173-.15871504-.5775178.28292685-.890135.4416418-.9918153-.31781889-1.6065495.6803461-.6147341.998165-.7711756 1.7922261-.7711756 2.3580797s.3652517 1.1539643.3652517 1.1539643v.2985748c-.090028.2883371.0452799.3604214.4059239.2162528.5409661-.2162528.4337033.0823219.7168133-.2162528.28311-.2985748.3122184.1110908.8897362-.2985748s.750175-.5710912 1.163808-.5881107c.413633-.0170194.9286806-.2591146.9286806-.2591146s.2695526-.6616097.2695526.2420952-.2695526.4687693-.2695526 1.1199577c0 .6511885-.5372444.4732294-.2686222 1.0707677s-.0009305.2515337.2686222.790465c.2695526.5389313-.1664102 1.0778627.4505835.5389313.6169937-.5389313.1087248-.7390503.9604473-1.0342233.8517224-.295173.5101296-.185748 1.2781153-.5364597.5119905-.2338078.857615-.3985627 1.0368737-.4942647.2335768-.0366091.291971.2085747.1751826.7355514-.1751826.790465-.56303 1.3404763-.56303 1.7554874 0 .4150112-.0281781.8301195.1798347.8301195.2080127 0 .7511054.3899355 1.6739376-.2859398.9228323-.6758753 1.3032364-1.2568909 1.8303792-1.3830465s.6360006-1.1142871 1.0913691-.4566467c.4553684.6576404 0 .326895 0 1.2955135v1.2330788c0 .3674841-.0050508.4892661.8176961.6572144.8227468.1679483.3413269.7089207 1.426449.1679483 1.085122-.5409724.8958503-.9421822 1.5972454-1.228122.701395-.2859398 1.0360762-.603467 1.240899-.603467.2048227 0 .8057336-.7796767.8057336 0s-.4542505.5447629-.2271252 1.4427226c.1514168.5986398.2271252.9706919.2271252 1.1161564h1.6621082c.3004776-.0970627.4507164-.1970736.4507164-.3000326 0-.1544386-.4507164-1.2524201-.4507164-1.2524201s-.7287756-.3713718-.7287756-.6888991c0-.3175272-1.179492-.5441797 0-.5441797s1.0430536.0506372 1.6224994.2266525c.5794458.1760152 1.2949956.6350545 1.2949956.3175272 0-.3175272.2621783-.557495 0-.9702708-.1747856-.2751838-.6064508-.5649912-1.2949956-.8694224h-.8937238c-1.259489-.3266061-1.8892334-.3815397-1.8892334-.1648009z" fill="#f2202d" transform="matrix(.20791169 .9781476 -.9781476 .20791169 43.734927 -23.787471)"/></g></g><g mask="url(#g)"><g transform="translate(6.764999 .722625)"><path d="m.20551882 2.06637339 10.43061998-.075749-.0218572 3.04909207-10.43061998.07574901z" fill="#c10009" transform="matrix(.91354546 -.40673664 .40673664 .91354546 -.977443 2.507581)"/><path d="m23.8557213 2.06637339 10.43062-.075749-.0218572 3.04909207-10.43062.07574901z" fill="#c10009" transform="matrix(-.91354546 -.40673664 -.40673664 .91354546 57.052982 12.126986)"/><g fill="#fff"><path d="m26.2642554 3.02554308c.4792776.12842205.9370354-.02582821 1.0224306-.34452758.0853952-.31869938-.2339095-.6811629-.7131871-.80958494s-.9370353.02582821-1.0224306.34452759c-.0853952.31869937.2339095.68116289.7131871.80958493zm1.9402866.7401885c.42164.11297809.8243481-.02272213.8994737-.3030949.0751257-.28037278-.2057796-.59924666-.6274196-.71222474-.4216399-.11297809-.824348.02272212-.8994737.3030949s.2057797.59924666.6274196.71222474zm1.7027314.5809751c.3685013.09873963.7204568-.0198585.7861144-.26489633.0656577-.24503783-.1798455-.52372452-.5483469-.62246415-.3685013-.09873963-.7204567.01985849-.7861144.26489632s.1798456.52372453.5483469.62246416zm1.5874936.53425094c.3211856.08606142.6279498-.01730866.685177-.23088354.0572272-.21357489-.1567533-.45647811-.4779389-.54253953-.3211856-.08606143-.6279499.01730865-.6851771.23088354-.0572272.21357488.1567534.4564781.477939.54253953z" opacity=".7"/><path d="m3.26425541 3.02554308c.47927758.12842205.93703535-.02582821 1.02243059-.34452758.08539524-.31869938-.23390949-.6811629-.71318707-.80958494-.47927759-.12842204-.93703535.02582821-1.02243059.34452759-.08539524.31869937.23390948.68116289.71318707.80958493zm1.94028661.7401885c.42163995.11297809.82434805-.02272213.89947371-.3030949.07512566-.28037278-.20577968-.59924666-.62741963-.71222474-.42163995-.11297809-.82434804.02272212-.8994737.3030949s.20577967.59924666.62741962.71222474zm1.7027314.5809751c.36850132.09873963.72045674-.0198585.78611443-.26489633.06565768-.24503783-.17984558-.52372452-.5483469-.62246415s-.72045673.01985849-.78611442.26489632.17984558.52372453.54834689.62246416zm1.58749357.53425094c.32118561.08606142.62794982-.01730866.68517704-.23088354.05722722-.21357489-.15675334-.45647811-.47793896-.54253953-.32118561-.08606143-.62794982.01730865-.68517704.23088354-.05722722.21357488.15675334.4564781.47793896.54253953z" opacity=".7" transform="matrix(-1 0 0 1 11.726454 0)"/></g></g></g><g fill="#000" fill-opacity=".2" fill-rule="nonzero" mask="url(#g)"><g transform="translate(7.564771 4.804976)"><path d="m30.4841488.07197842.2912372-.07197842.1092971.4591087.1073215.48486192c.0177224.08295654.0353624.16698623.0529202.25208909l.1043594.52349576.1023856.54925432c.0168998.09368905.0337174.18845146.0504528.28428728l.099426.58789613.0974539.61366001.0954824.63942601.0935116.66519414.0915414.69096441.1336198 1.0847705.0866191.75539938.0846514.78117709.0826844.80695693.1203399 1.25877723.0777697.8714159.1129711 1.3554756.0728594.9358881.1056087 1.4521939.1339453 2.0265452.0640315 1.0519716-.2994755.0177321-.0625778-1.0286827-.0973787-1.4966371-.1363907-1.9089167-.1072045-1.3667292-.1114119-1.3110431-.1156173-1.25535035-.0794133-.80595643-.1226213-1.16251397-.0840806-.74405927-.1296193-1.06965883-.088744-.68214959-.0906082-.65738223-.0924717-.63261284-.0943347-.60784148-.096197-.58306809-.0980586-.55829272-.0999196-.53351534-.10178-.50873596-.1036397-.48395458-.1054987-.45917119z" transform="matrix(-1 0 0 1 63.338786 0)"/><path d="m.2912372 0 .05489555.22633533.10830924.47198504.106334.49773934.10435944.52349576.10238557.54925432.10041238.57501499.09843988.6007778.14396285.94947664.13952854 1.00745493.09055667.70385033.08858757.72962379.12919079 1.14276558.12476417 1.20076782.08071801.83273893.07875233.858523.11444433 1.3361343.11002538 1.3941606.07089642.9616807.10266559 1.4908868.09825278 1.5489323.0317707.5292109-.2994755.0177321-.09456916-1.5337469-.0987831-1.4780811-.10299488-1.4224085-.1072045-1.3667292-.11141195-1.3110431-.11561723-1.25535035-.07941336-.80595643-.08128077-.78119907-.08314754-.7564397-.12822011-1.08823136-.08781166-.69453253-.08967618-.66976616-.09154007-.64499779-.09340331-.62022741-.09526591-.59545503-.09712787-.57068066-.09898919-.54590428-.10084987-.5211259-.1027099-.49634552-.10456929-.47156314c-.01758313-.07652854-.0352437-.1520244-.05298171-.22648754l-.05344633-.22029121z"/></g></g><g mask="url(#g)"><g transform="translate(16.247322 -4.475724)"><path d="m1.00267777 5.97572384h13.50000003c-.9750977 2.7232666-3.2250977 4.08489986-6.75000003 4.08489986-3.52490234 0-5.77490234-1.36163326-6.75-4.08489986z" fill="#98030a"/><path d="m.04988847 4.35674159h15.40557863v1.5c-2.5675965.72019064-5.1351929 1.08028596-7.70278933 1.08028596s-5.13519287-.36009532-7.7027893-1.08028596z" fill="#d1d1d1"/><g fill="none"><g transform="translate(.075 .075)"><use fill="#fff" fill-rule="nonzero" xlink:href="#d"/><path d="m7.67767777 5.44432352 15.45288083 6.93581088h-30.90576169z" fill="#f2202d" mask="url(#j)"/></g><use fill="#f4f4f4" fill-rule="nonzero" xlink:href="#e"/><path d="m7.75267777 5.51932352 15.45288083 6.93581088h-30.90576169z" fill="#df1c28" mask="url(#k)"/></g></g></g><g mask="url(#g)"><g transform="translate(27.848888 8.775)"><path d="m.29500109.60292328c1.13850294.58465287 2.22357358.38367845 3.2552119-.60292328.00887388.00530431 1.49528176 1.62371946 3.28533638.60292328-.01521236.01174287 1.83582515 4.74425525-3.27027414 7.33342592-.0197327.01928233-4.39862439-1.66628739-3.42369881-6.78491353-.00120098.01694711.04994058-.16589036.15342467-.54851239z" fill="#162c59"/><path d="m.42253806.89751267c1.05009777.49158836 2.09265608.2864828 3.12767493-.61531669-.00817331.00383645 1.42852751 1.39386601 3.15923391.61531669-.00563792.00855695 1.51976832 4.39929159-3.15923391 6.85368607-.00300244.03629616-3.94587314-1.73240778-3.27999871-6.19590155.00014456-.00106753.05091916-.22032904.15232378-.65778452z" fill="#fff"/><g fill="none" transform="translate(.594351 .870474)"><use fill="#ffd200" xlink:href="#f"/><path d="m0 .210705h1.930102v6.670567h-1.930102z" fill="#134395" mask="url(#l)"/><path d="m4.007923.210705h1.930102v6.670567h-1.930102z" fill="#dd0019" mask="url(#l)"/></g></g></g></g></svg>