<svg height="52" viewBox="0 0 48 52" width="48" xmlns="http://www.w3.org/2000/svg" xmlns:xlink="http://www.w3.org/1999/xlink"><defs><path id="a" d="m10.2202858 49.9349257c.0787516-8.3259693.1181274-13.7657189.1181274-16.3192491 0-2.5535301-.1615852-6.6616729-.48475555-12.3244284l-1.62950095 3.824804c-1.21290389.2097607-2.80567507-.165146-4.77831355-1.1247201-1.91932393-.9336397-3.05856368-1.9127507-3.41771927-2.9373331l-.02812388-.0854872 4.72526396-11.80843482c.80828466-2.15399283 1.9352765-3.54601538 3.38097549-4.17606763l8.27726135-3.62110356 1.3174386-1.36290579c2.3533278.52153794 4.4532066.78286536 6.2996364.78398228 1.837436.00111148 3.9369309-.26021595 6.2984848-.78398228l1.3148686 1.36290579 8.1619141 3.57168801c1.502465.60477993 2.6687625 2.01327432 3.4988927 4.22548318l4.725264 11.80843482c-.3245903 1.0556395-1.4732047 2.0632462-3.4458431 3.0228203-1.9726385.9595741-3.5654097 1.3344808-4.7783136 1.1247201l-1.6295009-3.824804c-.3231704 5.4663301-.4847556 9.5744729-.4847556 12.3244284s.0397398 8.1897052.1192195 16.3192491c-.5352074.4644293-7.1577338 1.0650743-13.7802603 1.0650743-6.6225264 0-13.2450528-.600645-13.7802602-1.0650743z"/><linearGradient id="b"><stop offset="0" stop-color="#f7af2a"/><stop offset="1" stop-color="#d50006"/></linearGradient><linearGradient id="c" x1="59.658413%" x2="46.829357%" xlink:href="#b" y1="2.011986%" y2="70.955717%"/><linearGradient id="d" x1="100%" x2="14.457685%" xlink:href="#b" y1="7.205348%" y2="64.49852%"/><linearGradient id="e" x1="47.959869%" x2="49.64676%" xlink:href="#b" y1="2.871906%" y2="74.164385%"/><linearGradient id="f" x1="100%" x2="24.814844%" xlink:href="#b" y1="52.11677%" y2="50.68075%"/><linearGradient id="g" x1="34.088789%" x2="99.512076%" y1="31.713996%" y2="76.874779%"><stop offset="0" stop-color="#d50006"/><stop offset="1" stop-color="#f5a427"/></linearGradient><linearGradient id="h"><stop offset="0" stop-color="#d50006"/><stop offset="1" stop-color="#f7af2a"/></linearGradient><linearGradient id="i" x1="50%" x2="50%" xlink:href="#h" y1="0%" y2="100%"/><linearGradient id="j" x1="79.250918%" x2="0%" xlink:href="#h" y1="34.90315%" y2="87.658435%"/><linearGradient id="k" x1="0%" x2="80.893561%" y1="16.239406%" y2="69.489754%"><stop offset="0" stop-color="#f5a428"/><stop offset="1" stop-color="#d50106"/></linearGradient><path id="l" d="m.3340955 1.3785553 1.67467903-1.3785553h.22037102c1.14843453 2.30320307 2.91867502 4.03757877 5.16865539 5.33308898l-2.80476379 2.26618718c-1.77782619-1.71108787-3.20006163-3.78204215-4.25894165-6.22072086z"/><path id="m" d="m.3340955 1.3785553 1.67467903-1.3785553h.22037102c1.14843453 2.30320307 2.91867502 4.03757877 5.16865539 5.33308898l-2.80476379 2.26618718c-1.77782619-1.71108787-3.20006163-3.78204215-4.25894165-6.22072086z"/><mask id="n" fill="#fff"><use fill="#fff" fill-rule="evenodd" xlink:href="#a"/></mask><mask id="o" fill="#fff"><ellipse cx="11.315023" cy="41.495598" fill="#fff" fill-rule="evenodd" rx="11.315023" ry="41.495598"/></mask><mask id="p" fill="#fff"><use fill="#fff" fill-rule="evenodd" xlink:href="#l"/></mask><mask id="q" fill="#fff"><use fill="#fff" fill-rule="evenodd" xlink:href="#m"/></mask></defs><g fill="none" fill-rule="evenodd" transform="translate(0 .5)"><use fill="#d50006" xlink:href="#a"/><g mask="url(#n)"><g fill="none" fill-rule="evenodd" mask="url(#o)" transform="translate(12.684977 -14.901367)"><g transform="translate(-9.19259 12.697754)"><path d="m27.7973399 15.3149293-13.650418 49.6850707-8.54931976-7.9901295z" fill="url(#c)"/><path d="m27.0239713 16.0106523-23.32405459 24.9439257-3.69991671-13.6475685 27.2994111-11.9920802z" fill="url(#d)"/><path d="m27.7973399 15.9781219.4919925 38.4442764c5.4098598-.4639736 8.1147897-.6959605 8.1147897-.6959605s-2.5695845-12.8038361-7.7087534-38.4115085h-.8980288" fill="url(#e)"/><path d="m26.2925123 15.0043471c-.1052686 0-8.6471484.8926071-25.62563924 2.6778213l.42989984-9.4111378 25.4589507 5.9097277c-.0702055.5490592-.1579426.8235888-.2632113.8235888z" fill="url(#f)"/><path d="m26.2346937 13.4990447c-.2752024-.1492757-6.1581776-3.865141-17.64892561-11.1475959l8.59372261-2.3514488 9.856353 13.4990447c-.2588976.1492758-.5259476.1492758-.80115 0z" fill="url(#g)"/><path d="m27.7973399 12.9765995-1.8515018-11.12949052 3.689469.19375767-1.4244513 11.11542175z" fill="url(#i)"/><path d="m29.2726051 12.9765995s1.6011523-1.9966419 4.8034568-5.98992582l2.8295506 4.06511192-7.6330074 2.5592159c0-.4229347 0-.634402 0-.634402z" fill="url(#j)"/><path d="m29.2726051 15.1126235 8.4994557 3.7865852c-2.1980574 2.4576673-3.297086 3.6865009-3.297086 3.6865009s-1.803656-2.297548-5.4109679-6.8926442z" fill="url(#k)"/></g></g></g><ellipse cx="24" cy="26.59423" mask="url(#n)" rx="11.215023" ry="41.395598" stroke="#ffa853" stroke-width=".2"/><g mask="url(#n)"><g transform="translate(6.764999 .722625)"><path d="m.20551882 2.06637339 10.43061998-.075749-.0218572 3.04909207-10.43061998.07574901z" fill="#d50006" transform="matrix(.91354546 -.40673664 .40673664 .91354546 -.977443 2.507581)"/><path d="m23.8557213 2.06637339 10.43062-.075749-.0218572 3.04909207-10.43062.07574901z" fill="#d50006" transform="matrix(-.91354546 -.40673664 -.40673664 .91354546 57.052982 12.126986)"/><g fill="#fff"><path d="m26.2642554 3.02554308c.4792776.12842205.9370354-.02582821 1.0224306-.34452758.0853952-.31869938-.2339095-.6811629-.7131871-.80958494s-.9370353.02582821-1.0224306.34452759c-.0853952.31869937.2339095.68116289.7131871.80958493zm1.9402866.7401885c.42164.11297809.8243481-.02272213.8994737-.3030949.0751257-.28037278-.2057796-.59924666-.6274196-.71222474-.4216399-.11297809-.824348.02272212-.8994737.3030949s.2057797.59924666.6274196.71222474zm1.7027314.5809751c.3685013.09873963.7204568-.0198585.7861144-.26489633.0656577-.24503783-.1798455-.52372452-.5483469-.62246415-.3685013-.09873963-.7204567.01985849-.7861144.26489632s.1798456.52372453.5483469.62246416zm1.5874936.53425094c.3211856.08606142.6279498-.01730866.685177-.23088354.0572272-.21357489-.1567533-.45647811-.4779389-.54253953-.3211856-.08606143-.6279499.01730865-.6851771.23088354-.0572272.21357488.1567534.4564781.477939.54253953z" opacity=".7"/><path d="m3.26425541 3.02554308c.47927758.12842205.93703535-.02582821 1.02243059-.34452758.08539524-.31869938-.23390949-.6811629-.71318707-.80958494-.47927759-.12842204-.93703535.02582821-1.02243059.34452759-.08539524.31869937.23390948.68116289.71318707.80958493zm1.94028661.7401885c.42163995.11297809.82434805-.02272213.89947371-.3030949.07512566-.28037278-.20577968-.59924666-.62741963-.71222474-.42163995-.11297809-.82434804.02272212-.8994737.3030949s.20577967.59924666.62741962.71222474zm1.7027314.5809751c.36850132.09873963.72045674-.0198585.78611443-.26489633.06565768-.24503783-.17984558-.52372452-.5483469-.62246415s-.72045673.01985849-.78611442.26489632.17984558.52372453.54834689.62246416zm1.58749357.53425094c.32118561.08606142.62794982-.01730866.68517704-.23088354.05722722-.21357489-.15675334-.45647811-.47793896-.54253953-.32118561-.08606143-.62794982.01730865-.68517704.23088354-.05722722.21357488.15675334.4564781.47793896.54253953z" opacity=".7" transform="matrix(-1 0 0 1 11.726454 0)"/></g></g></g><g fill="#d50006" mask="url(#n)"><path d="m4.99752786 3.27877745 5.47526394 12.78319085c-.3245903 1.0556394-2.22320465 2.5884902-4.19584313 3.5480643-1.97263848.959574-3.56540966 1.3344807-4.77831355 1.1247201l-1.49863512-4.2689067.10079737-1.521817.10522808-1.4634054.07261357-.9431528.11261262-1.3660528.07753659-.8782511.0795058-.85229028.08147501-.82632963.12590479-1.19081815.1303355-1.13240658.08935185-.72248685.09132105-.69652616.09329027-.67056546.09525947-.64460477.09722868-.61864407.0991979-.59268337.1011671-.56672268.10313631-.54076198c.01735349-.08796361.03478902-.17484552.05230661-.26064573l.10609012-.50182094.10805934-.47586025c1.2999075.68642892 2.3248165 1.27932537 3.07510983 3.27877745z" transform="translate(38.277208 5.1313)"/><path d="m4.99752786 3.27877745 5.47526394 12.78319085c-.3245903 1.0556394-2.22320465 2.5884902-4.19584313 3.5480643-1.97263848.959574-3.56540966 1.3344807-4.77831355 1.1247201l-1.49863512-4.2689067.10079737-1.521817.10522808-1.4634054.07261357-.9431528.11261262-1.3660528.07753659-.8782511.0795058-.85229028.08147501-.82632963.12590479-1.19081815.1303355-1.13240658.08935185-.72248685.09132105-.69652616.09329027-.67056546.09525947-.64460477.09722868-.61864407.0991979-.59268337.1011671-.56672268.10313631-.54076198c.01735349-.08796361.03478902-.17484552.05230661-.26064573l.10609012-.50182094.10805934-.47586025c1.2999075.68642892 2.3248165 1.27932537 3.07510983 3.27877745z" transform="matrix(-1 0 0 1 9.722792 5.1313)"/></g><g fill="#000" fill-opacity=".2" fill-rule="nonzero" mask="url(#n)"><g transform="translate(7.564771 4.804976)"><path d="m30.4841488.07197842.2912372-.07197842.1092971.4591087.1073215.48486192c.0177224.08295654.0353624.16698623.0529202.25208909l.1043594.52349576.1023856.54925432c.0168998.09368905.0337174.18845146.0504528.28428728l.099426.58789613.0974539.61366001.0954824.63942601.0935116.66519414.0915414.69096441.1336198 1.0847705.0866191.75539938.0846514.78117709.0826844.80695693.1203399 1.25877723.0777697.8714159.1129711 1.3554756.0728594.9358881.1056087 1.4521939.1339453 2.0265452.0640315 1.0519716-.2994755.0177321-.0625778-1.0286827-.0973787-1.4966371-.1363907-1.9089167-.1072045-1.3667292-.1114119-1.3110431-.1156173-1.25535035-.0794133-.80595643-.1226213-1.16251397-.0840806-.74405927-.1296193-1.06965883-.088744-.68214959-.0906082-.65738223-.0924717-.63261284-.0943347-.60784148-.096197-.58306809-.0980586-.55829272-.0999196-.53351534-.10178-.50873596-.1036397-.48395458-.1054987-.45917119z" transform="matrix(-1 0 0 1 63.338786 0)"/><path d="m.2912372 0 .05489555.22633533.10830924.47198504.106334.49773934.10435944.52349576.10238557.54925432.10041238.57501499.09843988.6007778.14396285.94947664.13952854 1.00745493.09055667.70385033.08858757.72962379.12919079 1.14276558.12476417 1.20076782.08071801.83273893.07875233.858523.11444433 1.3361343.11002538 1.3941606.07089642.9616807.10266559 1.4908868.09825278 1.5489323.0317707.5292109-.2994755.0177321-.09456916-1.5337469-.0987831-1.4780811-.10299488-1.4224085-.1072045-1.3667292-.11141195-1.3110431-.11561723-1.25535035-.07941336-.80595643-.08128077-.78119907-.08314754-.7564397-.12822011-1.08823136-.08781166-.69453253-.08967618-.66976616-.09154007-.64499779-.09340331-.62022741-.09526591-.59545503-.09712787-.57068066-.09898919-.54590428-.10084987-.5211259-.1027099-.49634552-.10456929-.47156314c-.01758313-.07652854-.0352437-.1520244-.05298171-.22648754l-.05344633-.22029121z"/></g></g><g mask="url(#n)"><g transform="translate(15.69775 -4.475724)"><path d="m1.5522504 5.97572384h13.5c-2.5639089 3.2232666-4.8139089 4.83489986-6.75 4.83489986s-4.1860911-1.61163326-6.75-4.83489986z" fill="#780003" fill-rule="evenodd"/><path d="m.5994611 4.35674159h15.4055786v1.5c-2.5675964.72019064-5.1351929 1.08028596-7.7027893 1.08028596-2.56759643 0-5.13519287-.36009532-7.7027893-1.08028596z" fill="#a00105" fill-rule="evenodd"/><g fill-rule="nonzero"><path d="m14.5111298 4.08477188.1691929.78190392c-4.1889925.90643864-8.25656793.9476404-12.1991627.12255588l-.56237723-.12376243.17998353-.77949082c3.81929865.88187166 7.76152945.92195673 11.830256.11920584z" fill="#d4802e"/><path d="m8.3022504.075c4.2402644 0 7.6776778 2.35050506 7.6776778 5.25 0 1.4304175-1.4014321 3.03442605-4.2042964 4.8120257l-.4668028.289781c-.0798478.0485504-.1607194.0972276-.2426146.1460317l-.5036557.2943458c-.1719799.0986225-.3480547.1977522-.5282242.2973891l-.55279279.3004324c-.18835903.1006513-.38081282.2018098-.57736137.3034755l-.60192994.3065188-.60192993-.3065188c-.19654855-.1016657-.38900234-.2028242-.57736137-.3034755l-.5527928-.3004324c-.18016951-.0996369-.35624425-.1987666-.52822423-.2973891l-.50365566-.2943458c-.08189523-.0488041-.16276677-.0974813-.24261462-.1460317l-.46680281-.289781c-2.80286423-1.77759965-4.20429635-3.3816082-4.20429635-4.8120257 0-2.89949494 3.43741343-5.25 7.67767777-5.25zm0 1.5c-3.50623917 0-6.17767777 1.82673109-6.17767777 3.75 0 .57810336.583838 1.37387975 1.77183805 2.32319292l.30959849.24048985c.16110436.12180716.33167521.24592981.51175226.37224271l.37284077.25550898c.06425654.04305917.12957226.08635243.19594864.12987513l.41099785.26385237.43652413.26913625c.07488513.045284.1508368.09077887.22785647.13647999l.47494584.27664454.50064854.28137168.5264218.28587618.43860507.2300794.43814416-.2301539.52668051-.28602157c.08562814-.04730068.17018128-.09441349.2536609-.14133375l.48800719-.27917403.4623134-.27433019.4366903-.2692633c.2119511-.13332775.41432-.26467178.6071466-.39390663l.3729415-.25562028.3475658-.24977275c1.4512398-1.06935676 2.1897192-1.96772578 2.2413187-2.61343697l.0029086-.07173663c0-1.92326891-2.6714386-3.75-6.1776778-3.75z" fill="#d50006"/><path d="m8.3022504 0c-4.2769656 0-7.75267777 2.37669376-7.75267777 5.325 0 1.57849664 1.64835305 3.34338195 4.94116813 5.3069347l.50625524.2960244c.25929387.1487588.52783674.2986385.80562698.4496444l.5679098.3035148.59256652.306527c.10081565.0513393.20265854.1028046.30552861.1543959l.30948316-.1543959.60000435-.306527.57474082-.3035148c4.21587516-2.2650879 6.30207196-4.27679479 6.30207196-6.0526035 0-2.94830624-3.4757122-5.325-7.7526778-5.325zm0 .15c4.2035631 0 7.6026778 2.32431636 7.6026778 5.175 0 1.28715327-1.1758371 2.73280544-3.5299008 4.32941583l-.4276542.28332028c-.2932573.18992279-.6028241.38192889-.9287044.57600599l-.5010561.2926672c-.0855487.0490363-.1721171.0982016-.2597053.1474957l-.53776687.2973097c-.18333504.0996176-.37074967.1997492-.56224436.3003931l-.58672479.3034673c-.09982766.0508336-.20067546.1017949-.30254347.1528837l-.6030324-.3111936-.57818585-.3079972c-.09429242-.051066-.18754854-.1019983-.27976788-.1527969l-.54087042-.3031843-.51596304-.2999634-.49103133-.2967328c-3.03086328-1.86905673-4.56020436-3.5431487-4.56020436-5.0110906 0-2.85068364 3.39911469-5.175 7.60267777-5.175z" fill="#ba0005"/></g><g fill="none" fill-rule="evenodd" transform="matrix(-1 0 0 1 16.6045 4.475724)"><path d="m0 .99683984 2.14385975.0441172c1.62604193 1.90006846 3.23931144 3.84255756 5.25394119 4.45202144l-2.77318971 2.9016623c-1.82491575-2.07449846-3.50763714-4.34541211-4.62461123-7.39780094z" fill="#000" fill-opacity=".2"/><use fill="#d50006" xlink:href="#l"/><path d="m.35294594-4.31102964.37616922-.3293884.99711309 1.14335733 1.51331082 1.75655051 1.07701448 1.27118213.72984008.8752339.86926546 1.06283357.57408518.71905643.5073679.65217463.30119042.39764176.39621885.5407735.24557576.35014354.22686191.33962815c.37963922.58697287.56019189.98059564.54862172 1.2284375-.01372497.2939992-.2512313.42075589-.53983576.36081726-.18823405-.03909326-.43773571-.1555226-.76255318-.34991566-2.32233368-1.38984382-4.08419995-3.12967906-5.28157854-5.21807287l-.20544155-.37215805.44158253-.23453118c1.15333343 2.17153176 2.91914339 3.96954016 5.30220217 5.39572605.18695504.11188672.34134886.19214909.45901901.24060112l.05702449.02093842-.00413972-.0137945c-.02703015-.07214102-.06993506-.16351778-.12852096-.27280659l-.13802235-.24206816-.17949381-.28748043-.22062078-.33053948-.2285922-.32577105-.2542798-.34963584-.43717282-.58049001-.50405802-.64770609-.57092231-.71489132-.63776571-.78204572-.95429681-1.14713671-1.07304288-1.26639438-1.19173943-1.38557895z" fill="#ffa853" fill-rule="nonzero" mask="url(#p)"/></g><g fill="none" fill-rule="evenodd" transform="translate(0 4.475724)"><path d="m0 .99683984 2.14385975.0441172c1.62604193 1.90006846 3.23931144 3.84255756 5.25394119 4.45202144l-2.77318971 2.9016623c-1.82491575-2.07449846-3.50763714-4.34541211-4.62461123-7.39780094z" fill="#000" fill-opacity=".2"/><use fill="#d50006" xlink:href="#m"/><path d="m.20917269-4.31102964.37616922-.3293884.99711309 1.14335733.62760211.72497125 1.43906058 1.68206036 1.01764214 1.21163112.46430265.5611683.8395994 1.03308777.55184377.69675907.33083326.4273533.44067151.58532367.373996.51850355.24670021.35944668c.4537029.67911334.66972296 1.12297762.65710095 1.39335055-.01372497.2939992-.2512313.42075589-.53983576.36081726-.18823405-.03909326-.43773571-.1555226-.76255318-.34991566-2.32233368-1.38984382-4.08419995-3.12967906-5.28157854-5.21807287l-.20544155-.37215805.44158253-.23453118c1.15333343 2.17153176 2.91914338 3.96954016 5.30220217 5.39572605.18695504.11188672.34134885.19214909.459019.24060112l.05779775.02093842-.00491297-.0137945c-.02703015-.07214102-.06993507-.16351778-.12852096-.27280659l-.13802235-.24206816-.17949381-.28748043-.22062078-.33053948-.2285922-.32577105-.2542798-.34963584-.43717283-.58049001-.50405801-.64770609-.57092231-.71489132-.63776571-.78204572-.70458823-.84916927-1.32275146-1.56436182-1.50821482-1.7505877z" fill="#ffa853" fill-rule="nonzero" mask="url(#q)"/></g></g></g><g mask="url(#n)"><g transform="translate(28.000811 8.775)"><path d="m6.99837767.00562111-.05201575 2.1992743c-.10662686 2.39581152-1.26084744 4.30635054-3.46266174 5.73161704-.00262803-.00099093-3.34608018-1.93534038-3.41707659-5.73161704-.0057676-.02321375-.02797547-.75817889-.06662359-2.20489541z" fill="#a60005"/><path d="m6.6433799.37669178-.04673867 1.97615474c-.09580942 2.15275297-1.13293265 3.86946504-3.1113697 5.1501362-.00236141-.00089041-3.00661551-1.7389973-3.07040923-5.1501362-.00518247-.02085869-.02513731-.68126055-.05986453-1.98120559z" fill="#fff"/></g></g></g></svg>