<svg xmlns="http://www.w3.org/2000/svg" xmlns:xlink="http://www.w3.org/1999/xlink" width="48" height="52" viewBox="0 0 48 52"><defs><path id="a" d="M10.2202858,49.9349257 C10.2990374,41.6089564 10.3384132,36.1692068 10.3384132,33.6156766 C10.3384132,31.0621465 10.176828,26.9540037 9.85365765,21.2912482 L8.2241567,25.1160522 C7.01125281,25.3258129 5.41848163,24.9509062 3.44584315,23.9913321 C1.52651922,23.0576924 0.387279465,22.0785814 0.0281238815,21.053999 L0,20.9685118 L4.72526396,9.16007698 C5.53354862,7.00608415 6.66054046,5.6140616 8.10623945,4.98400935 L16.3835008,1.36290579 L17.7009394,0 C20.0542672,0.521537936 22.154146,0.782865363 24.0005758,0.783982281 C25.8380118,0.785093757 27.9375067,0.523766331 30.2990606,0 L31.6139292,1.36290579 L39.7758433,4.9345938 C41.2783083,5.53937373 42.4446058,6.94786812 43.274736,9.16007698 L48,20.9685118 C47.6754097,22.0241513 46.5267953,23.031758 44.5541569,23.9913321 C42.5815184,24.9509062 40.9887472,25.3258129 39.7758433,25.1160522 L38.1463424,21.2912482 C37.823172,26.7575783 37.6615868,30.8657211 37.6615868,33.6156766 C37.6615868,36.3656321 37.7013266,41.8053818 37.7808063,49.9349257 C37.2455989,50.399355 30.6230725,51 24.000546,51 C17.3780196,51 10.7554932,50.399355 10.2202858,49.9349257 Z"/><path id="c" d="M44.024736,3.3430672 L49.5,16.3769088 C49.1754097,17.4532471 47.2767953,19.0161537 45.3041569,19.994543 C43.3315184,20.9729323 41.7387472,21.3551901 40.5258433,21.1413165 L39.0272082,16.7887058 L39.1280055,15.2370492 L39.2332336,13.7449495 L39.3058472,12.7833036 L39.4184598,11.3904654 L39.4959964,10.4949937 L39.5755022,9.62599185 L39.6569772,8.78345967 L39.782882,7.56929215 L39.9132175,6.41468152 L40.0025694,5.67802826 L40.0938904,4.96784473 L40.1871807,4.28413092 L40.2824402,3.62688685 L40.3796688,2.9961125 L40.4788667,2.39180789 L40.5800338,1.813973 L40.6831701,1.26260784 C40.7005236,1.17291945 40.7179592,1.08433398 40.7354767,0.996851405 L40.8415669,0.485190838 L40.9496262,0 C42.2495337,0.699888308 43.2744427,1.30441018 44.024736,3.3430672 Z"/><path id="d" d="M4.99752786,3.3430672 L10.4727918,16.3769088 C10.1482015,17.4532471 8.24958715,19.0161537 6.27694867,19.994543 C4.30431019,20.9729323 2.71153901,21.3551901 1.49863512,21.1413165 L0,16.7887058 L0.100797365,15.2370492 L0.206025452,13.7449495 L0.27863902,12.7833036 L0.391251641,11.3904654 L0.468788233,10.4949937 L0.548294034,9.62599185 L0.629769044,8.78345967 L0.755673826,7.56929215 L0.886009329,6.41468152 L0.975361176,5.67802826 L1.06668223,4.96784473 L1.1599725,4.28413092 L1.25523197,3.62688685 L1.35246065,2.9961125 L1.45165855,2.39180789 L1.55282565,1.813973 L1.65596196,1.26260784 C1.67331545,1.17291945 1.69075098,1.08433398 1.70826857,0.996851405 L1.81435869,0.485190838 L1.92241803,0 C3.22232553,0.699888308 4.24723453,1.30441018 4.99752786,3.3430672 Z"/></defs><g fill="none" fill-rule="evenodd"><g transform="translate(0 .5)"><mask id="b" fill="#fff"><use xlink:href="#a"/></mask><use xlink:href="#a" fill="#0D2B55"/><path fill="#FFF" fill-rule="nonzero" d="M36.930123 2.54603827 37.030621 2.71895491C32.7378983 5.21385558 31.6552453 6.41954052 32.5993091 7.58751198 33.0846143 8.18791898 34.0198424 8.77506663 36.0829997 9.84412055 36.1838906 9.89639862 38.3276772 10.9947889 39.0460403 11.3711498 40.3358028 12.0468752 41.4924146 12.6809518 42.6624603 13.3628134L42.5617593 13.5356119C41.3945484 12.8554023 40.2405 12.222731 38.9532243 11.5483084 38.2358367 11.1724586 36.0926196 10.0743601 35.9909859 10.0216972 33.8998586 8.93815019 32.9537457 8.344169 32.4437666 7.71323599 31.3736848 6.38935832 32.5267714 5.1052357 36.930123 2.54603827ZM26.5551552 4.67053445 26.7464042 4.72904778C24.0998222 13.3793196 23.215468 17.8986752 23.6948075 20.0292539 24.0780495 21.7326966 24.9126497 21.9411902 28.1896048 21.70703 31.9407376 21.4389865 34.0737692 21.7254686 36.5477487 23.4052551 37.9677419 24.3694042 39.2820288 25.7551825 40.4948298 27.6290284L40.3269285 27.7376984C39.1281379 25.8854993 37.8323349 24.5192104 36.4354019 23.5707187 34.0082153 21.9227037 31.9138645 21.6414168 28.2038598 21.9065213 24.8309236 22.1475401 23.9148988 21.9187056 23.4996847 20.0731528 23.0094777 17.8942699 23.8970497 13.3584702 26.5551552 4.67053445Z" mask="url(#b)" opacity=".251"/><path fill="#FFF" fill-rule="nonzero" d="M19.1800594,3.39469483 L19.379814,3.40460058 C18.4945506,21.2563937 19.5822818,24.0942051 26.1911674,25.4725998 C32.8566167,26.8627917 35.4319485,27.7549032 40.2839136,31.2612449 L40.1667684,31.4233467 C35.3434073,27.9376761 32.7903046,27.0532649 26.1503327,25.6683867 C19.4134852,24.2633034 18.2904826,21.3334714 19.1800594,3.39469483 Z" mask="url(#b)" opacity=".251"/><path fill="#FFF" fill-rule="nonzero" d="M17.643166,2.75239958 L17.8315902,2.81945404 C17.2248939,4.5242816 16.4373088,5.86591198 15.367434,7.18599927 C15.2000254,7.39255997 14.8880983,7.75142451 14.560657,8.12320349 L14.2792024,8.44178284 C13.8603479,8.91464274 13.4767763,9.34301694 13.4026683,9.43065216 C12.2978025,10.7371926 11.7975523,11.7813696 11.7320457,13.2486167 C11.459832,19.3457948 16.5661759,26.2067503 23.5211571,30.3141897 C28.5068611,33.2586228 32.6906378,33.8616108 41.6828505,32.9738578 L41.7024999,33.1728903 C32.6716757,34.0644551 28.4470634,33.4555817 23.4194538,30.4864002 C16.4073073,26.3452003 11.2561403,19.42402 11.5322448,13.2396965 C11.5999956,11.7221801 12.118955,10.6389514 13.2499525,9.30150925 C13.4014752,9.12232868 14.7856198,7.58623921 15.212056,7.06007199 C16.2683776,5.75670756 17.0445525,4.43451429 17.643166,2.75239958 Z" mask="url(#b)" opacity=".251"/><path fill="#FFF" fill-rule="nonzero" d="M9.19021948 25.849739C17.0633581 29.2045405 19.0533672 30.9634635 20.405676 33.9916344 21.1255432 35.6036041 22.3937875 36.089282 28.7644773 36.7046814 31.5869499 36.9773281 35.4657267 37.2547849 41.0454427 37.5865481L41.0335719 37.7861955C35.4515985 37.4542981 31.5707064 37.17669 28.7452471 36.9037547 22.3065994 36.2817907 20.9830112 35.7749188 20.2230585 34.073187 18.8930522 31.0949573 16.9414787 29.3700067 9.11181883 26.0337318L9.19021948 25.849739ZM10.005087 33.4660367C15.3301535 34.3700951 18.1540337 35.5116457 20.9020652 37.461332 21.0711899 37.5813234 21.2442415 37.706616 21.4467408 37.8552159 21.5742637 37.9487959 21.7132759 38.0514583 21.9772602 38.2465349 26.2708895 41.4145665 30.1434729 42.5502346 41.7556123 42.8812459L41.7499135 43.0811647C30.0996916 42.7490678 26.1879438 41.6019144 21.8585158 38.407469 21.8144913 38.3749362 21.773951 38.3449799 21.7363673 38.3172126L21.5421244 38.1737788C21.4585224 38.112097 21.3920343 38.0631436 21.3284162 38.0164588 21.1267127 37.868443 20.9544896 37.7437502 20.7863367 37.6244483 18.0633035 35.6924979 15.2675971 34.5623365 9.97161122 33.6632152L10.005087 33.4660367ZM9.50821714 39.983678C14.0769648 40.6777197 17.3369949 41.7008223 20.4753533 43.2182763 20.5091042 43.2345954 20.5453411 43.2522972 20.5838389 43.2712594L20.8401538 43.3991808C21.1666347 43.5637885 21.5818218 43.7781874 22.0084517 44.0004806L22.3751348 44.1919738C23.2898382 44.6706538 24.1557201 45.1306161 24.2125384 45.1596087 29.0136356 47.6094576 33.2666213 48.0365775 43.0711338 46.2415631L43.1071512 46.4382933C33.2620869 48.2407319 28.9650239 47.8091854 24.1216352 45.3377564 24.0163081 45.2840113 21.2954181 43.8369449 20.3882926 43.398333 17.2677413 41.8894892 14.0269016 40.8724091 9.4781796 40.1814095L9.50821714 39.983678ZM21.1579777 50.0022981C20.2096972 49.2218305 19.7021499 48.8697552 19.0809926 48.5762067 18.6794063 48.3864238 15.9888171 47.5316561 13.2441613 46.6259971L12.6762631 46.4380947C11.6363901 46.0930142 10.6109143 45.746705 9.7218048 45.4326806L9.78841052 45.2440972C10.6743034 45.5569856 11.6985096 45.9027989 12.7385308 46.2478938L13.5905013 46.5294015C16.2365934 47.4004579 18.7686908 48.2074092 19.1664472 48.3953822 19.8056671 48.6974667 20.3251288 49.0578068 21.2850736 49.8478746 21.1566493 49.7421769 24.0896352 52.2041071 25.5039103 53.3557228L25.3776256 53.5108104C24.9486238 53.161483 24.3802439 52.6918975 23.7999577 52.2099834L23.4513769 51.920219C22.465462 51.0999208 21.5188164 50.3063761 21.2377091 50.069842L21.1671493 50.0103513 21.1579777 50.0022981Z" mask="url(#b)" opacity=".251"/><g fill="#000" fill-opacity=".2" fill-rule="nonzero" mask="url(#b)"><g transform="translate(7.565 4.805)"><path d="M30.4841488,0.0719784231 L30.775386,0 L30.8846831,0.459108697 L30.9920046,0.943970623 C31.009727,1.02692716 31.027367,1.11095685 31.0449248,1.19605971 L31.1492842,1.71955547 L31.2516698,2.26880979 C31.2685696,2.36249884 31.2853872,2.45726125 31.3021226,2.55309707 L31.4015486,3.1409932 L31.4990025,3.75465321 L31.5944849,4.39407922 L31.6879965,5.05927336 L31.7795379,5.75023777 L31.9131577,6.83500827 L31.9997768,7.59040765 L32.0844282,8.37158474 L32.1671126,9.17854167 L32.2874525,10.4373189 L32.3652222,11.3087348 L32.4781933,12.6642104 L32.5510527,13.6000985 L32.6566614,15.0522924 L32.7906067,17.0788376 L32.8546382,18.1308092 L32.5551627,18.1485413 L32.4925849,17.1198586 L32.3952062,15.6232215 L32.2588155,13.7143048 L32.151611,12.3475756 L32.0401991,11.0365325 L31.9245818,9.78118215 L31.8451685,8.97522572 L31.7225472,7.81271175 L31.6384666,7.06865248 L31.5088473,5.99899365 L31.4201033,5.31684406 L31.3294951,4.65946183 L31.2370234,4.02684899 L31.1426887,3.41900751 L31.0464917,2.83593942 L30.9484331,2.2776467 L30.8485135,1.74413136 L30.7467335,1.2353954 L30.6430938,0.751440821 L30.5375951,0.292269626 L30.4841488,0.0719784231 Z" transform="matrix(-1 0 0 1 63.339 0)"/><path d="M0.2912372,0 L0.346132747,0.226335328 L0.454441985,0.698320373 L0.560775986,1.19605971 L0.665135431,1.71955547 L0.767521003,2.26880979 L0.867933384,2.84382478 L0.966373258,3.44460258 L1.11033611,4.39407922 L1.24986465,5.40153415 L1.34042132,6.10538448 L1.42900889,6.83500827 L1.55819968,7.97777385 L1.68296385,9.17854167 L1.76368186,10.0112806 L1.84243419,10.8698036 L1.95687852,12.2059379 L2.0669039,13.6000985 L2.13780032,14.5617792 L2.24046591,16.052666 L2.33871869,17.6015983 L2.37048939,18.1308092 L2.07101389,18.1485413 L1.97644473,16.6147944 L1.87766163,15.1367133 L1.77466675,13.7143048 L1.66746225,12.3475756 L1.5560503,11.0365325 L1.44043307,9.78118215 L1.36101971,8.97522572 L1.27973894,8.19402665 L1.1965914,7.43758695 L1.06837129,6.34935559 L0.980559634,5.65482306 L0.890883448,4.9850569 L0.799343379,4.34005911 L0.705940068,3.7198317 L0.610674156,3.12437667 L0.513546285,2.55369601 L0.414557097,2.00779173 L0.313707232,1.48666583 L0.210997334,0.990320312 L0.106428043,0.518757175 C0.0888449136,0.442228629 0.0711843367,0.366732765 0.0534463251,0.292269626 L0,0.0719784231 L0.2912372,0 Z"/></g></g><g mask="url(#b)"><g transform="translate(16.247 -4.476)"><path fill="#06162B" d="M1.00267777,5.97572384 L14.5026778,5.97572384 C13.5275801,8.69899044 11.2775801,10.0606237 7.75267777,10.0606237 C4.22777543,10.0606237 1.97777543,8.69899044 1.00267777,5.97572384 Z"/><path fill="#091F3E" d="M0.0498884653,4.35674159 L15.4554671,4.35674159 L15.4554671,5.85674159 C12.8878706,6.57693223 10.3202742,6.93702755 7.75267777,6.93702755 C5.18508134,6.93702755 2.6174849,6.57693223 0.0498884653,5.85674159 L0.0498884653,4.35674159 Z"/><path fill="#FFF" fill-rule="nonzero" d="M7.75267777,0.075 C11.9929421,0.075 15.4303555,2.42550506 15.4303555,5.325 C15.4303555,8.22449494 11.9929421,10.575 7.75267777,10.575 C3.51241342,10.575 0.075,8.22449494 0.075,5.325 C0.075,2.42550506 3.51241342,0.075 7.75267777,0.075 Z M7.75267777,1.575 C4.2464386,1.575 1.575,3.40173109 1.575,5.325 C1.575,7.24826891 4.2464386,9.075 7.75267777,9.075 C11.2589169,9.075 13.9303555,7.24826891 13.9303555,5.325 C13.9303555,3.40173109 11.2589169,1.575 7.75267777,1.575 Z"/><path fill="#FFF" fill-rule="nonzero" d="M7.75267777,0 L8.02221723,0.00317482349 C12.1376589,0.100270016 15.4303555,2.41219645 15.4303555,5.25 C15.4303555,7.23989286 13.811357,8.9712152 11.4257427,9.86222257 L11.8901987,9.24773209 C12.3269135,8.66829782 12.6825937,8.17010016 12.9769392,7.53775119 C13.3693999,6.69461923 13.5088341,6.13814399 13.5088341,5.59043219 C13.5088341,3.54777226 11.1489603,1.60494478 8.00895147,1.50410528 L7.75267777,1.5 C4.48567977,1.5 1.99652141,3.49256523 1.99652141,5.59043219 C1.99652141,6.13814399 2.13595565,6.69461923 2.52841635,7.53775119 C2.77370429,8.06470867 3.06158574,8.49850551 3.40346114,8.96378751 L4.07961281,9.86222257 C1.6939985,8.9712152 0.075,7.23989286 0.075,5.25 C0.075,2.35050506 3.51241342,0 7.75267777,0 Z"/><path fill="#091F3E" fill-rule="nonzero" d="M7.75267777,0 C3.47571217,0 0,2.37669376 0,5.325 C0,8.27330624 3.47571217,10.65 7.75267777,10.65 C12.0296434,10.65 15.5053555,8.27330624 15.5053555,5.325 C15.5053555,2.37669376 12.0296434,0 7.75267777,0 Z M7.75267777,0.15 C11.9562409,0.15 15.3553555,2.47431636 15.3553555,5.325 C15.3553555,8.17568364 11.9562409,10.5 7.75267777,10.5 C3.54911468,10.5 0.15,8.17568364 0.15,5.325 C0.15,2.47431636 3.54911468,0.15 7.75267777,0.15 Z"/></g></g><g mask="url(#b)"><g transform="translate(-.917 5.143)"><g transform="translate(.159)"><use xlink:href="#c" fill="#0D2B55"/><use xlink:href="#d" fill="#0D2B55" transform="matrix(-1 0 0 1 10.473 0)"/></g><path fill="#FFF" d="M40.0072613,18.9190198 C41.7930968,18.6752987 43.4086859,18.1852187 44.8540286,17.4487799 C46.2993712,16.712341 47.5744675,15.7295432 48.6793173,14.5003866 L49.8332314,16.9948773 L41.1611754,21.4135105 L40.0072613,18.9190198 Z M9.82597014,18.9190198 C8.04013459,18.6752987 6.42454549,18.1852187 4.97920282,17.4487799 C3.53386016,16.712341 2.25876393,15.7295432 1.15391413,14.5003866 L0,16.9948773 L8.672056,21.4135105 L9.82597014,18.9190198 Z"/></g></g></g><path fill="#FFF" fill-rule="nonzero" d="M3.14831436 0C3.17497976.076440791 3.20520053.152881582 3.22475516.231100066 3.2389767.286208543 3.2638644.307540857 3.32252826.303985471 3.40785752.298652393 3.49318677.302207778 3.59095988.302207778 3.52162986.380426262 3.4363006.421313197 3.3634152.478199367 3.32963903.504864759 3.32075057.527974766 3.33497211.567084008 3.3634152.65063557 3.39008059.734187132 3.40430213.830182544 3.3367498.782184838 3.26741978.737742518 3.20342284.686189426 3.15898052.65063557 3.12342667.652413263 3.07898435.687967119 3.01320971.741297903 2.942102.787517916 2.85499505.851514858 2.88877121.746630982 2.91188122.661301727 2.942102.577750164 2.95810123.531530151 2.94743508.503087066 2.90832583.474643981 2.83721812.424868582 2.76077733.380426262 2.68789193.303985471 2.78388734.303985471 2.86210582.2968747 2.94032431.305763164 3.0167651.314651628 3.04520818.279097772 3.06120742.213323138 3.07898435.142215425 3.10387204.0728854054 3.12520436.00177769281 3.13409282.00177769281 3.14120359.00177769281 3.14831436 0ZM3.1394259 1.36816542C4.87328295 1.36816542 6.2788518 2.77373427 6.2788518 4.50759132 6.2788518 6.24144837 4.87328295 7.64701722 3.1394259 7.64701722 1.40556885 7.64701722 0 6.24144837 0 4.50759132 0 2.77373427 1.40556885 1.36816542 3.1394259 1.36816542ZM3.1394259 2.36816542C1.9578536 2.36816542 1 3.32601902 1 4.50759132 1 5.68916362 1.9578536 6.64701722 3.1394259 6.64701722 4.3209982 6.64701722 5.2788518 5.68916362 5.2788518 4.50759132 5.2788518 3.32601902 4.3209982 2.36816542 3.1394259 2.36816542Z" transform="translate(28.17 11.376)"/></g></svg>