<svg xmlns="http://www.w3.org/2000/svg" xmlns:xlink="http://www.w3.org/1999/xlink" width="48" height="52" viewBox="0 0 48 52"><defs><linearGradient id="c" x1="50%" x2="50%" y1="0%" y2="100%"><stop offset="0%" stop-color="#85BCD0" stop-opacity=".245"/><stop offset="100%" stop-color="#EEE" stop-opacity="0"/></linearGradient><linearGradient id="d" x1="50%" x2="50%" y1="0%" y2="100%"><stop offset="0%" stop-color="#85BCD0" stop-opacity=".245"/><stop offset="100%" stop-color="#EEE" stop-opacity="0"/></linearGradient><linearGradient id="e" x1="50%" x2="50%" y1="0%" y2="100%"><stop offset="0%" stop-color="#85BCD0" stop-opacity=".245"/><stop offset="100%" stop-color="#EEE" stop-opacity="0"/></linearGradient><path id="a" d="M10.2202858,49.9349257 C10.2990374,41.6089564 10.3384132,36.1692068 10.3384132,33.6156766 C10.3384132,31.0621465 10.176828,26.9540037 9.85365765,21.2912482 L8.2241567,25.1160522 C7.01125281,25.3258129 5.41848163,24.9509062 3.44584315,23.9913321 C1.52651922,23.0576924 0.387279465,22.0785814 0.0281238815,21.053999 L0,20.9685118 L4.72526396,9.16007698 C5.53354862,7.00608415 6.66054046,5.6140616 8.10623945,4.98400935 L16.3835008,1.36290579 L17.7009394,0 C20.0542672,0.521537936 22.154146,0.782865363 24.0005758,0.783982281 C25.8380118,0.785093757 27.9375067,0.523766331 30.2990606,0 L31.6139292,1.36290579 L39.7758433,4.9345938 C41.2783083,5.53937373 42.4446058,6.94786812 43.274736,9.16007698 L48,20.9685118 C47.6754097,22.0241513 46.5267953,23.031758 44.5541569,23.9913321 C42.5815184,24.9509062 40.9887472,25.3258129 39.7758433,25.1160522 L38.1463424,21.2912482 C37.823172,26.7575783 37.6615868,30.8657211 37.6615868,33.6156766 C37.6615868,36.3656321 37.7013266,41.8053818 37.7808063,49.9349257 C37.2455989,50.399355 30.6230725,51 24.000546,51 C17.3780196,51 10.7554932,50.399355 10.2202858,49.9349257 Z"/><path id="f" d="M7.77778931,0.0732238393 C12.0180537,0.0732238393 15.4554671,2.4237289 15.4554671,5.32322384 C15.4554671,8.22271878 12.0180537,10.5732238 7.77778931,10.5732238 C3.53752496,10.5732238 0.100111535,8.22271878 0.100111535,5.32322384 C0.100111535,2.4237289 3.53752496,0.0732238393 7.77778931,0.0732238393 Z M7.77778931,1.57322384 C4.27155013,1.57322384 1.60011153,3.39995492 1.60011153,5.32322384 C1.60011153,7.24649275 4.27155013,9.07322384 7.77778931,9.07322384 C11.2840285,9.07322384 13.9554671,7.24649275 13.9554671,5.32322384 C13.9554671,3.39995492 11.2840285,1.57322384 7.77778931,1.57322384 Z"/></defs><g fill="none" fill-rule="evenodd"><g transform="translate(0 .5)"><mask id="b" fill="#fff"><use xlink:href="#a"/></mask><use xlink:href="#a" fill="#FFF"/><g mask="url(#b)" opacity=".722"><g transform="translate(-5.731 -8.37)"><rect width="40" height="8.658" x="16.813" y="53.782" fill="url(#c)" transform="scale(-1 1) rotate(35 0 -58.646)"/><rect width="40" height="8.658" x="13.261" y="53.485" fill="url(#c)" transform="scale(-1 1) rotate(25 0 -92.219)"/><rect width="37.04" height="8.658" x="10.856" y="38.831" fill="url(#d)" transform="scale(-1 1) rotate(25 0 -89.345)"/><rect width="41.632" height="8.658" x="10.641" y="22.811" fill="url(#e)" transform="scale(-1 1) rotate(25 0 -114.752)"/><rect width="41.632" height="8.658" x=".641" y="15.811" fill="url(#e)" transform="scale(-1 1) rotate(25 0 -76.645)"/><rect width="40" height="8.658" x="10.097" y="42.159" fill="url(#c)" transform="scale(-1 1) rotate(35 0 -48.967)"/><rect width="40" height="8.658" x="11.208" y="21.911" fill="url(#c)" transform="scale(-1 1) rotate(35 0 -72.74)"/><rect width="40" height="8.658" x="-1.134" y="10.689" fill="url(#c)" transform="scale(-1 1) rotate(35 0 -44.818)"/><rect width="40" height="8.658" x="1.978" y="13.307" fill="url(#c)" transform="scale(-1 1) rotate(35 0 -52.07)"/></g></g><path fill="#0F9FD3" d="M39.1893577,21.7269674 C40.8911959,22.3205627 42.5531879,22.6173603 44.1753339,22.6173603 C45.7974799,22.6173603 47.3797798,22.3205627 48.9222337,21.7269674 L48.8179036,24.4734409 L39.0850276,24.4734409 L39.1893577,21.7269674 Z" mask="url(#b)" transform="rotate(-27 44.004 23.1)"/><path fill="#0F9FD3" d="M-0.81790359,21.7269674 C0.883934588,22.3205627 2.54592667,22.6173603 4.16807267,22.6173603 C5.79021867,22.6173603 7.37251858,22.3205627 8.91497239,21.7269674 L8.81064232,24.4734409 L-0.922233663,24.4734409 L-0.81790359,21.7269674 Z" mask="url(#b)" transform="scale(-1 1) rotate(-27 0 39.746)"/><path fill="#FFF" d="M39.1893577,22.4652537 C40.8911959,23.058849 42.5531879,23.3556467 44.1753339,23.3556467 C45.7974799,23.3556467 47.3797798,23.058849 48.9222337,22.4652537 L48.8179036,25.2117273 L39.0850276,25.2117273 L39.1893577,22.4652537 Z" mask="url(#b)" transform="rotate(-27 44.004 23.838)"/><path fill="#FFF" d="M-0.81790359,22.4652537 C0.883934588,23.058849 2.54592667,23.3556467 4.16807267,23.3556467 C5.79021867,23.3556467 7.37251858,23.058849 8.91497239,22.4652537 L8.81064232,25.2117273 L-0.922233663,25.2117273 L-0.81790359,22.4652537 Z" mask="url(#b)" transform="scale(-1 1) rotate(-27 0 40.485)"/><path fill="#0F9FD3" d="M39.4266561,22.7364035 C41.1284943,23.3299988 42.7904864,23.6267964 44.4126324,23.6267964 C46.0347784,23.6267964 47.6170783,23.3299988 49.1595321,22.7364035 L49.055202,25.4828771 L39.322326,25.4828771 L39.4266561,22.7364035 Z" mask="url(#b)" transform="rotate(-27 44.24 24.11)"/><path fill="#0F9FD3" d="M-1.05520202,22.7364035 C0.646636155,23.3299988 2.30862824,23.6267964 3.93077424,23.6267964 C5.55292024,23.6267964 7.13522014,23.3299988 8.67767396,22.7364035 L8.57334389,25.4828771 L-1.1595321,25.4828771 L-1.05520202,22.7364035 Z" mask="url(#b)" transform="scale(-1 1) rotate(-27 0 39.767)"/><g mask="url(#b)"><g transform="translate(16.247 -4.476)"><path fill="#0E82AC" fill-rule="nonzero" d="M15.4554671,2.10496543 L15.4554671,5.85496543 C12.8878706,6.57515607 10.3202742,6.93525139 7.75267777,6.93525139 C5.18508134,6.93525139 2.6174849,6.57515607 0.0498884653,5.85496543 L0.0498884653,2.10496543 L15.4554671,2.10496543 Z M13.7298885,3.82922384 L1.77488847,3.82922384 L1.77488847,4.51547384 L2.06894785,4.5831502 C3.79381898,4.96347644 5.51585257,5.17056587 7.23651779,5.2050753 L7.75267777,5.21025139 C9.64512463,5.21025139 11.5390494,5.00150906 13.4364077,4.5831502 L13.7298885,4.51547384 L13.7298885,3.82922384 Z"/><path fill="#D1D1D1" fill-rule="nonzero" d="M0.0498884653,4.7579132 C2.6174849,5.47810384 5.18508134,5.83819916 7.75267777,5.83819916 C10.3202742,5.83819916 12.8878706,5.47810384 15.4554671,4.7579132 L15.4554671,5.28561693 C12.8878706,6.00580757 10.3202742,6.36590289 7.75267777,6.36590289 C5.18508134,6.36590289 2.6174849,6.00580757 0.0498884653,5.28561693 Z M13.7298885,2.73217161 L13.7298885,3.25987534 L1.77488847,3.25987534 L1.77488847,2.73217161 L13.7298885,2.73217161 Z"/><path fill="#CCC" d="M0.661217157,5.83819916 C2.96946425,6.59589319 5.32830641,6.96157727 7.73774364,6.93525139 C10.1471809,6.90892551 12.5327201,6.54324143 14.8943615,5.83819916 C13.6581413,8.65196631 11.2775801,10.0588499 7.75267777,10.0588499 C4.22777543,10.0588499 1.86395522,8.65196631 0.661217157,5.83819916 Z"/><mask id="g" fill="#fff"><use xlink:href="#f"/></mask><use xlink:href="#f" fill="#0F9FD3" fill-rule="nonzero"/><path fill="#FFF" fill-rule="nonzero" d="M7.77778931,0.597010608 C11.7360488,0.597010608 14.8943615,2.75666642 14.8943615,5.32322384 C14.8943615,7.88978126 11.7360488,10.0494371 7.77778931,10.0494371 C3.8195298,10.0494371 0.661217157,7.88978126 0.661217157,5.32322384 C0.661217157,2.75666642 3.8195298,0.597010608 7.77778931,0.597010608 Z M7.77778931,1.0400931 C4.03635227,1.0400931 1.10429965,3.04503219 1.10429965,5.32322384 C1.10429965,7.60141549 4.03635227,9.60635458 7.77778931,9.60635458 C11.5192263,9.60635458 14.451279,7.60141549 14.451279,5.32322384 C14.451279,3.04503219 11.5192263,1.0400931 7.77778931,1.0400931 Z" mask="url(#g)"/><path fill="#EAEAEA" fill-rule="nonzero" d="M7.75267777,0 C3.47571217,0 0,2.37669376 0,5.325 C0,8.27330624 3.47571217,10.65 7.75267777,10.65 C12.0296434,10.65 15.5053555,8.27330624 15.5053555,5.325 C15.5053555,2.37669376 12.0296434,0 7.75267777,0 Z M7.75267777,0.15 C11.9562409,0.15 15.3553555,2.47431636 15.3553555,5.325 C15.3553555,8.17568364 11.9562409,10.5 7.75267777,10.5 C3.54911468,10.5 0.15,8.17568364 0.15,5.325 C0.15,2.47431636 3.54911468,0.15 7.75267777,0.15 Z"/></g></g><g fill="#000" fill-opacity=".2" fill-rule="nonzero" mask="url(#b)"><g transform="translate(7.575 4.805)"><path d="M30.4841488,0.0719784231 L30.775386,0 L30.8846831,0.459108697 L30.9920046,0.943970623 C31.009727,1.02692716 31.027367,1.11095685 31.0449248,1.19605971 L31.1492842,1.71955547 L31.2516698,2.26880979 C31.2685696,2.36249884 31.2853872,2.45726125 31.3021226,2.55309707 L31.4015486,3.1409932 L31.4990025,3.75465321 L31.5944849,4.39407922 L31.6879965,5.05927336 L31.7795379,5.75023777 L31.9131577,6.83500827 L31.9997768,7.59040765 L32.0844282,8.37158474 L32.1671126,9.17854167 L32.2874525,10.4373189 L32.3652222,11.3087348 L32.4781933,12.6642104 L32.5510527,13.6000985 L32.6566614,15.0522924 L32.7906067,17.0788376 L32.8546382,18.1308092 L32.5551627,18.1485413 L32.4925849,17.1198586 L32.3952062,15.6232215 L32.2588155,13.7143048 L32.151611,12.3475756 L32.0401991,11.0365325 L31.9245818,9.78118215 L31.8451685,8.97522572 L31.7225472,7.81271175 L31.6384666,7.06865248 L31.5088473,5.99899365 L31.4201033,5.31684406 L31.3294951,4.65946183 L31.2370234,4.02684899 L31.1426887,3.41900751 L31.0464917,2.83593942 L30.9484331,2.2776467 L30.8485135,1.74413136 L30.7467335,1.2353954 L30.6430938,0.751440821 L30.5375951,0.292269626 L30.4841488,0.0719784231 Z" transform="matrix(-1 0 0 1 63.339 0)"/><path d="M0.2912372,0 L0.346132747,0.226335328 L0.454441985,0.698320373 L0.560775986,1.19605971 L0.665135431,1.71955547 L0.767521003,2.26880979 L0.867933384,2.84382478 L0.966373258,3.44460258 L1.11033611,4.39407922 L1.24986465,5.40153415 L1.34042132,6.10538448 L1.42900889,6.83500827 L1.55819968,7.97777385 L1.68296385,9.17854167 L1.76368186,10.0112806 L1.84243419,10.8698036 L1.95687852,12.2059379 L2.0669039,13.6000985 L2.13780032,14.5617792 L2.24046591,16.052666 L2.33871869,17.6015983 L2.37048939,18.1308092 L2.07101389,18.1485413 L1.97644473,16.6147944 L1.87766163,15.1367133 L1.77466675,13.7143048 L1.66746225,12.3475756 L1.5560503,11.0365325 L1.44043307,9.78118215 L1.36101971,8.97522572 L1.27973894,8.19402665 L1.1965914,7.43758695 L1.06837129,6.34935559 L0.980559634,5.65482306 L0.890883448,4.9850569 L0.799343379,4.34005911 L0.705940068,3.7198317 L0.610674156,3.12437667 L0.513546285,2.55369601 L0.414557097,2.00779173 L0.313707232,1.48666583 L0.210997334,0.990320312 L0.106428043,0.518757175 C0.0888449136,0.442228629 0.0711843367,0.366732765 0.0534463251,0.292269626 L0,0.0719784231 L0.2912372,0 Z"/></g></g></g><g fill-rule="nonzero" transform="translate(28.336 10.065)"><path fill="#AC8A5B" d="M3.14831436,0 C3.17497976,0.076440791 3.20520053,0.152881582 3.22475516,0.231100066 C3.2389767,0.286208543 3.2638644,0.307540857 3.32252826,0.303985471 C3.40785752,0.298652393 3.49318677,0.302207778 3.59095988,0.302207778 C3.52162986,0.380426262 3.4363006,0.421313197 3.3634152,0.478199367 C3.32963903,0.504864759 3.32075057,0.527974766 3.33497211,0.567084008 C3.3634152,0.65063557 3.39008059,0.734187132 3.40430213,0.830182544 C3.3367498,0.782184838 3.26741978,0.737742518 3.20342284,0.686189426 C3.15898052,0.65063557 3.12342667,0.652413263 3.07898435,0.687967119 C3.01320971,0.741297903 2.942102,0.787517916 2.85499505,0.851514858 C2.88877121,0.746630982 2.91188122,0.661301727 2.942102,0.577750164 C2.95810123,0.531530151 2.94743508,0.503087066 2.90832583,0.474643981 C2.83721812,0.424868582 2.76077733,0.380426262 2.68789193,0.303985471 C2.78388734,0.303985471 2.86210582,0.2968747 2.94032431,0.305763164 C3.0167651,0.314651628 3.04520818,0.279097772 3.06120742,0.213323138 C3.07898435,0.142215425 3.10387204,0.0728854054 3.12520436,0.00177769281 C3.13409282,0.00177769281 3.14120359,0.00177769281 3.14831436,0 Z"/><path fill="#0F9FD3" d="M3.1394259,1.36816542 C4.87328295,1.36816542 6.2788518,2.77373427 6.2788518,4.50759132 C6.2788518,6.24144837 4.87328295,7.64701722 3.1394259,7.64701722 C1.40556885,7.64701722 0,6.24144837 0,4.50759132 C0,2.77373427 1.40556885,1.36816542 3.1394259,1.36816542 Z M3.1394259,2.36816542 C1.9578536,2.36816542 1,3.32601902 1,4.50759132 C1,5.68916362 1.9578536,6.64701722 3.1394259,6.64701722 C4.3209982,6.64701722 5.2788518,5.68916362 5.2788518,4.50759132 C5.2788518,3.32601902 4.3209982,2.36816542 3.1394259,2.36816542 Z"/></g></g></svg>