<?xml version="1.0" encoding="UTF-8"?>
<svg width="48px" height="52px" viewBox="0 0 48 52" version="1.1" xmlns="http://www.w3.org/2000/svg" xmlns:xlink="http://www.w3.org/1999/xlink">
    <title>Portugal_Home</title>
    <defs>
        <path d="M30.2990606,0 L31.6139292,1.36290579 L39.7758433,4.9345938 C41.2783083,5.53937373 42.4446058,6.94786812 43.274736,9.16007698 L48,20.9685118 C47.6754097,22.0241513 46.5267953,23.031758 44.5541569,23.9913321 C42.5815184,24.9509062 40.9887472,25.3258129 39.7758433,25.1160522 L38.1463424,21.2912482 C37.823172,26.7575783 37.6615868,30.8657211 37.6615868,33.6156766 L37.6618447,34.0168481 C37.6653695,36.8774743 37.7050234,42.1835002 37.7808063,49.9349257 C37.2455989,50.399355 30.6230725,51 24.000546,51 C17.3780196,51 10.7554932,50.399355 10.2202858,49.9349257 C10.2955373,41.9789995 10.3348353,36.6584412 10.3381798,33.9732508 L10.3384132,33.6156766 C10.3384132,31.0621465 10.176828,26.9540037 9.85365765,21.2912482 L8.2241567,25.1160522 C7.01125281,25.3258129 5.41848163,24.9509062 3.44584315,23.9913321 C1.52651922,23.0576924 0.387279465,22.0785814 0.0281238815,21.053999 L0,20.9685118 L4.72526396,9.16007698 C5.53354862,7.00608415 6.66054046,5.6140616 8.10623945,4.98400935 L16.3835008,1.36290579 L17.7009394,0 L17.919,0.047 L18.7850442,1.02358559 L19.3867425,1.12612463 C20.7062704,1.33557757 22.0242629,1.45512286 23.3414873,1.48500411 L24.0000391,1.49247386 C25.536527,1.49247386 27.0738865,1.37048639 28.6133357,1.12612463 L29.2139558,1.02358559 L30.0768041,0.0486865234 C30.1506299,0.0327177812 30.2247154,0.01648894 30.2990606,0 Z" id="path-1"></path>
        <path d="M7.67767777,0 C11.9179421,0 15.3553555,2.35050506 15.3553555,5.25 C15.3553555,8.14949494 11.9179421,10.5 7.67767777,10.5 C3.43741342,10.5 0,8.14949494 0,5.25 C0,2.35050506 3.43741342,0 7.67767777,0 Z M7.67767777,1.5 C4.1714386,1.5 1.5,3.32673109 1.5,5.25 C1.5,7.17326891 4.1714386,9 7.67767777,9 C11.1839169,9 13.8553555,7.17326891 13.8553555,5.25 C13.8553555,3.32673109 11.1839169,1.5 7.67767777,1.5 Z" id="path-3"></path>
        <path d="M14.2315088,10.65 C22.0913541,10.65 28.4630177,15.4899316 28.4630177,21.4602898 L28.4630177,55.7854036 L0,55.7854036 L0,21.4602898 C0,15.4899316 6.37166354,10.65 14.2315088,10.65 Z" id="path-5"></path>
    </defs>
    <g id="Portugal_Home" stroke="none" stroke-width="1" fill="none" fill-rule="evenodd">
        <g id="TeamKit-/-XXX" transform="translate(0.000000, 0.500000)">
            <mask id="mask-2" fill="white">
                <use xlink:href="#path-1"></use>
            </mask>
            <use id="Shirt-Mask-2" fill="#B22234" xlink:href="#path-1"></use>
            <g id="Pattern" mask="url(#mask-2)">
                <g transform="translate(41.389535, 14.709916) rotate(-15.000000) translate(-41.389535, -14.709916) translate(24.962216, -4.939661)"></g>
            </g>
            <g id="Pattern" mask="url(#mask-2)">
                <g transform="translate(9.769999, -4.475724)">
                    <g id="Neck" stroke="none" stroke-width="1" fill="none" fill-rule="evenodd" transform="translate(4.350459, 0.075000)">
                        <path d="M3.12954257,5.90072384 L16.6295426,5.90072384 C15.6544449,8.62399044 13.4044449,9.98562374 9.87954257,9.98562374 C6.35464022,9.98562374 4.10464022,8.62399044 3.12954257,5.90072384 Z" id="Neck-Inside" fill="#801624"></path>
                        <path d="M19.7590851,2.02285475 L15.8124716,6.82649022 C13.8348286,7.26147056 11.8571856,7.47896074 9.87954257,7.47896074 C7.90189955,7.47896074 5.92425654,7.26147056 3.94661353,6.82649022 L0,2.02285475 L19.7590851,2.02285475 Z M15.9689534,4.43630943 L3.78913175,4.43630943 L4.66458676,5.42430943 L5.26628502,5.52684847 C6.58581294,5.73630141 7.9038055,5.8558467 9.2210299,5.88572795 L9.87958164,5.8931977 C11.4160696,5.8931977 12.953429,5.77121023 14.4928783,5.52684847 L15.0934984,5.42430943 L15.9689534,4.43630943 Z" id="Rectangle" fill="#8E1A28" fill-rule="nonzero"></path>
                        <g id="Neck-Front" transform="translate(2.201865, 0.000000)">
                            <mask id="mask-4" fill="white">
                                <use xlink:href="#path-3"></use>
                            </mask>
                            <use fill="#A71F30" fill-rule="nonzero" xlink:href="#path-3"></use>
                        </g>
                    </g>
                    <mask id="mask-6" fill="white">
                        <use xlink:href="#path-5"></use>
                    </mask>
                    <use id="Path" stroke="none" fill="#B22234" fill-rule="nonzero" xlink:href="#path-5"></use>
                    <path d="M14.2300014,0 C9.95303577,0 6.4773236,2.37669376 6.4773236,5.325 C6.4773236,8.27330624 9.95303577,10.65 14.2300014,10.65 C18.506967,10.65 21.9826791,8.27330624 21.9826791,5.325 C21.9826791,2.37669376 18.506967,0 14.2300014,0 Z M14.2300014,0.15 C18.4335645,0.15 21.8326791,2.47431636 21.8326791,5.325 C21.8326791,8.17568364 18.4335645,10.5 14.2300014,10.5 C10.0264383,10.5 6.6273236,8.17568364 6.6273236,5.325 C6.6273236,2.47431636 10.0264383,0.15 14.2300014,0.15 Z" id="Neck-Bottom-Seam" stroke="none" fill-opacity="0.1" fill="#000000" fill-rule="nonzero"></path>
                </g>
            </g>
            <g id="Pattern" mask="url(#mask-2)" fill="#1B5740">
                <g transform="translate(-17.603902, 15.827138)" id="Rectangle">
                    <rect transform="translate(29.045044, 27.604938) rotate(-320.000000) translate(-29.045044, -27.604938) " x="3.09785291" y="13.3415291" width="51.8943818" height="28.5268175"></rect>
                </g>
            </g>
            <g id="Arm-Seams" mask="url(#mask-2)" fill="#000000" fill-opacity="0.2" fill-rule="nonzero">
                <g transform="translate(7.564771, 4.804976)">
                    <path d="M30.4841488,0.0719784231 L30.775386,0 L30.8846831,0.459108697 L30.9920046,0.943970623 C31.009727,1.02692716 31.027367,1.11095685 31.0449248,1.19605971 L31.1492842,1.71955547 L31.2516698,2.26880979 C31.2685696,2.36249884 31.2853872,2.45726125 31.3021226,2.55309707 L31.4015486,3.1409932 L31.4990025,3.75465321 L31.5944849,4.39407922 L31.6879965,5.05927336 L31.7795379,5.75023777 L31.9131577,6.83500827 L31.9997768,7.59040765 L32.0844282,8.37158474 L32.1671126,9.17854167 L32.2874525,10.4373189 L32.3652222,11.3087348 L32.4781933,12.6642104 L32.5510527,13.6000985 L32.6566614,15.0522924 L32.7906067,17.0788376 L32.8546382,18.1308092 L32.5551627,18.1485413 L32.4925849,17.1198586 L32.3952062,15.6232215 L32.2588155,13.7143048 L32.151611,12.3475756 L32.0401991,11.0365325 L31.9245818,9.78118215 L31.8451685,8.97522572 L31.7225472,7.81271175 L31.6384666,7.06865248 L31.5088473,5.99899365 L31.4201033,5.31684406 L31.3294951,4.65946183 L31.2370234,4.02684899 L31.1426887,3.41900751 L31.0464917,2.83593942 L30.9484331,2.2776467 L30.8485135,1.74413136 L30.7467335,1.2353954 L30.6430938,0.751440821 L30.5375951,0.292269626 L30.4841488,0.0719784231 Z" id="Right" transform="translate(31.669393, 9.074271) scale(-1, 1) translate(-31.669393, -9.074271) "></path>
                    <path d="M0.2912372,0 L0.346132747,0.226335328 L0.454441985,0.698320373 L0.560775986,1.19605971 L0.665135431,1.71955547 L0.767521003,2.26880979 L0.867933384,2.84382478 L0.966373258,3.44460258 L1.11033611,4.39407922 L1.24986465,5.40153415 L1.34042132,6.10538448 L1.42900889,6.83500827 L1.55819968,7.97777385 L1.68296385,9.17854167 L1.76368186,10.0112806 L1.84243419,10.8698036 L1.95687852,12.2059379 L2.0669039,13.6000985 L2.13780032,14.5617792 L2.24046591,16.052666 L2.33871869,17.6015983 L2.37048939,18.1308092 L2.07101389,18.1485413 L1.97644473,16.6147944 L1.87766163,15.1367133 L1.77466675,13.7143048 L1.66746225,12.3475756 L1.5560503,11.0365325 L1.44043307,9.78118215 L1.36101971,8.97522572 L1.27973894,8.19402665 L1.1965914,7.43758695 L1.06837129,6.34935559 L0.980559634,5.65482306 L0.890883448,4.9850569 L0.799343379,4.34005911 L0.705940068,3.7198317 L0.610674156,3.12437667 L0.513546285,2.55369601 L0.414557097,2.00779173 L0.313707232,1.48666583 L0.210997334,0.990320312 L0.106428043,0.518757175 C0.0888449136,0.442228629 0.0711843367,0.366732765 0.0534463251,0.292269626 L0,0.0719784231 L0.2912372,0 Z" id="Left"></path>
                </g>
            </g>
            <g id="Cuffs" mask="url(#mask-2)" fill="#000000" opacity="0.1">
                <g transform="translate(-0.916616, 19.643642)" id="Combined-Shape">
                    <path d="M40.0072613,4.41863323 C41.7930968,4.17491214 43.4086859,3.68483216 44.8540286,2.94839329 C46.2993712,2.21195442 47.5744675,1.22915666 48.6793173,-4.61852778e-14 L49.8332314,2.49449074 L41.1611754,6.91312397 L40.0072613,4.41863323 Z M9.82597014,4.41863323 C8.04013459,4.17491214 6.42454549,3.68483216 4.97920282,2.94839329 C3.53386016,2.21195442 2.25876393,1.22915666 1.15391413,6.35935749e-13 L0,2.49449074 L8.672056,6.91312397 L9.82597014,4.41863323 Z"></path>
                </g>
            </g>
        </g>
        <g id="Group-11" transform="translate(28.866133, 9.750000)">
            <g id="Group-10" transform="translate(0.000000, 1.214819)">
                <path d="M5.63353475,1.10609905 L5.63353475,3.13144822 L5.31156517,2.73140009 L0.705606589,2.72980253 L0.384198378,3.13144822 L0.384198378,1.10609905 L0.705606589,1.51303575 L5.31156517,1.51303575 L5.63353475,1.10609905 Z M5.44031685,1.74189016 L0.584201522,1.74189016 L0.584201522,2.53242056 L5.44031685,2.53242056 L5.44031685,1.74189016 Z" id="Combined-Shape" fill="#E52010"></path>
                <path d="M0.288148783,3.40520361 L0.288148783,0.829524801 L0.752090125,1.41672642 L5.26488427,1.41672642 L5.72958435,0.829903171 L5.72958435,3.40398285 L5.26526847,2.82711867 L0.751705927,2.82558187 L0.288148783,3.40520361 Z M5.31156517,1.51303575 L0.705606589,1.51303575 L0.384198378,1.10609905 L0.384198378,3.13144822 L0.705606589,2.72980253 L5.31156517,2.73140009 L5.63353475,3.13144822 L5.63353475,1.10609905 L5.31156517,1.51303575 Z" id="Combined-Shape-Copy-15" fill="#000000" fill-rule="nonzero"></path>
                <path d="M0.0960495945,0.276521923 L0.0960495945,3.95296572 L0.843913537,3.01729686 L5.17306086,3.01883366 L5.92168354,3.94901558 L5.92168354,0.277887708 L5.17190826,1.22462723 L0.845066133,1.22462723 L0.0960495945,0.276521923 Z M0.288148783,0.829524801 L0.752090125,1.41672642 L5.26488427,1.41672642 L5.72958435,0.829903171 L5.72958435,3.40398285 L5.26526847,2.82711867 L0.751705927,2.82558187 L0.288148783,3.40520361 L0.288148783,0.829524801 Z" id="Path" fill="#D4C185" fill-rule="nonzero"></path>
                <path d="M0,0 L0,4.22697398 L0.890401541,3.11296226 L5.12695705,3.11449905 L6.01773313,4.22155388 L6.01773313,0.00189750076 L5.12503606,1.12857764 L0.891554136,1.12857764 L0,0 Z M0.0960495945,0.276521923 L0.845066133,1.22462723 L5.17190826,1.22462723 L5.92168354,0.277887708 L5.92168354,3.94901558 L5.17306086,3.01883366 L0.843913537,3.01729686 L0.0960495945,3.95296572 L0.0960495945,0.276521923 Z" id="Path" fill="#000000" fill-rule="nonzero"></path>
                <path d="M5.44031685,1.74189016 L5.44031685,2.53242056 L0.584201522,2.53242056 L0.584201522,1.74189016 L5.44031685,1.74189016 Z M5.34402914,1.83780784 L0.680245029,1.83780784 L0.680245029,2.43600472 L5.34402914,2.43600472 L5.34402914,1.83780784 Z" id="Rectangle-Copy-33" fill="#000000" fill-rule="nonzero"></path>
                <path d="M5.34402914,1.83780784 L5.34402914,2.43600472 L0.680245029,2.43600472 L0.680245029,1.83780784 L5.34402914,1.83780784 Z M5.15192995,2.02990703 L0.872344217,2.02990703 L0.872344217,2.24390553 L5.15192995,2.24390553 L5.15192995,2.02990703 Z" id="Path" fill="#D4C185" fill-rule="nonzero"></path>
                <path d="M5.15192995,2.02990703 L5.15192995,2.24390553 L0.872344217,2.24390553 L0.872344217,2.02990703 L5.15192995,2.02990703 Z M5.05588035,2.12595663 L0.968009613,2.12595663 L0.968009613,2.14785594 L5.05588035,2.14785594 L5.05588035,2.12595663 Z" id="Path" fill="#000000" fill-rule="nonzero"></path>
            </g>
            <g id="Group-9" transform="translate(0.879282, 0.000000)">
                <path d="M3.14325132,0.384198378 L2.74128137,0.710608882 L2.74128137,7.29912684 L3.14325132,7.61580162 L1.11742838,7.61580162 L1.5236794,7.29912684 L1.5236794,0.710608882 L1.11742838,0.384198378 L3.14325132,0.384198378 Z M2.5218042,0.587529678 L1.73887549,0.587529678 L1.73887549,7.41930416 L2.5218042,7.41930416 L2.5218042,0.587529678 Z" id="Combined-Shape" fill="#E52010"></path>
                <path d="M0.844535079,0.288148783 L3.41390488,0.288148783 L2.83728278,0.755888762 L2.83728278,7.25268333 L3.42038124,7.71185122 L0.837977932,7.71185122 L1.42727473,7.25229913 L1.42727473,0.75627296 L0.844535079,0.288148783 Z M3.14325132,0.384198378 L1.11742838,0.384198378 L1.5236794,0.710608882 L1.5236794,7.29912684 L1.11742838,7.61580162 L3.14325132,7.61580162 L2.74128137,7.29912684 L2.74128137,0.710608882 L3.14325132,0.384198378 Z" id="Combined-Shape-Copy-14" fill="#000000" fill-rule="nonzero"></path>
                <path d="M3.95565476,0.0960495945 L0.298667011,0.0960495945 L1.23517554,0.848480571 L1.23517554,7.15817053 L0.27926137,7.90395041 L3.97483188,7.90395041 L3.02938197,7.15932312 L3.02938197,0.846943777 L3.95565476,0.0960495945 Z M3.41390488,0.288148783 L2.83728278,0.755888762 L2.83728278,7.25268333 L3.42038124,7.71185122 L0.837977932,7.71185122 L1.42727473,7.25229913 L1.42727473,0.75627296 L0.844535079,0.288148783 L3.41390488,0.288148783 Z" id="Path" fill="#D4C185" fill-rule="nonzero"></path>
                <path d="M4.22666217,0 L0.0257665007,0 L1.13912595,0.894200178 L1.13912595,7.11091413 L0,8 L4.25202169,8 L3.12543156,7.11283512 L3.12543156,0.892663384 L4.22666217,0 Z M3.95565476,0.0960495945 L3.02938197,0.846943777 L3.02938197,7.15932312 L3.97483188,7.90395041 L0.27926137,7.90395041 L1.23517554,7.15817053 L1.23517554,0.848480571 L0.298667011,0.0960495945 L3.95565476,0.0960495945 Z" id="Path" fill="#000000" fill-rule="nonzero"></path>
                <path d="M2.5218042,0.587529678 L2.5218042,7.41930416 L1.73887549,7.41930416 L1.73887549,0.587529678 L2.5218042,0.587529678 Z M2.42542212,0.683275268 L1.83490921,0.683275268 L1.83490921,7.32299163 L2.42542212,7.32299163 L2.42542212,0.683275268 Z" id="Rectangle" fill="#000000" fill-rule="nonzero"></path>
                <path d="M2.42542212,0.683275268 L2.42542212,7.32299163 L1.83490921,7.32299163 L1.83490921,0.683275268 L2.42542212,0.683275268 Z M2.23293873,0.875374457 L2.0266242,0.875374457 L2.0266242,7.13050825 L2.23293873,7.13050825 L2.23293873,0.875374457 Z" id="Path" fill="#D4C185" fill-rule="nonzero"></path>
                <path d="M2.23293873,0.82734966 L2.0266242,0.82734966 L1.97859941,0.875374457 L1.97859941,7.13050825 L2.0266242,7.17853304 L2.23293873,7.17853304 L2.28096353,7.13050825 L2.28096353,0.875374457 L2.23293873,0.82734966 Z M2.18491393,0.923399254 L2.18491393,7.08248345 L2.074649,7.08248345 L2.074649,0.923399254 L2.18491393,0.923399254 Z" id="Path" fill="#000000" fill-rule="nonzero"></path>
            </g>
            <g id="Group-8" transform="translate(0.637217, 1.303655)" fill-rule="nonzero">
                <path d="M1.36013382,4.81056548 C1.02457309,4.41600907 0.755888527,4.18674953 0.554080147,4.12278685 C0.629323018,3.59361349 0.629323018,3.04973119 0.554080147,2.49113995 C0.478837275,1.93254871 0.294143893,1.40353211 2.13792828e-15,0.90409013 L0.605992503,0.243050151 C0.742192478,0.343321728 0.877665266,0.393457516 1.01241087,0.393457516 C1.40735521,0.393457516 1.87370426,0 2.08542934,0 C2.21089606,0 2.30217259,0.0499348441 2.35925894,0.149804532 L2.37906365,0.189596361 C2.43366981,0.063198787 2.53154791,0 2.67269797,0 C2.88442305,0 3.35077209,0.393457516 3.74571644,0.393457516 C3.88046204,0.393457516 4.01593483,0.343321728 4.1521348,0.243050151 L4.75812731,0.90409013 C4.46398341,1.40353211 4.27929003,1.93254871 4.20404716,2.49113995 C4.12880429,3.04973119 4.12880429,3.59361349 4.20404716,4.12278685 C4.00223878,4.18674953 3.73355422,4.41600907 3.39799348,4.81056548 C2.92395428,5.32868676 2.584311,5.4243127 2.37906365,5.0974433 C2.17381631,5.4243127 1.83417303,5.32868676 1.36013382,4.81056548 Z" id="Path" fill="#E52010"></path>
                <path d="M2.67269797,0 C2.88442305,0 3.35077209,0.393457516 3.74571644,0.393457516 C3.88046204,0.393457516 4.01593483,0.343321728 4.1521348,0.243050151 L4.75812731,0.90409013 C4.46398341,1.40353211 4.27929003,1.93254871 4.20404716,2.49113995 C4.12880429,3.04973119 4.12880429,3.59361349 4.20404716,4.12278685 C4.00223878,4.18674953 3.73355422,4.41600907 3.39799348,4.81056548 C2.92395428,5.32868676 2.584311,5.4243127 2.37906365,5.0974433 C2.17381631,5.4243127 1.83417303,5.32868676 1.36013382,4.81056548 C1.02457309,4.41600907 0.755888527,4.18674953 0.554080147,4.12278685 C0.629323018,3.59361349 0.629323018,3.04973119 0.554080147,2.49113995 C0.478837275,1.93254871 0.294143893,1.40353211 0,0.90409013 L0.605992503,0.243050151 C0.742192478,0.343321728 0.877665266,0.393457516 1.01241087,0.393457516 C1.40735521,0.393457516 1.87370426,0 2.08542934,0 C2.21089606,0 2.30217259,0.0499348441 2.35925894,0.149804532 L2.37906365,0.189596361 C2.43366981,0.063198787 2.53154791,0 2.67269797,0 Z M2.08542934,0.0960495945 L2.05695726,0.0971274782 C2.03237998,0.099942916 2.00428819,0.110109071 1.92896581,0.146808879 L1.66134616,0.282251785 C1.52086294,0.354065931 1.41506975,0.401497455 1.30867617,0.436375879 C1.20292969,0.471042171 1.1050722,0.489507111 1.01241087,0.489507111 C0.900543717,0.489507111 0.789537484,0.460254426 0.679908464,0.402805001 L0.620862213,0.368547104 L0.117562338,0.917566586 L0.161974087,0.995308396 C0.391302769,1.41748106 0.545876353,1.86024765 0.625503657,2.32323882 L0.649270042,2.47831776 C0.717185835,2.98251392 0.724732034,3.47526909 0.671840668,3.95642053 L0.658513654,4.06107771 L0.68251394,4.07190871 C0.871131791,4.16530392 1.09497779,4.36210847 1.35822431,4.66152666 L1.43099883,4.74572971 C1.86876882,5.22420903 2.13838481,5.30011891 2.29772064,5.04636651 L2.37906365,4.9168226 L2.46040667,5.04636651 C2.6197425,5.30011891 2.88935848,5.22420903 3.32482671,4.74833889 C3.62183027,4.39911848 3.86980146,4.17384764 4.07560666,4.07191632 L4.09901013,4.06107771 L4.08628664,3.95642053 C4.04000669,3.53541302 4.03999926,3.1055214 4.0862188,2.66685471 L4.10885726,2.47831776 C4.17882417,1.95889447 4.34134357,1.46438914 4.59615322,0.995308396 L4.63996144,0.917182388 L4.13666157,0.368547104 L4.07821884,0.402805001 C3.99051563,0.448764541 3.90193099,0.476678167 3.81272929,0.486005236 L3.74571644,0.489507111 C3.65305511,0.489507111 3.55519762,0.471042171 3.44945113,0.436375879 C3.36433627,0.40847314 3.27960566,0.372536416 3.1771906,0.322508994 L2.82916149,0.146808879 L2.76645247,0.117588985 C2.71693492,0.0962166845 2.7016647,0.0960495945 2.67269797,0.0960495945 C2.56956492,0.0960495945 2.50652138,0.136756095 2.46723672,0.227688803 L2.38522075,0.417532246 L2.27587099,0.197469778 C2.23636458,0.128355292 2.17731258,0.0960495945 2.08542934,0.0960495945 Z" id="Path-Copy-6" fill="#000000"></path>
                <path d="M2.67269797,0.0960495945 L2.70395213,0.0974762374 C2.71936045,0.0995761002 2.73674194,0.104765605 2.76645247,0.117588985 L2.82916149,0.146808879 L3.1771906,0.322508994 C3.27960566,0.372536416 3.36433627,0.40847314 3.44945113,0.436375879 C3.55519762,0.471042171 3.65305511,0.489507111 3.74571644,0.489507111 L3.81272929,0.486005236 C3.90193099,0.476678167 3.99051563,0.448764541 4.07821884,0.402805001 L4.13666157,0.368547104 L4.63996144,0.917182388 L4.59615322,0.995308396 C4.34134357,1.46438914 4.17882417,1.95889447 4.10885726,2.47831776 L4.0862188,2.66685471 C4.03999926,3.1055214 4.04000669,3.53541302 4.08628664,3.95642053 L4.09901013,4.06107771 L4.07560666,4.07191632 C3.86980146,4.17384764 3.62183027,4.39911848 3.32482671,4.74833889 C2.88935848,5.22420903 2.6197425,5.30011891 2.46040667,5.04636651 L2.37906365,4.9168226 L2.29772064,5.04636651 C2.13838481,5.30011891 1.86876882,5.22420903 1.43099883,4.74572971 L1.35822431,4.66152666 C1.09497779,4.36210847 0.871131791,4.16530392 0.68251394,4.07190871 L0.658513654,4.06107771 L0.671840668,3.95642053 C0.724732034,3.47526909 0.717185835,2.98251392 0.649270042,2.47831776 L0.625503657,2.32323882 C0.545876353,1.86024765 0.391302769,1.41748106 0.161974087,0.995308396 L0.117562338,0.917566586 L0.620862213,0.368547104 L0.679908464,0.402805001 C0.789537484,0.460254426 0.900543717,0.489507111 1.01241087,0.489507111 C1.1050722,0.489507111 1.20292969,0.471042171 1.30867617,0.436375879 C1.39379103,0.40847314 1.47852164,0.372536416 1.58093671,0.322508994 L1.92896581,0.146808879 L1.99016377,0.118243143 C2.02262555,0.104148381 2.04057241,0.0990044368 2.05695726,0.0971274782 L2.08542934,0.0960495945 C2.17731258,0.0960495945 2.23636458,0.128355292 2.27587099,0.197469778 L2.38522075,0.417532246 L2.46723672,0.227688803 C2.50652138,0.136756095 2.56956492,0.0960495945 2.67269797,0.0960495945 Z M2.64975229,0.289708475 L2.39739631,0.873724896 L2.10581684,0.287653259 L2.0788201,0.287978505 C2.08181675,0.287653259 2.06628029,0.293592428 2.0157109,0.318207213 L1.74878383,0.453297837 C1.59372114,0.532564916 1.48170471,0.581811055 1.3685175,0.618916598 C1.24221199,0.660322641 1.12504965,0.6816063 1.01241087,0.6816063 C0.916753441,0.6816063 0.82202708,0.665176714 0.726829822,0.631801001 L0.662739836,0.6063659 L0.352307546,0.945228869 L0.407667977,1.05129225 C0.580359803,1.39780697 0.70599428,1.75788836 0.784584594,2.13263294 L0.815385941,2.2941387 L0.839649832,2.45267339 C0.900884305,2.90726848 0.914486698,3.35333799 0.880084838,3.79276284 L0.864443984,3.95427056 L0.887265135,3.96795107 C1.0502759,4.07270403 1.22844696,4.23298159 1.42780104,4.45131317 L1.50356354,4.53591374 L1.57272883,4.61605819 L1.67312086,4.72263355 C1.95568299,5.01265359 2.07461282,5.04043846 2.1350346,4.94421294 L2.37906365,4.55558121 L2.62309271,4.94421294 C2.69024543,5.0511579 2.82927728,5.00531348 3.17849316,4.62388573 C3.44103505,4.31518577 3.66816575,4.09818215 3.87389635,3.96645647 L3.8930798,3.95465476 L3.87778082,3.79053122 C3.85339618,3.47813255 3.8534007,3.16101175 3.87787097,2.83827565 L3.89548964,2.64395302 L3.91847747,2.45267339 C3.98425982,1.9643156 4.1284147,1.49680731 4.35136323,1.04965244 L4.40521623,0.945613068 L4.09439975,0.607134297 L4.03466724,0.630883767 C3.98957133,0.646658556 3.94342905,0.658888956 3.89567194,0.667544442 L3.82275409,0.677842672 L3.74571644,0.6816063 C3.63307765,0.6816063 3.51591531,0.660322641 3.38960981,0.618916598 C3.29737673,0.588680333 3.20544317,0.550102404 3.09061745,0.493994235 L2.7480266,0.320933052 L2.67836323,0.288003402 L2.65322387,0.287930585 L2.64975229,0.289708475 Z" id="Path" fill="#D4C185"></path>
                <path d="M1.9946924,0.275026153 L1.72709779,0.41044814 C1.57153511,0.489970366 1.46243781,0.537587671 1.35355717,0.573281418 C1.23020098,0.613720601 1.1182661,0.633581503 1.01241087,0.633581503 C0.92203239,0.633581503 0.832674312,0.618018771 0.742718867,0.586480813 L0.680455111,0.56172791 L0.62732816,0.573925272 L0.316895871,0.912788241 L0.309733278,0.967450769 L0.365093709,1.07351415 C0.535709682,1.41588243 0.659905799,1.77210297 0.737582285,2.14249012 L0.76821139,2.30313553 L0.792177823,2.45993903 C0.852909959,2.91086298 0.866301525,3.35350949 0.832206542,3.78901452 L0.816642816,3.94964137 L0.8397516,3.99546119 L0.862572751,4.00914169 C1.01892384,4.10964273 1.19376814,4.26622494 1.39233606,4.48369552 L1.46778761,4.56795222 L1.53637125,4.64743506 L1.63816326,4.75556298 L1.68698104,4.80465835 C1.94070399,5.0542341 2.08911629,5.1076511 2.17570611,4.96975133 L2.37895399,4.64582764 L2.5824212,4.96975133 C2.68393021,5.13141086 2.86762142,5.03455116 3.21391454,4.65631575 C3.47856779,4.3451828 3.70153242,4.13384357 3.8997924,4.00690119 L3.91824407,3.9955588 L3.94089729,3.9501974 L3.92559832,3.78607386 C3.9014587,3.4767443 3.90148217,3.16208236 3.92575832,2.84190654 L3.94331826,2.6482895 L3.96615917,2.45840374 C4.03117465,1.97577578 4.17382676,1.5133561 4.39434206,1.07108141 L4.44786609,0.967689547 L4.44058957,0.913130633 L4.12977308,0.574651862 L4.07665627,0.562507511 L4.01692376,0.586256981 C3.97582314,0.600589476 3.93210987,0.612133262 3.88710746,0.620289486 L3.81603817,0.63028978 L3.74337301,0.633638712 C3.63986121,0.633581503 3.52792632,0.613720601 3.40457014,0.573281418 C3.31532048,0.54402319 3.2255771,0.50648905 3.11170167,0.450845231 L2.76968051,0.278067106 C2.74904867,0.267647087 2.72316489,0.25554763 2.69202918,0.241768733 C2.64532561,0.221100388 2.6244974,0.241768733 2.60566713,0.270659086 C2.59311361,0.289919322 2.52253714,0.453048044 2.39393773,0.760045251 C2.24324964,0.452092411 2.16154179,0.287497806 2.14881418,0.266261435 C2.12972277,0.23440688 2.09741776,0.23440688 2.07200425,0.241768733 C2.05506191,0.246676635 2.02929129,0.257762442 1.9946924,0.275026153 Z M2.40046222,0.987703358 L2.68170231,0.33627444 L2.72750286,0.364351451 L3.06896354,0.536860181 C3.18712417,0.594602603 3.28084614,0.633800744 3.37464948,0.664551777 C3.50719727,0.708004197 3.62908522,0.729631097 3.74571644,0.729631097 L3.82509752,0.72581026 L3.90238786,0.715097334 L3.95321558,0.704569879 C3.98650085,0.696759622 4.01870328,0.687346317 4.05052439,0.676215124 L4.0809528,0.663995657 L4.34681808,0.953297035 L4.30871337,1.02757596 C4.08317841,1.47990597 3.93739694,1.95246977 3.87088253,2.4462623 L3.84780795,2.63822267 L3.83004236,2.83393917 L3.81818104,3.02866187 C3.80631329,3.28733966 3.81023197,3.5422744 3.82990166,3.79426849 L3.84236561,3.92968187 L3.84873208,3.92555243 C3.64037666,4.05894951 3.41102817,4.27633974 3.14190977,4.59277244 C2.83955134,4.92297303 2.70951743,4.99153944 2.66376421,4.91867454 L2.41973516,4.53004282 L2.33839214,4.53004282 L2.09436309,4.91867454 C2.05401043,4.98293871 1.95047638,4.9384901 1.70751892,4.68912005 L1.60768643,4.58312876 L1.53992111,4.50453687 L1.46357697,4.41927469 L1.38813888,4.33835101 C1.23938322,4.1822308 1.10316035,4.06032968 0.976043441,3.97006002 L0.91515817,3.92891347 L0.927886007,3.79739204 C0.9625945,3.35415477 0.94899699,2.90470099 0.887244779,2.4462623 L0.86285795,2.28687307 L0.831759145,2.12363611 L0.794770601,1.96201175 C0.714988775,1.64061657 0.600364754,1.33027976 0.450650685,1.02987104 L0.410321502,0.952912837 L0.675802581,0.66322726 L0.709114546,0.676438991 C0.810993906,0.712199347 0.911083514,0.729631097 1.01241087,0.729631097 C1.12904208,0.729631097 1.25093003,0.708004197 1.38347783,0.664551777 C1.47866838,0.633345979 1.57332078,0.593756998 1.69452082,0.53424768 L2.03739694,0.361056911 L2.07889506,0.341269019 L2.40046222,0.987703358 Z" id="Path" fill="#000000"></path>
                <path d="M1.88946112,4.07740694 C1.71483471,3.83900155 1.58797422,3.70245557 1.50887966,3.66776901 C1.52761788,2.96950783 1.4321795,2.2479569 1.22256453,1.50311621 L1.2487647,1.46708915 C1.41127567,1.46948072 1.57139904,1.45452568 1.72913481,1.42222405 C1.96573847,1.37377159 2.05845242,1.27398539 2.15927481,1.31566442 C2.20408476,1.33418843 2.25158272,1.35614971 2.30176869,1.38154826 L2.37906365,1.42222405 C2.45837462,1.37897031 2.53163757,1.34345043 2.5988525,1.31566442 C2.69967489,1.27398539 2.79238884,1.37377159 3.02899249,1.42222405 C3.18672827,1.45452568 3.34685164,1.46948072 3.50936261,1.46708915 L3.53556278,1.50311621 C3.3259478,2.2479569 3.23050943,2.96950783 3.24924765,3.66776901 C3.1773435,3.69930225 3.06596338,3.81501682 2.91510729,4.01491273 L2.86866619,4.07740694 C2.69403977,4.31581233 2.53083893,4.41437854 2.37906365,4.37310556 C2.22728838,4.41437854 2.06408753,4.31581233 1.88946112,4.07740694 Z" id="Path" fill="#FFFFFF"></path>
                <path d="M2.56481751,1.12472818 L2.53983055,1.13261607 L2.44970107,1.17134188 L2.37856979,1.20533117 L2.28308608,1.15983698 L2.23266326,1.13813629 C2.2132998,1.13060086 2.2132998,1.13060086 2.19330979,1.12472818 C2.11867322,1.10455451 2.05083123,1.1122682 1.97333084,1.13841662 L1.82471902,1.19571925 C1.77984041,1.21204588 1.73735452,1.22445502 1.69059591,1.23403039 C1.54650006,1.2635388 1.40024668,1.27719842 1.25159139,1.27501076 L1.15199096,1.273545 L1.01241087,1.46547741 L1.03764839,1.55515579 C1.24215819,2.28185589 1.3350554,2.98419468 1.3168496,3.66261578 L1.31338301,3.79179468 L1.43172834,3.84369449 C1.46449347,3.85806348 1.56105311,3.96009543 1.69365426,4.13596042 L1.77795595,4.24790419 C1.95261244,4.46740253 2.13671828,4.58496674 2.33130186,4.57449785 L2.37895399,4.56898797 L2.42682545,4.57449785 C2.62005775,4.58489404 2.80295733,4.46902919 2.97653131,4.25246232 L3.06929385,4.12949285 C3.19901158,3.95761561 3.29571183,3.85715219 3.32639897,3.84369449 L3.44474429,3.79179468 L3.44127771,3.66261578 C3.4230719,2.98419468 3.51596912,2.28185589 3.72047892,1.55515579 L3.74571644,1.46547741 L3.60613635,1.273545 L3.50653591,1.27501076 C3.35788063,1.27719842 3.21162725,1.2635388 3.06753139,1.23403039 C3.02077279,1.22445502 2.9782869,1.21204588 2.93340829,1.19571925 L2.78479647,1.13841662 C2.70729608,1.1122682 2.63945408,1.10455451 2.56481751,1.12472818 Z M3.02899249,1.42222405 C3.18672827,1.45452568 3.34685164,1.46948072 3.50936261,1.46708915 L3.53556278,1.50311621 C3.3259478,2.2479569 3.23050943,2.96950783 3.24924765,3.66776901 C3.1773435,3.69930225 3.06596338,3.81501682 2.91510729,4.01491273 L2.86866619,4.07740694 C2.69403977,4.31581233 2.53083893,4.41437854 2.37906365,4.37310556 C2.22728838,4.41437854 2.06408753,4.31581233 1.88946112,4.07740694 C1.71483471,3.83900155 1.58797422,3.70245557 1.50887966,3.66776901 C1.52761788,2.96950783 1.4321795,2.2479569 1.22256453,1.50311621 L1.2487647,1.46708915 C1.41127567,1.46948072 1.57139904,1.45452568 1.72913481,1.42222405 C1.96573847,1.37377159 2.05845242,1.27398539 2.15927481,1.31566442 C2.20408476,1.33418843 2.25158272,1.35614971 2.30176869,1.38154826 L2.37906365,1.42222405 C2.45837462,1.37897031 2.53163757,1.34345043 2.5988525,1.31566442 C2.69967489,1.27398539 2.79238884,1.37377159 3.02899249,1.42222405 Z" id="Path-Copy-5" fill="#D4C185"></path>
                <path d="M2.53975543,1.03200592 L2.51091607,1.04102199 L2.4117835,1.08309347 L2.37856979,1.09852402 L2.32440009,1.07312667 L2.2414049,1.03895597 L2.22038321,1.03257312 C2.12767649,1.00749169 2.04206098,1.01385799 1.94262463,1.04740753 L1.79016346,1.10610096 C1.74995136,1.12071128 1.71207529,1.13158889 1.67132646,1.13993357 C1.53402782,1.16805002 1.39470869,1.18105693 1.25300474,1.17897156 L1.10360409,1.17677293 L0.934730724,1.40898564 L0.919952794,1.4914972 L0.945190313,1.58117558 C1.14704232,2.29843153 1.23878351,2.99118986 1.22083457,3.66003916 L1.21563469,3.85380752 L1.39315268,3.93165722 C1.40706738,3.93775945 1.50580011,4.04635548 1.61696186,4.19378603 L1.70122956,4.30568468 C1.90005022,4.55560597 2.11081798,4.68254873 2.33646201,4.67040873 L2.38998642,4.66440186 L2.4158429,4.66991749 C2.64583151,4.68246922 2.85536064,4.55722733 3.05147931,4.31253163 L3.14597297,4.18733606 C3.25285637,4.04571453 3.35219712,3.93726074 3.36497463,3.93165722 L3.54249261,3.85380752 L3.53729273,3.66003916 C3.5193438,2.99118986 3.61108499,2.29843153 3.81293699,1.58117558 L3.83817451,1.4914972 L3.82339658,1.40898564 L3.65452322,1.17677293 L3.50512257,1.17897156 C3.36341861,1.18105693 3.22409949,1.16805002 3.08680084,1.13993357 C3.04605201,1.13158889 3.00817595,1.12071128 2.96624524,1.10545708 L2.81935202,1.04879832 C2.71606633,1.01385799 2.63045082,1.00749169 2.53975543,1.03200592 Z M2.56481751,1.12472818 C2.63945408,1.10455451 2.70729608,1.1122682 2.78479647,1.13841662 L2.93340829,1.19571925 C2.9782869,1.21204588 3.02077279,1.22445502 3.06753139,1.23403039 C3.21162725,1.2635388 3.35788063,1.27719842 3.50653591,1.27501076 L3.60613635,1.273545 L3.74571644,1.46547741 L3.72047892,1.55515579 C3.51596912,2.28185589 3.4230719,2.98419468 3.44127771,3.66261578 L3.44474429,3.79179468 L3.32639897,3.84369449 C3.29878055,3.85580642 3.2176915,3.93839298 3.10718565,4.08008768 L2.97653131,4.25246232 C2.80295733,4.46902919 2.62005775,4.58489404 2.42682545,4.57449785 L2.37895399,4.56898797 L2.33130186,4.57449785 C2.13671828,4.58496674 1.95261244,4.46740253 1.77795595,4.24790419 L1.69365426,4.13596042 L1.61864058,4.03941203 C1.52498104,3.92278917 1.45794044,3.85518969 1.43172834,3.84369449 L1.31338301,3.79179468 L1.3168496,3.66261578 C1.3350554,2.98419468 1.24215819,2.28185589 1.03764839,1.55515579 L1.01241087,1.46547741 L1.15199096,1.273545 L1.25159139,1.27501076 C1.40024668,1.27719842 1.54650006,1.2635388 1.69059591,1.23403039 C1.73735452,1.22445502 1.77984041,1.21204588 1.82471902,1.19571925 L1.97333084,1.13841662 C2.05083123,1.1122682 2.11867322,1.10455451 2.19330979,1.12472818 L2.21829675,1.13261607 L2.28308608,1.15983698 L2.37856979,1.20533117 L2.44970107,1.17134188 L2.53983055,1.13261607 L2.56481751,1.12472818 Z" id="Path" fill="#000000"></path>
            </g>
        </g>
    </g>
</svg>