<svg xmlns="http://www.w3.org/2000/svg" xmlns:xlink="http://www.w3.org/1999/xlink" width="48" height="52" viewBox="0 0 48 52"><defs><path id="a" d="M10.2202858,49.9349257 C10.2990374,41.6089564 10.3384132,36.1692068 10.3384132,33.6156766 C10.3384132,31.0621465 10.176828,26.9540037 9.85365765,21.2912482 L8.2241567,25.1160522 C7.01125281,25.3258129 5.41848163,24.9509062 3.44584315,23.9913321 C1.52651922,23.0576924 0.387279465,22.0785814 0.0281238815,21.053999 L0,20.9685118 L4.72526396,9.16007698 C5.53354862,7.00608415 6.66054046,5.6140616 8.10623945,4.98400935 L16.3835008,1.36290579 L17.7009394,0 C20.0542672,0.521537936 22.154146,0.782865363 24.0005758,0.783982281 C25.8380118,0.785093757 27.9375067,0.523766331 30.2990606,0 L31.6139292,1.36290579 L39.7758433,4.9345938 C41.2783083,5.53937373 42.4446058,6.94786812 43.274736,9.16007698 L48,20.9685118 C47.6754097,22.0241513 46.5267953,23.031758 44.5541569,23.9913321 C42.5815184,24.9509062 40.9887472,25.3258129 39.7758433,25.1160522 L38.1463424,21.2912482 C37.823172,26.7575783 37.6615868,30.8657211 37.6615868,33.6156766 C37.6615868,36.3656321 37.7013266,41.8053818 37.7808063,49.9349257 C37.2455989,50.399355 30.6230725,51 24.000546,51 C17.3780196,51 10.7554932,50.399355 10.2202858,49.9349257 Z"/><path id="c" d="M0.334095497,1.3785553 L2.00877453,0 L2.22914555,0 C3.37758008,2.30320307 5.14782057,4.03757877 7.39780094,5.33308898 L4.59303715,7.59927616 C2.81521096,5.88818829 1.39297552,3.81723401 0.334095497,1.3785553 Z M16.2704053,1.3785553 L14.5957263,0 L14.3753553,0 C13.2269207,2.30320307 11.4566802,4.03757877 9.20669987,5.33308898 L12.0114637,7.59927616 C13.7892899,5.88818829 15.2115253,3.81723401 16.2704053,1.3785553 Z"/></defs><g fill="none" fill-rule="evenodd" transform="translate(0 .5)"><mask id="b" fill="#fff"><use xlink:href="#a"/></mask><use xlink:href="#a" fill="#FFF"/><g fill="#AAA8DD" mask="url(#b)"><g transform="translate(7.521 .6)"><path d="M-0.198784036,2.19351609 L10.8799179,2.19351609 L10.8799179,2.73221238 L-0.198784036,2.73221238 L-0.198784036,2.19351609 Z M-0.198784036,3.03221238 L10.8799179,3.03221238 L10.8799179,3.57090867 L-0.198784036,3.57090867 L-0.198784036,3.03221238 Z" transform="rotate(-24 5.34 2.882)"/><path d="M22.0494638,2.19958379 L33.1580018,2.19958379 L33.1580018,2.73828008 L22.0494638,2.73828008 L22.0494638,2.19958379 Z M22.0494638,3.03828008 L33.1580018,3.03828008 L33.1580018,3.57697637 L22.0494638,3.57697637 L22.0494638,3.03828008 Z" transform="scale(-1 1) rotate(-24 0 132.754)"/></g></g><g fill="#FFF" mask="url(#b)"><g transform="translate(0 4.728)"><path d="M40.1414941,0 L48,0 L48,46.271759 L35.9999386,46.271759 C36.0638827,40.1218659 36.4648634,32.2747742 37.2028809,22.730484 C37.9408983,13.1861938 38.9204361,5.60936581 40.1414941,0 Z"/><path d="M4.14155547,0 L12.0000614,0 L12.0000614,46.271759 L0,46.271759 C0.0639440351,40.1218659 0.464924778,32.2747742 1.20294223,22.730484 C1.94095968,13.1861938 2.92049743,5.60936581 4.14155547,0 Z" transform="matrix(-1 0 0 1 12 0)"/></g></g><g mask="url(#b)"><g transform="translate(16.247 -4.476)"><path fill="#B3B3B3" d="M1.00267777,5.97572384 L14.5026778,5.97572384 C13.5275801,8.69899044 11.2775801,10.0606237 7.75267777,10.0606237 C4.22777543,10.0606237 1.97777543,8.69899044 1.00267777,5.97572384 Z"/><path fill="#A94800" d="M0.0498884653,4.35674159 L15.4554671,4.35674159 L15.4554671,5.85674159 C12.8878706,6.57693223 10.3202742,6.93702755 7.75267777,6.93702755 C5.18508134,6.93702755 2.6174849,6.57693223 0.0498884653,5.85674159 L0.0498884653,4.35674159 Z"/><path fill="#004ABB" fill-rule="nonzero" d="M7.75267777,0.075 C11.9929421,0.075 15.4303555,2.42550506 15.4303555,5.325 C15.4303555,8.22449494 11.9929421,10.575 7.75267777,10.575 C3.51241342,10.575 0.075,8.22449494 0.075,5.325 C0.075,2.42550506 3.51241342,0.075 7.75267777,0.075 Z M7.75267777,1.575 C4.2464386,1.575 1.575,3.40173109 1.575,5.325 C1.575,7.24826891 4.2464386,9.075 7.75267777,9.075 C11.2589169,9.075 13.9303555,7.24826891 13.9303555,5.325 C13.9303555,3.40173109 11.2589169,1.575 7.75267777,1.575 Z"/><path fill="#E60" fill-rule="nonzero" d="M7.74349961,0.670401669 C11.3965834,0.670401669 14.357993,2.66510939 14.357993,5.12570605 C14.357993,7.58630272 11.3965834,9.58101044 7.74349961,9.58101044 C4.09041579,9.58101044 1.12900624,7.58630272 1.12900624,5.12570605 C1.12900624,2.66510939 4.09041579,0.670401669 7.74349961,0.670401669 Z M7.74349961,1.19540167 C4.34658494,1.19540167 1.65400624,3.0090338 1.65400624,5.12570605 C1.65400624,7.24237831 4.34658494,9.05601044 7.74349961,9.05601044 C11.1404143,9.05601044 13.832993,7.24237831 13.832993,5.12570605 C13.832993,3.0090338 11.1404143,1.19540167 7.74349961,1.19540167 Z"/><path fill="#003D9B" fill-rule="nonzero" d="M7.75267777,0 C3.47571217,0 0,2.37669376 0,5.325 C0,8.27330624 3.47571217,10.65 7.75267777,10.65 C12.0296434,10.65 15.5053555,8.27330624 15.5053555,5.325 C15.5053555,2.37669376 12.0296434,0 7.75267777,0 Z M7.75267777,0.15 C11.9562409,0.15 15.3553555,2.47431636 15.3553555,5.325 C15.3553555,8.17568364 11.9562409,10.5 7.75267777,10.5 C3.54911468,10.5 0.15,8.17568364 0.15,5.325 C0.15,2.47431636 3.54911468,0.15 7.75267777,0.15 Z"/></g></g><g mask="url(#b)"><g transform="translate(15.698 -4.55)"><path fill="#D5D5D5" d="M1.5522504,6.05072384 L15.0522504,6.05072384 C12.4883415,9.27399044 10.2383415,10.8856237 8.3022504,10.8856237 C6.3661593,10.8856237 4.1161593,9.27399044 1.5522504,6.05072384 Z"/><path fill="#EDEBEB" d="M0.599461098,4.43174159 L16.0050397,4.43174159 L16.0050397,5.93174159 C13.4374433,6.65193223 10.8698468,7.01202755 8.3022504,7.01202755 C5.73465397,7.01202755 3.16705753,6.65193223 0.599461098,5.93174159 L0.599461098,4.43174159 Z"/><rect width="1.804" height="5.277" x="7.398" y="11.462" fill="#F2EDED"/><path fill="#F2EDED" fill-rule="nonzero" d="M8.3022504,0 C12.6159173,0 16.1299282,2.40288246 16.1299282,5.4 C16.1299282,6.84416978 14.7990219,8.41903548 12.1540383,10.146856 L11.8547444,10.3394666 L11.2655105,10.7033218 L10.6371781,11.0723071 L10.3750001,11.2212649 L10.1059618,11.3713669 L9.55223555,11.6723022 L8.97224721,11.9771483 L8.37031727,12.2836671 L8.23418354,12.2836671 L7.6314056,11.9767131 L7.33865006,11.8240694 L7.05133183,11.6717992 L6.49757457,11.3708381 L6.22924687,11.2211217 L5.96625655,11.0716898 L5.33870468,10.7031497 L4.74853208,10.3386984 C1.9058902,8.53587148 0.474572632,6.89765755 0.474572632,5.4 C0.474572632,2.40288246 3.98858354,0 8.3022504,0 Z M8.3022504,0.15 C4.06198606,0.15 0.624572632,2.50050506 0.624572632,5.4 C0.624572632,6.77933116 1.92769,8.32007543 4.53392472,10.0222328 L4.82886898,10.2120257 L5.41621133,10.5747274 L6.04194207,10.9421842 L6.5701663,11.2395733 L7.1229591,11.5400057 L7.70032047,11.8434812 L8.3022504,12.15 L8.90418034,11.8434812 L9.48154171,11.5400057 L10.0343345,11.2395733 L10.5625587,10.9421842 L11.1882895,10.5747274 L11.7756318,10.2120257 C14.5784961,8.43442605 15.9799282,6.8304175 15.9799282,5.4 C15.9799282,2.50050506 12.5425148,0.15 8.3022504,0.15 Z"/><path fill="#FFF" fill-rule="nonzero" d="M8.3022504,0.15 C12.5425148,0.15 15.9799282,2.50050506 15.9799282,5.4 C15.9799282,6.8304175 14.5784961,8.43442605 11.7756318,10.2120257 L11.308829,10.5018067 C11.2289812,10.5503571 11.1481096,10.5990343 11.0662144,10.6478384 L10.5625587,10.9421842 C10.3905788,11.0408067 10.214504,11.1399364 10.0343345,11.2395733 L9.48154171,11.5400057 C9.29318268,11.640657 9.10072889,11.7418155 8.90418034,11.8434812 L8.3022504,12.15 L7.70032047,11.8434812 C7.50377192,11.7418155 7.31131813,11.640657 7.1229591,11.5400057 L6.5701663,11.2395733 C6.38999679,11.1399364 6.21392205,11.0408067 6.04194207,10.9421842 L5.53828641,10.6478384 C5.45639118,10.5990343 5.37551964,10.5503571 5.29567179,10.5018067 L4.82886898,10.2120257 C2.02600475,8.43442605 0.624572632,6.8304175 0.624572632,5.4 C0.624572632,2.50050506 4.06198606,0.15 8.3022504,0.15 Z M8.3022504,1.65 C4.79601123,1.65 2.12457263,3.47673109 2.12457263,5.4 C2.12457263,5.97810336 2.70841063,6.77387975 3.89641068,7.72319292 L4.20600917,7.96368277 C4.36711353,8.08548993 4.53768438,8.20961258 4.71776143,8.33592548 L5.0906022,8.59143446 C5.15485874,8.63449363 5.22017446,8.67778689 5.28655084,8.72130959 L5.69754869,8.98516196 L6.13407282,9.25429821 C6.20895795,9.29958221 6.28490962,9.34507708 6.36192929,9.3907782 L6.83687513,9.66742274 L7.33752367,9.94879442 L7.86394547,10.2346706 L8.30255054,10.46475 L8.7406947,10.2345961 L9.26737521,9.94857453 C9.35300335,9.90127385 9.43755649,9.85416104 9.52103611,9.80724078 L10.0090433,9.52806675 L10.4713567,9.25373656 L10.908047,8.98447326 C11.1199981,8.85114551 11.322367,8.71980148 11.5151936,8.59056663 L11.8881351,8.33494635 L12.2357009,8.0851736 C13.6869407,7.01581684 14.4254201,6.11744782 14.4770196,5.47173663 L14.4799282,5.4 C14.4799282,3.47673109 11.8084896,1.65 8.3022504,1.65 Z"/><g transform="matrix(-1 0 0 1 16.605 4.55)"><path fill="#000" fill-opacity=".2" d="M0,0.996839835 L2.14385975,1.04095704 C3.76990168,2.9410255 5.38317119,4.8835146 7.39780094,5.49297848 L4.62461123,8.39464078 C2.79969548,6.32014232 1.11697409,4.04922867 0,0.996839835 Z M16.6045008,0.996839835 L14.4606411,1.04095704 C12.8345991,2.9410255 11.2213296,4.8835146 9.20669987,5.49297848 L11.9798896,8.39464078 C13.8048053,6.32014232 15.4875267,4.04922867 16.6045008,0.996839835 Z"/><mask id="d" fill="#fff"><use xlink:href="#c"/></mask><use xlink:href="#c" fill="#1D222B"/><g mask="url(#d)"><g transform="translate(.454)"><path fill="#AAA8DD" d="M0,1.24619808 L1.55457711,0 L1.77494812,0 C2.92338266,2.30320307 4.69362314,4.03757877 6.94360352,5.33308898 L4.27819824,7.48930359 C2.50037205,5.77824624 1.05888002,3.6848768 0,1.24619808 Z"/><path fill="#FFF" d="M0.195556641,1.16239681 L1.55457711,0 L1.77494812,0 C2.92338266,2.30320307 4.69362314,4.03757877 6.94360352,5.33308898 L4.45449829,7.38311768 C2.6766721,5.67202981 1.25443666,3.60107553 0.195556641,1.16239681 Z"/></g></g><g mask="url(#d)"><g transform="matrix(-1 0 0 1 16.152 0)"><path fill="#AAA8DD" d="M0,1.24619808 L1.55457711,0 L1.77494812,0 C2.92338266,2.30320307 4.69362314,4.03757877 6.94360352,5.33308898 L4.27819824,7.48930359 C2.50037205,5.77824624 1.05888002,3.6848768 0,1.24619808 Z"/><path fill="#FFF" d="M0.195556641,1.16239681 L1.55457711,0 L1.77494812,0 C2.92338266,2.30320307 4.69362314,4.03757877 6.94360352,5.33308898 L4.45449829,7.38311768 C2.6766721,5.67202981 1.25443666,3.60107553 0.195556641,1.16239681 Z"/></g></g></g><g transform="translate(7.552 11.19)"><rect width="1.5" height="4.977" y=".421" fill="#FFF"/><path fill="#C9C9C9" fill-rule="nonzero" d="M1.08879494,-4.99600361e-15 C1.28752408,0.198729141 1.28752408,0.52093274 1.08879494,0.719661881 C0.8900658,0.918391022 0.567862201,0.918391022 0.36913306,0.719661881 C0.188470205,0.538999026 0.172046309,0.256291163 0.319861372,0.0570746704 L0.36913306,-2.77555756e-14 L0.475199077,0.106066017 C0.33504858,0.246216514 0.33504858,0.473445367 0.475199077,0.613595864 C0.615349575,0.753746361 0.842578427,0.753746361 0.982728924,0.613595864 C1.10730714,0.489017644 1.12114917,0.295636773 1.024255,0.155769076 L0.982728924,0.106066017 L1.08879494,-4.99600361e-15 Z"/></g></g></g><g mask="url(#b)"><g transform="translate(28.5 9.75)"><circle cx="3.966" cy="3.966" r="3.966" fill="#FFF"/><path fill="#004796" fill-rule="nonzero" d="M3.96623076,0 C6.15671953,0 7.93246153,1.775742 7.93246153,3.96623076 C7.93246153,6.15671953 6.15671953,7.93246153 3.96623076,7.93246153 C1.775742,7.93246153 0,6.15671953 0,3.96623076 C0,1.775742 1.775742,0 3.96623076,0 Z M3.96623076,0.75 C2.18995556,0.75 0.75,2.18995556 0.75,3.96623076 C0.75,5.74250597 2.18995556,7.18246153 3.96623076,7.18246153 C5.74250597,7.18246153 7.18246153,5.74250597 7.18246153,3.96623076 C7.18246153,2.18995556 5.74250597,0.75 3.96623076,0.75 Z"/><path fill="#FCC000" fill-rule="nonzero" d="M3.96623076,0.165990971 C6.06504525,0.165990971 7.76647056,1.86741628 7.76647056,3.96623076 C7.76647056,6.06504525 6.06504525,7.76647056 3.96623076,7.76647056 C1.86741628,7.76647056 0.165990971,6.06504525 0.165990971,3.96623076 C0.165990971,1.86741628 1.86741628,0.165990971 3.96623076,0.165990971 Z M3.96623076,0.56496813 C2.08776528,0.56496813 0.56496813,2.08776528 0.56496813,3.96623076 C0.56496813,5.84469625 2.08776528,7.3674934 3.96623076,7.3674934 C5.84469625,7.3674934 7.3674934,5.84469625 7.3674934,3.96623076 C7.3674934,2.08776528 5.84469625,0.56496813 3.96623076,0.56496813 Z"/><rect width="1.5" height="4.876" x="3.152" y="1.566" fill="#004796" transform="rotate(-45 3.902 4.004)"/><path fill="#004796" fill-rule="nonzero" d="M3.96623076,1.17339489 C5.50867143,1.17339489 6.75906664,2.4237901 6.75906664,3.96623076 C6.75906664,5.50867143 5.50867143,6.75906664 3.96623076,6.75906664 C2.4237901,6.75906664 1.17339489,5.50867143 1.17339489,3.96623076 C1.17339489,2.4237901 2.4237901,1.17339489 3.96623076,1.17339489 Z M3.96623076,1.92129599 C2.83684447,1.92129599 1.92129599,2.83684447 1.92129599,3.96623076 C1.92129599,5.09561706 2.83684447,6.01116554 3.96623076,6.01116554 C5.09561706,6.01116554 6.01116554,5.09561706 6.01116554,3.96623076 C6.01116554,2.83684447 5.09561706,1.92129599 3.96623076,1.92129599 Z"/><path fill="#FCC000" fill-rule="nonzero" d="M3.96623076,1.35274684 C5.40961808,1.35274684 6.57971469,2.52284345 6.57971469,3.96623076 C6.57971469,5.40961808 5.40961808,6.57971469 3.96623076,6.57971469 C2.52284345,6.57971469 1.35274684,5.40961808 1.35274684,3.96623076 C1.35274684,2.52284345 2.52284345,1.35274684 3.96623076,1.35274684 Z M3.96623076,1.71888 C2.72505321,1.71888 1.71888,2.72505321 1.71888,3.96623076 C1.71888,5.20740832 2.72505321,6.21358153 3.96623076,6.21358153 C5.20740832,6.21358153 6.21358153,5.20740832 6.21358153,3.96623076 C6.21358153,2.72505321 5.20740832,1.71888 3.96623076,1.71888 Z"/></g></g><g fill="#000" fill-opacity=".2" fill-rule="nonzero" mask="url(#b)"><g transform="translate(7.575 4.805)"><path d="M30.4841488,0.0719784231 L30.775386,0 L30.8846831,0.459108697 L30.9920046,0.943970623 C31.009727,1.02692716 31.027367,1.11095685 31.0449248,1.19605971 L31.1492842,1.71955547 L31.2516698,2.26880979 C31.2685696,2.36249884 31.2853872,2.45726125 31.3021226,2.55309707 L31.4015486,3.1409932 L31.4990025,3.75465321 L31.5944849,4.39407922 L31.6879965,5.05927336 L31.7795379,5.75023777 L31.9131577,6.83500827 L31.9997768,7.59040765 L32.0844282,8.37158474 L32.1671126,9.17854167 L32.2874525,10.4373189 L32.3652222,11.3087348 L32.4781933,12.6642104 L32.5510527,13.6000985 L32.6566614,15.0522924 L32.7906067,17.0788376 L32.8546382,18.1308092 L32.5551627,18.1485413 L32.4925849,17.1198586 L32.3952062,15.6232215 L32.2588155,13.7143048 L32.151611,12.3475756 L32.0401991,11.0365325 L31.9245818,9.78118215 L31.8451685,8.97522572 L31.7225472,7.81271175 L31.6384666,7.06865248 L31.5088473,5.99899365 L31.4201033,5.31684406 L31.3294951,4.65946183 L31.2370234,4.02684899 L31.1426887,3.41900751 L31.0464917,2.83593942 L30.9484331,2.2776467 L30.8485135,1.74413136 L30.7467335,1.2353954 L30.6430938,0.751440821 L30.5375951,0.292269626 L30.4841488,0.0719784231 Z" transform="matrix(-1 0 0 1 63.339 0)"/><path d="M0.2912372,0 L0.346132747,0.226335328 L0.454441985,0.698320373 L0.560775986,1.19605971 L0.665135431,1.71955547 L0.767521003,2.26880979 L0.867933384,2.84382478 L0.966373258,3.44460258 L1.11033611,4.39407922 L1.24986465,5.40153415 L1.34042132,6.10538448 L1.42900889,6.83500827 L1.55819968,7.97777385 L1.68296385,9.17854167 L1.76368186,10.0112806 L1.84243419,10.8698036 L1.95687852,12.2059379 L2.0669039,13.6000985 L2.13780032,14.5617792 L2.24046591,16.052666 L2.33871869,17.6015983 L2.37048939,18.1308092 L2.07101389,18.1485413 L1.97644473,16.6147944 L1.87766163,15.1367133 L1.77466675,13.7143048 L1.66746225,12.3475756 L1.5560503,11.0365325 L1.44043307,9.78118215 L1.36101971,8.97522572 L1.27973894,8.19402665 L1.1965914,7.43758695 L1.06837129,6.34935559 L0.980559634,5.65482306 L0.890883448,4.9850569 L0.799343379,4.34005911 L0.705940068,3.7198317 L0.610674156,3.12437667 L0.513546285,2.55369601 L0.414557097,2.00779173 L0.313707232,1.48666583 L0.210997334,0.990320312 L0.106428043,0.518757175 C0.0888449136,0.442228629 0.0711843367,0.366732765 0.0534463251,0.292269626 L0,0.0719784231 L0.2912372,0 Z"/></g></g></g></svg>