<?xml version="1.0" encoding="UTF-8"?>
<svg width="48px" height="52px" viewBox="0 0 48 52" version="1.1" xmlns="http://www.w3.org/2000/svg" xmlns:xlink="http://www.w3.org/1999/xlink">
    <title>Spain_Home</title>
    <defs>
        <path d="M10.2202858,49.9349257 C10.2990374,41.6089564 10.3384132,36.1692068 10.3384132,33.6156766 C10.3384132,31.0621465 10.176828,26.9540037 9.85365765,21.2912482 L8.2241567,25.1160522 C7.01125281,25.3258129 5.41848163,24.9509062 3.44584315,23.9913321 C1.52651922,23.0576924 0.387279465,22.0785814 0.0281238815,21.053999 L0,20.9685118 L4.72526396,9.16007698 C5.53354862,7.00608415 6.66054046,5.6140616 8.10623945,4.98400935 L16.3835008,1.36290579 L17.7009394,0 C20.0542672,0.521537936 22.154146,0.782865363 24.0005758,0.783982281 C25.8380118,0.785093757 27.9375067,0.523766331 30.2990606,0 L31.6139292,1.36290579 L39.7758433,4.9345938 C41.2783083,5.53937373 42.4446058,6.94786812 43.274736,9.16007698 L48,20.9685118 C47.6754097,22.0241513 46.5267953,23.031758 44.5541569,23.9913321 C42.5815184,24.9509062 40.9887472,25.3258129 39.7758433,25.1160522 L38.1463424,21.2912482 C37.823172,26.7575783 37.6615868,30.8657211 37.6615868,33.6156766 C37.6615868,36.3656321 37.7013266,41.8053818 37.7808063,49.9349257 C37.2455989,50.399355 30.6230725,51 24.000546,51 C17.3780196,51 10.7554932,50.399355 10.2202858,49.9349257 Z" id="path-1"></path>
        <path d="M0.680431458,47.325 L0.741157649,17.6162482 L0,8.81932373 C1.46206754,5.23995442 2.60697111,3.1594851 3.43471069,2.57791576 C3.58089093,2.47520962 5.48305605,1.61590436 9.14120605,0 C10.7363144,1.61239603 12.1516547,2.41776666 14.887227,2.41611189 L14.895182,2.41611189 C17.6307543,2.41776666 19.0460946,1.61239603 20.641203,0 C23.9582657,1.37625668 25.8604308,2.23556194 26.3476983,2.57791576 C27.1754379,3.1594851 28.3203415,5.23995442 29.782409,8.81932373 L29.0412513,17.6162482 L29.0894472,47.325 L0.680431458,47.325 Z" id="path-3"></path>
        <path d="M4.99752786,3.27877745 L10.4727918,16.0619683 C10.1482015,17.1176077 8.24958715,18.6504585 6.27694867,19.6100326 C4.30431019,20.5696066 2.71153901,20.9445133 1.49863512,20.7347527 L0,16.465846 L0.100797365,14.944029 L0.206025452,13.4806236 L0.27863902,12.5374708 L0.391251641,11.171418 L0.468788233,10.2931669 L0.548294034,9.44087662 L0.629769044,8.61454699 L0.755673826,7.42372884 L0.886009329,6.29132226 L0.975361176,5.56883541 L1.06668223,4.87230925 L1.1599725,4.20174379 L1.25523197,3.55713902 L1.35246065,2.93849495 L1.45165855,2.34581158 L1.55282565,1.7790889 L1.65596196,1.23832692 C1.67331545,1.15036331 1.69075098,1.0634814 1.70826857,0.977681186 L1.81435869,0.475860245 L1.92241803,0 C3.22232553,0.686428917 4.24723453,1.27932537 4.99752786,3.27877745 Z" id="path-5"></path>
        <path d="M4.99752786,3.27877745 L10.4727918,16.0619683 C10.1482015,17.1176077 8.24958715,18.6504585 6.27694867,19.6100326 C4.30431019,20.5696066 2.71153901,20.9445133 1.49863512,20.7347527 L0,16.465846 L0.100797365,14.944029 L0.206025452,13.4806236 L0.27863902,12.5374708 L0.391251641,11.171418 L0.468788233,10.2931669 L0.548294034,9.44087662 L0.629769044,8.61454699 L0.755673826,7.42372884 L0.886009329,6.29132226 L0.975361176,5.56883541 L1.06668223,4.87230925 L1.1599725,4.20174379 L1.25523197,3.55713902 L1.35246065,2.93849495 L1.45165855,2.34581158 L1.55282565,1.7790889 L1.65596196,1.23832692 C1.67331545,1.15036331 1.69075098,1.0634814 1.70826857,0.977681186 L1.81435869,0.475860245 L1.92241803,0 C3.22232553,0.686428917 4.24723453,1.27932537 4.99752786,3.27877745 Z" id="path-7"></path>
        <path d="M0,0 L3.18814955,0 C3.18814955,0.738507615 3.18814955,1.49095247 3.18814955,2.25733458 C3.18814955,3.02371668 2.65679129,3.59966747 1.59407477,3.98518694 C0.531358258,3.59966747 0,3.02371668 0,2.25733458 C0,1.49095247 0,0.738507615 0,0 Z" id="path-9"></path>
    </defs>
    <g id="Spain_Home" stroke="none" stroke-width="1" fill="none" fill-rule="evenodd">
        <g id="TeamKit-/-Sheff_Wed" transform="translate(0.000000, 0.500000)">
            <mask id="mask-2" fill="white">
                <use xlink:href="#path-1"></use>
            </mask>
            <use id="Shirt-Mask" fill="#AB152D" xlink:href="#path-1"></use>
            <g id="Pattern" mask="url(#mask-2)">
                <g transform="translate(9.108796, 3.675000)">
                    <mask id="mask-4" fill="white">
                        <use xlink:href="#path-3"></use>
                    </mask>
                    <use id="Path" stroke="none" fill="#B71831" fill-rule="evenodd" xlink:href="#path-3"></use>
                </g>
            </g>
            <g id="Sides" mask="url(#mask-2)" fill="#333F59" fill-rule="nonzero">
                <g transform="translate(9.435305, 21.445142)" id="Path-6">
                    <path d="M28.7192203,0 L29.1159039,0.0514015584 C28.073909,8.09283681 27.9523333,17.2031631 28.7516643,27.3820617 L28.8408308,28.4767469 L28.4422465,28.5103707 C27.5749477,18.2292074 27.6309397,9.01544832 28.61071,0.86877467 L28.7192203,0 Z"></path>
                    <path d="M0.887950069,0 L1.28463367,0.0514015584 C0.242638736,8.09283681 0.121063048,17.2031631 0.920394069,27.3820617 L1.00956058,28.4767469 L0.610976283,28.5103707 C-0.256322527,18.2292074 -0.200330512,9.01544832 0.779439792,0.86877467 L0.887950069,0 Z" transform="translate(0.642317, 14.255185) scale(-1, 1) translate(-0.642317, -14.255185) "></path>
                </g>
            </g>
            <g id="Sleeves" mask="url(#mask-2)">
                <g transform="translate(-0.750000, 5.131300)">
                    <g id="Right" transform="translate(39.027208, 0.000000)">
                        <mask id="mask-6" fill="white">
                            <use xlink:href="#path-5"></use>
                        </mask>
                        <use id="Mask" fill="#AB152D" xlink:href="#path-5"></use>
                    </g>
                    <g id="Let-Arm" transform="translate(5.236396, 10.395597) scale(-1, 1) translate(-5.236396, -10.395597) ">
                        <mask id="mask-8" fill="white">
                            <use xlink:href="#path-7"></use>
                        </mask>
                        <use id="Mask" fill="#AB152D" xlink:href="#path-7"></use>
                    </g>
                </g>
            </g>
            <g id="Shoulders" mask="url(#mask-2)">
                <g transform="translate(6.764999, 0.665746)">
                    <polygon id="Rectangle" fill="#AB152D" transform="translate(5.409900, 3.609923) rotate(-24.000000) translate(-5.409900, -3.609923) " points="0.20551882 2.12325192 10.6361388 2.04750292 10.6142816 5.09659499 0.18366162 5.172344"></polygon>
                    <path d="M0.557253432,2.19234862 L11.6359554,2.19234862 L11.6359554,2.74160759 L0.557253432,2.74160759 L0.557253432,2.19234862 Z M0.557253432,3.04748994 L11.6359554,3.04748994 L11.6359554,3.5967489 L0.557253432,3.5967489 L0.557253432,3.04748994 Z" id="Left-Shoulder" fill="#333F59" transform="translate(6.096604, 2.894549) rotate(-24.000000) translate(-6.096604, -2.894549) "></path>
                    <polygon id="Rectangle" fill="#AB152D" transform="translate(29.060103, 3.609923) scale(-1, 1) rotate(-24.000000) translate(-29.060103, -3.609923) " points="23.8557213 2.12325192 34.2863413 2.04750292 34.2644841 5.09659499 23.8338641 5.172344"></polygon>
                    <path d="M22.8055013,2.1985353 L33.9140392,2.1985353 L33.9140392,2.74779426 L22.8055013,2.74779426 L22.8055013,2.1985353 Z M22.8055013,3.05367661 L33.9140392,3.05367661 L33.9140392,3.60293557 L22.8055013,3.60293557 L22.8055013,3.05367661 Z" id="Right-Shoulder" fill="#333F59" transform="translate(28.359770, 2.900735) scale(-1, 1) rotate(-24.000000) translate(-28.359770, -2.900735) "></path>
                </g>
            </g>
            <g id="Arm-Seams" mask="url(#mask-2)" fill="#000000" fill-opacity="0.2" fill-rule="nonzero">
                <g transform="translate(7.564771, 4.804976)">
                    <path d="M30.4841488,0.0719784231 L30.775386,0 L30.8846831,0.459108697 L30.9920046,0.943970623 C31.009727,1.02692716 31.027367,1.11095685 31.0449248,1.19605971 L31.1492842,1.71955547 L31.2516698,2.26880979 C31.2685696,2.36249884 31.2853872,2.45726125 31.3021226,2.55309707 L31.4015486,3.1409932 L31.4990025,3.75465321 L31.5944849,4.39407922 L31.6879965,5.05927336 L31.7795379,5.75023777 L31.9131577,6.83500827 L31.9997768,7.59040765 L32.0844282,8.37158474 L32.1671126,9.17854167 L32.2874525,10.4373189 L32.3652222,11.3087348 L32.4781933,12.6642104 L32.5510527,13.6000985 L32.6566614,15.0522924 L32.7906067,17.0788376 L32.8546382,18.1308092 L32.5551627,18.1485413 L32.4925849,17.1198586 L32.3952062,15.6232215 L32.2588155,13.7143048 L32.151611,12.3475756 L32.0401991,11.0365325 L31.9245818,9.78118215 L31.8451685,8.97522572 L31.7225472,7.81271175 L31.6384666,7.06865248 L31.5088473,5.99899365 L31.4201033,5.31684406 L31.3294951,4.65946183 L31.2370234,4.02684899 L31.1426887,3.41900751 L31.0464917,2.83593942 L30.9484331,2.2776467 L30.8485135,1.74413136 L30.7467335,1.2353954 L30.6430938,0.751440821 L30.5375951,0.292269626 L30.4841488,0.0719784231 Z" id="Right" transform="translate(31.669393, 9.074271) scale(-1, 1) translate(-31.669393, -9.074271) "></path>
                    <path d="M0.2912372,0 L0.346132747,0.226335328 L0.454441985,0.698320373 L0.560775986,1.19605971 L0.665135431,1.71955547 L0.767521003,2.26880979 L0.867933384,2.84382478 L0.966373258,3.44460258 L1.11033611,4.39407922 L1.24986465,5.40153415 L1.34042132,6.10538448 L1.42900889,6.83500827 L1.55819968,7.97777385 L1.68296385,9.17854167 L1.76368186,10.0112806 L1.84243419,10.8698036 L1.95687852,12.2059379 L2.0669039,13.6000985 L2.13780032,14.5617792 L2.24046591,16.052666 L2.33871869,17.6015983 L2.37048939,18.1308092 L2.07101389,18.1485413 L1.97644473,16.6147944 L1.87766163,15.1367133 L1.77466675,13.7143048 L1.66746225,12.3475756 L1.5560503,11.0365325 L1.44043307,9.78118215 L1.36101971,8.97522572 L1.27973894,8.19402665 L1.1965914,7.43758695 L1.06837129,6.34935559 L0.980559634,5.65482306 L0.890883448,4.9850569 L0.799343379,4.34005911 L0.705940068,3.7198317 L0.610674156,3.12437667 L0.513546285,2.55369601 L0.414557097,2.00779173 L0.313707232,1.48666583 L0.210997334,0.990320312 L0.106428043,0.518757175 C0.0888449136,0.442228629 0.0711843367,0.366732765 0.0534463251,0.292269626 L0,0.0719784231 L0.2912372,0 Z" id="Left"></path>
                </g>
            </g>
            <g id="Neck" mask="url(#mask-2)">
                <g transform="translate(16.297211, -3.902500)">
                    <path d="M0.952789307,5.90072384 L14.4527893,5.90072384 C11.8888804,9.12399044 9.63888041,10.7356237 7.70278931,10.7356237 C5.7666982,10.7356237 3.5166982,9.12399044 0.952789307,5.90072384 Z" id="Neck-Inside" fill="#780417" fill-rule="evenodd"></path>
                    <rect id="Rectangle" fill="#29344B" fill-rule="evenodd" x="4.75637817" y="8.70747622" width="5.96838379" height="1.60727378"></rect>
                    <path d="M0.187545408,4.28174159 L15.4055786,4.28174159 L15.4055786,5.76348079 C12.8692397,6.47490393 10.3329009,6.8306155 7.79656201,6.8306155 C5.26022314,6.8306155 2.72388428,6.47490393 0.187545408,5.76348079 L0.187545408,4.28174159 Z" id="Nack-Back" fill="#25314A" fill-rule="evenodd"></path>
                    <path d="M0.187545408,3.66237518 L15.4055786,3.66237518 L15.4055786,5.14411438 C12.8692397,5.85553752 10.3329009,6.21124909 7.79656201,6.21124909 C5.26022314,6.21124909 2.72388428,5.85553752 0.187545408,5.14411438 L0.187545408,3.66237518 Z" id="Nack-Back-Copy-2" fill="#E6A100" fill-rule="evenodd"></path>
                    <path d="M0,3.11235702 L15.4055786,3.11235702 L15.4055786,4.61235702 C12.8379822,5.33254766 10.2703857,5.69264298 7.70278931,5.69264298 C5.13519287,5.69264298 2.56759644,5.33254766 0,4.61235702 L0,3.11235702 Z" id="Nack-Back-Copy" fill="#25314A" fill-rule="evenodd"></path>
                    <rect id="Rectangle" fill="#780417" fill-rule="evenodd" x="3.9159317" y="3.66237518" width="7.57371521" height="3.91512482"></rect>
                    <path d="M7.72790084,0 C11.9681652,0 15.4055786,2.35050506 15.4055786,5.25 C15.4055786,6.5644377 14.2221925,8.02545777 11.8554204,9.6330602 L11.4254705,9.91827636 C11.3517647,9.96606599 11.2770354,10.0139824 11.2012823,10.0620257 L10.7344795,10.3518067 C10.6546316,10.4003571 10.5737601,10.4490343 10.4918648,10.4978384 L9.98820918,10.7921842 C9.8162292,10.8908067 9.64015445,10.9899364 9.45998495,11.0895733 L8.90719215,11.3900057 C8.81301263,11.4403313 8.71780943,11.4907838 8.62158253,11.541363 L8.03193688,11.8463602 C7.93161522,11.8974467 7.83026988,11.9486599 7.72790084,12 L7.1259709,11.6934812 C6.92942235,11.5918155 6.73696856,11.490657 6.54860954,11.3900057 L5.99581674,11.0895733 C5.81564723,10.9899364 5.63957249,10.8908067 5.46759251,10.7921842 L4.96393684,10.4978384 L4.48484975,10.2065358 C4.32924881,10.1099421 4.17774264,10.0138556 4.03033123,9.91827636 L3.60038127,9.6330602 C1.23360914,8.02545777 0.0502230694,6.5644377 0.0502230694,5.25 C0.0502230694,2.35050506 3.48763649,0 7.72790084,0 Z M7.72790084,1.5 C4.22166167,1.5 1.55022307,3.32673109 1.55022307,5.25 C1.55022307,5.87627864 2.23542183,6.75802077 3.63165961,7.81368277 L3.96650208,8.0603473 C4.02441675,8.10196024 4.08338618,8.14382118 4.14341187,8.18592548 L4.51625264,8.44143446 C4.58050918,8.48449363 4.6458249,8.52778689 4.71220127,8.57130959 L5.12319913,8.83516196 L5.55972326,9.10429821 C5.63460839,9.14958221 5.71056005,9.19507708 5.78757972,9.2407782 L6.26252557,9.51742274 L6.76317411,9.79879442 L7.2895959,10.0846706 L7.728,10.31475 L8.16634514,10.0845961 L8.69302565,9.79857453 C8.77865378,9.75127385 8.86320692,9.70416104 8.94668654,9.65724078 L9.43469378,9.37806675 C9.59307662,9.28580365 9.74717716,9.19434787 9.89700718,9.10373656 L10.3336974,8.83447326 L10.7448352,8.57049989 C10.8112327,8.52695755 10.8765685,8.48364491 10.940844,8.44056663 L11.3137856,8.18494635 L11.6613514,7.9351736 L11.9836121,7.69147142 L12.2806384,7.45406286 C13.323558,6.59537567 13.8590089,5.86810763 13.9026701,5.32173663 L13.9055786,5.25 C13.9055786,3.32673109 11.23414,1.5 7.72790084,1.5 Z" id="Neck-Front" fill="#333F59" fill-rule="nonzero"></path>
                    <path d="M7.72790084,0 C11.9681652,0 15.4055786,2.35050506 15.4055786,5.25 C15.4055786,6.5644377 14.2221925,8.02545777 11.8554204,9.6330602 L11.4254705,9.91827636 C11.3517647,9.96606599 11.2770354,10.0139824 11.2012823,10.0620257 L10.7344795,10.3518067 C10.6546316,10.4003571 10.5737601,10.4490343 10.4918648,10.4978384 L9.98820918,10.7921842 C9.8162292,10.8908067 9.64015445,10.9899364 9.45998495,11.0895733 L8.90719215,11.3900057 C8.81301263,11.4403313 8.71780943,11.4907838 8.62158253,11.541363 L8.03193688,11.8463602 C7.93161522,11.8974467 7.83026988,11.9486599 7.72790084,12 L7.1259709,11.6934812 C6.92942235,11.5918155 6.73696856,11.490657 6.54860954,11.3900057 L5.99581674,11.0895733 C5.81564723,10.9899364 5.63957249,10.8908067 5.46759251,10.7921842 L4.96393684,10.4978384 L4.48484975,10.2065358 C4.32924881,10.1099421 4.17774264,10.0138556 4.03033123,9.91827636 L3.60038127,9.6330602 C1.23360914,8.02545777 0.0502230694,6.5644377 0.0502230694,5.25 C0.0502230694,2.35050506 3.48763649,0 7.72790084,0 Z M7.72790084,1.05 C4.00145412,1.05 1.10022307,3.03386328 1.10022307,5.25 C1.10022307,6.16417217 2.13607465,7.37958802 4.23930209,8.79676696 L4.64617325,9.06482813 C4.78597153,9.1549538 4.92994695,9.24584332 5.0781072,9.33747241 L5.53515013,9.61455406 C5.61341894,9.66109602 5.69273587,9.7078168 5.7731019,9.75471336 L6.26789488,10.0381778 C6.35246113,10.0857654 6.4380784,10.1335226 6.52474764,10.1814466 L7.05739458,10.470966 C7.14827559,10.5195445 7.24021051,10.5682836 7.33320029,10.6171803 L7.72725,10.82175 L8.12260139,10.6171803 L8.6678894,10.3257154 C8.84543773,10.2292069 9.0187743,10.1333529 9.1879068,10.0381778 L9.68269979,9.75471336 C9.84343184,9.66092023 9.99996752,9.56783024 10.1523145,9.47546767 L10.5967972,9.20058649 C10.6687859,9.15514477 10.7397293,9.10989097 10.8096284,9.06482813 L11.2164996,8.79676696 C11.6108547,8.53104591 11.9676849,8.27241809 12.287198,8.02153926 L12.5942798,7.77326772 C12.7416088,7.65044773 12.8796259,7.52961964 13.008357,7.41086541 L13.2534455,7.17614639 C13.9516134,6.4804305 14.316109,5.86134095 14.3525429,5.33658315 L14.3555786,5.25 C14.3555786,3.03386328 11.4543476,1.05 7.72790084,1.05 Z" id="Neck-Front" fill="#FFB303" fill-rule="nonzero"></path>
                    <path d="M7.72790084,0 C11.9681652,0 15.4055786,2.35050506 15.4055786,5.25 C15.4055786,6.5644377 14.2221925,8.02545777 11.8554204,9.6330602 L11.4254705,9.91827636 C11.3517647,9.96606599 11.2770354,10.0139824 11.2012823,10.0620257 L10.7344795,10.3518067 C10.6546316,10.4003571 10.5737601,10.4490343 10.4918648,10.4978384 L9.98820918,10.7921842 C9.8162292,10.8908067 9.64015445,10.9899364 9.45998495,11.0895733 L8.90719215,11.3900057 C8.81301263,11.4403313 8.71780943,11.4907838 8.62158253,11.541363 L8.03193688,11.8463602 C7.93161522,11.8974467 7.83026988,11.9486599 7.72790084,12 L7.1259709,11.6934812 C6.92942235,11.5918155 6.73696856,11.490657 6.54860954,11.3900057 L5.99581674,11.0895733 C5.81564723,10.9899364 5.63957249,10.8908067 5.46759251,10.7921842 L4.96393684,10.4978384 L4.48484975,10.2065358 C4.32924881,10.1099421 4.17774264,10.0138556 4.03033123,9.91827636 L3.60038127,9.6330602 C1.23360914,8.02545777 0.0502230694,6.5644377 0.0502230694,5.25 C0.0502230694,2.35050506 3.48763649,0 7.72790084,0 Z M7.72790084,0.6 C3.78124656,0.6 0.650223069,2.74099547 0.650223069,5.25 C0.650223069,6.46722696 2.03497158,7.98275559 4.83064427,9.71398381 L5.29636822,9.9966012 C5.37605151,10.0440149 5.45676645,10.0915828 5.53851356,10.1393035 L6.04138649,10.4274462 C6.29902013,10.5724206 6.56595264,10.7187396 6.84219797,10.8663592 L7.40710987,11.1633196 L7.728,11.32725 L7.75691529,11.313076 C7.95777894,11.2107816 8.15431517,11.1090703 8.34652839,11.0079559 L8.91020342,10.7064174 C9.18556083,10.5565575 9.45120139,10.4080721 9.70713998,10.2610081 L10.2060856,9.96878917 L10.6791858,9.68044416 C10.8325812,9.58498409 10.9816735,9.49018358 11.126467,9.39605656 L11.5479556,9.11570986 C13.6590616,7.67783468 14.7384507,6.40510703 14.8025436,5.34934614 L14.8055786,5.25 C14.8055786,2.74099547 11.6745551,0.6 7.72790084,0.6 Z" id="Neck-Front" fill="#333F59" fill-rule="nonzero"></path>
                    <rect id="Rectangle" fill="#B71831" fill-rule="evenodd" x="2.70278931" y="10.9410278" width="9.1959274" height="1.6478247"></rect>
                </g>
            </g>
            <g id="Badge" mask="url(#mask-2)">
                <g transform="translate(28.195927, 7.038528)">
                    <path d="M3.30429371,1.6478247 C4.69762278,1.6661095 5.79890661,1.95084266 6.60814519,2.50202418 C6.6006883,2.52776157 6.10113828,3.53382441 6.13750394,4.72519677 C6.13538874,4.73555348 6.26659878,6.02366254 6.43334301,6.9039393 C6.4438804,6.91878975 6.30372223,8.95388466 3.22850007,9.67298465 C3.20098235,9.66662579 0.571953137,9.04980562 0.154562345,6.9039393 C0.156245351,6.89908599 0.466452219,5.51894185 0.466452219,4.72519677 C0.462281198,4.72184221 0.484117339,3.33566336 6.64248427e-05,2.50202418 C-0.0103042394,2.49248536 1.19433718,1.66703132 3.14889433,1.6478247 C3.15196552,1.64959584 3.20376532,1.64959584 3.30429371,1.6478247 Z" id="Path-4" fill="#FFB303" fill-rule="evenodd"></path>
                    <path d="M3.30429371,1.75914959 C4.59836599,1.78338311 5.64003168,2.05105294 6.42929077,2.56215907 C6.41737377,2.56867321 6.07095366,3.32539395 6.03214721,4.58918672 C6.01493218,4.59880461 6.07488926,5.73855263 6.23232114,6.51506766 C6.20918625,6.53011918 6.64715713,8.7094016 3.30429371,9.08189507 C3.29077343,9.07153442 0.183872191,8.88105549 0.363750228,6.51506766 C0.363793877,6.50783545 0.60044724,5.5889077 0.574139184,4.58918672 C0.583118434,4.58605971 0.500062244,3.24913973 0.188391333,2.56215907 C0.19547112,2.56797464 1.51311721,1.76158555 3.21146894,1.75914959 C3.2150978,1.76243939 3.24603939,1.76243939 3.30429371,1.75914959 Z" id="Path-5" fill="#D42440" fill-rule="evenodd"></path>
                    <polygon id="Star" fill="#FFB303" fill-rule="evenodd" points="3.30884105 1.23586853 2.82455752 1.49047144 2.91704745 0.951213809 2.52525384 0.569309432 3.06669929 0.490632804 3.30884105 0 3.55098282 0.490632804 4.09242826 0.569309432 3.70063466 0.951213809 3.79312458 1.49047144"></polygon>
                    <g id="Rectangle" stroke-width="1" fill="none" fill-rule="evenodd" transform="translate(1.709998, 4.120630)">
                        <mask id="mask-10" fill="white">
                            <use xlink:href="#path-9"></use>
                        </mask>
                        <use id="Mask" fill="#B91832" xlink:href="#path-9"></use>
                        <rect fill="#AB152D" mask="url(#mask-10)" x="1.59407477" y="0" width="1.59407477" height="2.01649276"></rect>
                        <rect id="Rectangle-Copy" fill="#FFB303" mask="url(#mask-10)" x="0" y="2.01649276" width="1.59407477" height="2.01649276"></rect>
                    </g>
                    <path d="M5.01770298,4.00107425 L1.59044221,4.00107425 L1.59044221,6.37796443 C1.59044221,7.20214864 2.15786252,7.81718786 3.26330151,8.21820568 L3.34484368,8.21820568 C4.45028268,7.81718786 5.01770298,7.20214864 5.01770298,6.37796443 L5.01770298,4.00107425 Z M4.77859176,4.24018546 L4.77859176,6.37796443 L4.77669516,6.45322686 C4.74380905,7.09981033 4.28295091,7.59848132 3.37058015,7.95314414 L3.3040726,7.97789229 L3.23756504,7.95314414 C2.2901031,7.58484044 1.82955343,7.061238 1.82955343,6.37796443 L1.82955343,4.24018546 L4.77859176,4.24018546 Z" id="BG-White" fill="#FFB303" fill-rule="nonzero"></path>
                    <circle id="Oval" fill="#D42440" fill-rule="evenodd" cx="3.30884105" cy="8.60517618" r="1"></circle>
                    <path d="M3.30884105,7.70757615 C3.80457186,7.70757615 4.20644107,8.10944537 4.20644107,8.60517618 C4.20644107,9.10090698 3.80457186,9.5027762 3.30884105,9.5027762 C2.81311025,9.5027762 2.41124103,9.10090698 2.41124103,8.60517618 C2.41124103,8.10944537 2.81311025,7.70757615 3.30884105,7.70757615 Z M3.30884105,7.80136651 C2.86490923,7.80136651 2.50503139,8.16124436 2.50503139,8.60517618 C2.50503139,9.049108 2.86490923,9.40898584 3.30884105,9.40898584 C3.75277287,9.40898584 4.11265071,9.049108 4.11265071,8.60517618 C4.11265071,8.16124436 3.75277287,7.80136651 3.30884105,7.80136651 Z" id="Oval" fill="#FFB303" fill-rule="nonzero"></path>
                    <path d="M3.30884105,2.40736197 C4.25261943,2.40736197 5.01770298,2.76453581 5.01770298,3.20513208 C5.01770298,3.40618849 4.85838563,3.5898734 4.59547168,3.730174 C4.3722562,3.50180814 3.88015828,3.3434652 3.30884105,3.3434652 C2.73752382,3.3434652 2.24542591,3.50180814 2.02292514,3.72961746 C1.75929647,3.5898734 1.59997912,3.40618849 1.59997912,3.20513208 C1.59997912,2.76453581 2.36506267,2.40736197 3.30884105,2.40736197 Z" id="Combined-Shape" fill="#AB152D" fill-rule="evenodd"></path>
                    <path d="M3.30884105,2.40736197 C3.43467817,2.40736197 3.55733849,2.41371173 3.67543205,2.42576235 L3.74572906,2.43367163 C3.83869808,2.44511564 3.92856645,2.46012515 4.01462252,2.47836792 L4.07843866,2.49265104 C4.63563726,2.62408199 5.01770298,2.89377738 5.01770298,3.20513208 C5.01770298,3.40624296 4.8582993,3.58997293 4.59525797,3.73028802 C4.37305283,3.50206459 3.88062075,3.3434652 3.30884105,3.3434652 C2.73706136,3.3434652 2.24462927,3.50206459 2.02238534,3.73017082 C1.75938281,3.58997293 1.59997912,3.40624296 1.59997912,3.20513208 C1.59997912,2.89377738 1.98204484,2.62408199 2.53924345,2.49265104 L2.60305958,2.47836792 C2.68911565,2.46012515 2.77898403,2.44511564 2.87195304,2.43367163 L2.94225005,2.42576235 C3.06034361,2.41371173 3.18300393,2.40736197 3.30884105,2.40736197 Z M3.30884105,2.50115233 C2.41066745,2.50115233 1.69376949,2.83583108 1.69376949,3.20513208 C1.69376949,3.34276591 1.79610894,3.48272988 1.98966656,3.60318986 L2.00880467,3.6147743 L2.01250363,3.6116216 C2.27153827,3.39372197 2.74320491,3.25682391 3.26735469,3.24994675 L3.30884105,3.24967484 C3.8345507,3.24967484 4.31212711,3.38043574 4.5825107,3.59329471 L4.60876727,3.61486809 L4.62797317,3.603282 C4.81351075,3.48775526 4.91522625,3.35439243 4.92338042,3.22234643 L4.92391262,3.20513208 C4.92391262,3.01788087 4.739604,2.83953075 4.44080857,2.70919603 L4.38996124,2.68792487 L4.33706561,2.66758313 C4.05860386,2.56495441 3.70100135,2.50115233 3.30884105,2.50115233 Z" id="Combined-Shape" fill="#FFB303" fill-rule="nonzero"></path>
                </g>
            </g>
        </g>
    </g>
</svg>