<svg height="52" viewBox="0 0 48 52" width="48" xmlns="http://www.w3.org/2000/svg" xmlns:xlink="http://www.w3.org/1999/xlink"><defs><path id="a" d="m10.2202858 49.9349257c.0787516-8.3259693.1181274-13.7657189.1181274-16.3192491 0-2.5535301-.1615852-6.6616729-.48475555-12.3244284l-1.62950095 3.824804c-1.21290389.2097607-2.80567507-.165146-4.77831355-1.1247201-1.91932393-.9336397-3.05856368-1.9127507-3.41771927-2.9373331l-.02812388-.0854872 4.72526396-11.80843482c.80828466-2.15399283 1.9352765-3.54601538 3.38097549-4.17606763l8.27726135-3.62110356 1.3174386-1.36290579c2.3533278.52153794 4.4532066.78286536 6.2996364.78398228 1.837436.00111148 3.9369309-.26021595 6.2984848-.78398228l1.3148686 1.36290579 8.1619141 3.57168801c1.502465.60477993 2.6687625 2.01327432 3.4988927 4.22548318l4.725264 11.80843482c-.3245903 1.0556395-1.4732047 2.0632462-3.4458431 3.0228203-1.9726385.9595741-3.5654097 1.3344808-4.7783136 1.1247201l-1.6295009-3.824804c-.3231704 5.4663301-.4847556 9.5744729-.4847556 12.3244284s.0397398 8.1897052.1192195 16.3192491c-.5352074.4644293-7.1577338 1.0650743-13.7802603 1.0650743-6.6225264 0-13.2450528-.600645-13.7802602-1.0650743z"/><path id="b" d="m3.38381201 0c1.53791411 0 2.05175548.20401059 3.07556917.59479143.42628222 1.56719975.38360858 2.92452459-.12802093 4.07197452-.53031998 1.18936771-1.5157117 2.13499977-2.95617517 2.83689616-1.44071024-.70189639-2.42622535-1.64752845-2.95654533-2.83689616-.51162951-1.14744993-.55430315-2.50477477-.12802093-4.07197452 1.02381369-.39078084 1.55527908-.59479143 3.09319319-.59479143z"/><mask id="c" fill="#fff"><use fill="#fff" fill-rule="evenodd" xlink:href="#a"/></mask><mask id="d" fill="#fff"><use fill="#fff" fill-rule="evenodd" xlink:href="#b"/></mask></defs><g fill="none" fill-rule="evenodd" transform="translate(0 .5)"><use fill="#fe0" xlink:href="#a"/><g mask="url(#c)"><path d="m.68043146 47.325.06072619-29.7087518-.74115765-8.79692447c1.46206754-3.57936931 2.60697111-5.65983863 3.43471069-6.24140797.14618024-.10270614 2.04834536-.9620114 5.70649536-2.57791576 1.59510835 1.61239603 3.01044865 2.41776666 5.74602095 2.41611189h.007955c2.7355723.00165477 4.1509126-.80371586 5.746021-2.41611189 3.3170627 1.37625668 5.2192278 2.23556194 5.7064953 2.57791576.8277396.58156934 1.9726432 2.66203866 3.4347107 6.24140797l-.7411577 8.79692447.0481959 29.7087518z" fill="#fff300" fill-rule="evenodd" transform="translate(9.108796 6.675)"/></g><g fill="#35395f" mask="url(#c)"><path d="m-.19878404 2.19351609h11.07870194v.53869629h-11.07870194zm0 .83869629h11.07870194v.53869629h-11.07870194z" transform="matrix(.91354546 -.40673664 .40673664 .91354546 6.810451 3.021385)"/><path d="m22.0494638 2.19958379h11.108538v.53869629h-11.108538zm0 .83869629h11.108538v.53869629h-11.108538z" transform="matrix(-.91354546 -.40673664 -.40673664 .91354546 61.516803 12.077155)"/></g><g fill="#fe0" mask="url(#c)"><path d="m4.99752786 3.27877745 5.47526394 12.78319085c-.3245903 1.0556394-2.22320465 2.5884902-4.19584313 3.5480643-1.97263848.959574-3.56540966 1.3344807-4.77831355 1.1247201l-1.49863512-4.2689067.10079737-1.521817.10522808-1.4634054.07261357-.9431528.11261262-1.3660528.07753659-.8782511.0795058-.85229028.08147501-.82632963.12590479-1.19081815.1303355-1.13240658.08935185-.72248685.09132105-.69652616.09329027-.67056546.09525947-.64460477.09722868-.61864407.0991979-.59268337.1011671-.56672268.10313631-.54076198c.01735349-.08796361.03478902-.17484552.05230661-.26064573l.10609012-.50182094.10805934-.47586025c1.2999075.68642892 2.3248165 1.27932537 3.07510983 3.27877745z" transform="translate(38.277208 5.1313)"/><path d="m4.99752786 3.27877745 5.47526394 12.78319085c-.3245903 1.0556394-2.22320465 2.5884902-4.19584313 3.5480643-1.97263848.959574-3.56540966 1.3344807-4.77831355 1.1247201l-1.49863512-4.2689067.10079737-1.521817.10522808-1.4634054.07261357-.9431528.11261262-1.3660528.07753659-.8782511.0795058-.85229028.08147501-.82632963.12590479-1.19081815.1303355-1.13240658.08935185-.72248685.09132105-.69652616.09329027-.67056546.09525947-.64460477.09722868-.61864407.0991979-.59268337.1011671-.56672268.10313631-.54076198c.01735349-.08796361.03478902-.17484552.05230661-.26064573l.10609012-.50182094.10805934-.47586025c1.2999075.68642892 2.3248165 1.27932537 3.07510983 3.27877745z" transform="matrix(-1 0 0 1 9.722792 5.1313)"/></g><g mask="url(#c)"><g transform="translate(-.980474 17.83564)"><path d="m1.28763524 0c1.78098825 2.35156486 4.8648576 3.99309535 9.25160806 4.92459144-.0039382.17845586-.4781667 1.36124562-1.42268579 3.54836929-2.8799057-.1480796-4.7562294-.36024243-5.6289711-.63648849-1.30911255-.41436909-3.06216812-1.0779847-3.42113495-1.99493275-.23931122-.6112987.16775004-2.55847853 1.22118378-5.84153949z" fill="#35395f"/><path d="m1.02005711.9262085c1.78098826 2.35156486 4.8648576 3.99309534 9.25160809 4.92459144-.0039382.17845586-.47816677 1.36124562-1.42268582 3.54836928-2.8799057-.14807959-4.7562294-.36024242-5.6289711-.63648848-1.30911255-.4143691-3.06216812-1.0779847-3.42113495-1.99493275-.23931121-.6112987.16775004-2.55847853 1.22118378-5.84153949z" fill="#0057ae"/><path d="m.54048863 1.82421875c1.78098825 2.35156486 4.8648576 3.99309535 9.25160804 4.92459144-.00393814.17845586-.47816673 1.36124562-1.42268577 3.54836931-2.8799057-.1480796-4.7562294-.36024245-5.6289711-.63648851-1.30911255-.41436909-3.06216812-1.0779847-3.42113495-1.99493275-.23931122-.6112987.16775004-2.55847853 1.22118378-5.84153949z" fill="#35395f"/><g transform="matrix(-1 0 0 1 49.655943 0)"><path d="m1.28763524 0c1.78098825 2.35156486 4.8648576 3.99309535 9.25160806 4.92459144-.0039382.17845586-.4781667 1.36124562-1.42268579 3.54836929-2.8799057-.1480796-4.7562294-.36024243-5.6289711-.63648849-1.30911255-.41436909-3.06216812-1.0779847-3.42113495-1.99493275-.23931122-.6112987.16775004-2.55847853 1.22118378-5.84153949z" fill="#35395f"/><path d="m1.02005711.9262085c1.78098826 2.35156486 4.8648576 3.99309534 9.25160809 4.92459144-.0039382.17845586-.47816677 1.36124562-1.42268582 3.54836928-2.8799057-.14807959-4.7562294-.36024242-5.6289711-.63648848-1.30911255-.4143691-3.06216812-1.0779847-3.42113495-1.99493275-.23931121-.6112987.16775004-2.55847853 1.22118378-5.84153949z" fill="#0057ae"/><path d="m.54048863 1.82421875c1.78098825 2.35156486 4.8648576 3.99309535 9.25160804 4.92459144-.00393814.17845586-.47816673 1.36124562-1.42268577 3.54836931-2.8799057-.1480796-4.7562294-.36024245-5.6289711-.63648851-1.30911255-.41436909-3.06216812-1.0779847-3.42113495-1.99493275-.23931122-.6112987.16775004-2.55847853 1.22118378-5.84153949z" fill="#35395f"/></g></g></g><g fill="#000" fill-opacity=".2" fill-rule="nonzero" mask="url(#c)"><g transform="translate(7.564771 4.804976)"><path d="m30.4841488.07197842.2912372-.07197842.1092971.4591087.1073215.48486192c.0177224.08295654.0353624.16698623.0529202.25208909l.1043594.52349576.1023856.54925432c.0168998.09368905.0337174.18845146.0504528.28428728l.099426.58789613.0974539.61366001.0954824.63942601.0935116.66519414.0915414.69096441.1336198 1.0847705.0866191.75539938.0846514.78117709.0826844.80695693.1203399 1.25877723.0777697.8714159.1129711 1.3554756.0728594.9358881.1056087 1.4521939.1339453 2.0265452.0640315 1.0519716-.2994755.0177321-.0625778-1.0286827-.0973787-1.4966371-.1363907-1.9089167-.1072045-1.3667292-.1114119-1.3110431-.1156173-1.25535035-.0794133-.80595643-.1226213-1.16251397-.0840806-.74405927-.1296193-1.06965883-.088744-.68214959-.0906082-.65738223-.0924717-.63261284-.0943347-.60784148-.096197-.58306809-.0980586-.55829272-.0999196-.53351534-.10178-.50873596-.1036397-.48395458-.1054987-.45917119z" transform="matrix(-1 0 0 1 63.338786 0)"/><path d="m.2912372 0 .05489555.22633533.10830924.47198504.106334.49773934.10435944.52349576.10238557.54925432.10041238.57501499.09843988.6007778.14396285.94947664.13952854 1.00745493.09055667.70385033.08858757.72962379.12919079 1.14276558.12476417 1.20076782.08071801.83273893.07875233.858523.11444433 1.3361343.11002538 1.3941606.07089642.9616807.10266559 1.4908868.09825278 1.5489323.0317707.5292109-.2994755.0177321-.09456916-1.5337469-.0987831-1.4780811-.10299488-1.4224085-.1072045-1.3667292-.11141195-1.3110431-.11561723-1.25535035-.07941336-.80595643-.08128077-.78119907-.08314754-.7564397-.12822011-1.08823136-.08781166-.69453253-.08967618-.66976616-.09154007-.64499779-.09340331-.62022741-.09526591-.59545503-.09712787-.57068066-.09898919-.54590428-.10084987-.5211259-.1027099-.49634552-.10456929-.47156314c-.01758313-.07652854-.0352437-.1520244-.05298171-.22648754l-.05344633-.22029121z"/></g></g><g mask="url(#c)"><g transform="matrix(-1 0 0 1 31.77779 -4.475724)"><path d="m.97756624 5.97572384h13.49999996c-2.5639089 3.2232666-4.81390886 4.83489986-6.74999996 4.83489986-1.93609111 0-4.18609111-1.61163326-6.75-4.83489986z" fill="#8d8600" fill-rule="evenodd"/><g fill-rule="nonzero"><path d="m15.4303555 4.35674159v1.5c-2.5675964.72019064-5.1351928 1.08028596-7.70278926 1.08028596-2.56759644 0-5.13519287-.36009532-7.70278931-1.08028596v-1.5z" fill="#191c36"/><path d="m7.67767777 0c4.24026433 0 7.67767773 2.35050506 7.67767773 5.25 0 1.3144377-1.183386 2.77545777-3.5501582 4.3830602l-.4299499.28521616c-.0737057.04778963-.1484351.09570604-.2241882.14374934l-.4668028.289781c-.0798479.0485504-.1607194.0972276-.2426146.1460317l-.50365569.2943458c-.17197998.0986225-.34805473.1977522-.52822423.2973891l-.5527928.3004324c-.09417952.0503256-.18938272.1007781-.28560962.1513573l-.58964565.3049972c-.10032165.0510865-.201667.1022997-.30403604.1536398l-.60192994-.3065188c-.19654855-.1016657-.38900234-.2028242-.57736136-.3034755l-.5527928-.3004324c-.18016951-.0996369-.35624425-.1987666-.52822423-.2973891l-.50365567-.2943458-.47908709-.2913026c-.15560094-.0965937-.30710711-.1926802-.45451852-.28825944l-.42994996-.28521616c-2.36677213-1.60760243-3.5501582-3.0686225-3.5501582-4.3830602 0-2.89949494 3.43741342-5.25 7.67767777-5.25zm0 1.5c-3.50623917 0-6.17767777 1.82673109-6.17767777 3.75 0 .62627864.68519876 1.50802077 2.08143654 2.56368277l.33484247.24666453c.05791467.04161294.1168841.08347388.17690979.12557818l.37284077.25550898c.06425654.04305917.12957226.08635243.19594863.12987513l.41099786.26385237.43652413.26913625c.07488513.045284.15083679.09077887.22785646.13647999l.47494585.27664454.50064854.28137168.52642179.28587618.4384041.2300794.43834514-.2301539.52668051-.28602157c.08562813-.04730068.17018127-.09441349.25366089-.14133375l.48800724-.27917403c.15838284-.0922631.31248338-.18371888.4623134-.27433019l.43669029-.2692633.4111377-.26397337c.0663975-.04354234.1317333-.08685498.1960088-.12993326l.3729416-.25562028.3475658-.24977275.3222607-.24370218.2970263-.23740856c1.0429197-.85868719 1.5783706-1.58595523 1.6220317-2.13232623l.0029085-.07173663c0-1.92326891-2.6714386-3.75-6.17767773-3.75z" fill="#35395f" transform="translate(.049888 .075)"/><path d="m7.75267777 0c-4.2769656 0-7.75267777 2.37669376-7.75267777 5.325 0 1.53903422 1.56696561 3.25525418 4.69729043 5.1600405l.49392214.2945333c.33750357.1973494.6914508.3966885 1.06183778.5980297l.5679098.3035148.59256652.306527c.10081565.0513393.20265854.1028046.30552861.1543959l.61264471-.3080365.58736972-.3050198c.47894988-.2529286.93159551-.5027243 1.35799649-.7494111l.4990877-.2945333c3.162236-1.90478632 4.7292016-3.62100628 4.7292016-5.1600405 0-2.94830624-3.4757121-5.325-7.75267773-5.325zm0 .15c4.20356313 0 7.60267773 2.32431636 7.60267773 5.175 0 1.17358092-.9774908 2.47892434-2.9342837 3.91031469l-.3909631.2786157c-.0671988.04669776-.1354167.09352631-.2046539.14048544l-.4276542.28332028-.4521186.28644519-.4765859.2895608-.50105606.2926672c-.08554869.0490363-.1721171.0982016-.25970528.1474957l-.53776686.2973097c-.18333504.0996176-.37074967.1997492-.56224437.3003931l-.58672478.3034673c-.09982767.0508336-.20067547.1017949-.30254347.1528837-.20514918-.1042629-.40616134-.2079946-.6030324-.3111936l-.57818586-.3079972c-.09429241-.051066-.18754854-.1019983-.27976787-.1527969l-.54087042-.3031843-.51596304-.2999634-.49103133-.2967328c-.47855736-.2951142-.91968065-.58536781-1.32326036-.87071677l-.39106113-.28371245c-1.89269245-1.41037149-2.84588287-2.69775988-2.84588287-3.85666138 0-2.85068364 3.39911468-5.175 7.60267777-5.175z" fill="#2e3256"/></g><ellipse cx="6.491382" cy="1.262108" fill="#fff300" fill-rule="evenodd" rx="6.491382" ry="1.262108" transform="translate(1.236185 10.526459)"/><path d="m10.6233704 12.1420412c.1167806 0 .7254231.3580944 1.8259277 1.0742832-.683431 1.1144206-1.15861 1.6716309-1.4255371 1.6716309s-2.10538738 0-5.51538087 0l-1.88842774-1.1455078c-.23461914-1.0222434-.0986735-1.5557121.40783692-1.6004063.50651041-.0446941 2.45910644-.1625189 5.85778808-.3534744.37508141.2356496.62101241.3534744.73779301.3534744z" fill="#fff300" fill-rule="evenodd"/></g></g><g mask="url(#c)"><g transform="translate(28.5 9)"><g fill-rule="evenodd"><use fill="#009ccb" xlink:href="#b"/><path d="m2.579224-1h1.591553v10.751476h-1.591553z" fill="#fff300" mask="url(#d)"/><path d="m2.579224-2.046753h1.591553v10.751476h-1.591553z" fill="#fff300" mask="url(#d)" transform="matrix(0 1 -1 0 6.703985 -.046015)"/></g><path d="m3.38381201-.375c-.90577347 0-1.50820117.06704471-2.10281993.22966519l-.27952222.08326747-.33905161.11649454-.68361903.25799496-.05003333.18394437c-.44762759 1.64567466-.40220133 3.09055212.14737776 4.32311293.56844342 1.27486854 1.61881655 2.28273386 3.13480065 3.02130275l.16425485.08002296.16424946-.08003404c1.51572974-.73857148 2.56596971-1.74643522 3.13440774-3.02129167.54957909-1.23256081.59500535-2.67743827.14737776-4.32311293l-.05003333-.18394437-.7897797-.29689646-.31939305-.10610738c-.65427977-.20272732-1.27801653-.28441832-2.27821602-.28441832zm0 .75c.8363063 0 1.36544889.05834884 1.88354535.20035031l.24607497.0735563.1757546.058885.34831393.12784934.10549914.04035905-.04547175-.18278368c.40493686 1.48872485.36501583 2.75849706-.10866411 3.82083611l-.10415643.21783676c-.47613508.93122645-1.27481907 1.69696411-2.4066706 2.2987099l-.10303711.05140091.16442587.08454201c-1.36543639-.6652239-2.28609348-1.54862269-2.77829001-2.65248958l-.08894925-.215237c-.36035661-.94470826-.39435631-2.04579872-.09477409-3.31077009l.02858748-.11304534.38913883-.14320614.20850943-.0710361.10031375-.03169689c.58588009-.18092242 1.14425289-.25406087 2.07985-.25406087z" fill="#009ccb" fill-rule="nonzero" mask="url(#d)"/></g></g></g></svg>