<svg xmlns="http://www.w3.org/2000/svg" xmlns:xlink="http://www.w3.org/1999/xlink" width="48" height="52" viewBox="0 0 48 52"><defs><path id="a" d="M10.2202858,49.9349257 C10.2990374,41.6089564 10.3384132,36.1692068 10.3384132,33.6156766 C10.3384132,31.0621465 10.176828,26.9540037 9.85365765,21.2912482 L8.2241567,25.1160522 C7.01125281,25.3258129 5.41848163,24.9509062 3.44584315,23.9913321 C1.52651922,23.0576924 0.387279465,22.0785814 0.0281238815,21.053999 L0,20.9685118 L4.72526396,9.16007698 C5.53354862,7.00608415 6.66054046,5.6140616 8.10623945,4.98400935 L16.3835008,1.36290579 L17.7009394,0 C20.0542672,0.521537936 22.154146,0.782865363 24.0005758,0.783982281 C25.8380118,0.785093757 27.9375067,0.523766331 30.2990606,0 L31.6139292,1.36290579 L39.7758433,4.9345938 C41.2783083,5.53937373 42.4446058,6.94786812 43.274736,9.16007698 L48,20.9685118 C47.6754097,22.0241513 46.5267953,23.031758 44.5541569,23.9913321 C42.5815184,24.9509062 40.9887472,25.3258129 39.7758433,25.1160522 L38.1463424,21.2912482 C37.823172,26.7575783 37.6615868,30.8657211 37.6615868,33.6156766 C37.6615868,36.3656321 37.7013266,41.8053818 37.7808063,49.9349257 C37.2455989,50.399355 30.6230725,51 24.000546,51 C17.3780196,51 10.7554932,50.399355 10.2202858,49.9349257 Z"/><path id="c" d="M7.77778931,0.0732238393 C12.0180537,0.0732238393 15.4554671,2.4237289 15.4554671,5.32322384 C15.4554671,8.22271878 12.0180537,10.5732238 7.77778931,10.5732238 C3.53752496,10.5732238 0.100111535,8.22271878 0.100111535,5.32322384 C0.100111535,2.4237289 3.53752496,0.0732238393 7.77778931,0.0732238393 Z M7.77778931,1.57322384 C4.27155013,1.57322384 1.60011153,3.39995492 1.60011153,5.32322384 C1.60011153,7.24649275 4.27155013,9.07322384 7.77778931,9.07322384 C11.2840285,9.07322384 13.9554671,7.24649275 13.9554671,5.32322384 C13.9554671,3.39995492 11.2840285,1.57322384 7.77778931,1.57322384 Z"/></defs><g fill="none" fill-rule="evenodd" transform="translate(0 .5)"><mask id="b" fill="#fff"><use xlink:href="#a"/></mask><use xlink:href="#a" fill="#FFF"/><g fill="#000" fill-opacity=".2" fill-rule="nonzero" mask="url(#b)"><g transform="translate(7.565 4.805)"><path d="M30.4841488,0.0719784231 L30.775386,0 L30.8846831,0.459108697 L30.9920046,0.943970623 C31.009727,1.02692716 31.027367,1.11095685 31.0449248,1.19605971 L31.1492842,1.71955547 L31.2516698,2.26880979 C31.2685696,2.36249884 31.2853872,2.45726125 31.3021226,2.55309707 L31.4015486,3.1409932 L31.4990025,3.75465321 L31.5944849,4.39407922 L31.6879965,5.05927336 L31.7795379,5.75023777 L31.9131577,6.83500827 L31.9997768,7.59040765 L32.0844282,8.37158474 L32.1671126,9.17854167 L32.2874525,10.4373189 L32.3652222,11.3087348 L32.4781933,12.6642104 L32.5510527,13.6000985 L32.6566614,15.0522924 L32.7906067,17.0788376 L32.8546382,18.1308092 L32.5551627,18.1485413 L32.4925849,17.1198586 L32.3952062,15.6232215 L32.2588155,13.7143048 L32.151611,12.3475756 L32.0401991,11.0365325 L31.9245818,9.78118215 L31.8451685,8.97522572 L31.7225472,7.81271175 L31.6384666,7.06865248 L31.5088473,5.99899365 L31.4201033,5.31684406 L31.3294951,4.65946183 L31.2370234,4.02684899 L31.1426887,3.41900751 L31.0464917,2.83593942 L30.9484331,2.2776467 L30.8485135,1.74413136 L30.7467335,1.2353954 L30.6430938,0.751440821 L30.5375951,0.292269626 L30.4841488,0.0719784231 Z" transform="matrix(-1 0 0 1 63.339 0)"/><path d="M0.2912372,0 L0.346132747,0.226335328 L0.454441985,0.698320373 L0.560775986,1.19605971 L0.665135431,1.71955547 L0.767521003,2.26880979 L0.867933384,2.84382478 L0.966373258,3.44460258 L1.11033611,4.39407922 L1.24986465,5.40153415 L1.34042132,6.10538448 L1.42900889,6.83500827 L1.55819968,7.97777385 L1.68296385,9.17854167 L1.76368186,10.0112806 L1.84243419,10.8698036 L1.95687852,12.2059379 L2.0669039,13.6000985 L2.13780032,14.5617792 L2.24046591,16.052666 L2.33871869,17.6015983 L2.37048939,18.1308092 L2.07101389,18.1485413 L1.97644473,16.6147944 L1.87766163,15.1367133 L1.77466675,13.7143048 L1.66746225,12.3475756 L1.5560503,11.0365325 L1.44043307,9.78118215 L1.36101971,8.97522572 L1.27973894,8.19402665 L1.1965914,7.43758695 L1.06837129,6.34935559 L0.980559634,5.65482306 L0.890883448,4.9850569 L0.799343379,4.34005911 L0.705940068,3.7198317 L0.610674156,3.12437667 L0.513546285,2.55369601 L0.414557097,2.00779173 L0.313707232,1.48666583 L0.210997334,0.990320312 L0.106428043,0.518757175 C0.0888449136,0.442228629 0.0711843367,0.366732765 0.0534463251,0.292269626 L0,0.0719784231 L0.2912372,0 Z"/></g></g><g mask="url(#b)"><g transform="translate(16.247 -4.476)"><path fill="#B7B7B7" d="M1.00267777,5.97572384 L14.5026778,5.97572384 C13.5275801,8.69899044 11.2775801,10.0606237 7.75267777,10.0606237 C4.22777543,10.0606237 1.97777543,8.69899044 1.00267777,5.97572384 Z"/><path fill="#C6C6C6" d="M0.0498884653,4.35674159 L15.4554671,4.35674159 L15.4554671,5.85674159 C12.8878706,6.57693223 10.3202742,6.93702755 7.75267777,6.93702755 C5.18508134,6.93702755 2.6174849,6.57693223 0.0498884653,5.85674159 L0.0498884653,4.35674159 Z"/><path fill="#FAFAFA" fill-rule="nonzero" d="M7.75267777,0.075 C11.9929421,0.075 15.4303555,2.42550506 15.4303555,5.325 C15.4303555,8.22449494 11.9929421,10.575 7.75267777,10.575 C3.51241342,10.575 0.075,8.22449494 0.075,5.325 C0.075,2.42550506 3.51241342,0.075 7.75267777,0.075 Z M7.75267777,1.575 C4.2464386,1.575 1.575,3.40173109 1.575,5.325 C1.575,7.24826891 4.2464386,9.075 7.75267777,9.075 C11.2589169,9.075 13.9303555,7.24826891 13.9303555,5.325 C13.9303555,3.40173109 11.2589169,1.575 7.75267777,1.575 Z"/><path fill="#C6C6C6" fill-rule="nonzero" d="M7.75267777,0 C3.47571217,0 0,2.37669376 0,5.325 C0,8.27330624 3.47571217,10.65 7.75267777,10.65 C12.0296434,10.65 15.5053555,8.27330624 15.5053555,5.325 C15.5053555,2.37669376 12.0296434,0 7.75267777,0 Z M7.75267777,0.15 C11.9562409,0.15 15.3553555,2.47431636 15.3553555,5.325 C15.3553555,8.17568364 11.9562409,10.5 7.75267777,10.5 C3.54911468,10.5 0.15,8.17568364 0.15,5.325 C0.15,2.47431636 3.54911468,0.15 7.75267777,0.15 Z"/></g></g><g mask="url(#b)"><g transform="translate(-1.01 19.644)"><path fill="#191B39" d="M40.1989322,2.0833252 C41.9007703,2.67692049 43.5627624,2.97371813 45.1849084,2.97371813 C46.8070544,2.97371813 48.3893543,2.67692049 49.9318081,2.0833252 L49.8274781,4.82979877 L40.0946021,4.82979877 L40.1989322,2.0833252 Z" transform="rotate(-27 45.013 3.457)"/><path d="M48.8457618,0.551052075 L49.123164,0.803387207 C46.6152434,3.56044561 44.1615163,4.66580814 40.5603846,5.15591145 L40.2396294,5.19758553 L40.1935059,4.82543285 C43.7837344,4.38046988 46.1911903,3.3744353 48.6304221,0.783777879 L48.8457618,0.551052075 Z"/><path fill="#191B39" d="M0.191670888,2.0833252 C1.89350907,2.67692049 3.55550115,2.97371813 5.17764715,2.97371813 C6.79979315,2.97371813 8.38209305,2.67692049 9.92454687,2.0833252 L9.8202168,4.82979877 L0.0873408151,4.82979877 L0.191670888,2.0833252 Z" transform="scale(-1 1) rotate(-27 0 24.308)"/><path d="M9.61365713,0.551052075 L9.89105933,0.803387207 C7.3831387,3.56044561 4.92941154,4.66580814 1.3282799,5.15591145 L1.00752473,5.19758553 L0.961401158,4.82543285 C4.55162973,4.38046988 6.95908556,3.3744353 9.39831742,0.783777879 L9.61365713,0.551052075 Z" transform="matrix(-1 0 0 1 10.852 0)"/></g></g><g mask="url(#b)"><g transform="translate(16.247 -4.476)"><path fill="#9A9A9A" d="M1.00267777,5.97394768 L14.5026778,5.97394768 C13.5275801,8.69721428 11.2775801,10.0588476 7.75267777,10.0588476 C4.22777543,10.0588476 1.97777543,8.69721428 1.00267777,5.97394768 Z"/><path fill="#E1E1E1" fill-rule="nonzero" d="M15.4554671,2.10496543 L15.4554671,5.85496543 C12.8878706,6.57515607 10.3202742,6.93525139 7.75267777,6.93525139 C5.18508134,6.93525139 2.6174849,6.57515607 0.0498884653,5.85496543 L0.0498884653,2.10496543 L15.4554671,2.10496543 Z M13.7298885,3.82922384 L1.77488847,3.82922384 L1.77488847,4.51547384 L2.06894785,4.5831502 C3.79381898,4.96347644 5.51585257,5.17056587 7.23651779,5.2050753 L7.75267777,5.21025139 C9.64512463,5.21025139 11.5390494,5.00150906 13.4364077,4.5831502 L13.7298885,4.51547384 L13.7298885,3.82922384 Z"/><mask id="d" fill="#fff"><use xlink:href="#c"/></mask><use xlink:href="#c" fill="#FFF" fill-rule="nonzero"/><path d="M7.77778931,0.597010608 C11.7360488,0.597010608 14.8943615,2.75666642 14.8943615,5.32322384 C14.8943615,7.88978126 11.7360488,10.0494371 7.77778931,10.0494371 C3.8195298,10.0494371 0.661217157,7.88978126 0.661217157,5.32322384 C0.661217157,2.75666642 3.8195298,0.597010608 7.77778931,0.597010608 Z M7.77778931,1.0400931 C4.03635227,1.0400931 1.10429965,3.04503219 1.10429965,5.32322384 C1.10429965,7.60141549 4.03635227,9.60635458 7.77778931,9.60635458 C11.5192263,9.60635458 14.451279,7.60141549 14.451279,5.32322384 C14.451279,3.04503219 11.5192263,1.0400931 7.77778931,1.0400931 Z" mask="url(#d)"/><path fill="#E1E1E1" fill-rule="nonzero" d="M7.75267777,0 C3.47571217,0 0,2.37669376 0,5.325 C0,8.27330624 3.47571217,10.65 7.75267777,10.65 C12.0296434,10.65 15.5053555,8.27330624 15.5053555,5.325 C15.5053555,2.37669376 12.0296434,0 7.75267777,0 Z M7.75267777,0.15 C11.9562409,0.15 15.3553555,2.47431636 15.3553555,5.325 C15.3553555,8.17568364 11.9562409,10.5 7.75267777,10.5 C3.54911468,10.5 0.15,8.17568364 0.15,5.325 C0.15,2.47431636 3.54911468,0.15 7.75267777,0.15 Z"/></g></g><g fill="#101F51" mask="url(#b)"><g transform="translate(27.75 9)"><circle cx="4.123" cy="6.513" r="1"/><polygon points="2.815 2.206 5.435 2.206 4.685 5.206 3.565 5.206"/></g></g></g></svg>