<svg height="52" viewBox="0 0 48 52" width="48" xmlns="http://www.w3.org/2000/svg" xmlns:xlink="http://www.w3.org/1999/xlink"><defs><path id="a" d="m10.2202858 49.9349257c.0787516-8.3259693.1181274-13.7657189.1181274-16.3192491 0-2.5535301-.1615852-6.6616729-.48475555-12.3244284l-1.62950095 3.824804c-1.21290389.2097607-2.80567507-.165146-4.77831355-1.1247201-1.91932393-.9336397-3.05856368-1.9127507-3.41771927-2.9373331l-.02812388-.0854872 4.72526396-11.80843482c.80828466-2.15399283 1.9352765-3.54601538 3.38097549-4.17606763l8.27726135-3.62110356 1.3174386-1.36290579c2.3533278.52153794 4.4532066.78286536 6.2996364.78398228 1.837436.00111148 3.9369309-.26021595 6.2984848-.78398228l1.3148686 1.36290579 8.1619141 3.57168801c1.502465.60477993 2.6687625 2.01327432 3.4988927 4.22548318l4.725264 11.80843482c-.3245903 1.0556395-1.4732047 2.0632462-3.4458431 3.0228203-1.9726385.9595741-3.5654097 1.3344808-4.7783136 1.1247201l-1.6295009-3.824804c-.3231704 5.4663301-.4847556 9.5744729-.4847556 12.3244284s.0397398 8.1897052.1192195 16.3192491c-.5352074.4644293-7.1577338 1.0650743-13.7802603 1.0650743-6.6225264 0-13.2450528-.600645-13.7802602-1.0650743z"/><mask id="b" fill="#fff"><use fill="#fff" fill-rule="evenodd" xlink:href="#a"/></mask></defs><g fill="none" fill-rule="evenodd" transform="translate(0 .5)"><use fill="#ffda00" xlink:href="#a"/><g fill="#ffda00" mask="url(#b)"><path d="m4.99752786 3.27877745 5.47526394 12.78319085c-.3245903 1.0556394-2.22320465 2.5884902-4.19584313 3.5480643-1.97263848.959574-3.56540966 1.3344807-4.77831355 1.1247201l-1.49863512-4.2689067.10079737-1.521817.10522808-1.4634054.07261357-.9431528.11261262-1.3660528.07753659-.8782511.0795058-.85229028.08147501-.82632963.12590479-1.19081815.1303355-1.13240658.08935185-.72248685.09132105-.69652616.09329027-.67056546.09525947-.64460477.09722868-.61864407.0991979-.59268337.1011671-.56672268.10313631-.54076198c.01735349-.08796361.03478902-.17484552.05230661-.26064573l.10609012-.50182094.10805934-.47586025c1.2999075.68642892 2.3248165 1.27932537 3.07510983 3.27877745z" transform="translate(38.277208 5.1313)"/><path d="m4.99752786 3.27877745 5.47526394 12.78319085c-.3245903 1.0556394-2.22320465 2.5884902-4.19584313 3.5480643-1.97263848.959574-3.56540966 1.3344807-4.77831355 1.1247201l-1.49863512-4.2689067.10079737-1.521817.10522808-1.4634054.07261357-.9431528.11261262-1.3660528.07753659-.8782511.0795058-.85229028.08147501-.82632963.12590479-1.19081815.1303355-1.13240658.08935185-.72248685.09132105-.69652616.09329027-.67056546.09525947-.64460477.09722868-.61864407.0991979-.59268337.1011671-.56672268.10313631-.54076198c.01735349-.08796361.03478902-.17484552.05230661-.26064573l.10609012-.50182094.10805934-.47586025c1.2999075.68642892 2.3248165 1.27932537 3.07510983 3.27877745z" transform="matrix(-1 0 0 1 9.722792 5.1313)"/></g><g mask="url(#b)"><g transform="translate(-1.330821 18.657417)"><path d="m1.28763524 0c1.78098825 2.35156486 4.8648576 3.99309535 9.25160806 4.92459144-.0039382.17845586-.4781667 1.36124562-1.42268579 3.54836929-2.8799057-.1480796-4.7562294-.36024243-5.6289711-.63648849-1.30911255-.41436909-3.06216812-1.0779847-3.42113495-1.99493275-.23931122-.6112987.16775004-2.55847853 1.22118378-5.84153949z" fill="#0078c9"/><path d="m1.0027689.63446045c1.78098826 2.35156486 4.86485761 3.99309534 9.251608 4.92459144-.0039381.17845586-.47816668 1.36124562-1.42268573 3.54836929-2.8799057-.1480796-4.7562294-.36024243-5.62897109-.63648849-1.30911255-.41436909-3.06216813-1.0779847-3.42113495-1.99493275-.23931122-.6112987.16775004-2.55847853 1.22118377-5.84153949z" fill="#ffda00"/><path d="m1.0027689 1.48937988c1.78098826 2.35156487 4.86485761 3.99309535 9.251608 4.92459145-.0039381.17845585-.47816668 1.36124562-1.42268573 3.54836928-2.8799057-.1480796-4.7562294-.36024242-5.62897109-.63648849-1.30911255-.41436909-3.06216813-1.07798469-3.42113495-1.99493274-.23931122-.6112987.16775004-2.55847853 1.22118377-5.8415395z" fill="#0078c9"/><g transform="matrix(-1 0 0 1 50.340391 0)"><path d="m1.28763524 0c1.78098825 2.35156486 4.8648576 3.99309535 9.25160806 4.92459144-.0039382.17845586-.4781667 1.36124562-1.42268579 3.54836929-2.8799057-.1480796-4.7562294-.36024243-5.6289711-.63648849-1.30911255-.41436909-3.06216812-1.0779847-3.42113495-1.99493275-.23931122-.6112987.16775004-2.55847853 1.22118378-5.84153949z" fill="#0078c9"/><path d="m1.0027689.63446045c1.78098826 2.35156486 4.86485761 3.99309534 9.251608 4.92459144-.0039381.17845586-.47816668 1.36124562-1.42268573 3.54836929-2.8799057-.1480796-4.7562294-.36024243-5.62897109-.63648849-1.30911255-.41436909-3.06216813-1.0779847-3.42113495-1.99493275-.23931122-.6112987.16775004-2.55847853 1.22118377-5.84153949z" fill="#ffda00"/><path d="m1.0027689 1.48937988c1.78098826 2.35156487 4.86485761 3.99309535 9.251608 4.92459145-.0039381.17845585-.47816668 1.36124562-1.42268573 3.54836928-2.8799057-.1480796-4.7562294-.36024242-5.62897109-.63648849-1.30911255-.41436909-3.06216813-1.07798469-3.42113495-1.99493274-.23931122-.6112987.16775004-2.55847853 1.22118377-5.8415395z" fill="#0078c9"/></g></g></g><g fill="#000" fill-opacity=".2" fill-rule="nonzero" mask="url(#b)"><g transform="translate(7.564771 4.804976)"><path d="m30.4841488.07197842.2912372-.07197842.1092971.4591087.1073215.48486192c.0177224.08295654.0353624.16698623.0529202.25208909l.1043594.52349576.1023856.54925432c.0168998.09368905.0337174.18845146.0504528.28428728l.099426.58789613.0974539.61366001.0954824.63942601.0935116.66519414.0915414.69096441.1336198 1.0847705.0866191.75539938.0846514.78117709.0826844.80695693.1203399 1.25877723.0777697.8714159.1129711 1.3554756.0728594.9358881.1056087 1.4521939.1339453 2.0265452.0640315 1.0519716-.2994755.0177321-.0625778-1.0286827-.0973787-1.4966371-.1363907-1.9089167-.1072045-1.3667292-.1114119-1.3110431-.1156173-1.25535035-.0794133-.80595643-.1226213-1.16251397-.0840806-.74405927-.1296193-1.06965883-.088744-.68214959-.0906082-.65738223-.0924717-.63261284-.0943347-.60784148-.096197-.58306809-.0980586-.55829272-.0999196-.53351534-.10178-.50873596-.1036397-.48395458-.1054987-.45917119z" transform="matrix(-1 0 0 1 63.338786 0)"/><path d="m.2912372 0 .05489555.22633533.10830924.47198504.106334.49773934.10435944.52349576.10238557.54925432.10041238.57501499.09843988.6007778.14396285.94947664.13952854 1.00745493.09055667.70385033.08858757.72962379.12919079 1.14276558.12476417 1.20076782.08071801.83273893.07875233.858523.11444433 1.3361343.11002538 1.3941606.07089642.9616807.10266559 1.4908868.09825278 1.5489323.0317707.5292109-.2994755.0177321-.09456916-1.5337469-.0987831-1.4780811-.10299488-1.4224085-.1072045-1.3667292-.11141195-1.3110431-.11561723-1.25535035-.07941336-.80595643-.08128077-.78119907-.08314754-.7564397-.12822011-1.08823136-.08781166-.69453253-.08967618-.66976616-.09154007-.64499779-.09340331-.62022741-.09526591-.59545503-.09712787-.57068066-.09898919-.54590428-.10084987-.5211259-.1027099-.49634552-.10456929-.47156314c-.01758313-.07652854-.0352437-.1520244-.05298171-.22648754l-.05344633-.22029121z"/></g></g><path d="m30.9258069 13.9531694.096645-.0007811.0411565-.0025066c.1923009-.0100853.3976673-.0001726.5924493.0454461l.0661072.0170445c.3213106.0909331.5035773.2682918.5169103.5665674l.0000766.0491965-.0055089.0302693c-.0218619.139797-.0222754.4254724.0242362.6451067.0925188.4368869.3482397.7225369.7961353.7410286l-.0184968-.0011434c.644559.1281014 1.0055704.2979197 1.0940088.4823909l.0370786.0773413 1.0187415-.0011963c.1146357-.0047347.2379677.0031825.3549689.0342341l.0574774.0175242c.1277711.044555.210956.1150855.2456575.2182624l.0080516.0316353.0009478.0165281.0040523.0193674.0148781.0449051c.0031979.0081497.0067302.0165733.0105601.0251822.0274322.061663.0675367.1279865.1181075.1899574l.0453717.0514671c.1098976.1152977.2479285.1963429.4124728.228278l.0601093.0089635.0142824.0354799c.0319698.0837425.0651988.1867149.0958032.3020677.0851036.3207688.1359806.6789635.13513 1.0568704l.0328837.1669541.0347463.1977236.0352638.2229313.0344361.2425769.0322636.2566607.0287459.2651825c.0221157.2229912.0391659.4490656.0476482.6637391.0449592 1.1378583-.146849 1.7698718-.5793263 1.7211812l-.3119047-.0351158.0698961.0946503-.0548389.0260196c-.2152082.1142743-.3295581.32262-.2779302.6193139.0855852.2238952-.1846148 1.0557419-.6535104 1.1606597l-.0928108.0207669-.0032895.0222891-.0765961.027288-.2257238.0721733-.4904349.1459283-.679554.1940165-.3152636.0884573-.0278978.0383672-.0330757.0434412c-.1745279.2180487-.3205986.2178278-.51314-.0039897l-.013937-.0167458-.0002643-.0037431c-.004581-.0224164-.0213913-.034367-.05221-.0562766l-.0419824-.0179246c-.0137717-.0050982-.0205952-.005604-.0379351-.0069341l-.0316803-.0005762c-.022186.0007735-.0464574.0038728-.0732954.0090605l-.1692755.0047541.032078.0404587-.0138657.0058793c-.1179544.0519641-.2556646.1381552-.4136058.2640456l-.3366591.2683413.0298117-.0023381-.0949073.0865888c-.0714218.0662034-.1403529.1333394-.2079677.2031514-.2531725.2613995-.4427626.5154552-.5474305.7606673-.2939912.6887521.1177441 1.1887493 1.3238163 1.3700548l.0682022.0102526.0039592-.0044224.0346705.0042585c.0710864.0096331.1548603.023869.2401482.0415286.2297417.0475703.432677.1114028.5710224.1873133l.0290451.0167102c.1850176.1119187.1958784.2350067-.0772026.4186149l-.0905523.0569475-.1082475.0608747c-.0195525.0104895-.0398697.021155-.0609654.0320027l-.1360254.0673209-.1553675.0719885-.0516426.0223116.0335052.0074992c-.1336026-.0334874-.3757732-.0682878-.6197339-.0686344l-.0910293.0014777c-.3591477.0124165-.6576783.1037356-.8603652.3041461l-.0464103.0459808-.0706402.0616587-.1139477.0943091c-.0205595.0165787-.0418084.0334994-.0636051.0506296-.2409609.1893737-.5045039.3707347-.7683995.5198798l-.0896118.0494059c-.6218183.334055-1.1278381.4195749-1.4516978.1922022l-.048827-.037808-.0080156-.0339015-.0279301-.0835098-.0113879-.0412881c-.0268463-.1124479-.0248018-.2454612.0233961-.4421167l.0157524-.0613961.0088251-.0151329c.0520142-.1082498.0837389-.3073472.0613363-.4724318l-.0104091-.0598993c-.0543506-.2546574-.2290792-.4443457-.5320342-.5229351l-.0675438-.0150989-.0044177-.0022395c-.022944-.0104519-.0496794-.0216989-.0784826-.0332438l-.1377551-.0522831-.2383977-.0824757c-.245887-.094497-.3844253-.1925047-.394314-.2705321-.0138127-.1089891.1859249-.2965213.6895669-.5343712l.0533725-.0371121.2589285-.2607178.1115415-.062556c.0204378-.0119247.0403428-.0237621.0597163-.0355095l.1098771-.069384c.6038942-.3981967.5605501-.6797213-.0653818-.7309875l-.1129976-.0065117c-.0791202-.0028091-.1658015-.0025261-.2599474.0010188l-.1468052.0077848c-.0253966.0017123-.0512566.0036337-.0775788.0057669l-.0544246.0162771-.0221791.0082012c-.1938436.0516635-1.1740474-.0171459-1.426943-.1957431l-.0287069-.0236992-.0709641-.0808469-.0780975-.084691-.0939166-.0969613-.1022753-.099749-.5131797-.5384023.1269217.2109989-.0075704-.0060938c-.2530656-.1877272-.5034248-.3202909-.7463398-.3796199l-.0706013-.0151713c-.4203985-.077792-.7822166.0831886-1.0414216.5116581l-.0318369.0552672-.5578288.6040981-1.264176 1.3760976.0073676.0621762c.0532177.4491124-.007944.5413369-.3084504.3529107l-.0839045-.0554709-.3678082-.2617799.0561333.1915749-.0555844.0057422c-.1215099.016526-.259739.0627665-.4205565.148825l-.1339873.0717009.002873.0044733-.0171944.0082645c-.1109833.0503251-.2406371.0972151-.3691846.1304084l-.0761542.0180956c-.2994023.0647555-.5350101.0376134-.6628783-.0949793l-.0060789-.0064425-.0111243-.0189793c-.0183425-.0352089-.0322326-.0790964-.0376772-.1293431l-.0025845-.0467757c-.0003758-.126681.0522049-.2689223.1775744-.426582l.0484267-.0576818.0375866-.0348156.0703911-.0760935.0951443-.1126197.2443348-.3057567.5052581-.6481649.0283894-.0745266.0066008-.0823123c.0575658-.6146202.2755563-.8521177.678695-.7828622l.034928.0069591.0143338.0082164.0538359.0174489c.9576215.1004254 1.320634-.2193323.8724727-.8700666l-.2179091-.3164062-.0067334.0838844.0419032.0473339c-.1178362-.1296553-.2495905-.2863114-.3727703-.446293-.3091591-.4015251-.518617-.7623835-.5679254-1.0108511l-.011289-.0747113-.0162599-.078255-.0161123-.0665801c-.002924-.0113648-.0059447-.022725-.0090282-.0338729-.0397377-.1436661-.094886-.286925-.1687987-.4217996l-.0402312-.0694867c-.2074217-.3391134-.5090348-.5519679-.9140569-.5730853l-.0430293-.0011498-.1822682-.088476c-.1614535-.079685-.3079536-.1583645-.4471285-.2434921-.148295-.090706-.2747572-.1810264-.3738618-.2695892l-.037663-.0238809-.0225465-.0088891-.0620277-.0202716c-.0243737-.0071325-.0524015-.0145211-.0839523-.0218084-.7313501-.1689198-1.6274143.0495122-2.5590611.944056l-.1200146.0446569-.0851325.0283684-.17368.0540347-.3029828.0884199-.4930187.1366801-.2851642.0768469-.0284342.0463659c-.212571.3466273-.3925189.3412738-.6618198-.0558679l-.082664-.1271578-.0995505.0129887-1.2952267.1013105.040638.0316347c-.921821-.7041516-1.1508182-1.473922-.7102786-2.3490777.0289049-.0356548.0642253-.082992.1035289-.1396405l.0831975-.1250094c.0580447-.0906797.1202878-.1951027.1809637-.3076486.2303439-.4272581.3538167-.823184.3163845-1.1607231l-.0112468-.1014159-.0246243-.0045827-.0158006-.06723-.0086333-.0404603c-.027332-.1324871-.0529935-.2969148-.0707934-.46281-.0461013-.4296636-.0340481-.7989172.0488979-1.0102956l.0075938-.0279927c.0462962-.2757708-.4083195-1.3919494-.8540398-1.6365979l-.0087531-.0040916-.0145105-.0269958-.0180394-.0364086c-.0987661-.2084846-.1418408-.4463664-.0804294-.6622535l.0175216-.0534143c.0983729-.2637076.3593415-.4764607.8335878-.6158688l.0694648-.0191295.025465.0048393.044976.0009323.5409521-.0767155.5151765-.0684419c.0555602-.0071094.1105593-.014054.164997-.0208336l.4747687-.0565673.2996341-.0327722.2861069-.0288258.2725585-.0248836.258989-.0209458.2453985-.0170121.2317869-.0130828.2181541-.0091577.2045004-.005237.1908255-.0013204c.0306635.0001061.0607563.0003752.0902781.0008072l.1702736.0045463c.0272355.0010833.0538991.0023294.0799903.0037381l.1496743.0104034c.1903976.0164718.344104.0433421.4608941.0805651l.0059181-.0192423.016333.0045514.0371655.0076889.0907348.0140615.1115616.0123588.1311349.010719.1494546.0091423.2557893.0108946.1897696.0054756.3103857.0056897.3375026.0028501.4848727-.0002502.2092574-.0016443.3125542-.0050507.2923974-.0081034c.0469578-.0016086.093004-.0033471.138103-.0052169l.2589404-.012805.2344879-.0160213.0823073-.0070565.1523796.0409869c.1290025.0335838.2657627.0665005.4086057.0973405.221694.047864.4375312.0862375.6412072.1118099.644395.0809065 1.0899115.0321801 1.2777588-.228818l.0528246-.0733952-.0199554-.0328931.0014455-.0048244c.0120627-.0420587.030508-.0940368.0541824-.150134.0648104-.1535703.1561258-.3104967.2733658-.4545112.3286914-.4037559.7957792-.6372881 1.4305034-.6188244.0220126.0041432.050608.0082292.0844672.0120571l.1160504.0105091.13972.0077569.1554757.0038005c.1071439.0009472.2195159-.0015459.3265645-.0090851l.0939828-.0078818c.4314207-.0422304.7614119-.161501.9434332-.3897754l.0321358-.0450685.4842643-.0652215.1875785-.0236323c.2900839-.0346646.5707105-.0618824.8340125-.079166l.2046733-.0113026.1921334-.0063712.1787126-.0016176c.028618 0 .0566402.000424.0840481.0009183l.1569292.0051797c.3234061.0159554.5367963.0622569.5998432.1307728l.0107956.0149873c-.0237792.253794.1385864.7349606.4401364.8691281l.0353754.0128964.047816.0420559.1101016.0875513.0330373.0354811c.1147472.1336295.1582282.3070799.0981607.5522985l-.0119921.0422669-.0023403.0037863c-.0743914.1049551-.1113763.3081964-.0743557.4702349l.0140067.0506476c.0752816.2300239.2891458.3704492.631134.3812548zm-13.9261378-1.0424682.0054054.0023194-.0024494.0137032c-.00007.0039435.0006329.0089342.0030145.0152983l.0084779.0167469-.0256237-.0399001-.0949896-.0292752c-.1222957-.0340734-.2732929-.0592475-.4531544-.0755554l-.1612397-.0118076c-.0280527-.0016063-.0566954-.0030319-.0859286-.0042768l-.1824889-.0053023-.1966836-.0009713-.210901.0033551-.2251412.0076771-.2394042.0119942c-.0410906.0023585-.0827764.0048968-.1250579.0076146l-.2608415.0184614-.2751615.022767-.2895043.0270681-.3038698.0313645c-.0518434.0055852-.1042863.0113492-.1573291.017292l-.325461.0378004-.3398835.0420853-.3543288.0463656-.5586282.0775637-.1611899.0230351-.0342933-.0061609-.059302.0019493c-.6571982.1692681-1.0269913.4772492-1.1431918.8857438-.0826059.290395-.0281731.5910021.0973767.8559578l.033621.0659457.0329027.05463.0239209.0290274.0241016.0182673.0148371.0093189c.0090608.0054496.0167146.0093045.0270376.0111539l-.0210292-.0103272c.1738606.0685121.3780385.4024754.5289042.7196973l.0655404.1441937.0561423.135651.0449171.1209428c.0386954.1115336.0578122.191757.0491285.2129261l-.0177073.0506041c-.1331987.4263392-.0651382 1.3541669.0760477 1.727557l.015907.0390988-.0100179.0012121c.0522515.4711707-.2897752 1.105586-.6423306 1.5577269-.5021003.9918156-.2619996 1.8777221.685961 2.6419749l.129514.100756 1.3421493-.1050608.0348594.0486973c.3401547.4556701.7055085.4963277 1.0072741.0929965l.040636-.0586737.5920909-.162131.3274084-.0943055.2468561-.0759998.0876531-.0292114.095957-.0345737c.0803175-.0310878.1173599-.0543668.1439193-.093678.8443081-.8064677 1.645732-1.0018294 2.2901403-.8529905l.065228.0167795.0402206.0125994-.0196592-.0169257c.1128533.1008491.2520875.2002913.4132992.2988979.1104012.067528.2242395.130725.3452292.1931304l.2008563.1001919-.0437957.0808555.2331999-.0026382c.362327-.004099.6179228.1806274.7943236.5025203l.0289251.0584226.0297473.069661.0295608.0767445.0283659.0796728.0491127.1515108.0261965.0904171.013296.0549363c.0019037.0108406.00109.0134305-.0030083.0054325l-.0127445-.0308056c.0274638.2814201.2623329.6969275.623046 1.1654091.1278415.1660361.2643547.3283505.387043.4633445l.0706931.0762452.0744657.0755015.0292666.0262819.0120857.0180442.0446653.0735947c.1492066.267766.0424669.3717049-.4178097.3520158l-.1281561-.0079143-.1164814-.0108956-.0075685-.0041943-.0376787-.0147659-.0658903-.0133407c-.5840429-.1026297-.9255768.2646255-.9989783 1.0288334l-.003835.0441424-.5714865.7277722-.2129879.2620932-.0772979.0893962-.0073504-.0003172-.0446678.0501429c-.2294936.2576234-.3182188.5111226-.2929768.7440752.0092345.0852225.0334162.1616276.0669561.2260084l.0199336.0349255.0275801.0386953.0250368.02533.0035896.0024963-.0133588-.0126886c.2253054.23363.5824142.2604288 1.0036377.1516613.1445401-.0373229.2889073-.089534.413645-.1460961.0508524-.0230589.0957333-.0457207.129094-.0649938l.0446083-.0288263.0122288-.0101397-.0215665.0115955c.1901319-.1017456.3239741-.1310742.4277165-.1223876l.0455597.0065311c.0029639.0006043.0063339.0013138.013281.0029218l.0240223.0163939c.5347727.3555747.8539603.1865557.8232027-.4250884l-.004941-.0699379 1.6319497-1.7742143.0231418.0562023.1117657-.206809c.2158812-.3994623.4952312-.5215794.8495051-.4350523.2550424.0622909.5371302.2310294.8254759.4740526.1347551.1135742.2615571.2354776.3772052.358004l.1453651.1615461.0436591.039327c.3237891.2504076 1.3478521.3329608 1.6893614.2547393l.0422632-.0121244.3650449-.0266996.0997265-.0053524.123531-.0034305.0651617.0010951c.0097228.000423.0188784.0009693.0274696.0016435l.0447936.0056147c.0761216.0144415.0716972.0485897-.0088254.1102591l-.0465822.0331643-.0933837.0588217-.1212256.0703632-.2627809.1449095-.0318889.0239581-.259495.2624449-.014622.0096735c-.5792438.2700967-.8533662.5274682-.8188072.8001568.0257557.2032263.2003992.3399911.4966087.4627908l.0994255.0389233.1174056.0412066.2671209.0865923c.0093521.0025839.0142088.0036014.0133233.0026454l.0746533.0413238c.2540916.0482032.3691404.1760943.3951299.3676106.0068832.0507223.0052217.1085099.0003706.1599894l-.0089994.0708163-.0097674.051324c-.0029376.0127448-.0053337.0205692-.0065191.0218014l-.0330045.0576216c-.0890547.3164676-.0884133.529084-.0300224.7156268l.0212812.0651942c.001505.0037941.002848.0066824.0041555.0089116l-.0193159.0606181.0589257.0587204c.4462602.4447049 1.1364092.3392018 1.955656-.1238095.277042-.156575.5516553-.3455542.8027476-.5428903l.0665563-.0529822.1198002-.0991776.09792-.0863607.0335684-.0345627c.1573929-.1556251.4244755-.2272742.7591752-.2267986.1923295.0002733.3855188.0246143.5131545.0511274l.0642635.014184.0780595-.0092729.0932368-.0405788c.9970388-.4489868 1.1836082-.9039306.6201069-1.2131255l-.0506167-.0259835c-.2424515-.1169581-.6457549-.2165973-.8863214-.2312456l-.0736695-.0017179.0019175-.010594c-1.0490297-.1576977-1.3263173-.4944261-1.1134428-.9931406.0891247-.2087982.2604859-.4384267.4924817-.6779614.0962531-.0993809.19593-.1936103.302635-.2880775l.2887877-.2476895.0069633-.0081001.0525962-.0403068c.1523084-.114091.27337-.1784956.3622416-.2037186l.0092275-.0026964.0414128.0449063c.2974884.3058657.6192569.2902399.8938351-.0500506l.008765-.0120054 1.1377831-.3218554.2767046-.0830701.1978095-.0649347.060049-.0219716.0723287-.0296296.0498072-.0249903-.0138726.0041479c.6578778-.1472035.9882699-1.1643598.8551714-1.5005189-.0228938-.1481816.0294608-.2435718.1446482-.3047357.0242606-.0128822.0501459-.0234328.0773312-.032069l.0548679-.0146055.0340018-.0067248-.0278322-.0020029c.6400936.072065.8915297-.5746579.889495-1.6880447l-.0033931-.2075202c-.0009851-.035425-.0021956-.0712645-.0036278-.1075115-.0143254-.3625583-.0509944-.7491034-.1034157-1.1414132l-.0441582-.3079909-.0541352-.3316653-.0417723-.2267843c-.0020084-.0098906-.0038251-.0185623-.0054282-.0259112.0010994-.1603369-.0098816-.3282496-.0291348-.4927078l-.0218695-.1628981-.0265381-.158144c-.0142951-.0774748-.0300236-.1522477-.0467094-.2229398l-.034507-.1355345c-.0650857-.2370068-.1387756-.4067915-.1976035-.4413852l-.0671303-.0188102c-.1698497-.0025156-.3004224-.0748714-.397993-.1944373l-.0322905-.0433066c-.0131986-.0194076-.024806-.0388446-.0346053-.0575756l-.0166911-.0350316-.0041902-.0223999c-.0488452-.2649035-.2407896-.4239192-.5133535-.4962565-.1187182-.0315073-.2373072-.0438973-.3514801-.0446405l-.1582529.0032349-.7714928-.0008111-.0102387-.0153456c-.1682743-.2243248-.5352791-.389189-1.1038291-.5131424l-.1163982-.0242507c-.3384683-.0181655-.504618-.2037611-.5738146-.5305173-.01387-.0654958-.022616-.1393326-.0276304-.2114158l-.0048967-.1055478c-.0004077-.0169515-.0006257-.0334779-.0006757-.0494216l.0015418-.087407c.0016047-.038945.0043295-.0698059.0075872-.0883242l.0114748-.0565699c.0150345-.5071805-.2957092-.8019377-.7939234-.9186214-.2242746-.0525259-.4531947-.0635755-.6689543-.05226l-.0542654.003296c-.2896719.0063651-.4159178-.0780213-.4484049-.2202174-.0072903-.0319093-.0083607-.0686586-.0065884-.1034481l.0063342-.0649511.0113946-.0658678.039474-.0269752.013998-.0457157c.1238898-.4046092.0400633-.7103794-.1807772-.9298604l-.0482024-.0446885-.0502961-.0405626-.0681671-.0484483-.0051335-.0334538-.083785-.0240882c-.1850029-.0531883-.3230969-.485073-.2966882-.6147263l-.0010039-.0589878c-.0727164-.3037511-.5248359-.3995286-1.302044-.3780593l-.2010432.0077574-.2144.0123278c-.2686084.0176319-.553931.0453052-.8485148.0805075l-.5576407.0739358-.1476487.0231109c-.0084814.0016607-.0117641.0026459-.0089879.0028267l-.087794-.0057177-.0414232.0776182c-.1105742.207192-.4294616.3264914-.8846946.3585523-.0993132.0069944-.2040533.0092773-.3044062.0083558l-.146012-.0035969-.1320704-.0072729c-.020441-.0014557-.0399944-.0030175-.0585068-.0046617l-.0973568-.0106673c-.0137353-.0018801-.026123-.0037956-.0370096-.005723-.743053-.0230697-1.2896036.2501919-1.6698394.7172636l-.0445167.0568889c-.1604229.213059-.288405.4713639-.3315897.6467152l-.008679.039529.0130657-.0145045c-.104059.1445812-.4794892.1856422-1.0223254.1174869-.1950178-.0244853-.4032099-.0614996-.6176171-.1077904-.0925703-.0199861-.1825813-.0408859-.2694867-.0622786l-.303558-.0797738-.0454514-.003438c-.1015914.0094092-.2134953.0176235-.3346794.0246706l-.2544362.012546c-.0443664.0018344-.0896874.003541-.1359249.0051211l-.2881164.0079686-.308276.0049781-.2084124.0016376c-.398038.0019169-.818824-.0028553-1.1981412-.0124629l-.4007833-.0125937-.225251-.0100752z" fill="#ffd000" fill-rule="nonzero" mask="url(#b)"/><g mask="url(#b)"><g transform="translate(16.297211 -3.9025)"><g fill-rule="evenodd"><path d="m.95278931 5.90072384h13.49999999c-2.5639089 3.2232666-4.81390889 4.83489986-6.74999999 4.83489986-1.93609111 0-4.18609111-1.61163326-6.75-4.83489986z" fill="#958000"/><path d="m.18754541 4.28174159h15.21803319v1.4817392c-2.5363389.71142314-5.0726777 1.06713471-7.60901659 1.06713471-2.53633887 0-5.07267773-.35571157-7.6090166-1.06713471z" fill="#025993"/><path d="m.18754541 3.66237518h15.21803319v1.4817392c-2.5363389.71142314-5.0726777 1.06713471-7.60901659 1.06713471-2.53633887 0-5.07267773-.35571157-7.6090166-1.06713471z" fill="#b99e00"/><path d="m0 3.11235702h15.4055786v1.5c-2.5675964.72019064-5.1351929 1.08028596-7.70278929 1.08028596-2.56759644 0-5.13519287-.36009532-7.70278931-1.08028596z" fill="#025993"/></g><path d="m7.72790084 0c4.24026436 0 7.67767776 2.35050506 7.67767776 5.25 0 1.3144377-1.1833861 2.77545777-3.5501582 4.3830602l-.4299499.28521616c-.0737058.04778963-.1484351.09570604-.2241882.14374934l-.4668028.289781c-.0798479.0485504-.1607194.0972276-.2426147.1460317l-.50365562.2943458c-.17197998.0986225-.34805473.1977522-.52822423.2973891l-.5527928.3004324c-.09417952.0503256-.18938272.1007781-.28560962.1513573l-.58964565.3049972c-.10032166.0510865-.201667.1022997-.30403604.1536398l-.60192994-.3065188c-.19654855-.1016657-.38900234-.2028242-.57736136-.3034755l-.5527928-.3004324c-.18016951-.0996369-.35624425-.1987666-.52822423-.2973891l-.50365567-.2943458-.47908709-.2913026c-.15560094-.0965937-.30710711-.1926802-.45451852-.28825944l-.42994996-.28521616c-2.36677213-1.60760243-3.5501582-3.0686225-3.5501582-4.3830602 0-2.89949494 3.43741342-5.25 7.67767777-5.25zm0 1.5c-3.50623917 0-6.17767777 1.82673109-6.17767777 3.75 0 .62627864.68519876 1.50802077 2.08143654 2.56368277l.33484247.24666453c.05791467.04161294.1168841.08347388.17690979.12557818l.37284077.25550898c.06425654.04305917.12957226.08635243.19594863.12987513l.41099786.26385237.43652413.26913625c.07488513.045284.15083679.09077887.22785646.13647999l.47494585.27664454.50064854.28137168.52642179.28587618.4384041.2300794.43834514-.2301539.52668051-.28602157c.08562813-.04730068.17018127-.09441349.25366089-.14133375l.48800724-.27917403c.15838284-.0922631.31248338-.18371888.4623134-.27433019l.43669022-.2692633.4111378-.26397337c.0663975-.04354234.1317333-.08685498.1960088-.12993326l.3729416-.25562028.3475658-.24977275.3222607-.24370218.2970263-.23740856c1.0429196-.85868719 1.5783705-1.58595523 1.6220317-2.13232623l.0029085-.07173663c0-1.92326891-2.6714386-3.75-6.17767776-3.75z" fill="#0078c9" fill-rule="nonzero"/><path d="m7.72790084 0c4.24026436 0 7.67767776 2.35050506 7.67767776 5.25 0 1.3144377-1.1833861 2.77545777-3.5501582 4.3830602l-.4299499.28521616c-.0737058.04778963-.1484351.09570604-.2241882.14374934l-.4668028.289781c-.0798479.0485504-.1607194.0972276-.2426147.1460317l-.50365562.2943458c-.17197998.0986225-.34805473.1977522-.52822423.2973891l-.5527928.3004324c-.09417952.0503256-.18938272.1007781-.28560962.1513573l-.58964565.3049972c-.10032166.0510865-.201667.1022997-.30403604.1536398l-.60192994-.3065188c-.19654855-.1016657-.38900234-.2028242-.57736136-.3034755l-.5527928-.3004324c-.18016951-.0996369-.35624425-.1987666-.52822423-.2973891l-.50365567-.2943458-.47908709-.2913026c-.15560094-.0965937-.30710711-.1926802-.45451852-.28825944l-.42994996-.28521616c-2.36677213-1.60760243-3.5501582-3.0686225-3.5501582-4.3830602 0-2.89949494 3.43741342-5.25 7.67767777-5.25zm0 1.05c-3.72644672 0-6.62767777 1.98386328-6.62767777 4.2 0 .91417217 1.03585158 2.12958802 3.13907902 3.54676696l.40687116.26806117c.13979828.09012567.2837737.18101519.43193395.27264428l.45704293.27708165c.07826881.04654196.15758574.09326274.23795177.1401593l.49479298.28346444c.08456625.0475876.17018352.0953448.25685276.1432688l.53264694.2895194c.09088101.0485785.18281593.0973176.27580571.1462143l.39404971.2045697.39535139-.2045697.54528801-.2914649c.17754833-.0965085.3508849-.1923625.5200174-.2875376l.49479299-.28346444c.16073205-.09379313.31726773-.18688312.46961471-.27924569l.4444827-.27488118c.0719887-.04544172.1429321-.09069552.2128312-.13575836l.4068712-.26806117c.3943551-.26572105.7511853-.52434887 1.0706984-.7752277l.3070818-.24827154c.147329-.12281999.2853461-.24364808.4140772-.36240231l.2450885-.23471902c.6981679-.69571589 1.0626635-1.31480544 1.0990974-1.83956324l.0030357-.08658315c0-2.21613672-2.901231-4.2-6.62767776-4.2z" fill="#ffda00" fill-rule="nonzero"/><path d="m7.72790084 0c4.24026436 0 7.67767776 2.35050506 7.67767776 5.25 0 1.3144377-1.1833861 2.77545777-3.5501582 4.3830602l-.4299499.28521616c-.0737058.04778963-.1484351.09570604-.2241882.14374934l-.4668028.289781c-.0798479.0485504-.1607194.0972276-.2426147.1460317l-.50365562.2943458c-.17197998.0986225-.34805473.1977522-.52822423.2973891l-.5527928.3004324c-.09417952.0503256-.18938272.1007781-.28560962.1513573l-.58964565.3049972c-.10032166.0510865-.201667.1022997-.30403604.1536398l-.60192994-.3065188c-.19654855-.1016657-.38900234-.2028242-.57736136-.3034755l-.5527928-.3004324c-.18016951-.0996369-.35624425-.1987666-.52822423-.2973891l-.50365567-.2943458-.47908709-.2913026c-.15560094-.0965937-.30710711-.1926802-.45451852-.28825944l-.42994996-.28521616c-2.36677213-1.60760243-3.5501582-3.0686225-3.5501582-4.3830602 0-2.89949494 3.43741342-5.25 7.67767777-5.25zm0 .6c-3.94665428 0-7.07767777 2.14099547-7.07767777 4.65 0 1.21722696 1.38474851 2.73275559 4.1804212 4.46398381l.46572395.28261739c.07968329.0474137.16039823.0949816.24214534.1427023l.50287293.2881427c.25763364.1449744.52456615.2912934.80081148.438913l.5649119.2969604.32089013.1639304.02891529-.014174c.20086365-.1022944.39739988-.2040057.5896131-.3051201l.56367503-.3015385c.27535741-.1498599.54099797-.2983453.79693656-.4454093l.49894562-.29221893.4731002-.28834501c.1533954-.09546007.3024877-.19026058.4472812-.2843876l.4214886-.2803467c2.111106-1.43787518 3.1904951-2.71060283 3.254588-3.76636372l.003035-.09934614c0-2.50900453-3.1310235-4.65-7.07767776-4.65z" fill="#0078c9" fill-rule="nonzero"/></g></g><g mask="url(#b)"><g transform="translate(21.297426 14.234863)"><path d="m.70634124.93100154-.00000672 3.20229977.00055706.00609518c.04798476.51442964.24180602.88891028.5828379 1.14083197l.01048574.00767362c.35992294.2609399.89289846.39709596 1.60228514.39979298l.02341255.00006183.02543121.00068891.01585784.00031915.01633411.00021966.01680329.00011622.01726532.00000882.01772027-.00010255.01816808-.00021786c.00306494-.00004615.00614824-.00009726.00924975-.00015342l.01882647-.00039828c.00317378-.0000767.00636547-.00015862.00957494-.00024584l.01946884-.00058759.01988821-.00071875c.00334925-.00013094.00671568-.00026751.01009914-.00040979l.02050389-.00092291.02090547-.00106397.02129993-.00120898.02168726-.00135796c.00364642-.00023896.00730869-.0004843.01098666-.00073609l.02225493-.00158884.02262448-.00174772.02298692-.00191056.02334223-.00207735c.00391959-.00036034.00785369-.0007278.01180214-.00110245l.02386188-.00233496c.24589219-.02478836.48781171-.07268356.71164859-.1484369.30950656-.10474663.56285677-.25574688.74402435-.45706702.20801033-.23114878.3209594-.52803607.32319759-.90942637l.00003392-.01158317v-3.21270878h.46389183v3.21270878c0 .50051957-.15481314.91185381-.44229776 1.23131738-.23986497.26654685-.56064461.45773598-.94014001.586169-.25996147.08797903-.53540819.14251193-.81382946.17057954l-.01285282.0012774-.02545522.00242143-.02511672.00224672-.02477267.00207577-.02442309.00190857-.02406795.00174514c-.00398143.00027744-.00794782.00054823-.01189907.00081245l-.02352488.00150701-.02315589.00135296-.02278136.00120265-.0224013.00105612-.02201569.00091332-.02162454.00077429-.02122785.000639-.02082562.00050748c-.00343711.00007383-.00685723.00014233-.01026024.00020559l-.02021188.00031723c-.00333412.00004259-.00665091.00008009-.00995025.00011258l-.01958567.00015921c-.00322906 0-.00644044 0-.00963403 0l-.02825856-.00009871c-.00308575-.00002482-.00615336-.00005419-.0092027-.00008802l-.01807603-.00025593-.01763223-.0003593-.02099188-.00061482-.04438912-.0001679c-1.59375005-.01314967-2.49987845-.67051206-2.62804517-1.94830099l-.00368036-.03930976-.00087303-.01003375v-3.22278044z" fill="#2a6db3" fill-rule="nonzero"/><path d="m1.73757195 4.1442207.13685435.45635064c-.92729625.27808556-1.38872264.99626059-1.39785843 2.21526981l-.00009802.02334123.00108475.00633404c.00014959.00081959.00030531.00165368.00046715.00250098l.00076944.00389752c.00289204.01419289.00672661.02819546.01119792.04050578l.00187693.00496129h4.86173687l.00099654-.00094364c.012767-.01257897.01673079-.02487983.01705134-.04124671l.00003998-.00383067.00023958-.0069949.00151713-.03139683.00056722-.01586467.00044344-.01630632c.00006335-.00275409.00012136-.00552626.00017394-.00831635l.00024955-.01695427c.00006097-.00572223.00009949-.01151485.00011482-.01737656l-.00002429-.01779111c-.00003177-.0059986-.00008746-.01206501-.00016779-.01819792l-.00031566-.01859701-.00046792-.01898833c-.00009092-.0031969-.00018837-.00640979-.00029243-.0096385l-.00070452-.01956082c-.0001309-.00329135-.0002686-.0065982-.00041319-.00992039l-.00095097-.0201159c-.00017252-.0033829-.00035212-.00678081-.00053888-.01019357l-.00120729-.02065356c-.00021579-.00347154-.00043893-.00695761-.0006695-.01045805l-.00147346-.02117381-.00165638-.02151096c-.00029155-.00361282-.0005909-.00723938-.00089816-.01087949l-.00193897-.02200218c-.00237439-.02585611-.0051446-.05236107-.00834194-.07945957l-.00284591-.02337136c-.000492-.00391903-.00099289-.00784984-.00150278-.01179228-.03315448-.25635048-.09859157-.50821353-.20301003-.74166367-.21627448-.48352856-.57572124-.83988048-1.11741902-1.02856801l-.01647091-.00566644.15326446-.45110424c.6831641.23210772 1.14540848.68689042 1.41553269 1.29081174.12488557.2792088.20183705.57538998.24059696.87508171.0075468.05835187.01340647.11464677.01778851.16857885l.00191832.02472284c.00030249.00409214.00059642.00817002.0008819.0122335l.00161214.02420699.00141375.02385474.00121992.0234958c.00018743.00388568.00036696.00775613.00053871.01161121l.00093778.02294487c.00014097.00379302.00027434.0075704.00040021.01133198l.00066592.0223789.00049042.02199323c.00020209.01089909.00034008.02165105.00041655.03225212l.00007166.02099983c0 .01039822-.00006866.02064303-.00019013.0307307l-.00031849.01996467c-.00019664.00987646-.00044879.01959326-.00075389.02914663l-.00068003.01888776-.00062925.01423271-.00082818.01500659-.00008171.00490415c-.00455847.20502096-.11482054.3709028-.30465212.47564334l-.00615117.0033575-.05297554.02860449h-5.03329233c-.10459246 0-.19815345-.03839014-.27180128-.10543259-.05430658-.04943589-.09375693-.10992989-.1230008-.17814679-.01865318-.0435121-.03317796-.09197945-.04276789-.13595756l-.002605-.01243486-.00233225-.01214159-.00205533-.01179938c-.0041502-.02515924-.00632096-.04756401-.00632096-.0649738 0-1.42456505.5722369-2.34420016 1.70313143-2.69816062z" fill="#2a6db3" fill-rule="nonzero"/><circle cx="2.924051" cy="6.642341" fill="#fff" fill-rule="evenodd" r="1.165998"/><g fill="#2a6db3"><path d="m2.92405093 5.38231087c.69589564 0 1.26003052.56413488 1.26003052 1.26003052 0 .69589565-.56413488 1.26003052-1.26003052 1.26003052s-1.26003052-.56413487-1.26003052-1.26003052c0-.69589564.56413488-1.26003052 1.26003052-1.26003052zm0 .38866613c-.48124127 0-.87136439.39012313-.87136439.87136439 0 .48124127.39012312.87136439.87136439.87136439.48124126 0 .87136439-.39012312.87136439-.87136439 0-.48124126-.39012313-.87136439-.87136439-.87136439z" fill-rule="nonzero"/><path d="m1.98781906 5.62853302c.47468267-.9199803.71202401-1.71873099.71202401-2.39625207 0-.00847269-.06494094-1.56269643-.11469961-2.25020842.0033548-.00582803-.06919362-.61622878.34049099-.98207253.01058678.00455468.36888837.32546381.33245092.98207253-.00526482.00198349-.10877362 1.82307238-.11139379 2.25020842.00022039.00389352-.09381174.81870395.68295731 2.36101451-.01023579.00396698.00728096.0575355.05255024.16070556l-.42405061-.05420927-.53251407-1.21578155-.60730715 1.26999082z" fill-rule="evenodd"/></g></g></g></g></svg>